<?xml version="1.0" encoding="UTF-8"?>
<svg id="Ebene_1" data-name="Ebene 1" xmlns="http://www.w3.org/2000/svg" xmlns:xlink="http://www.w3.org/1999/xlink" viewBox="0 0 662.22 662.22">
  <defs>
    <style>
      .cls-1 {
        fill: url(#Unbenannter_Verlauf_78);
      }

      .cls-2 {
        fill: #fff;
      }

      .cls-3 {
        fill: none;
      }
    </style>
    <linearGradient id="Unbenannter_Verlauf_78" data-name="Unbenannter Verlauf 78" x1="-4.06" y1="329.43" x2="658.17" y2="329.43" gradientTransform="translate(332.79 -133.09) rotate(45)" gradientUnits="userSpaceOnUse">
      <stop offset="0" stop-color="#004e9e"/>
      <stop offset=".27" stop-color="#075ca7"/>
      <stop offset=".78" stop-color="#1a81be"/>
      <stop offset="1" stop-color="#2494ca"/>
      <stop offset="1" stop-color="#2494ca"/>
    </linearGradient>
  </defs>
  <circle class="cls-1" cx="331.11" cy="331.11" r="331.11"/>
  <path class="cls-2" d="M331.11,27.34c39.46,0,77.92,7.48,114.31,22.24,37.68,15.28,71.49,37.73,100.49,66.73,29,29,51.45,62.81,66.73,100.49,14.76,36.4,22.24,74.86,22.24,114.31s-7.48,77.92-22.24,114.31c-15.28,37.68-37.73,71.49-66.73,100.49-29,29-62.81,51.45-100.49,66.73-36.4,14.76-74.86,22.24-114.31,22.24s-77.92-7.48-114.31-22.24c-37.68-15.28-71.49-37.73-100.49-66.73-29-29-51.45-62.81-66.73-100.49-14.76-36.4-22.24-74.86-22.24-114.31s7.48-77.92,22.24-114.31c15.28-37.68,37.73-71.49,66.73-100.49,29-29,62.81-51.45,100.49-66.73,36.4-14.76,74.86-22.24,114.31-22.24M331.11,23.34c-78.77,0-157.53,30.05-217.63,90.15-120.19,120.19-120.19,315.07,0,435.26,60.1,60.1,138.86,90.15,217.63,90.15s157.53-30.05,217.63-90.15c120.19-120.19,120.19-315.07,0-435.26-60.1-60.1-138.86-90.15-217.63-90.15h0Z"/>
  <g>
    <rect class="cls-3" x="23.17" y="249" width="607.78" height="164.22"/>
    <path class="cls-2" d="M143.08,275.42h-4.62v-24.19h4.62v24.19Z"/>
    <path class="cls-2" d="M163.66,262.02v13.41h-4.48v-12.71c0-2.31-.88-2.98-2.28-2.98-1.61,0-2.8,1.08-3.89,2.8v12.88h-4.48v-18.52h3.89l.35,2.42c1.44-1.86,3.29-2.94,5.64-2.94,3.33,0,5.25,2.1,5.25,5.64Z"/>
    <path class="cls-2" d="M192.6,267.55h-11.62c.35,3.78,2.1,5.01,4.55,5.01,1.65,0,3.01-.53,4.62-1.65l1.86,2.56c-1.82,1.47-4.06,2.48-6.86,2.48-5.74,0-8.82-3.82-8.82-9.66s2.98-9.91,8.23-9.91,8.16,3.5,8.16,9.35c0,.59-.07,1.33-.1,1.82ZM188.26,264.43c0-3.05-1.08-4.87-3.61-4.87-2.1,0-3.43,1.4-3.68,5.08h7.28v-.21Z"/>
    <path class="cls-2" d="M201.7,250.26c0,1.5-1.16,2.7-2.84,2.7s-2.8-1.19-2.8-2.7,1.16-2.73,2.8-2.73,2.84,1.19,2.84,2.73ZM201.14,275.42h-4.48v-18.52h4.48v18.52Z"/>
    <path class="cls-2" d="M221.51,262.02v13.41h-4.48v-12.71c0-2.31-.88-2.98-2.28-2.98-1.61,0-2.8,1.08-3.89,2.8v12.88h-4.48v-18.52h3.89l.35,2.42c1.44-1.86,3.29-2.94,5.64-2.94,3.33,0,5.25,2.1,5.25,5.64Z"/>
    <path class="cls-2" d="M241.71,267.55h-11.62c.35,3.78,2.1,5.01,4.55,5.01,1.65,0,3.01-.53,4.62-1.65l1.86,2.56c-1.82,1.47-4.06,2.48-6.86,2.48-5.74,0-8.82-3.82-8.82-9.66s2.98-9.91,8.23-9.91,8.16,3.5,8.16,9.35c0,.59-.07,1.33-.1,1.82ZM237.37,264.43c0-3.05-1.08-4.87-3.61-4.87-2.1,0-3.43,1.4-3.68,5.08h7.28v-.21Z"/>
    <path class="cls-2" d="M270.31,262.02v13.41h-4.48v-12.71c0-2.31-.91-2.98-2.03-2.98-1.54,0-2.49,1.08-3.5,2.8v12.88h-4.48v-12.71c0-2.31-.95-2.98-2.03-2.98-1.58,0-2.52,1.08-3.54,2.8v12.88h-4.48v-18.52h3.89l.35,2.42c1.33-1.86,3.01-2.94,5.36-2.94,2.17,0,3.78,1.16,4.48,3.12,1.4-1.93,3.12-3.12,5.57-3.12,2.94,0,4.9,2.14,4.9,5.64Z"/>
    <path class="cls-2" d="M296.2,260.13l-8.96,11.8h9.14l-.46,3.5h-13.83v-3.22l9-11.8h-8.23v-3.5h13.34v3.22Z"/>
    <path class="cls-2" d="M318.29,275.42h-5.6l-2.8-14.53-2.87,14.53h-5.5l-4.1-18.52h4.48l2.59,15.23,3.22-15.23h4.59l2.94,15.23,2.77-15.23h4.31l-4.03,18.52Z"/>
    <path class="cls-2" d="M340.48,267.55h-11.62c.35,3.78,2.1,5.01,4.55,5.01,1.65,0,3.01-.53,4.62-1.65l1.86,2.56c-1.82,1.47-4.06,2.48-6.86,2.48-5.74,0-8.82-3.82-8.82-9.66s2.98-9.91,8.23-9.91,8.16,3.5,8.16,9.35c0,.59-.07,1.33-.1,1.82ZM336.14,264.43c0-3.05-1.08-4.87-3.61-4.87-2.1,0-3.43,1.4-3.68,5.08h7.28v-.21Z"/>
    <path class="cls-2" d="M349.58,250.26c0,1.5-1.16,2.7-2.84,2.7s-2.8-1.19-2.8-2.7,1.16-2.73,2.8-2.73,2.84,1.19,2.84,2.73ZM349.02,275.42h-4.48v-18.52h4.48v18.52Z"/>
    <path class="cls-2" d="M364.94,274.55c-1.33.94-3.01,1.4-4.66,1.4-3.64-.03-5.57-2.1-5.57-6.06v-9.77h-2.91v-3.22h2.91v-4.1l4.48-.52v4.62h4.31l-.46,3.22h-3.85v9.66c0,1.82.6,2.56,1.96,2.56.7,0,1.4-.21,2.21-.67l1.58,2.87Z"/>
    <path class="cls-2" d="M381.95,267.55h-11.62c.35,3.78,2.1,5.01,4.55,5.01,1.65,0,3.01-.53,4.62-1.65l1.86,2.56c-1.82,1.47-4.06,2.48-6.86,2.48-5.74,0-8.82-3.82-8.82-9.66s2.98-9.91,8.23-9.91,8.16,3.5,8.16,9.35c0,.59-.07,1.33-.1,1.82ZM377.61,264.43c0-3.05-1.08-4.87-3.61-4.87-2.1,0-3.43,1.4-3.68,5.08h7.28v-.21Z"/>
    <path class="cls-2" d="M401.13,262.02v13.41h-4.48v-12.71c0-2.31-.88-2.98-2.28-2.98-1.61,0-2.8,1.08-3.89,2.8v12.88h-4.48v-18.52h3.89l.35,2.42c1.44-1.86,3.29-2.94,5.64-2.94,3.33,0,5.25,2.1,5.25,5.64Z"/>
    <path class="cls-2" d="M430.08,253.69l-2.27,2.63c-1.75-1.44-3.43-2.07-5.43-2.07-2.17,0-3.75.98-3.75,2.87,0,1.75.95,2.52,4.97,3.78,4.24,1.33,7.18,3.08,7.18,7.63s-3.4,7.42-9.17,7.42c-3.85,0-6.72-1.36-8.72-3.33l2.38-2.66c1.79,1.5,3.71,2.42,6.23,2.42s4.45-1.26,4.45-3.61c0-2.03-1.02-2.94-4.8-4.1-5.08-1.58-7.28-3.61-7.28-7.28,0-4.03,3.47-6.69,8.23-6.69,3.54,0,5.88,1.05,7.98,2.98Z"/>
    <path class="cls-2" d="M448.07,258.55l-2,2.7c-1.23-.91-2.35-1.33-3.75-1.33-2.59,0-4.17,1.89-4.17,6.34s1.65,6.06,4.17,6.06c1.4,0,2.38-.46,3.75-1.33l2,2.83c-1.68,1.37-3.61,2.14-5.99,2.14-5.36,0-8.68-3.71-8.68-9.63s3.33-9.94,8.65-9.94c2.42,0,4.27.67,6.02,2.17Z"/>
    <path class="cls-2" d="M466.37,262.02v13.41h-4.48v-12.71c0-2.31-.91-2.98-2.28-2.98-1.58,0-2.8,1.08-3.89,2.77v12.92h-4.48v-25.9l4.48-.46v10.05c1.44-1.75,3.15-2.73,5.39-2.73,3.29,0,5.25,2.14,5.25,5.64Z"/>
    <path class="cls-2" d="M482.4,256.66l-.77,4.34c-.56-.14-.98-.21-1.65-.21-2.24,0-3.4,1.65-4.1,4.76v9.87h-4.48v-18.52h3.89l.42,3.64c.88-2.66,2.66-4.13,4.83-4.13.67,0,1.26.07,1.85.25Z"/>
    <path class="cls-2" d="M490.17,250.26c0,1.5-1.16,2.7-2.84,2.7s-2.8-1.19-2.8-2.7,1.16-2.73,2.8-2.73,2.84,1.19,2.84,2.73ZM489.61,275.42h-4.48v-18.52h4.48v18.52Z"/>
    <path class="cls-2" d="M505.54,274.55c-1.33.94-3.01,1.4-4.66,1.4-3.64-.03-5.57-2.1-5.57-6.06v-9.77h-2.91v-3.22h2.91v-4.1l4.48-.52v4.62h4.31l-.46,3.22h-3.85v9.66c0,1.82.59,2.56,1.96,2.56.7,0,1.4-.21,2.21-.67l1.58,2.87Z"/>
    <path class="cls-2" d="M518.66,274.55c-1.33.94-3.01,1.4-4.66,1.4-3.64-.03-5.57-2.1-5.57-6.06v-9.77h-2.91v-3.22h2.91v-4.1l4.48-.52v4.62h4.31l-.46,3.22h-3.85v9.66c0,1.82.59,2.56,1.96,2.56.7,0,1.4-.21,2.21-.67l1.58,2.87Z"/>
    <path class="cls-2" d="M174.37,300.59l-1.75,2.63c-1.54-.98-3.01-1.51-4.66-1.51-1.79,0-2.8.74-2.8,1.86,0,1.23.74,1.79,3.89,2.66,3.78,1.02,5.92,2.56,5.92,5.85,0,3.85-3.57,5.88-7.81,5.88-3.19,0-5.67-1.08-7.39-2.62l2.24-2.52c1.44,1.08,3.15,1.82,5.04,1.82,2,0,3.29-.84,3.29-2.24,0-1.54-.73-2.03-4.2-3.01-3.82-1.05-5.5-2.87-5.5-5.6,0-3.08,2.83-5.39,7.14-5.39,2.66,0,4.83.84,6.58,2.21Z"/>
    <path class="cls-2" d="M194.77,308.15c0,5.85-3.26,9.8-8.72,9.8s-8.72-3.71-8.72-9.8,3.26-9.77,8.75-9.77,8.68,3.71,8.68,9.77ZM182.07,308.15c0,4.45,1.37,6.41,3.99,6.41s3.99-2,3.99-6.41-1.37-6.37-3.96-6.37-4.03,2-4.03,6.37Z"/>
    <path class="cls-2" d="M198.69,313.19v-21.7l4.48-.49v22.05c0,.88.28,1.29,1.05,1.29.39,0,.74-.07,1.02-.17l.98,3.15c-.77.35-1.85.63-3.01.63-2.84,0-4.52-1.71-4.52-4.76Z"/>
    <path class="cls-2" d="M209.09,313.19v-21.7l4.48-.49v22.05c0,.88.28,1.29,1.05,1.29.39,0,.73-.07,1.02-.17l.98,3.15c-.77.35-1.85.63-3.01.63-2.84,0-4.52-1.71-4.52-4.76Z"/>
    <path class="cls-2" d="M234.67,309.55h-11.62c.35,3.78,2.1,5.01,4.55,5.01,1.65,0,3.01-.53,4.62-1.65l1.86,2.56c-1.82,1.47-4.06,2.49-6.86,2.49-5.74,0-8.82-3.82-8.82-9.66s2.98-9.91,8.23-9.91,8.16,3.5,8.16,9.35c0,.59-.07,1.33-.1,1.82ZM230.33,306.43c0-3.04-1.08-4.87-3.61-4.87-2.1,0-3.43,1.4-3.68,5.08h7.28v-.21Z"/>
    <path class="cls-2" d="M253.85,304.02v13.41h-4.48v-12.71c0-2.31-.88-2.98-2.28-2.98-1.61,0-2.8,1.08-3.89,2.8v12.88h-4.48v-18.52h3.89l.35,2.42c1.44-1.86,3.29-2.94,5.64-2.94,3.33,0,5.25,2.1,5.25,5.64Z"/>
    <path class="cls-2" d="M283.11,291.49v25.94h-3.96l-.31-2.34c-1.12,1.68-2.91,2.87-5.29,2.87-4.62,0-7.04-3.89-7.04-9.77s2.87-9.8,7.46-9.8c1.96,0,3.5.84,4.66,2v-9.38l4.48.49ZM278.63,312.17v-8.47c-.98-1.19-2.03-1.96-3.54-1.96-2.31,0-3.85,1.96-3.85,6.41,0,4.76,1.37,6.41,3.57,6.41,1.65,0,2.77-.8,3.82-2.38Z"/>
    <path class="cls-2" d="M293.4,292.26c0,1.5-1.16,2.7-2.84,2.7s-2.8-1.19-2.8-2.7,1.16-2.73,2.8-2.73,2.84,1.19,2.84,2.73ZM292.84,317.42h-4.48v-18.52h4.48v18.52Z"/>
    <path class="cls-2" d="M313.25,309.55h-11.62c.35,3.78,2.1,5.01,4.55,5.01,1.65,0,3.01-.53,4.62-1.65l1.86,2.56c-1.82,1.47-4.06,2.49-6.86,2.49-5.74,0-8.82-3.82-8.82-9.66s2.98-9.91,8.23-9.91,8.16,3.5,8.16,9.35c0,.59-.07,1.33-.1,1.82ZM308.91,306.43c0-3.04-1.08-4.87-3.61-4.87-2.1,0-3.43,1.4-3.68,5.08h7.28v-.21Z"/>
    <path class="cls-2" d="M343.21,300.94c0,5.57-4.03,8.05-9.49,8.05h-2.84v8.44h-4.62v-24.19h7.14c6.09,0,9.8,2.49,9.8,7.7ZM338.38,300.94c0-3.05-1.86-4.31-5.01-4.31h-2.49v8.89h2.49c3.08,0,5.01-1.05,5.01-4.58Z"/>
    <path class="cls-2" d="M357.03,298.66l-.77,4.34c-.56-.14-.98-.21-1.65-.21-2.24,0-3.4,1.64-4.1,4.76v9.87h-4.48v-18.52h3.89l.42,3.64c.88-2.66,2.66-4.13,4.83-4.13.67,0,1.26.07,1.85.25Z"/>
    <path class="cls-2" d="M375.37,308.15c0,5.85-3.26,9.8-8.72,9.8s-8.72-3.71-8.72-9.8,3.26-9.77,8.75-9.77,8.68,3.71,8.68,9.77ZM362.67,308.15c0,4.45,1.37,6.41,3.99,6.41s3.99-2,3.99-6.41-1.37-6.37-3.96-6.37-4.03,2-4.03,6.37Z"/>
    <path class="cls-2" d="M384.02,315.78c0,5.67-2.59,7.56-6.76,9.24l-1.44-3.25c2.42-1.12,3.71-2.07,3.71-5.71v-17.15h4.48v16.87ZM384.61,292.26c0,1.5-1.16,2.7-2.84,2.7s-2.8-1.19-2.8-2.7,1.16-2.73,2.8-2.73,2.84,1.19,2.84,2.73Z"/>
    <path class="cls-2" d="M404.42,309.55h-11.62c.35,3.78,2.1,5.01,4.55,5.01,1.65,0,3.01-.53,4.62-1.65l1.86,2.56c-1.82,1.47-4.06,2.49-6.86,2.49-5.74,0-8.82-3.82-8.82-9.66s2.98-9.91,8.23-9.91,8.16,3.5,8.16,9.35c0,.59-.07,1.33-.1,1.82ZM400.08,306.43c0-3.04-1.08-4.87-3.61-4.87-2.1,0-3.43,1.4-3.68,5.08h7.28v-.21Z"/>
    <path class="cls-2" d="M412.96,317.42h-4.48v-25.94l4.48-.49v26.43ZM417.9,307.06l6.76,10.36h-5.15l-6.37-10.12,6.2-8.4h4.73l-6.16,8.16Z"/>
    <path class="cls-2" d="M437.78,316.55c-1.33.95-3.01,1.4-4.66,1.4-3.64-.04-5.57-2.1-5.57-6.06v-9.77h-2.91v-3.22h2.91v-4.1l4.48-.52v4.62h4.31l-.46,3.22h-3.85v9.66c0,1.82.59,2.56,1.96,2.56.7,0,1.4-.21,2.21-.67l1.58,2.87Z"/>
    <path class="cls-2" d="M454.79,309.55h-11.62c.35,3.78,2.1,5.01,4.55,5.01,1.65,0,3.01-.53,4.62-1.65l1.86,2.56c-1.82,1.47-4.06,2.49-6.86,2.49-5.74,0-8.82-3.82-8.82-9.66s2.98-9.91,8.23-9.91,8.16,3.5,8.16,9.35c0,.59-.07,1.33-.1,1.82ZM450.45,306.43c0-3.04-1.08-4.87-3.61-4.87-2.1,0-3.43,1.4-3.68,5.08h7.28v-.21Z"/>
    <path class="cls-2" d="M472.64,292.26c0,1.5-1.16,2.7-2.84,2.7s-2.8-1.19-2.8-2.7,1.16-2.73,2.8-2.73,2.84,1.19,2.84,2.73ZM472.08,317.42h-4.48v-18.52h4.48v18.52Z"/>
    <path class="cls-2" d="M492.45,304.02v13.41h-4.48v-12.71c0-2.31-.88-2.98-2.28-2.98-1.61,0-2.8,1.08-3.89,2.8v12.88h-4.48v-18.52h3.89l.35,2.42c1.44-1.86,3.29-2.94,5.64-2.94,3.33,0,5.25,2.1,5.25,5.64Z"/>
    <path class="cls-2" d="M154.79,351.55h-11.62c.35,3.78,2.1,5.01,4.55,5.01,1.65,0,3.01-.53,4.62-1.65l1.86,2.56c-1.82,1.47-4.06,2.49-6.86,2.49-5.74,0-8.82-3.82-8.82-9.66s2.98-9.91,8.23-9.91,8.16,3.5,8.16,9.35c0,.59-.07,1.33-.1,1.82ZM150.45,348.43c0-3.04-1.08-4.87-3.61-4.87-2.1,0-3.43,1.4-3.68,5.08h7.28v-.21Z"/>
    <path class="cls-2" d="M163.89,334.26c0,1.5-1.16,2.7-2.84,2.7s-2.8-1.19-2.8-2.7,1.16-2.73,2.8-2.73,2.84,1.19,2.84,2.73ZM163.33,359.42h-4.48v-18.52h4.48v18.52Z"/>
    <path class="cls-2" d="M183.7,346.02v13.41h-4.48v-12.71c0-2.31-.88-2.98-2.28-2.98-1.61,0-2.8,1.08-3.89,2.8v12.88h-4.48v-18.52h3.89l.35,2.42c1.44-1.86,3.29-2.94,5.64-2.94,3.33,0,5.25,2.1,5.25,5.64Z"/>
    <path class="cls-2" d="M203.89,351.55h-11.62c.35,3.78,2.1,5.01,4.55,5.01,1.65,0,3.01-.53,4.62-1.65l1.86,2.56c-1.82,1.47-4.06,2.49-6.86,2.49-5.74,0-8.82-3.82-8.82-9.66s2.98-9.91,8.23-9.91,8.16,3.5,8.16,9.35c0,.59-.07,1.33-.1,1.82ZM199.55,348.43c0-3.04-1.08-4.87-3.61-4.87-2.1,0-3.43,1.4-3.68,5.08h7.28v-.21Z"/>
    <path class="cls-2" d="M223.07,346.02v13.41h-4.48v-12.71c0-2.31-.88-2.98-2.28-2.98-1.61,0-2.8,1.08-3.89,2.8v12.88h-4.48v-18.52h3.89l.35,2.42c1.44-1.86,3.29-2.94,5.64-2.94,3.33,0,5.25,2.1,5.25,5.64Z"/>
    <path class="cls-2" d="M241.69,359.42h-4.62v-24.19h4.62v24.19ZM246.91,346.19l9.03,13.23h-5.5l-8.54-12.92,8.37-11.27h5.01l-8.37,10.96Z"/>
    <path class="cls-2" d="M273.12,356.9l-.94,2.98c-2.07-.17-3.4-.88-4.1-2.7-1.33,1.96-3.33,2.77-5.57,2.77-3.68,0-5.95-2.35-5.95-5.71,0-4.03,3.01-6.2,8.4-6.2h2.35v-1.05c0-2.42-1.08-3.22-3.47-3.22-1.26,0-3.05.35-4.94.98l-1.02-3.05c2.28-.88,4.62-1.33,6.69-1.33,4.97,0,7.14,2.28,7.14,6.37v7.77c0,1.5.49,2.03,1.4,2.38ZM267.31,354.42v-3.75h-1.85c-2.91,0-4.34,1.05-4.34,3.22,0,1.79.91,2.8,2.63,2.8,1.54,0,2.73-.8,3.57-2.27Z"/>
    <path class="cls-2" d="M287.75,358.55c-1.33.95-3.01,1.4-4.66,1.4-3.64-.04-5.57-2.1-5.57-6.06v-9.77h-2.91v-3.22h2.91v-4.1l4.48-.52v4.62h4.31l-.46,3.22h-3.85v9.66c0,1.82.59,2.56,1.96,2.56.7,0,1.4-.21,2.21-.67l1.58,2.87Z"/>
    <path class="cls-2" d="M305.15,356.9l-.94,2.98c-2.07-.17-3.4-.88-4.1-2.7-1.33,1.96-3.33,2.77-5.57,2.77-3.68,0-5.95-2.35-5.95-5.71,0-4.03,3.01-6.2,8.4-6.2h2.35v-1.05c0-2.42-1.08-3.22-3.47-3.22-1.26,0-3.05.35-4.94.98l-1.02-3.05c2.28-.88,4.62-1.33,6.69-1.33,4.97,0,7.14,2.28,7.14,6.37v7.77c0,1.5.49,2.03,1.4,2.38ZM299.34,354.42v-3.75h-1.85c-2.91,0-4.34,1.05-4.34,3.22,0,1.79.91,2.8,2.63,2.8,1.54,0,2.73-.8,3.57-2.27Z"/>
    <path class="cls-2" d="M308.65,355.19v-21.7l4.48-.49v22.05c0,.88.28,1.29,1.05,1.29.39,0,.73-.07,1.02-.17l.98,3.15c-.77.35-1.85.63-3.01.63-2.84,0-4.52-1.71-4.52-4.76Z"/>
    <path class="cls-2" d="M335.39,350.15c0,5.85-3.26,9.8-8.72,9.8s-8.72-3.71-8.72-9.8,3.25-9.77,8.75-9.77,8.68,3.71,8.68,9.77ZM322.68,350.15c0,4.45,1.37,6.41,3.99,6.41s3.99-2,3.99-6.41-1.37-6.37-3.96-6.37-4.03,2-4.03,6.37Z"/>
    <path class="cls-2" d="M355.69,341.89c-1.4.49-3.15.63-5.36.63,2.24,1.01,3.36,2.45,3.36,4.76,0,3.61-2.8,6.23-7.46,6.23-.81,0-1.51-.07-2.21-.28-.46.31-.77.8-.77,1.37,0,.67.39,1.29,2.24,1.29h2.84c4.1,0,6.76,2.21,6.76,5.25,0,3.71-3.19,5.92-9.24,5.92-6.58,0-8.44-2.1-8.44-5.81h4.03c0,1.86.81,2.66,4.48,2.66s4.66-.98,4.66-2.45c0-1.37-1.08-2.21-3.15-2.21h-2.8c-3.71,0-5.29-1.65-5.29-3.57,0-1.29.81-2.59,2.17-3.43-2.28-1.19-3.26-2.83-3.26-5.21,0-4.03,3.19-6.65,7.67-6.65,4.38.11,6.41-.88,8.65-2.07l1.12,3.57ZM342.77,346.96c0,2.24,1.23,3.64,3.29,3.64s3.29-1.33,3.29-3.68-1.12-3.5-3.36-3.5c-2.03,0-3.22,1.4-3.22,3.54Z"/>
    <path class="cls-2" d="M381.8,359.42h-3.89l-.25-2.59c-1.37,2.1-3.12,3.12-5.67,3.12-3.36,0-5.15-2.17-5.15-5.74v-13.3h4.48v12.74c0,2.17.7,2.91,2.24,2.91s2.8-1.01,3.75-2.62v-13.02h4.48v18.52ZM372.87,334.36c0,1.37-1.05,2.42-2.42,2.42s-2.49-1.05-2.49-2.42,1.09-2.42,2.49-2.42,2.42,1.05,2.42,2.42ZM380.64,334.36c0,1.37-1.05,2.42-2.45,2.42s-2.45-1.05-2.45-2.42,1.08-2.42,2.45-2.42,2.45,1.05,2.45,2.42Z"/>
    <path class="cls-2" d="M403.5,350.15c0,5.78-2.77,9.8-7.32,9.8-2.03,0-3.71-.91-4.9-2.42l-.28,1.89h-3.96v-25.94l4.48-.49v10.01c1.19-1.65,2.98-2.63,5.11-2.63,4.31,0,6.86,3.57,6.86,9.77ZM398.81,350.15c0-4.94-1.47-6.41-3.61-6.41-1.61,0-2.8,1.08-3.68,2.52v8.19c.8,1.33,2.03,2.14,3.43,2.14,2.28,0,3.85-1.79,3.85-6.44Z"/>
    <path class="cls-2" d="M422.82,351.55h-11.62c.35,3.78,2.1,5.01,4.55,5.01,1.65,0,3.01-.53,4.62-1.65l1.86,2.56c-1.82,1.47-4.06,2.49-6.86,2.49-5.74,0-8.82-3.82-8.82-9.66s2.98-9.91,8.23-9.91,8.16,3.5,8.16,9.35c0,.59-.07,1.33-.1,1.82ZM418.48,348.43c0-3.04-1.08-4.87-3.61-4.87-2.1,0-3.43,1.4-3.68,5.08h7.28v-.21Z"/>
    <path class="cls-2" d="M437.87,340.66l-.77,4.34c-.56-.14-.98-.21-1.65-.21-2.24,0-3.4,1.64-4.1,4.76v9.87h-4.48v-18.52h3.89l.42,3.64c.88-2.66,2.66-4.13,4.83-4.13.67,0,1.26.07,1.85.25Z"/>
    <path class="cls-2" d="M445.67,338.95v1.96h4.45l-.49,3.22h-3.96v15.3h-4.48v-15.3h-3.01v-3.22h3.01v-2.03c0-3.36,2.24-5.88,6.51-5.88,1.86,0,3.36.42,4.8,1.08l-1.29,3.01c-1.12-.53-2.17-.7-3.05-.7-1.82,0-2.49.8-2.49,2.56Z"/>
    <path class="cls-2" d="M467.48,359.42h-3.89l-.25-2.59c-1.37,2.1-3.12,3.12-5.67,3.12-3.36,0-5.15-2.17-5.15-5.74v-13.3h4.48v12.74c0,2.17.7,2.91,2.24,2.91s2.8-1.01,3.75-2.62v-13.02h4.48v18.52ZM458.55,334.36c0,1.37-1.05,2.42-2.42,2.42s-2.49-1.05-2.49-2.42,1.09-2.42,2.49-2.42,2.42,1.05,2.42,2.42ZM466.32,334.36c0,1.37-1.05,2.42-2.45,2.42s-2.45-1.05-2.45-2.42,1.08-2.42,2.45-2.42,2.45,1.05,2.45,2.42Z"/>
    <path class="cls-2" d="M487.85,346.02v13.41h-4.48v-12.71c0-2.31-.91-2.98-2.28-2.98-1.58,0-2.8,1.08-3.89,2.77v12.92h-4.48v-25.9l4.48-.46v10.05c1.44-1.75,3.15-2.73,5.39-2.73,3.29,0,5.25,2.14,5.25,5.64Z"/>
    <path class="cls-2" d="M503.87,340.66l-.77,4.34c-.56-.14-.98-.21-1.65-.21-2.24,0-3.4,1.64-4.1,4.76v9.87h-4.48v-18.52h3.89l.42,3.64c.88-2.66,2.66-4.13,4.83-4.13.67,0,1.26.07,1.85.25Z"/>
    <path class="cls-2" d="M517.28,358.55c-1.33.95-3.01,1.4-4.66,1.4-3.64-.04-5.57-2.1-5.57-6.06v-9.77h-2.91v-3.22h2.91v-4.1l4.48-.52v4.62h4.31l-.46,3.22h-3.85v9.66c0,1.82.59,2.56,1.96,2.56.7,0,1.4-.21,2.21-.67l1.58,2.87Z"/>
    <path class="cls-2" d="M285.13,401.42h-5.6l-2.8-14.53-2.87,14.53h-5.5l-4.1-18.52h4.48l2.59,15.23,3.22-15.23h4.59l2.94,15.23,2.77-15.23h4.31l-4.03,18.52Z"/>
    <path class="cls-2" d="M307.32,393.55h-11.62c.35,3.78,2.1,5.01,4.55,5.01,1.65,0,3.01-.53,4.62-1.65l1.86,2.56c-1.82,1.47-4.06,2.49-6.86,2.49-5.74,0-8.82-3.82-8.82-9.66s2.98-9.91,8.23-9.91,8.16,3.5,8.16,9.35c0,.59-.07,1.33-.1,1.82ZM302.98,390.43c0-3.04-1.08-4.87-3.61-4.87-2.1,0-3.43,1.4-3.68,5.08h7.28v-.21Z"/>
    <path class="cls-2" d="M322.37,382.66l-.77,4.34c-.56-.14-.98-.21-1.65-.21-2.24,0-3.4,1.64-4.1,4.76v9.87h-4.48v-18.52h3.89l.42,3.64c.88-2.66,2.66-4.13,4.83-4.13.67,0,1.26.07,1.85.25Z"/>
    <path class="cls-2" d="M339.87,375.49v25.94h-3.96l-.31-2.34c-1.12,1.68-2.91,2.87-5.29,2.87-4.62,0-7.04-3.89-7.04-9.77s2.87-9.8,7.46-9.8c1.96,0,3.5.84,4.66,2v-9.38l4.48.49ZM335.39,396.17v-8.47c-.98-1.19-2.03-1.96-3.54-1.96-2.31,0-3.85,1.96-3.85,6.41,0,4.76,1.37,6.41,3.57,6.41,1.65,0,2.77-.8,3.81-2.38Z"/>
    <path class="cls-2" d="M360.27,393.55h-11.62c.35,3.78,2.1,5.01,4.55,5.01,1.65,0,3.01-.53,4.62-1.65l1.86,2.56c-1.82,1.47-4.06,2.49-6.86,2.49-5.74,0-8.82-3.82-8.82-9.66s2.98-9.91,8.23-9.91,8.16,3.5,8.16,9.35c0,.59-.07,1.33-.1,1.82ZM355.93,390.43c0-3.04-1.08-4.87-3.61-4.87-2.1,0-3.43,1.4-3.68,5.08h7.28v-.21Z"/>
    <path class="cls-2" d="M379.45,388.02v13.41h-4.48v-12.71c0-2.31-.88-2.98-2.28-2.98-1.61,0-2.8,1.08-3.89,2.8v12.88h-4.48v-18.52h3.89l.35,2.42c1.44-1.86,3.29-2.94,5.64-2.94,3.33,0,5.25,2.1,5.25,5.64Z"/>
    <path class="cls-2" d="M388.9,399.12c0,1.54-1.26,2.83-2.87,2.83s-2.8-1.29-2.8-2.83,1.23-2.84,2.8-2.84,2.87,1.26,2.87,2.84Z"/>
  </g>
</svg>