<?xml version="1.0" encoding="UTF-8"?>
<svg id="Ebene_1" data-name="Ebene 1" xmlns="http://www.w3.org/2000/svg" viewBox="0 0 523.43 523.43">
  <defs>
    <style>
      .cls-1 {
        fill: #074f8d;
      }

      .cls-2 {
        fill: #003e7e;
      }

      .cls-3 {
        fill: #2494ca;
      }
    </style>
  </defs>
  <g id="Außen">
    <path class="cls-3" d="M261.71,70c51.21,0,99.35,19.94,135.56,56.15,36.21,36.21,56.15,84.35,56.15,135.56s-19.94,99.35-56.15,135.56c-36.21,36.21-84.35,56.15-135.56,56.15s-99.35-19.94-135.56-56.15c-36.21-36.21-56.15-84.35-56.15-135.56s19.94-99.35,56.15-135.56c36.21-36.21,84.35-56.15,135.56-56.15M261.71,0C117.17,0,0,117.17,0,261.71s117.17,261.71,261.71,261.71,261.71-117.17,261.71-261.71S406.26,0,261.71,0h0Z"/>
  </g>
  <g id="Mitte">
    <path class="cls-1" d="M261.14,170.57c50.41,0,91.43,41.01,91.43,91.43s-41.01,91.43-91.43,91.43-91.43-41.01-91.43-91.43,41.01-91.43,91.43-91.43M261.14,78.57c-101.3,0-183.43,82.12-183.43,183.43s82.12,183.43,183.43,183.43,183.43-82.12,183.43-183.43-82.12-183.43-183.43-183.43h0Z"/>
  </g>
  <g id="Innen">
    <circle class="cls-2" cx="261.14" cy="261.71" r="82.29"/>
  </g>
</svg>