<?xml version="1.0" encoding="UTF-8"?>
<svg id="Ebene_1" data-name="Ebene 1" xmlns="http://www.w3.org/2000/svg" xmlns:xlink="http://www.w3.org/1999/xlink" viewBox="0 0 662.22 662.22">
  <defs>
    <style>
      .cls-1 {
        fill: url(#Unbenannter_Verlauf_78);
      }

      .cls-2 {
        fill: #fff;
      }

      .cls-3 {
        fill: none;
      }
    </style>
    <linearGradient id="Unbenannter_Verlauf_78" data-name="Unbenannter Verlauf 78" x1="0" y1="331.11" x2="662.22" y2="331.11" gradientTransform="translate(331.11 -137.15) rotate(45)" gradientUnits="userSpaceOnUse">
      <stop offset="0" stop-color="#004e9e"/>
      <stop offset=".27" stop-color="#075ca7"/>
      <stop offset=".78" stop-color="#1a81be"/>
      <stop offset="1" stop-color="#2494ca"/>
      <stop offset="1" stop-color="#2494ca"/>
    </linearGradient>
  </defs>
  <circle class="cls-1" cx="331.11" cy="331.11" r="331.11"/>
  <path class="cls-2" d="M331.11,27.34c39.46,0,77.92,7.48,114.31,22.24,37.68,15.28,71.49,37.73,100.49,66.73,29,29,51.45,62.81,66.73,100.49,14.76,36.4,22.24,74.86,22.24,114.31s-7.48,77.92-22.24,114.31c-15.28,37.68-37.73,71.49-66.73,100.49-29,29-62.81,51.45-100.49,66.73-36.4,14.76-74.86,22.24-114.31,22.24s-77.92-7.48-114.31-22.24c-37.68-15.28-71.49-37.73-100.49-66.73-29-29-51.45-62.81-66.73-100.49-14.76-36.4-22.24-74.86-22.24-114.31s7.48-77.92,22.24-114.31c15.28-37.68,37.73-71.49,66.73-100.49,29-29,62.81-51.45,100.49-66.73,36.4-14.76,74.86-22.24,114.31-22.24M331.11,23.34c-78.77,0-157.53,30.05-217.63,90.15-120.19,120.19-120.19,315.07,0,435.26,60.1,60.1,138.86,90.15,217.63,90.15s157.53-30.05,217.63-90.15c120.19-120.19,120.19-315.07,0-435.26-60.1-60.1-138.86-90.15-217.63-90.15h0Z"/>
  <g>
    <rect class="cls-3" x="27.22" y="125" width="607.78" height="412.22"/>
    <path class="cls-2" d="M236.61,139.21c0,9.8-5.99,12.22-11.76,12.22h-6.58v-24.19h5.95c6.37,0,12.39,1.96,12.39,11.97ZM222.89,130.7v17.26h2.28c3.61,0,6.58-1.61,6.58-8.75s-3.15-8.51-6.72-8.51h-2.14Z"/>
    <path class="cls-2" d="M245.78,126.26c0,1.5-1.16,2.7-2.84,2.7s-2.8-1.19-2.8-2.7,1.16-2.73,2.8-2.73,2.84,1.19,2.84,2.73ZM245.22,151.43h-4.48v-18.52h4.48v18.52Z"/>
    <path class="cls-2" d="M265.63,143.55h-11.62c.35,3.78,2.1,5.01,4.55,5.01,1.65,0,3.01-.53,4.62-1.65l1.86,2.56c-1.82,1.47-4.06,2.49-6.86,2.49-5.74,0-8.82-3.82-8.82-9.66s2.98-9.91,8.23-9.91,8.16,3.5,8.16,9.35c0,.59-.07,1.33-.1,1.82ZM261.29,140.43c0-3.05-1.08-4.87-3.61-4.87-2.1,0-3.43,1.4-3.68,5.08h7.28v-.21Z"/>
    <path class="cls-2" d="M282.18,134.59l-1.75,2.63c-1.54-.98-3.01-1.51-4.66-1.51-1.79,0-2.8.74-2.8,1.86,0,1.23.74,1.79,3.89,2.66,3.78,1.02,5.92,2.56,5.92,5.85,0,3.85-3.57,5.88-7.81,5.88-3.19,0-5.67-1.08-7.39-2.62l2.24-2.52c1.44,1.09,3.15,1.82,5.04,1.82,2,0,3.29-.84,3.29-2.24,0-1.54-.74-2.03-4.2-3.01-3.81-1.05-5.5-2.87-5.5-5.6,0-3.08,2.84-5.39,7.14-5.39,2.66,0,4.83.84,6.58,2.21Z"/>
    <path class="cls-2" d="M301.43,143.55h-11.62c.35,3.78,2.1,5.01,4.55,5.01,1.65,0,3.01-.53,4.62-1.65l1.86,2.56c-1.82,1.47-4.06,2.49-6.86,2.49-5.74,0-8.82-3.82-8.82-9.66s2.98-9.91,8.23-9.91,8.16,3.5,8.16,9.35c0,.59-.07,1.33-.1,1.82ZM297.09,140.43c0-3.05-1.08-4.87-3.61-4.87-2.1,0-3.43,1.4-3.68,5.08h7.28v-.21Z"/>
    <path class="cls-2" d="M316.48,132.66l-.77,4.34c-.56-.14-.98-.21-1.65-.21-2.24,0-3.4,1.65-4.1,4.76v9.87h-4.48v-18.52h3.89l.42,3.64c.88-2.66,2.66-4.13,4.83-4.13.67,0,1.26.07,1.85.24Z"/>
    <path class="cls-2" d="M332.79,151.43h-4.62v-24.19h4.62v24.19ZM338.01,138.19l9.03,13.23h-5.5l-8.54-12.92,8.37-11.27h5.01l-8.37,10.96Z"/>
    <path class="cls-2" d="M364.22,148.91l-.94,2.98c-2.07-.18-3.4-.88-4.1-2.7-1.33,1.96-3.33,2.77-5.57,2.77-3.68,0-5.95-2.35-5.95-5.71,0-4.03,3.01-6.2,8.4-6.2h2.35v-1.05c0-2.42-1.08-3.22-3.47-3.22-1.26,0-3.05.35-4.94.98l-1.02-3.05c2.28-.88,4.62-1.33,6.69-1.33,4.97,0,7.14,2.28,7.14,6.37v7.77c0,1.5.49,2.03,1.4,2.38ZM358.41,146.42v-3.75h-1.85c-2.91,0-4.34,1.05-4.34,3.22,0,1.79.91,2.8,2.63,2.8,1.54,0,2.73-.8,3.57-2.27Z"/>
    <path class="cls-2" d="M378.85,150.55c-1.33.94-3.01,1.4-4.66,1.4-3.64-.03-5.57-2.1-5.57-6.06v-9.77h-2.91v-3.22h2.91v-4.1l4.48-.52v4.62h4.31l-.46,3.22h-3.85v9.66c0,1.82.59,2.56,1.96,2.56.7,0,1.4-.21,2.21-.67l1.58,2.87Z"/>
    <path class="cls-2" d="M396.25,148.91l-.94,2.98c-2.07-.18-3.4-.88-4.1-2.7-1.33,1.96-3.33,2.77-5.57,2.77-3.68,0-5.95-2.35-5.95-5.71,0-4.03,3.01-6.2,8.4-6.2h2.35v-1.05c0-2.42-1.08-3.22-3.47-3.22-1.26,0-3.05.35-4.94.98l-1.02-3.05c2.28-.88,4.62-1.33,6.69-1.33,4.97,0,7.14,2.28,7.14,6.37v7.77c0,1.5.49,2.03,1.4,2.38ZM390.44,146.42v-3.75h-1.85c-2.91,0-4.34,1.05-4.34,3.22,0,1.79.91,2.8,2.63,2.8,1.54,0,2.73-.8,3.57-2.27Z"/>
    <path class="cls-2" d="M399.75,147.19v-21.7l4.48-.49v22.05c0,.88.28,1.29,1.05,1.29.39,0,.73-.07,1.02-.17l.98,3.15c-.77.35-1.85.63-3.01.63-2.84,0-4.52-1.71-4.52-4.76Z"/>
    <path class="cls-2" d="M426.49,142.15c0,5.85-3.26,9.8-8.72,9.8s-8.72-3.71-8.72-9.8,3.25-9.77,8.75-9.77,8.68,3.71,8.68,9.77ZM413.78,142.15c0,4.45,1.37,6.41,3.99,6.41s3.99-2,3.99-6.41-1.37-6.37-3.96-6.37-4.03,2-4.03,6.37Z"/>
    <path class="cls-2" d="M446.79,133.89c-1.4.49-3.15.63-5.36.63,2.24,1.02,3.36,2.45,3.36,4.76,0,3.61-2.8,6.23-7.46,6.23-.81,0-1.51-.07-2.21-.28-.46.32-.77.81-.77,1.37,0,.67.39,1.3,2.24,1.3h2.84c4.1,0,6.76,2.21,6.76,5.25,0,3.71-3.19,5.92-9.24,5.92-6.58,0-8.44-2.1-8.44-5.81h4.03c0,1.85.81,2.66,4.48,2.66s4.66-.98,4.66-2.45c0-1.37-1.08-2.21-3.15-2.21h-2.8c-3.71,0-5.29-1.65-5.29-3.57,0-1.29.81-2.59,2.17-3.43-2.28-1.19-3.26-2.84-3.26-5.22,0-4.03,3.19-6.65,7.67-6.65,4.38.1,6.41-.88,8.65-2.07l1.12,3.57ZM433.87,138.96c0,2.24,1.23,3.64,3.29,3.64s3.29-1.33,3.29-3.68-1.12-3.5-3.36-3.5c-2.03,0-3.22,1.4-3.22,3.54Z"/>
    <path class="cls-2" d="M186.2,193.43h-5.6l-2.8-14.53-2.87,14.53h-5.5l-4.1-18.52h4.48l2.59,15.23,3.22-15.23h4.59l2.94,15.23,2.77-15.23h4.31l-4.03,18.52Z"/>
    <path class="cls-2" d="M198.27,168.26c0,1.5-1.16,2.7-2.84,2.7s-2.8-1.19-2.8-2.7,1.16-2.73,2.8-2.73,2.84,1.19,2.84,2.73ZM197.71,193.43h-4.48v-18.52h4.48v18.52Z"/>
    <path class="cls-2" d="M213.95,174.66l-.77,4.34c-.56-.14-.98-.21-1.65-.21-2.24,0-3.4,1.65-4.1,4.76v9.87h-4.48v-18.52h3.89l.42,3.64c.88-2.66,2.66-4.13,4.83-4.13.67,0,1.26.07,1.85.24Z"/>
    <path class="cls-2" d="M231.45,167.49v25.94h-3.96l-.31-2.35c-1.12,1.68-2.91,2.87-5.29,2.87-4.62,0-7.04-3.89-7.04-9.77s2.87-9.8,7.46-9.8c1.96,0,3.5.84,4.66,2v-9.38l4.48.49ZM226.97,188.17v-8.47c-.98-1.19-2.03-1.96-3.54-1.96-2.31,0-3.85,1.96-3.85,6.41,0,4.76,1.37,6.41,3.57,6.41,1.65,0,2.77-.81,3.81-2.38Z"/>
    <path class="cls-2" d="M250.49,168.26c0,1.5-1.16,2.7-2.84,2.7s-2.8-1.19-2.8-2.7,1.16-2.73,2.8-2.73,2.84,1.19,2.84,2.73ZM249.93,193.43h-4.48v-18.52h4.48v18.52Z"/>
    <path class="cls-2" d="M270.3,180.02v13.41h-4.48v-12.71c0-2.31-.88-2.98-2.28-2.98-1.61,0-2.8,1.08-3.89,2.8v12.88h-4.48v-18.52h3.89l.35,2.42c1.44-1.86,3.29-2.94,5.64-2.94,3.33,0,5.25,2.1,5.25,5.64Z"/>
    <path class="cls-2" d="M299.25,185.55h-11.62c.35,3.78,2.1,5.01,4.55,5.01,1.65,0,3.01-.53,4.62-1.65l1.86,2.56c-1.82,1.47-4.06,2.49-6.86,2.49-5.74,0-8.82-3.82-8.82-9.66s2.98-9.91,8.23-9.91,8.16,3.5,8.16,9.35c0,.59-.07,1.33-.1,1.82ZM294.91,182.43c0-3.05-1.08-4.87-3.61-4.87-2.1,0-3.43,1.4-3.68,5.08h7.28v-.21Z"/>
    <path class="cls-2" d="M308.34,168.26c0,1.5-1.16,2.7-2.84,2.7s-2.8-1.19-2.8-2.7,1.16-2.73,2.8-2.73,2.84,1.19,2.84,2.73ZM307.78,193.43h-4.48v-18.52h4.48v18.52Z"/>
    <path class="cls-2" d="M328.16,180.02v13.41h-4.48v-12.71c0-2.31-.88-2.98-2.28-2.98-1.61,0-2.8,1.08-3.89,2.8v12.88h-4.48v-18.52h3.89l.35,2.42c1.44-1.86,3.29-2.94,5.64-2.94,3.33,0,5.25,2.1,5.25,5.64Z"/>
    <path class="cls-2" d="M348.35,185.55h-11.62c.35,3.78,2.1,5.01,4.55,5.01,1.65,0,3.01-.53,4.62-1.65l1.86,2.56c-1.82,1.47-4.06,2.49-6.86,2.49-5.74,0-8.82-3.82-8.82-9.66s2.98-9.91,8.23-9.91,8.16,3.5,8.16,9.35c0,.59-.07,1.33-.1,1.82ZM344.01,182.43c0-3.05-1.08-4.87-3.61-4.87-2.1,0-3.43,1.4-3.68,5.08h7.28v-.21Z"/>
    <path class="cls-2" d="M376.95,180.02v13.41h-4.48v-12.71c0-2.31-.91-2.98-2.03-2.98-1.54,0-2.49,1.08-3.5,2.8v12.88h-4.48v-12.71c0-2.31-.95-2.98-2.03-2.98-1.58,0-2.52,1.08-3.54,2.8v12.88h-4.48v-18.52h3.89l.35,2.42c1.33-1.86,3.01-2.94,5.36-2.94,2.17,0,3.78,1.16,4.48,3.12,1.4-1.93,3.12-3.12,5.57-3.12,2.94,0,4.9,2.14,4.9,5.64Z"/>
    <path class="cls-2" d="M406.2,167.49v25.94h-3.96l-.31-2.35c-1.12,1.68-2.91,2.87-5.29,2.87-4.62,0-7.04-3.89-7.04-9.77s2.87-9.8,7.46-9.8c1.96,0,3.5.84,4.66,2v-9.38l4.48.49ZM401.72,188.17v-8.47c-.98-1.19-2.03-1.96-3.54-1.96-2.31,0-3.85,1.96-3.85,6.41,0,4.76,1.37,6.41,3.57,6.41,1.65,0,2.77-.81,3.82-2.38Z"/>
    <path class="cls-2" d="M422.44,174.66l-.77,4.34c-.56-.14-.98-.21-1.65-.21-2.24,0-3.4,1.65-4.1,4.76v9.87h-4.48v-18.52h3.89l.42,3.64c.88-2.66,2.66-4.13,4.83-4.13.67,0,1.26.07,1.85.24Z"/>
    <path class="cls-2" d="M430.21,168.26c0,1.5-1.16,2.7-2.84,2.7s-2.8-1.19-2.8-2.7,1.16-2.73,2.8-2.73,2.84,1.19,2.84,2.73ZM429.65,193.43h-4.48v-18.52h4.48v18.52Z"/>
    <path class="cls-2" d="M445.58,192.55c-1.33.94-3.01,1.4-4.66,1.4-3.64-.03-5.57-2.1-5.57-6.06v-9.77h-2.91v-3.22h2.91v-4.1l4.48-.52v4.62h4.31l-.46,3.22h-3.85v9.66c0,1.82.59,2.56,1.96,2.56.7,0,1.4-.21,2.21-.67l1.58,2.87Z"/>
    <path class="cls-2" d="M458.7,192.55c-1.33.94-3.01,1.4-4.66,1.4-3.64-.03-5.57-2.1-5.57-6.06v-9.77h-2.91v-3.22h2.91v-4.1l4.48-.52v4.62h4.31l-.46,3.22h-3.85v9.66c0,1.82.59,2.56,1.96,2.56.7,0,1.4-.21,2.21-.67l1.58,2.87Z"/>
    <path class="cls-2" d="M475.71,185.55h-11.62c.35,3.78,2.1,5.01,4.55,5.01,1.65,0,3.01-.53,4.62-1.65l1.86,2.56c-1.82,1.47-4.06,2.49-6.86,2.49-5.74,0-8.82-3.82-8.82-9.66s2.98-9.91,8.23-9.91,8.16,3.5,8.16,9.35c0,.59-.07,1.33-.1,1.82ZM471.37,182.43c0-3.05-1.08-4.87-3.61-4.87-2.1,0-3.43,1.4-3.68,5.08h7.28v-.21Z"/>
    <path class="cls-2" d="M494.89,180.02v13.41h-4.48v-12.71c0-2.31-.88-2.98-2.28-2.98-1.61,0-2.8,1.08-3.89,2.8v12.88h-4.48v-18.52h3.89l.35,2.42c1.44-1.86,3.29-2.94,5.64-2.94,3.33,0,5.25,2.1,5.25,5.64Z"/>
    <path class="cls-2" d="M111.86,213.69l-2.27,2.63c-1.75-1.44-3.43-2.07-5.43-2.07-2.17,0-3.75.98-3.75,2.87,0,1.75.95,2.52,4.97,3.78,4.24,1.33,7.18,3.08,7.18,7.63s-3.4,7.42-9.17,7.42c-3.85,0-6.72-1.37-8.72-3.33l2.38-2.66c1.79,1.5,3.71,2.42,6.23,2.42s4.45-1.26,4.45-3.61c0-2.03-1.02-2.94-4.8-4.1-5.08-1.58-7.28-3.61-7.28-7.28,0-4.03,3.47-6.69,8.23-6.69,3.54,0,5.88,1.05,7.98,2.98Z"/>
    <path class="cls-2" d="M129.85,218.55l-2,2.7c-1.23-.91-2.35-1.33-3.75-1.33-2.59,0-4.17,1.89-4.17,6.34s1.65,6.06,4.17,6.06c1.4,0,2.38-.46,3.75-1.33l2,2.83c-1.68,1.37-3.61,2.14-5.99,2.14-5.36,0-8.68-3.71-8.68-9.63s3.33-9.94,8.65-9.94c2.42,0,4.27.67,6.02,2.17Z"/>
    <path class="cls-2" d="M148.15,222.02v13.41h-4.48v-12.71c0-2.31-.91-2.98-2.28-2.98-1.58,0-2.8,1.08-3.89,2.77v12.92h-4.48v-25.9l4.48-.46v10.05c1.44-1.75,3.15-2.73,5.39-2.73,3.29,0,5.25,2.14,5.25,5.64Z"/>
    <path class="cls-2" d="M164.18,216.66l-.77,4.34c-.56-.14-.98-.21-1.65-.21-2.24,0-3.4,1.65-4.1,4.76v9.87h-4.48v-18.52h3.89l.42,3.64c.88-2.66,2.66-4.13,4.83-4.13.67,0,1.26.07,1.85.24Z"/>
    <path class="cls-2" d="M171.95,210.26c0,1.5-1.16,2.7-2.84,2.7s-2.8-1.19-2.8-2.7,1.16-2.73,2.8-2.73,2.84,1.19,2.84,2.73ZM171.39,235.43h-4.48v-18.52h4.48v18.52Z"/>
    <path class="cls-2" d="M187.32,234.55c-1.33.94-3.01,1.4-4.66,1.4-3.64-.03-5.57-2.1-5.57-6.06v-9.77h-2.91v-3.22h2.91v-4.1l4.48-.52v4.62h4.31l-.46,3.22h-3.85v9.66c0,1.82.59,2.56,1.96,2.56.7,0,1.4-.21,2.21-.67l1.58,2.87Z"/>
    <path class="cls-2" d="M200.44,234.55c-1.33.94-3.01,1.4-4.66,1.4-3.64-.03-5.57-2.1-5.57-6.06v-9.77h-2.91v-3.22h2.91v-4.1l4.48-.52v4.62h4.31l-.46,3.22h-3.85v9.66c0,1.82.59,2.56,1.96,2.56.7,0,1.4-.21,2.21-.67l1.58,2.87Z"/>
    <path class="cls-2" d="M227.81,217.89c-1.4.49-3.15.63-5.36.63,2.24,1.02,3.36,2.45,3.36,4.76,0,3.61-2.8,6.23-7.46,6.23-.81,0-1.51-.07-2.21-.28-.46.32-.77.81-.77,1.37,0,.67.39,1.3,2.24,1.3h2.84c4.1,0,6.76,2.21,6.76,5.25,0,3.71-3.19,5.92-9.24,5.92-6.58,0-8.44-2.1-8.44-5.81h4.03c0,1.85.81,2.66,4.48,2.66s4.66-.98,4.66-2.45c0-1.37-1.09-2.21-3.15-2.21h-2.8c-3.71,0-5.29-1.65-5.29-3.57,0-1.29.81-2.59,2.17-3.43-2.28-1.19-3.26-2.84-3.26-5.22,0-4.03,3.19-6.65,7.67-6.65,4.38.1,6.41-.88,8.65-2.07l1.12,3.57ZM214.89,222.96c0,2.24,1.23,3.64,3.29,3.64s3.29-1.33,3.29-3.68-1.12-3.5-3.36-3.5c-2.03,0-3.22,1.4-3.22,3.54Z"/>
    <path class="cls-2" d="M245.42,227.55h-11.62c.35,3.78,2.1,5.01,4.55,5.01,1.65,0,3.01-.53,4.62-1.65l1.86,2.56c-1.82,1.47-4.06,2.49-6.86,2.49-5.74,0-8.82-3.82-8.82-9.66s2.98-9.91,8.23-9.91,8.16,3.5,8.16,9.35c0,.59-.07,1.33-.1,1.82ZM241.07,224.43c0-3.05-1.08-4.87-3.61-4.87-2.1,0-3.43,1.4-3.68,5.08h7.28v-.21Z"/>
    <path class="cls-2" d="M260.15,234.55c-1.33.94-3.01,1.4-4.66,1.4-3.64-.03-5.57-2.1-5.57-6.06v-9.77h-2.91v-3.22h2.91v-4.1l4.48-.52v4.62h4.31l-.46,3.22h-3.85v9.66c0,1.82.6,2.56,1.96,2.56.7,0,1.4-.21,2.21-.67l1.58,2.87Z"/>
    <path class="cls-2" d="M277.16,227.55h-11.62c.35,3.78,2.1,5.01,4.55,5.01,1.65,0,3.01-.53,4.62-1.65l1.86,2.56c-1.82,1.47-4.06,2.49-6.86,2.49-5.74,0-8.82-3.82-8.82-9.66s2.98-9.91,8.23-9.91,8.16,3.5,8.16,9.35c0,.59-.07,1.33-.1,1.82ZM272.82,224.43c0-3.05-1.08-4.87-3.61-4.87-2.1,0-3.43,1.4-3.68,5.08h7.28v-.21Z"/>
    <path class="cls-2" d="M293.72,218.59l-1.75,2.63c-1.54-.98-3.01-1.51-4.66-1.51-1.79,0-2.8.74-2.8,1.86,0,1.23.74,1.79,3.89,2.66,3.78,1.02,5.92,2.56,5.92,5.85,0,3.85-3.57,5.88-7.81,5.88-3.19,0-5.67-1.08-7.39-2.62l2.24-2.52c1.44,1.09,3.15,1.82,5.04,1.82,2,0,3.29-.84,3.29-2.24,0-1.54-.73-2.03-4.2-3.01-3.82-1.05-5.5-2.87-5.5-5.6,0-3.08,2.83-5.39,7.14-5.39,2.66,0,4.83.84,6.58,2.21Z"/>
    <path class="cls-2" d="M308.48,234.55c-1.33.94-3.01,1.4-4.66,1.4-3.64-.03-5.57-2.1-5.57-6.06v-9.77h-2.91v-3.22h2.91v-4.1l4.48-.52v4.62h4.31l-.46,3.22h-3.85v9.66c0,1.82.6,2.56,1.96,2.56.7,0,1.4-.21,2.21-.67l1.58,2.87Z"/>
    <path class="cls-2" d="M325.49,227.55h-11.62c.35,3.78,2.1,5.01,4.55,5.01,1.65,0,3.01-.53,4.62-1.65l1.86,2.56c-1.82,1.47-4.06,2.49-6.86,2.49-5.74,0-8.82-3.82-8.82-9.66s2.98-9.91,8.23-9.91,8.16,3.5,8.16,9.35c0,.59-.07,1.33-.1,1.82ZM321.15,224.43c0-3.05-1.08-4.87-3.61-4.87-2.1,0-3.43,1.4-3.68,5.08h7.28v-.21Z"/>
    <path class="cls-2" d="M340.23,234.55c-1.33.94-3.01,1.4-4.66,1.4-3.64-.03-5.57-2.1-5.57-6.06v-9.77h-2.91v-3.22h2.91v-4.1l4.48-.52v4.62h4.31l-.46,3.22h-3.85v9.66c0,1.82.59,2.56,1.96,2.56.7,0,1.4-.21,2.21-.67l1.58,2.87Z"/>
    <path class="cls-2" d="M347.3,233.11c0,.91-.28,1.75-.91,3.15l-2.27,5.18h-2.73l1.44-6.02c-.77-.52-1.19-1.37-1.19-2.35,0-1.58,1.23-2.8,2.8-2.8s2.87,1.23,2.87,2.84Z"/>
    <path class="cls-2" d="M375.19,227.55h-11.62c.35,3.78,2.1,5.01,4.55,5.01,1.65,0,3.01-.53,4.62-1.65l1.86,2.56c-1.82,1.47-4.06,2.49-6.86,2.49-5.74,0-8.82-3.82-8.82-9.66s2.98-9.91,8.23-9.91,8.16,3.5,8.16,9.35c0,.59-.07,1.33-.1,1.82ZM370.85,224.43c0-3.05-1.08-4.87-3.61-4.87-2.1,0-3.43,1.4-3.68,5.08h7.28v-.21Z"/>
    <path class="cls-2" d="M387.93,235.43h-5.36l-6.13-18.52h4.87l3.96,14.91,4.06-14.91h4.62l-6.02,18.52Z"/>
    <path class="cls-2" d="M411.28,232.91l-.94,2.98c-2.07-.18-3.4-.88-4.1-2.7-1.33,1.96-3.33,2.77-5.57,2.77-3.68,0-5.95-2.35-5.95-5.71,0-4.03,3.01-6.2,8.4-6.2h2.35v-1.05c0-2.42-1.08-3.22-3.47-3.22-1.26,0-3.05.35-4.94.98l-1.02-3.05c2.28-.88,4.62-1.33,6.69-1.33,4.97,0,7.14,2.28,7.14,6.37v7.77c0,1.5.49,2.03,1.4,2.38ZM405.47,230.42v-3.75h-1.85c-2.91,0-4.34,1.05-4.34,3.22,0,1.79.91,2.8,2.63,2.8,1.54,0,2.73-.8,3.57-2.27Z"/>
    <path class="cls-2" d="M414.78,231.19v-21.7l4.48-.49v22.05c0,.88.28,1.29,1.05,1.29.39,0,.74-.07,1.02-.17l.98,3.15c-.77.35-1.85.63-3.01.63-2.84,0-4.52-1.71-4.52-4.76Z"/>
    <path class="cls-2" d="M440.12,235.43h-3.89l-.25-2.59c-1.37,2.1-3.12,3.12-5.67,3.12-3.36,0-5.15-2.17-5.15-5.74v-13.3h4.48v12.74c0,2.17.7,2.91,2.24,2.91s2.8-1.02,3.75-2.63v-13.02h4.48v18.52Z"/>
    <path class="cls-2" d="M450.41,210.26c0,1.5-1.16,2.7-2.84,2.7s-2.8-1.19-2.8-2.7,1.16-2.73,2.8-2.73,2.84,1.19,2.84,2.73ZM449.85,235.43h-4.48v-18.52h4.48v18.52Z"/>
    <path class="cls-2" d="M470.26,227.55h-11.62c.35,3.78,2.1,5.01,4.55,5.01,1.65,0,3.01-.53,4.62-1.65l1.86,2.56c-1.82,1.47-4.06,2.49-6.86,2.49-5.74,0-8.82-3.82-8.82-9.66s2.98-9.91,8.23-9.91,8.16,3.5,8.16,9.35c0,.59-.07,1.33-.1,1.82ZM465.91,224.43c0-3.05-1.08-4.87-3.61-4.87-2.1,0-3.43,1.4-3.68,5.08h7.28v-.21Z"/>
    <path class="cls-2" d="M485.3,216.66l-.77,4.34c-.56-.14-.98-.21-1.65-.21-2.24,0-3.4,1.65-4.1,4.76v9.87h-4.48v-18.52h3.89l.42,3.64c.88-2.66,2.66-4.13,4.83-4.13.67,0,1.26.07,1.85.24Z"/>
    <path class="cls-2" d="M498.71,234.55c-1.33.94-3.01,1.4-4.66,1.4-3.64-.03-5.57-2.1-5.57-6.06v-9.77h-2.91v-3.22h2.91v-4.1l4.48-.52v4.62h4.31l-.46,3.22h-3.85v9.66c0,1.82.6,2.56,1.96,2.56.7,0,1.4-.21,2.21-.67l1.58,2.87Z"/>
    <path class="cls-2" d="M524.64,235.43h-3.89l-.25-2.59c-1.37,2.1-3.12,3.12-5.67,3.12-3.36,0-5.15-2.17-5.15-5.74v-13.3h4.48v12.74c0,2.17.7,2.91,2.24,2.91s2.8-1.02,3.75-2.63v-13.02h4.48v18.52Z"/>
    <path class="cls-2" d="M545.01,222.02v13.41h-4.48v-12.71c0-2.31-.88-2.98-2.28-2.98-1.61,0-2.8,1.08-3.89,2.8v12.88h-4.48v-18.52h3.89l.35,2.42c1.44-1.86,3.29-2.94,5.64-2.94,3.33,0,5.25,2.1,5.25,5.64Z"/>
    <path class="cls-2" d="M565.52,209.49v25.94h-3.96l-.31-2.35c-1.12,1.68-2.91,2.87-5.29,2.87-4.62,0-7.04-3.89-7.04-9.77s2.87-9.8,7.46-9.8c1.96,0,3.5.84,4.66,2v-9.38l4.48.49ZM561.04,230.17v-8.47c-.98-1.19-2.03-1.96-3.54-1.96-2.31,0-3.85,1.96-3.85,6.41,0,4.76,1.37,6.41,3.57,6.41,1.65,0,2.77-.81,3.82-2.38Z"/>
    <path class="cls-2" d="M112.82,277.43h-5.6l-2.8-14.53-2.87,14.53h-5.5l-4.1-18.52h4.48l2.59,15.23,3.22-15.23h4.59l2.94,15.23,2.77-15.23h4.31l-4.03,18.52Z"/>
    <path class="cls-2" d="M135.01,269.55h-11.62c.35,3.78,2.1,5.01,4.55,5.01,1.65,0,3.01-.53,4.62-1.65l1.86,2.56c-1.82,1.47-4.06,2.49-6.86,2.49-5.74,0-8.82-3.82-8.82-9.66s2.98-9.91,8.23-9.91,8.16,3.5,8.16,9.35c0,.59-.07,1.33-.1,1.82ZM130.67,266.43c0-3.05-1.08-4.87-3.61-4.87-2.1,0-3.43,1.4-3.68,5.08h7.28v-.21Z"/>
    <path class="cls-2" d="M144.11,252.26c0,1.5-1.16,2.7-2.84,2.7s-2.8-1.19-2.8-2.7,1.16-2.73,2.8-2.73,2.84,1.19,2.84,2.73ZM143.55,277.43h-4.48v-18.52h4.48v18.52Z"/>
    <path class="cls-2" d="M159.47,276.55c-1.33.94-3.01,1.4-4.66,1.4-3.64-.03-5.57-2.1-5.57-6.06v-9.77h-2.91v-3.22h2.91v-4.1l4.48-.52v4.62h4.31l-.46,3.22h-3.85v9.66c0,1.82.6,2.56,1.96,2.56.7,0,1.4-.21,2.21-.67l1.58,2.87Z"/>
    <path class="cls-2" d="M176.48,269.55h-11.62c.35,3.78,2.1,5.01,4.55,5.01,1.65,0,3.01-.53,4.62-1.65l1.86,2.56c-1.82,1.47-4.06,2.49-6.86,2.49-5.74,0-8.82-3.82-8.82-9.66s2.98-9.91,8.23-9.91,8.16,3.5,8.16,9.35c0,.59-.07,1.33-.1,1.82ZM172.14,266.43c0-3.05-1.08-4.87-3.61-4.87-2.1,0-3.43,1.4-3.68,5.08h7.28v-.21Z"/>
    <path class="cls-2" d="M191.53,258.66l-.77,4.34c-.56-.14-.98-.21-1.65-.21-2.24,0-3.4,1.65-4.1,4.76v9.87h-4.48v-18.52h3.89l.42,3.64c.88-2.66,2.66-4.13,4.83-4.13.67,0,1.26.07,1.85.24Z"/>
    <path class="cls-2" d="M208.72,269.55h-11.62c.35,3.78,2.1,5.01,4.55,5.01,1.65,0,3.01-.53,4.62-1.65l1.86,2.56c-1.82,1.47-4.06,2.49-6.86,2.49-5.74,0-8.82-3.82-8.82-9.66s2.98-9.91,8.23-9.91,8.16,3.5,8.16,9.35c0,.59-.07,1.33-.1,1.82ZM204.38,266.43c0-3.05-1.08-4.87-3.61-4.87-2.1,0-3.43,1.4-3.68,5.08h7.28v-.21Z"/>
    <path class="cls-2" d="M227.9,264.02v13.41h-4.48v-12.71c0-2.31-.88-2.98-2.28-2.98-1.61,0-2.8,1.08-3.89,2.8v12.88h-4.48v-18.52h3.89l.35,2.42c1.44-1.86,3.29-2.94,5.64-2.94,3.33,0,5.25,2.1,5.25,5.64Z"/>
    <path class="cls-2" d="M243.61,276.55c-1.33.94-3.01,1.4-4.66,1.4-3.64-.03-5.57-2.1-5.57-6.06v-9.77h-2.91v-3.22h2.91v-4.1l4.48-.52v4.62h4.31l-.46,3.22h-3.85v9.66c0,1.82.6,2.56,1.96,2.56.7,0,1.4-.21,2.21-.67l1.58,2.87Z"/>
    <path class="cls-2" d="M264.72,277.43h-5.6l-2.8-14.53-2.87,14.53h-5.5l-4.1-18.52h4.48l2.59,15.23,3.22-15.23h4.59l2.94,15.23,2.77-15.23h4.31l-4.03,18.52Z"/>
    <path class="cls-2" d="M276.79,252.26c0,1.5-1.16,2.7-2.84,2.7s-2.8-1.19-2.8-2.7,1.16-2.73,2.8-2.73,2.84,1.19,2.84,2.73ZM276.23,277.43h-4.48v-18.52h4.48v18.52Z"/>
    <path class="cls-2" d="M295.03,260.55l-2,2.7c-1.23-.91-2.35-1.33-3.75-1.33-2.59,0-4.17,1.89-4.17,6.34s1.65,6.06,4.17,6.06c1.4,0,2.38-.46,3.75-1.33l2,2.83c-1.68,1.37-3.61,2.14-5.99,2.14-5.36,0-8.68-3.71-8.68-9.63s3.33-9.94,8.65-9.94c2.42,0,4.27.67,6.02,2.17Z"/>
    <path class="cls-2" d="M302.69,277.43h-4.48v-25.94l4.48-.49v26.43ZM307.63,267.06l6.76,10.36h-5.15l-6.37-10.12,6.2-8.4h4.73l-6.16,8.16Z"/>
    <path class="cls-2" d="M331.71,269.55h-11.62c.35,3.78,2.1,5.01,4.55,5.01,1.65,0,3.01-.53,4.62-1.65l1.86,2.56c-1.82,1.47-4.06,2.49-6.86,2.49-5.74,0-8.82-3.82-8.82-9.66s2.98-9.91,8.23-9.91,8.16,3.5,8.16,9.35c0,.59-.07,1.33-.1,1.82ZM327.37,266.43c0-3.05-1.08-4.87-3.61-4.87-2.1,0-3.43,1.4-3.68,5.08h7.28v-.21Z"/>
    <path class="cls-2" d="M335.56,273.19v-21.7l4.48-.49v22.05c0,.88.28,1.29,1.05,1.29.39,0,.73-.07,1.02-.17l.98,3.15c-.77.35-1.85.63-3.01.63-2.84,0-4.52-1.71-4.52-4.76Z"/>
    <path class="cls-2" d="M356.84,276.55c-1.33.94-3.01,1.4-4.66,1.4-3.64-.03-5.57-2.1-5.57-6.06v-9.77h-2.91v-3.22h2.91v-4.1l4.48-.52v4.62h4.31l-.46,3.22h-3.85v9.66c0,1.82.59,2.56,1.96,2.56.7,0,1.4-.21,2.21-.67l1.58,2.87Z"/>
    <path class="cls-2" d="M363.91,275.11c0,.91-.28,1.75-.91,3.15l-2.27,5.18h-2.73l1.44-6.02c-.77-.52-1.19-1.37-1.19-2.35,0-1.58,1.23-2.8,2.8-2.8s2.87,1.23,2.87,2.84Z"/>
    <path class="cls-2" d="M391.38,277.43h-3.89l-.25-2.59c-1.37,2.1-3.12,3.12-5.67,3.12-3.36,0-5.15-2.17-5.15-5.74v-13.3h4.48v12.74c0,2.17.7,2.91,2.24,2.91s2.8-1.02,3.75-2.63v-13.02h4.48v18.52Z"/>
    <path class="cls-2" d="M421.17,264.02v13.41h-4.48v-12.71c0-2.31-.91-2.98-2.03-2.98-1.54,0-2.49,1.08-3.5,2.8v12.88h-4.48v-12.71c0-2.31-.95-2.98-2.03-2.98-1.58,0-2.52,1.08-3.54,2.8v12.88h-4.48v-18.52h3.89l.35,2.42c1.33-1.86,3.01-2.94,5.36-2.94,2.17,0,3.78,1.16,4.48,3.12,1.4-1.93,3.12-3.12,5.57-3.12,2.94,0,4.9,2.14,4.9,5.64Z"/>
    <path class="cls-2" d="M450.43,251.49v25.94h-3.96l-.31-2.35c-1.12,1.68-2.91,2.87-5.29,2.87-4.62,0-7.04-3.89-7.04-9.77s2.87-9.8,7.46-9.8c1.96,0,3.5.84,4.66,2v-9.38l4.48.49ZM445.95,272.17v-8.47c-.98-1.19-2.03-1.96-3.54-1.96-2.31,0-3.85,1.96-3.85,6.41,0,4.76,1.37,6.41,3.57,6.41,1.65,0,2.77-.81,3.81-2.38Z"/>
    <path class="cls-2" d="M470.73,274.91l-.94,2.98c-2.07-.18-3.4-.88-4.1-2.7-1.33,1.96-3.33,2.77-5.57,2.77-3.68,0-5.95-2.35-5.95-5.71,0-4.03,3.01-6.2,8.4-6.2h2.35v-1.05c0-2.42-1.08-3.22-3.47-3.22-1.26,0-3.05.35-4.94.98l-1.02-3.05c2.28-.88,4.62-1.33,6.69-1.33,4.97,0,7.14,2.28,7.14,6.37v7.77c0,1.5.49,2.03,1.4,2.38ZM464.92,272.42v-3.75h-1.85c-2.91,0-4.34,1.05-4.34,3.22,0,1.79.91,2.8,2.63,2.8,1.54,0,2.73-.8,3.57-2.27Z"/>
    <path class="cls-2" d="M489.8,264.02v13.41h-4.48v-12.71c0-2.31-.88-2.98-2.28-2.98-1.61,0-2.8,1.08-3.89,2.8v12.88h-4.48v-18.52h3.89l.35,2.42c1.44-1.86,3.29-2.94,5.64-2.94,3.33,0,5.25,2.1,5.25,5.64Z"/>
    <path class="cls-2" d="M509.96,264.02v13.41h-4.48v-12.71c0-2.31-.88-2.98-2.28-2.98-1.61,0-2.8,1.08-3.89,2.8v12.88h-4.48v-18.52h3.89l.35,2.42c1.44-1.86,3.29-2.94,5.64-2.94,3.33,0,5.25,2.1,5.25,5.64Z"/>
    <path class="cls-2" d="M538.49,277.43h-3.89l-.25-2.59c-1.37,2.1-3.12,3.12-5.67,3.12-3.36,0-5.15-2.17-5.15-5.74v-13.3h4.48v12.74c0,2.17.7,2.91,2.24,2.91s2.8-1.02,3.75-2.63v-13.02h4.48v18.52Z"/>
    <path class="cls-2" d="M568.27,264.02v13.41h-4.48v-12.71c0-2.31-.91-2.98-2.03-2.98-1.54,0-2.49,1.08-3.5,2.8v12.88h-4.48v-12.71c0-2.31-.95-2.98-2.03-2.98-1.58,0-2.52,1.08-3.54,2.8v12.88h-4.48v-18.52h3.89l.35,2.42c1.33-1.86,3.01-2.94,5.36-2.94,2.17,0,3.78,1.16,4.48,3.12,1.4-1.93,3.12-3.12,5.57-3.12,2.94,0,4.9,2.14,4.9,5.64Z"/>
    <path class="cls-2" d="M102.14,302.94c0,5.57-4.03,8.05-9.49,8.05h-2.84v8.44h-4.62v-24.19h7.14c6.09,0,9.8,2.49,9.8,7.7ZM97.31,302.94c0-3.05-1.86-4.31-5.01-4.31h-2.49v8.89h2.49c3.08,0,5.01-1.05,5.01-4.58Z"/>
    <path class="cls-2" d="M115.97,300.66l-.77,4.34c-.56-.14-.98-.21-1.65-.21-2.24,0-3.4,1.64-4.1,4.76v9.87h-4.48v-18.52h3.89l.42,3.64c.88-2.66,2.66-4.13,4.83-4.13.67,0,1.26.07,1.85.25Z"/>
    <path class="cls-2" d="M134.31,310.15c0,5.85-3.26,9.8-8.72,9.8s-8.72-3.71-8.72-9.8,3.25-9.77,8.75-9.77,8.68,3.71,8.68,9.77ZM121.6,310.15c0,4.45,1.37,6.41,3.99,6.41s3.99-2,3.99-6.41-1.37-6.37-3.96-6.37-4.03,2-4.03,6.37Z"/>
    <path class="cls-2" d="M142.95,317.78c0,5.67-2.59,7.56-6.76,9.24l-1.44-3.25c2.42-1.12,3.71-2.07,3.71-5.71v-17.15h4.48v16.87ZM143.55,294.26c0,1.5-1.16,2.7-2.84,2.7s-2.8-1.19-2.8-2.7,1.16-2.73,2.8-2.73,2.84,1.19,2.84,2.73Z"/>
    <path class="cls-2" d="M163.36,311.55h-11.62c.35,3.78,2.1,5.01,4.55,5.01,1.65,0,3.01-.53,4.62-1.65l1.86,2.56c-1.82,1.47-4.06,2.49-6.86,2.49-5.74,0-8.82-3.82-8.82-9.66s2.98-9.91,8.23-9.91,8.16,3.5,8.16,9.35c0,.59-.07,1.33-.1,1.82ZM159.02,308.43c0-3.04-1.08-4.87-3.61-4.87-2.1,0-3.43,1.4-3.68,5.08h7.28v-.21Z"/>
    <path class="cls-2" d="M171.9,319.43h-4.48v-25.94l4.48-.49v26.43ZM176.83,309.06l6.76,10.36h-5.15l-6.37-10.12,6.2-8.4h4.73l-6.16,8.16Z"/>
    <path class="cls-2" d="M196.71,318.55c-1.33.95-3.01,1.4-4.66,1.4-3.64-.04-5.57-2.1-5.57-6.06v-9.77h-2.91v-3.22h2.91v-4.1l4.48-.52v4.62h4.31l-.46,3.22h-3.85v9.66c0,1.82.6,2.56,1.96,2.56.7,0,1.4-.21,2.21-.67l1.58,2.87Z"/>
    <path class="cls-2" d="M213.72,311.55h-11.62c.35,3.78,2.1,5.01,4.55,5.01,1.65,0,3.01-.53,4.62-1.65l1.86,2.56c-1.82,1.47-4.06,2.49-6.86,2.49-5.74,0-8.82-3.82-8.82-9.66s2.98-9.91,8.23-9.91,8.16,3.5,8.16,9.35c0,.59-.07,1.33-.1,1.82ZM209.38,308.43c0-3.04-1.08-4.87-3.61-4.87-2.1,0-3.43,1.4-3.68,5.08h7.28v-.21Z"/>
    <path class="cls-2" d="M238.64,304.13l-8.96,11.8h9.14l-.46,3.5h-13.83v-3.22l9-11.8h-8.23v-3.5h13.34v3.22Z"/>
    <path class="cls-2" d="M256.81,319.43h-3.89l-.25-2.59c-1.37,2.1-3.12,3.12-5.67,3.12-3.36,0-5.15-2.17-5.15-5.74v-13.3h4.48v12.74c0,2.17.7,2.91,2.24,2.91s2.8-1.01,3.75-2.62v-13.02h4.48v18.52Z"/>
    <path class="cls-2" d="M285.86,316.91l-.94,2.97c-2.07-.17-3.4-.88-4.1-2.7-1.33,1.96-3.33,2.77-5.57,2.77-3.68,0-5.95-2.35-5.95-5.71,0-4.03,3.01-6.2,8.4-6.2h2.35v-1.05c0-2.42-1.08-3.22-3.47-3.22-1.26,0-3.05.35-4.94.98l-1.02-3.05c2.28-.88,4.62-1.33,6.69-1.33,4.97,0,7.14,2.28,7.14,6.37v7.77c0,1.5.49,2.03,1.4,2.38ZM280.05,314.42v-3.75h-1.85c-2.91,0-4.34,1.05-4.34,3.22,0,1.79.91,2.8,2.63,2.8,1.54,0,2.73-.8,3.57-2.27Z"/>
    <path class="cls-2" d="M289.36,315.19v-21.7l4.48-.49v22.05c0,.88.28,1.29,1.05,1.29.39,0,.74-.07,1.02-.17l.98,3.15c-.77.35-1.85.63-3.01.63-2.84,0-4.52-1.71-4.52-4.76Z"/>
    <path class="cls-2" d="M299.75,315.19v-21.7l4.48-.49v22.05c0,.88.28,1.29,1.05,1.29.39,0,.73-.07,1.02-.17l.98,3.15c-.77.35-1.85.63-3.01.63-2.84,0-4.52-1.71-4.52-4.76Z"/>
    <path class="cls-2" d="M325.34,311.55h-11.62c.35,3.78,2.1,5.01,4.55,5.01,1.65,0,3.01-.53,4.62-1.65l1.86,2.56c-1.82,1.47-4.06,2.49-6.86,2.49-5.74,0-8.82-3.82-8.82-9.66s2.98-9.91,8.23-9.91,8.16,3.5,8.16,9.35c0,.59-.07,1.33-.1,1.82ZM321,308.43c0-3.04-1.08-4.87-3.61-4.87-2.1,0-3.43,1.4-3.68,5.08h7.28v-.21Z"/>
    <path class="cls-2" d="M344.52,306.02v13.41h-4.48v-12.71c0-2.31-.88-2.98-2.28-2.98-1.61,0-2.8,1.08-3.89,2.8v12.88h-4.48v-18.52h3.89l.35,2.42c1.44-1.86,3.29-2.94,5.64-2.94,3.33,0,5.25,2.1,5.25,5.64Z"/>
    <path class="cls-2" d="M375.91,312.46c0,5.32-4.24,6.97-10.12,6.97h-7.28v-24.19h6.34c6.23,0,10.01,1.75,10.01,6.16,0,3.01-2.17,4.73-4.48,5.21,2.77.53,5.53,1.82,5.53,5.85ZM363.14,298.63v6.55h2.84c2.52,0,4.17-1.12,4.17-3.4,0-2.45-1.68-3.15-4.83-3.15h-2.17ZM371.08,312.28c0-2.91-2.06-3.89-4.76-3.89h-3.19v7.56h2.7c3.05,0,5.25-.63,5.25-3.68Z"/>
    <path class="cls-2" d="M394.92,311.55h-11.62c.35,3.78,2.1,5.01,4.55,5.01,1.65,0,3.01-.53,4.62-1.65l1.86,2.56c-1.82,1.47-4.06,2.49-6.86,2.49-5.74,0-8.82-3.82-8.82-9.66s2.98-9.91,8.23-9.91,8.16,3.5,8.16,9.35c0,.59-.07,1.33-.1,1.82ZM390.58,308.43c0-3.04-1.08-4.87-3.61-4.87-2.1,0-3.43,1.4-3.68,5.08h7.28v-.21Z"/>
    <path class="cls-2" d="M409.97,300.66l-.77,4.34c-.56-.14-.98-.21-1.65-.21-2.24,0-3.4,1.64-4.1,4.76v9.87h-4.48v-18.52h3.89l.42,3.64c.88-2.66,2.66-4.13,4.83-4.13.67,0,1.26.07,1.85.25Z"/>
    <path class="cls-2" d="M427.15,311.55h-11.62c.35,3.78,2.1,5.01,4.55,5.01,1.65,0,3.01-.53,4.62-1.65l1.86,2.56c-1.82,1.47-4.06,2.49-6.86,2.49-5.74,0-8.82-3.82-8.82-9.66s2.98-9.91,8.23-9.91,8.16,3.5,8.16,9.35c0,.59-.07,1.33-.1,1.82ZM422.81,308.43c0-3.04-1.08-4.87-3.61-4.87-2.1,0-3.43,1.4-3.68,5.08h7.28v-.21Z"/>
    <path class="cls-2" d="M436.25,294.26c0,1.5-1.16,2.7-2.84,2.7s-2.8-1.19-2.8-2.7,1.16-2.73,2.8-2.73,2.84,1.19,2.84,2.73ZM435.69,319.43h-4.48v-18.52h4.48v18.52Z"/>
    <path class="cls-2" d="M454.49,302.55l-2,2.7c-1.23-.91-2.35-1.33-3.75-1.33-2.59,0-4.17,1.89-4.17,6.34s1.65,6.06,4.17,6.06c1.4,0,2.38-.46,3.75-1.33l2,2.83c-1.68,1.37-3.61,2.14-5.99,2.14-5.36,0-8.68-3.71-8.68-9.63s3.33-9.94,8.65-9.94c2.42,0,4.27.67,6.02,2.17Z"/>
    <path class="cls-2" d="M472.79,306.02v13.41h-4.48v-12.71c0-2.31-.91-2.98-2.28-2.98-1.58,0-2.8,1.08-3.89,2.77v12.92h-4.48v-25.9l4.48-.46v10.05c1.44-1.75,3.15-2.73,5.39-2.73,3.29,0,5.25,2.14,5.25,5.64Z"/>
    <path class="cls-2" d="M492.99,311.55h-11.62c.35,3.78,2.1,5.01,4.55,5.01,1.65,0,3.01-.53,4.62-1.65l1.86,2.56c-1.82,1.47-4.06,2.49-6.86,2.49-5.74,0-8.82-3.82-8.82-9.66s2.98-9.91,8.23-9.91,8.16,3.5,8.16,9.35c0,.59-.07,1.33-.1,1.82ZM488.65,308.43c0-3.04-1.08-4.87-3.61-4.87-2.1,0-3.43,1.4-3.68,5.08h7.28v-.21Z"/>
    <path class="cls-2" d="M512.17,306.02v13.41h-4.48v-12.71c0-2.31-.88-2.98-2.28-2.98-1.61,0-2.8,1.08-3.89,2.8v12.88h-4.48v-18.52h3.89l.35,2.42c1.44-1.86,3.29-2.94,5.64-2.94,3.33,0,5.25,2.1,5.25,5.64Z"/>
    <path class="cls-2" d="M541.43,293.49v25.94h-3.96l-.31-2.34c-1.12,1.68-2.91,2.87-5.29,2.87-4.62,0-7.04-3.89-7.04-9.77s2.87-9.8,7.46-9.8c1.96,0,3.5.84,4.66,2v-9.38l4.48.49ZM536.95,314.18v-8.47c-.98-1.19-2.03-1.96-3.54-1.96-2.31,0-3.85,1.96-3.85,6.41,0,4.76,1.37,6.41,3.57,6.41,1.65,0,2.77-.8,3.81-2.38Z"/>
    <path class="cls-2" d="M561.83,311.55h-11.62c.35,3.78,2.1,5.01,4.55,5.01,1.65,0,3.01-.53,4.62-1.65l1.86,2.56c-1.82,1.47-4.06,2.49-6.86,2.49-5.74,0-8.82-3.82-8.82-9.66s2.98-9.91,8.23-9.91,8.16,3.5,8.16,9.35c0,.59-.07,1.33-.1,1.82ZM557.49,308.43c0-3.04-1.08-4.87-3.61-4.87-2.1,0-3.43,1.4-3.68,5.08h7.28v-.21Z"/>
    <path class="cls-2" d="M578.39,302.59l-1.75,2.63c-1.54-.98-3.01-1.51-4.66-1.51-1.79,0-2.8.74-2.8,1.86,0,1.23.74,1.79,3.89,2.66,3.78,1.02,5.92,2.56,5.92,5.85,0,3.85-3.57,5.88-7.81,5.88-3.19,0-5.67-1.08-7.39-2.62l2.24-2.52c1.44,1.08,3.15,1.82,5.04,1.82,2,0,3.29-.84,3.29-2.24,0-1.54-.74-2.03-4.2-3.01-3.81-1.05-5.5-2.87-5.5-5.6,0-3.08,2.84-5.39,7.14-5.39,2.66,0,4.83.84,6.58,2.21Z"/>
    <path class="cls-2" d="M178.6,361.43h-3.89l-.25-2.59c-1.37,2.1-3.12,3.12-5.67,3.12-3.36,0-5.15-2.17-5.15-5.74v-13.3h4.48v12.74c0,2.17.7,2.91,2.24,2.91s2.8-1.02,3.75-2.63v-13.02h4.48v18.52ZM169.68,336.36c0,1.37-1.05,2.42-2.42,2.42s-2.49-1.05-2.49-2.42,1.09-2.42,2.49-2.42,2.42,1.05,2.42,2.42ZM177.45,336.36c0,1.37-1.05,2.42-2.45,2.42s-2.45-1.05-2.45-2.42,1.08-2.42,2.45-2.42,2.45,1.05,2.45,2.42Z"/>
    <path class="cls-2" d="M200.3,352.15c0,5.78-2.77,9.8-7.32,9.8-2.03,0-3.71-.91-4.9-2.42l-.28,1.89h-3.96v-25.94l4.48-.49v10.01c1.19-1.65,2.98-2.62,5.11-2.62,4.31,0,6.86,3.57,6.86,9.77ZM195.61,352.15c0-4.94-1.47-6.41-3.61-6.41-1.61,0-2.8,1.08-3.68,2.52v8.19c.8,1.33,2.03,2.14,3.43,2.14,2.28,0,3.85-1.79,3.85-6.44Z"/>
    <path class="cls-2" d="M219.62,353.55h-11.62c.35,3.78,2.1,5.01,4.55,5.01,1.65,0,3.01-.53,4.62-1.65l1.86,2.56c-1.82,1.47-4.06,2.49-6.86,2.49-5.74,0-8.82-3.82-8.82-9.66s2.98-9.91,8.23-9.91,8.16,3.5,8.16,9.35c0,.59-.07,1.33-.1,1.82ZM215.28,350.43c0-3.05-1.08-4.87-3.61-4.87-2.1,0-3.43,1.4-3.68,5.08h7.28v-.21Z"/>
    <path class="cls-2" d="M234.67,342.66l-.77,4.34c-.56-.14-.98-.21-1.65-.21-2.24,0-3.4,1.65-4.1,4.76v9.87h-4.48v-18.52h3.89l.42,3.64c.88-2.66,2.66-4.13,4.83-4.13.67,0,1.26.07,1.85.25Z"/>
    <path class="cls-2" d="M253.12,343.89c-1.4.49-3.15.63-5.36.63,2.24,1.02,3.36,2.45,3.36,4.76,0,3.61-2.8,6.23-7.46,6.23-.81,0-1.51-.07-2.21-.28-.46.32-.77.81-.77,1.37,0,.67.39,1.3,2.24,1.3h2.84c4.1,0,6.76,2.21,6.76,5.25,0,3.71-3.19,5.92-9.24,5.92-6.58,0-8.44-2.1-8.44-5.81h4.03c0,1.86.81,2.66,4.48,2.66s4.66-.98,4.66-2.45c0-1.37-1.08-2.21-3.15-2.21h-2.8c-3.71,0-5.29-1.65-5.29-3.57,0-1.3.81-2.59,2.17-3.43-2.28-1.19-3.26-2.84-3.26-5.22,0-4.03,3.19-6.65,7.67-6.65,4.38.1,6.41-.88,8.65-2.07l1.12,3.57ZM240.2,348.96c0,2.24,1.23,3.64,3.29,3.64s3.29-1.33,3.29-3.67-1.12-3.5-3.36-3.5c-2.03,0-3.22,1.4-3.22,3.54Z"/>
    <path class="cls-2" d="M270.72,353.55h-11.62c.35,3.78,2.1,5.01,4.55,5.01,1.65,0,3.01-.53,4.62-1.65l1.86,2.56c-1.82,1.47-4.06,2.49-6.86,2.49-5.74,0-8.82-3.82-8.82-9.66s2.98-9.91,8.23-9.91,8.16,3.5,8.16,9.35c0,.59-.07,1.33-.1,1.82ZM266.38,350.43c0-3.05-1.08-4.87-3.61-4.87-2.1,0-3.43,1.4-3.68,5.08h7.28v-.21Z"/>
    <path class="cls-2" d="M291.09,352.15c0,5.85-3.26,9.8-8.72,9.8s-8.72-3.71-8.72-9.8,3.26-9.77,8.75-9.77,8.68,3.71,8.68,9.77ZM278.38,352.15c0,4.45,1.37,6.41,3.99,6.41s3.99-2,3.99-6.41-1.37-6.37-3.96-6.37-4.03,2-4.03,6.37Z"/>
    <path class="cls-2" d="M306.21,342.66l-.77,4.34c-.56-.14-.98-.21-1.65-.21-2.24,0-3.4,1.65-4.1,4.76v9.87h-4.48v-18.52h3.89l.42,3.64c.88-2.66,2.66-4.13,4.83-4.13.67,0,1.26.07,1.85.25Z"/>
    <path class="cls-2" d="M323.71,335.49v25.94h-3.96l-.31-2.35c-1.12,1.68-2.91,2.87-5.29,2.87-4.62,0-7.04-3.89-7.04-9.77s2.87-9.8,7.46-9.8c1.96,0,3.5.84,4.66,2v-9.38l4.48.49ZM319.23,356.17v-8.47c-.98-1.19-2.03-1.96-3.54-1.96-2.31,0-3.85,1.96-3.85,6.41,0,4.76,1.37,6.41,3.57,6.41,1.65,0,2.77-.81,3.82-2.38Z"/>
    <path class="cls-2" d="M344.08,348.02v13.41h-4.48v-12.71c0-2.31-.88-2.97-2.28-2.97-1.61,0-2.8,1.08-3.89,2.8v12.88h-4.48v-18.52h3.89l.35,2.42c1.44-1.86,3.29-2.94,5.64-2.94,3.33,0,5.25,2.1,5.25,5.64Z"/>
    <path class="cls-2" d="M364.28,353.55h-11.62c.35,3.78,2.1,5.01,4.55,5.01,1.65,0,3.01-.53,4.62-1.65l1.86,2.56c-1.82,1.47-4.06,2.49-6.86,2.49-5.74,0-8.82-3.82-8.82-9.66s2.98-9.91,8.23-9.91,8.16,3.5,8.16,9.35c0,.59-.07,1.33-.1,1.82ZM359.93,350.43c0-3.05-1.08-4.87-3.61-4.87-2.1,0-3.43,1.4-3.68,5.08h7.28v-.21Z"/>
    <path class="cls-2" d="M379.01,360.55c-1.33.95-3.01,1.4-4.66,1.4-3.64-.04-5.57-2.1-5.57-6.06v-9.77h-2.91v-3.22h2.91v-4.09l4.48-.53v4.62h4.31l-.46,3.22h-3.85v9.66c0,1.82.59,2.56,1.96,2.56.7,0,1.4-.21,2.21-.67l1.58,2.87Z"/>
    <path class="cls-2" d="M396.02,353.55h-11.62c.35,3.78,2.1,5.01,4.55,5.01,1.65,0,3.01-.53,4.62-1.65l1.86,2.56c-1.82,1.47-4.06,2.49-6.86,2.49-5.74,0-8.82-3.82-8.82-9.66s2.98-9.91,8.23-9.91,8.16,3.5,8.16,9.35c0,.59-.07,1.33-.1,1.82ZM391.68,350.43c0-3.05-1.08-4.87-3.61-4.87-2.1,0-3.43,1.4-3.68,5.08h7.28v-.21Z"/>
    <path class="cls-2" d="M415.2,348.02v13.41h-4.48v-12.71c0-2.31-.88-2.97-2.28-2.97-1.61,0-2.8,1.08-3.89,2.8v12.88h-4.48v-18.52h3.89l.35,2.42c1.44-1.86,3.29-2.94,5.64-2.94,3.33,0,5.25,2.1,5.25,5.64Z"/>
    <path class="cls-2" d="M443.72,340.81l-11.17,16.84h11.27l-.49,3.78h-16.17v-3.54l11.38-16.98h-10.22v-3.67h15.4v3.57Z"/>
    <path class="cls-2" d="M452.72,336.26c0,1.5-1.16,2.7-2.84,2.7s-2.8-1.19-2.8-2.7,1.16-2.73,2.8-2.73,2.84,1.19,2.84,2.73ZM452.16,361.43h-4.48v-18.52h4.48v18.52Z"/>
    <path class="cls-2" d="M472.56,353.55h-11.62c.35,3.78,2.1,5.01,4.55,5.01,1.65,0,3.01-.53,4.62-1.65l1.86,2.56c-1.82,1.47-4.06,2.49-6.86,2.49-5.74,0-8.82-3.82-8.82-9.66s2.98-9.91,8.23-9.91,8.16,3.5,8.16,9.35c0,.59-.07,1.33-.1,1.82ZM468.22,350.43c0-3.05-1.08-4.87-3.61-4.87-2.1,0-3.43,1.4-3.68,5.08h7.28v-.21Z"/>
    <path class="cls-2" d="M476.41,357.19v-21.7l4.48-.49v22.05c0,.88.28,1.3,1.05,1.3.39,0,.74-.07,1.02-.17l.98,3.15c-.77.35-1.85.63-3.01.63-2.84,0-4.52-1.72-4.52-4.76Z"/>
    <path class="cls-2" d="M499.51,344.59l-1.75,2.62c-1.54-.98-3.01-1.5-4.66-1.5-1.79,0-2.8.74-2.8,1.86,0,1.22.74,1.79,3.89,2.66,3.78,1.01,5.92,2.55,5.92,5.85,0,3.85-3.57,5.88-7.81,5.88-3.19,0-5.67-1.09-7.39-2.63l2.24-2.52c1.44,1.09,3.15,1.82,5.04,1.82,2,0,3.29-.84,3.29-2.24,0-1.54-.73-2.03-4.2-3.01-3.82-1.05-5.5-2.87-5.5-5.6,0-3.08,2.83-5.39,7.14-5.39,2.66,0,4.83.84,6.58,2.21Z"/>
    <path class="cls-2" d="M146.87,375.53c-3.22,4.62-4.94,8.68-4.94,15.65s1.72,11.03,4.94,15.65l-2.87,1.92c-3.47-4.83-6.65-9.24-6.65-17.57s3.19-12.74,6.65-17.57l2.87,1.93Z"/>
    <path class="cls-2" d="M154.54,401.53c0,.77-.21,1.44-.81,2.73l-2.27,4.76h-2.52l1.44-5.39c-.7-.49-1.12-1.19-1.12-2.1,0-1.43,1.19-2.52,2.66-2.52s2.62,1.08,2.62,2.52ZM161.29,401.53c0,.77-.21,1.44-.81,2.73l-2.28,4.76h-2.52l1.44-5.39c-.7-.49-1.12-1.19-1.12-2.1,0-1.43,1.19-2.52,2.66-2.52s2.63,1.08,2.63,2.52Z"/>
    <path class="cls-2" d="M182.33,381.55l-2.49,2.59c-1.65-1.29-3.01-1.92-5.08-1.92-3.43,0-6.37,2.59-6.37,9.1s1.96,9.1,5.74,9.1c1.37,0,2.7-.28,3.85-.94v-6.3h-3.64l-.49-3.43h8.68v11.83c-2.42,1.47-5.29,2.38-8.33,2.38-6.9,0-10.68-4.34-10.68-12.64s5.04-12.6,11.1-12.6c3.36,0,5.67,1.12,7.7,2.84Z"/>
    <path class="cls-2" d="M202.14,395.55h-11.62c.35,3.78,2.1,5.01,4.55,5.01,1.65,0,3.01-.53,4.62-1.65l1.86,2.56c-1.82,1.47-4.06,2.49-6.86,2.49-5.74,0-8.82-3.82-8.82-9.66s2.98-9.91,8.23-9.91,8.16,3.5,8.16,9.35c0,.6-.07,1.33-.1,1.82ZM197.8,392.43c0-3.04-1.08-4.87-3.61-4.87-2.1,0-3.43,1.4-3.68,5.08h7.28v-.21Z"/>
    <path class="cls-2" d="M205.99,399.19v-21.7l4.48-.49v22.05c0,.88.28,1.29,1.05,1.29.39,0,.74-.07,1.02-.17l.98,3.15c-.77.35-1.85.63-3.01.63-2.84,0-4.52-1.72-4.52-4.76Z"/>
    <path class="cls-2" d="M221.63,378.26c0,1.51-1.16,2.7-2.84,2.7s-2.8-1.19-2.8-2.7,1.16-2.73,2.8-2.73,2.84,1.19,2.84,2.73ZM221.07,403.43h-4.48v-18.52h4.48v18.52Z"/>
    <path class="cls-2" d="M241.44,390.02v13.41h-4.48v-12.71c0-2.31-.88-2.98-2.28-2.98-1.61,0-2.8,1.08-3.89,2.8v12.88h-4.48v-18.52h3.89l.35,2.42c1.44-1.86,3.29-2.94,5.64-2.94,3.33,0,5.25,2.1,5.25,5.64Z"/>
    <path class="cls-2" d="M262.65,385.89c-1.4.49-3.15.63-5.36.63,2.24,1.02,3.36,2.45,3.36,4.76,0,3.61-2.8,6.23-7.46,6.23-.81,0-1.51-.07-2.21-.28-.46.31-.77.8-.77,1.37,0,.67.39,1.29,2.24,1.29h2.84c4.1,0,6.76,2.21,6.76,5.25,0,3.71-3.19,5.92-9.24,5.92-6.58,0-8.44-2.1-8.44-5.81h4.03c0,1.86.81,2.66,4.48,2.66s4.66-.98,4.66-2.45c0-1.37-1.08-2.21-3.15-2.21h-2.8c-3.71,0-5.29-1.65-5.29-3.57,0-1.3.81-2.59,2.17-3.43-2.28-1.19-3.26-2.83-3.26-5.22,0-4.03,3.19-6.65,7.67-6.65,4.38.11,6.41-.88,8.65-2.07l1.12,3.57ZM249.74,390.96c0,2.24,1.23,3.64,3.29,3.64s3.29-1.33,3.29-3.67-1.12-3.5-3.36-3.5c-2.03,0-3.22,1.4-3.22,3.54Z"/>
    <path class="cls-2" d="M280.26,395.55h-11.62c.35,3.78,2.1,5.01,4.55,5.01,1.65,0,3.01-.53,4.62-1.65l1.86,2.56c-1.82,1.47-4.06,2.49-6.86,2.49-5.74,0-8.82-3.82-8.82-9.66s2.98-9.91,8.23-9.91,8.16,3.5,8.16,9.35c0,.6-.07,1.33-.1,1.82ZM275.92,392.43c0-3.04-1.08-4.87-3.61-4.87-2.1,0-3.43,1.4-3.68,5.08h7.28v-.21Z"/>
    <path class="cls-2" d="M299.44,390.02v13.41h-4.48v-12.71c0-2.31-.88-2.98-2.28-2.98-1.61,0-2.8,1.08-3.89,2.8v12.88h-4.48v-18.52h3.89l.35,2.42c1.44-1.86,3.29-2.94,5.64-2.94,3.33,0,5.25,2.1,5.25,5.64Z"/>
    <path class="cls-2" d="M319.95,377.49v25.94h-3.96l-.31-2.35c-1.12,1.68-2.91,2.87-5.29,2.87-4.62,0-7.04-3.89-7.04-9.77s2.87-9.8,7.46-9.8c1.96,0,3.5.84,4.66,2v-9.38l4.48.49ZM315.47,398.17v-8.47c-.98-1.19-2.03-1.96-3.54-1.96-2.31,0-3.85,1.96-3.85,6.41,0,4.76,1.37,6.41,3.57,6.41,1.65,0,2.77-.81,3.81-2.38Z"/>
    <path class="cls-2" d="M340.35,395.55h-11.62c.35,3.78,2.1,5.01,4.55,5.01,1.65,0,3.01-.53,4.62-1.65l1.86,2.56c-1.82,1.47-4.06,2.49-6.86,2.49-5.74,0-8.82-3.82-8.82-9.66s2.98-9.91,8.23-9.91,8.16,3.5,8.16,9.35c0,.6-.07,1.33-.1,1.82ZM336.01,392.43c0-3.04-1.08-4.87-3.61-4.87-2.1,0-3.43,1.4-3.68,5.08h7.28v-.21Z"/>
    <path class="cls-2" d="M356.91,386.59l-1.75,2.62c-1.54-.98-3.01-1.5-4.66-1.5-1.79,0-2.8.74-2.8,1.86,0,1.22.74,1.79,3.89,2.66,3.78,1.01,5.92,2.56,5.92,5.85,0,3.85-3.57,5.88-7.81,5.88-3.19,0-5.67-1.09-7.39-2.63l2.24-2.52c1.44,1.08,3.15,1.82,5.04,1.82,2,0,3.29-.84,3.29-2.24,0-1.54-.74-2.03-4.2-3.01-3.81-1.05-5.5-2.87-5.5-5.6,0-3.08,2.84-5.39,7.14-5.39,2.66,0,4.83.84,6.58,2.21Z"/>
    <path class="cls-2" d="M384.91,381.69l-2.27,2.62c-1.75-1.43-3.43-2.06-5.43-2.06-2.17,0-3.75.98-3.75,2.87,0,1.75.95,2.52,4.97,3.78,4.24,1.33,7.18,3.08,7.18,7.63s-3.4,7.42-9.17,7.42c-3.85,0-6.72-1.37-8.72-3.33l2.38-2.66c1.79,1.51,3.71,2.42,6.23,2.42s4.45-1.26,4.45-3.61c0-2.03-1.02-2.94-4.8-4.1-5.08-1.58-7.28-3.61-7.28-7.28,0-4.03,3.47-6.69,8.23-6.69,3.54,0,5.88,1.05,7.98,2.98Z"/>
    <path class="cls-2" d="M400.03,402.55c-1.33.95-3.01,1.4-4.66,1.4-3.64-.04-5.57-2.1-5.57-6.06v-9.77h-2.91v-3.22h2.91v-4.1l4.48-.53v4.62h4.31l-.46,3.22h-3.85v9.66c0,1.82.6,2.56,1.96,2.56.7,0,1.4-.21,2.21-.67l1.58,2.87Z"/>
    <path class="cls-2" d="M417.21,403.43h-3.89l-.25-2.59c-1.37,2.1-3.12,3.12-5.67,3.12-3.36,0-5.15-2.17-5.15-5.74v-13.3h4.48v12.74c0,2.17.7,2.91,2.24,2.91s2.8-1.02,3.75-2.62v-13.02h4.48v18.52Z"/>
    <path class="cls-2" d="M437.93,377.49v25.94h-3.96l-.31-2.35c-1.12,1.68-2.91,2.87-5.29,2.87-4.62,0-7.04-3.89-7.04-9.77s2.87-9.8,7.46-9.8c1.96,0,3.5.84,4.66,2v-9.38l4.48.49ZM433.45,398.17v-8.47c-.98-1.19-2.03-1.96-3.54-1.96-2.31,0-3.85,1.96-3.85,6.41,0,4.76,1.37,6.41,3.57,6.41,1.65,0,2.77-.81,3.81-2.38Z"/>
    <path class="cls-2" d="M448.22,378.26c0,1.51-1.16,2.7-2.84,2.7s-2.8-1.19-2.8-2.7,1.16-2.73,2.8-2.73,2.84,1.19,2.84,2.73ZM447.66,403.43h-4.48v-18.52h4.48v18.52Z"/>
    <path class="cls-2" d="M467.65,403.43h-3.89l-.25-2.59c-1.37,2.1-3.12,3.12-5.67,3.12-3.36,0-5.15-2.17-5.15-5.74v-13.3h4.48v12.74c0,2.17.7,2.91,2.24,2.91s2.8-1.02,3.75-2.62v-13.02h4.48v18.52Z"/>
    <path class="cls-2" d="M497.43,390.02v13.41h-4.48v-12.71c0-2.31-.91-2.98-2.03-2.98-1.54,0-2.49,1.08-3.5,2.8v12.88h-4.48v-12.71c0-2.31-.95-2.98-2.03-2.98-1.58,0-2.52,1.08-3.54,2.8v12.88h-4.48v-18.52h3.89l.35,2.42c1.33-1.86,3.01-2.94,5.36-2.94,2.17,0,3.78,1.16,4.48,3.12,1.4-1.92,3.12-3.12,5.57-3.12,2.94,0,4.9,2.13,4.9,5.64Z"/>
    <path class="cls-2" d="M500.93,384.28c0-.73.21-1.43.81-2.69l2.28-4.76h2.52l-1.44,5.36c.7.52,1.12,1.19,1.12,2.1,0,1.44-1.19,2.56-2.66,2.56s-2.63-1.12-2.63-2.56ZM507.69,384.28c0-.73.21-1.43.81-2.69l2.27-4.76h2.52l-1.44,5.36c.7.52,1.12,1.19,1.12,2.1,0,1.44-1.19,2.56-2.66,2.56s-2.62-1.12-2.62-2.56Z"/>
    <path class="cls-2" d="M524.87,391.17c0,8.33-3.15,12.74-6.65,17.57l-2.84-1.92c3.19-4.62,4.94-8.72,4.94-15.65s-1.75-11.03-4.94-15.65l2.84-1.93c3.5,4.83,6.65,9.24,6.65,17.57Z"/>
    <path class="cls-2" d="M140.07,428.59l-1.75,2.62c-1.54-.98-3.01-1.5-4.66-1.5-1.79,0-2.8.74-2.8,1.86,0,1.22.74,1.79,3.89,2.66,3.78,1.01,5.92,2.56,5.92,5.85,0,3.85-3.57,5.88-7.81,5.88-3.19,0-5.67-1.09-7.39-2.63l2.24-2.52c1.44,1.08,3.15,1.82,5.04,1.82,2,0,3.29-.84,3.29-2.24,0-1.54-.73-2.03-4.2-3.01-3.82-1.05-5.5-2.87-5.5-5.6,0-3.08,2.83-5.39,7.14-5.39,2.66,0,4.83.84,6.58,2.21Z"/>
    <path class="cls-2" d="M160.47,436.15c0,5.85-3.26,9.8-8.72,9.8s-8.72-3.71-8.72-9.8,3.26-9.77,8.75-9.77,8.68,3.71,8.68,9.77ZM147.76,436.15c0,4.45,1.37,6.41,3.99,6.41s3.99-2,3.99-6.41-1.37-6.37-3.96-6.37-4.03,2-4.03,6.37Z"/>
    <path class="cls-2" d="M183.26,445.43h-5.6l-2.8-14.53-2.87,14.53h-5.5l-4.1-18.52h4.48l2.59,15.23,3.22-15.23h4.59l2.94,15.23,2.77-15.23h4.31l-4.03,18.52Z"/>
    <path class="cls-2" d="M195.33,420.26c0,1.51-1.16,2.7-2.84,2.7s-2.8-1.19-2.8-2.7,1.16-2.73,2.8-2.73,2.84,1.19,2.84,2.73ZM194.77,445.43h-4.48v-18.52h4.48v18.52Z"/>
    <path class="cls-2" d="M215.18,437.55h-11.62c.35,3.78,2.1,5.01,4.55,5.01,1.65,0,3.01-.53,4.62-1.65l1.86,2.56c-1.82,1.47-4.06,2.49-6.86,2.49-5.74,0-8.82-3.82-8.82-9.66s2.98-9.91,8.23-9.91,8.16,3.5,8.16,9.35c0,.6-.07,1.33-.1,1.82ZM210.84,434.43c0-3.04-1.08-4.87-3.61-4.87-2.1,0-3.43,1.4-3.68,5.08h7.28v-.21Z"/>
    <path class="cls-2" d="M228.19,421.24h13.69l-.49,3.43h-8.58v7.25h7.46v3.43h-7.46v10.08h-4.62v-24.19Z"/>
    <path class="cls-2" d="M260.19,436.15c0,5.85-3.26,9.8-8.72,9.8s-8.72-3.71-8.72-9.8,3.26-9.77,8.75-9.77,8.68,3.71,8.68,9.77ZM247.48,436.15c0,4.45,1.37,6.41,3.99,6.41s3.99-2,3.99-6.41-1.37-6.37-3.96-6.37-4.03,2-4.03,6.37Z"/>
    <path class="cls-2" d="M275.3,426.66l-.77,4.34c-.56-.14-.98-.21-1.65-.21-2.24,0-3.4,1.65-4.1,4.76v9.87h-4.48v-18.52h3.89l.42,3.64c.88-2.66,2.66-4.13,4.83-4.13.67,0,1.26.07,1.85.25Z"/>
    <path class="cls-2" d="M290.08,428.59l-1.75,2.62c-1.54-.98-3.01-1.5-4.66-1.5-1.79,0-2.8.74-2.8,1.86,0,1.22.74,1.79,3.89,2.66,3.78,1.01,5.92,2.56,5.92,5.85,0,3.85-3.57,5.88-7.81,5.88-3.19,0-5.67-1.09-7.39-2.63l2.24-2.52c1.44,1.08,3.15,1.82,5.04,1.82,2,0,3.29-.84,3.29-2.24,0-1.54-.73-2.03-4.2-3.01-3.82-1.05-5.5-2.87-5.5-5.6,0-3.08,2.83-5.39,7.14-5.39,2.66,0,4.83.84,6.58,2.21Z"/>
    <path class="cls-2" d="M307.72,428.55l-2,2.7c-1.23-.91-2.35-1.33-3.75-1.33-2.59,0-4.17,1.89-4.17,6.34s1.65,6.06,4.17,6.06c1.4,0,2.38-.46,3.75-1.33l2,2.83c-1.68,1.37-3.61,2.14-5.99,2.14-5.36,0-8.68-3.71-8.68-9.63s3.33-9.94,8.65-9.94c2.42,0,4.27.67,6.02,2.17Z"/>
    <path class="cls-2" d="M326.02,432.02v13.41h-4.48v-12.71c0-2.31-.91-2.98-2.28-2.98-1.58,0-2.8,1.08-3.89,2.77v12.92h-4.48v-25.9l4.48-.46v10.05c1.44-1.75,3.15-2.73,5.39-2.73,3.29,0,5.25,2.13,5.25,5.64Z"/>
    <path class="cls-2" d="M345.8,445.43h-3.89l-.25-2.59c-1.37,2.1-3.12,3.12-5.67,3.12-3.36,0-5.15-2.17-5.15-5.74v-13.3h4.48v12.74c0,2.17.7,2.91,2.24,2.91s2.8-1.02,3.75-2.62v-13.02h4.48v18.52Z"/>
    <path class="cls-2" d="M366.17,432.02v13.41h-4.48v-12.71c0-2.31-.88-2.98-2.28-2.98-1.61,0-2.8,1.08-3.89,2.8v12.88h-4.48v-18.52h3.89l.35,2.42c1.44-1.86,3.29-2.94,5.64-2.94,3.33,0,5.25,2.1,5.25,5.64Z"/>
    <path class="cls-2" d="M387.37,427.89c-1.4.49-3.15.63-5.36.63,2.24,1.02,3.36,2.45,3.36,4.76,0,3.61-2.8,6.23-7.46,6.23-.81,0-1.51-.07-2.21-.28-.46.31-.77.8-.77,1.37,0,.67.39,1.29,2.24,1.29h2.84c4.1,0,6.76,2.21,6.76,5.25,0,3.71-3.19,5.92-9.24,5.92-6.58,0-8.44-2.1-8.44-5.81h4.03c0,1.86.81,2.66,4.48,2.66s4.66-.98,4.66-2.45c0-1.37-1.08-2.21-3.15-2.21h-2.8c-3.71,0-5.29-1.65-5.29-3.57,0-1.3.81-2.59,2.17-3.43-2.28-1.19-3.26-2.83-3.26-5.22,0-4.03,3.19-6.65,7.67-6.65,4.38.11,6.41-.88,8.65-2.07l1.12,3.57ZM374.46,432.96c0,2.24,1.23,3.64,3.29,3.64s3.29-1.33,3.29-3.67-1.12-3.5-3.36-3.5c-2.03,0-3.22,1.4-3.22,3.54Z"/>
    <path class="cls-2" d="M402.39,428.59l-1.75,2.62c-1.54-.98-3.01-1.5-4.66-1.5-1.79,0-2.8.74-2.8,1.86,0,1.22.74,1.79,3.89,2.66,3.78,1.01,5.92,2.56,5.92,5.85,0,3.85-3.57,5.88-7.81,5.88-3.19,0-5.67-1.09-7.39-2.63l2.24-2.52c1.44,1.08,3.15,1.82,5.04,1.82,2,0,3.29-.84,3.29-2.24,0-1.54-.74-2.03-4.2-3.01-3.81-1.05-5.5-2.87-5.5-5.6,0-3.08,2.84-5.39,7.14-5.39,2.66,0,4.83.84,6.58,2.21Z"/>
    <path class="cls-2" d="M422.93,436.11c0,5.67-2.63,9.84-7.32,9.84-1.89,0-3.5-.67-4.66-2.03v8.65l-4.48.49v-26.15h3.92l.24,2.27c1.47-1.92,3.43-2.8,5.43-2.8,4.83,0,6.86,3.82,6.86,9.73ZM418.24,436.15c0-4.69-1.26-6.41-3.5-6.41-1.58,0-2.91,1.08-3.78,2.52v8.33c.88,1.29,2,1.92,3.4,1.92,2.45,0,3.89-1.89,3.89-6.37Z"/>
    <path class="cls-2" d="M438.09,426.66l-.77,4.34c-.56-.14-.98-.21-1.65-.21-2.24,0-3.4,1.65-4.1,4.76v9.87h-4.48v-18.52h3.89l.42,3.64c.88-2.66,2.66-4.13,4.83-4.13.67,0,1.26.07,1.85.25Z"/>
    <path class="cls-2" d="M456.43,436.15c0,5.85-3.26,9.8-8.72,9.8s-8.72-3.71-8.72-9.8,3.25-9.77,8.75-9.77,8.68,3.71,8.68,9.77ZM443.72,436.15c0,4.45,1.37,6.41,3.99,6.41s3.99-2,3.99-6.41-1.37-6.37-3.96-6.37-4.03,2-4.03,6.37Z"/>
    <path class="cls-2" d="M465.07,443.78c0,5.67-2.59,7.56-6.76,9.24l-1.44-3.25c2.42-1.12,3.71-2.07,3.71-5.71v-17.15h4.48v16.87ZM465.67,420.26c0,1.51-1.16,2.7-2.84,2.7s-2.8-1.19-2.8-2.7,1.16-2.73,2.8-2.73,2.84,1.19,2.84,2.73Z"/>
    <path class="cls-2" d="M485.48,437.55h-11.62c.35,3.78,2.1,5.01,4.55,5.01,1.65,0,3.01-.53,4.62-1.65l1.86,2.56c-1.82,1.47-4.06,2.49-6.86,2.49-5.74,0-8.82-3.82-8.82-9.66s2.98-9.91,8.23-9.91,8.16,3.5,8.16,9.35c0,.6-.07,1.33-.1,1.82ZM481.14,434.43c0-3.04-1.08-4.87-3.61-4.87-2.1,0-3.43,1.4-3.68,5.08h7.28v-.21Z"/>
    <path class="cls-2" d="M494.02,445.43h-4.48v-25.94l4.48-.49v26.43ZM498.95,435.06l6.76,10.36h-5.15l-6.37-10.12,6.2-8.4h4.73l-6.16,8.16Z"/>
    <path class="cls-2" d="M518.83,444.55c-1.33.95-3.01,1.4-4.66,1.4-3.64-.04-5.57-2.1-5.57-6.06v-9.77h-2.91v-3.22h2.91v-4.1l4.48-.53v4.62h4.31l-.46,3.22h-3.85v9.66c0,1.82.6,2.56,1.96,2.56.7,0,1.4-.21,2.21-.67l1.58,2.87Z"/>
    <path class="cls-2" d="M535.84,437.55h-11.62c.35,3.78,2.1,5.01,4.55,5.01,1.65,0,3.01-.53,4.62-1.65l1.86,2.56c-1.82,1.47-4.06,2.49-6.86,2.49-5.74,0-8.82-3.82-8.82-9.66s2.98-9.91,8.23-9.91,8.16,3.5,8.16,9.35c0,.6-.07,1.33-.1,1.82ZM531.5,434.43c0-3.04-1.08-4.87-3.61-4.87-2.1,0-3.43,1.4-3.68,5.08h7.28v-.21Z"/>
    <path class="cls-2" d="M190.29,487.43h-3.89l-.25-2.59c-1.37,2.1-3.12,3.12-5.67,3.12-3.36,0-5.15-2.17-5.15-5.74v-13.3h4.48v12.74c0,2.17.7,2.91,2.24,2.91s2.8-1.02,3.75-2.62v-13.02h4.48v18.52Z"/>
    <path class="cls-2" d="M210.66,474.02v13.41h-4.48v-12.71c0-2.31-.88-2.98-2.28-2.98-1.61,0-2.8,1.08-3.89,2.8v12.88h-4.48v-18.52h3.89l.35,2.42c1.44-1.86,3.29-2.94,5.64-2.94,3.33,0,5.25,2.1,5.25,5.64Z"/>
    <path class="cls-2" d="M231.17,461.49v25.94h-3.96l-.31-2.35c-1.12,1.68-2.91,2.87-5.29,2.87-4.62,0-7.04-3.89-7.04-9.77s2.87-9.8,7.46-9.8c1.96,0,3.5.84,4.66,2v-9.38l4.48.49ZM226.69,482.17v-8.47c-.98-1.19-2.03-1.96-3.54-1.96-2.31,0-3.85,1.96-3.85,6.41,0,4.76,1.37,6.41,3.57,6.41,1.65,0,2.77-.81,3.82-2.38Z"/>
    <path class="cls-2" d="M262.32,470.94c0,5.57-4.03,8.05-9.49,8.05h-2.84v8.44h-4.62v-24.19h7.14c6.09,0,9.8,2.49,9.8,7.7ZM257.49,470.94c0-3.05-1.86-4.31-5.01-4.31h-2.49v8.89h2.49c3.08,0,5.01-1.05,5.01-4.58Z"/>
    <path class="cls-2" d="M279.51,484.9l-.94,2.98c-2.07-.17-3.4-.88-4.1-2.7-1.33,1.96-3.33,2.77-5.57,2.77-3.68,0-5.95-2.35-5.95-5.71,0-4.03,3.01-6.2,8.4-6.2h2.35v-1.05c0-2.42-1.08-3.22-3.47-3.22-1.26,0-3.05.35-4.94.98l-1.02-3.04c2.28-.88,4.62-1.33,6.69-1.33,4.97,0,7.14,2.28,7.14,6.37v7.77c0,1.5.49,2.03,1.4,2.38ZM273.69,482.42v-3.75h-1.85c-2.91,0-4.34,1.05-4.34,3.22,0,1.79.91,2.8,2.63,2.8,1.54,0,2.73-.8,3.57-2.28Z"/>
    <path class="cls-2" d="M299.91,478.11c0,5.67-2.63,9.84-7.32,9.84-1.89,0-3.5-.67-4.66-2.03v8.65l-4.48.49v-26.15h3.92l.24,2.27c1.47-1.92,3.43-2.8,5.43-2.8,4.83,0,6.86,3.82,6.86,9.73ZM295.22,478.15c0-4.69-1.26-6.41-3.5-6.41-1.58,0-2.91,1.08-3.78,2.52v8.33c.88,1.29,2,1.92,3.4,1.92,2.45,0,3.89-1.89,3.89-6.37Z"/>
    <path class="cls-2" d="M319.23,479.55h-11.62c.35,3.78,2.1,5.01,4.55,5.01,1.65,0,3.01-.53,4.62-1.65l1.86,2.56c-1.82,1.47-4.06,2.49-6.86,2.49-5.74,0-8.82-3.82-8.82-9.66s2.98-9.91,8.23-9.91,8.16,3.5,8.16,9.35c0,.6-.07,1.33-.1,1.82ZM314.89,476.43c0-3.04-1.08-4.87-3.61-4.87-2.1,0-3.43,1.4-3.68,5.08h7.28v-.21Z"/>
    <path class="cls-2" d="M334.28,468.66l-.77,4.34c-.56-.14-.98-.21-1.65-.21-2.24,0-3.4,1.65-4.1,4.76v9.87h-4.48v-18.52h3.89l.42,3.64c.88-2.66,2.66-4.13,4.83-4.13.67,0,1.26.07,1.85.25Z"/>
    <path class="cls-2" d="M360.91,479.55h-11.62c.35,3.78,2.1,5.01,4.55,5.01,1.65,0,3.01-.53,4.62-1.65l1.86,2.56c-1.82,1.47-4.06,2.49-6.86,2.49-5.74,0-8.82-3.82-8.82-9.66s2.98-9.91,8.23-9.91,8.16,3.5,8.16,9.35c0,.6-.07,1.33-.1,1.82ZM356.57,476.43c0-3.04-1.08-4.87-3.61-4.87-2.1,0-3.43,1.4-3.68,5.08h7.28v-.21Z"/>
    <path class="cls-2" d="M375.96,468.66l-.77,4.34c-.56-.14-.98-.21-1.65-.21-2.24,0-3.4,1.65-4.1,4.76v9.87h-4.48v-18.52h3.89l.42,3.64c.88-2.66,2.66-4.13,4.83-4.13.67,0,1.26.07,1.85.25Z"/>
    <path class="cls-2" d="M397.35,487.43h-5.6l-2.8-14.53-2.87,14.53h-5.5l-4.1-18.52h4.48l2.59,15.23,3.22-15.23h4.59l2.94,15.23,2.77-15.23h4.31l-4.03,18.52Z"/>
    <path class="cls-2" d="M419.54,479.55h-11.62c.35,3.78,2.1,5.01,4.55,5.01,1.65,0,3.01-.53,4.62-1.65l1.86,2.56c-1.82,1.47-4.06,2.49-6.86,2.49-5.74,0-8.82-3.82-8.82-9.66s2.98-9.91,8.23-9.91,8.16,3.5,8.16,9.35c0,.6-.07,1.33-.1,1.82ZM415.2,476.43c0-3.04-1.08-4.87-3.61-4.87-2.1,0-3.43,1.4-3.68,5.08h7.28v-.21Z"/>
    <path class="cls-2" d="M428.64,462.26c0,1.51-1.16,2.7-2.84,2.7s-2.8-1.19-2.8-2.7,1.16-2.73,2.8-2.73,2.84,1.19,2.84,2.73ZM428.08,487.43h-4.48v-18.52h4.48v18.52Z"/>
    <path class="cls-2" d="M444,486.55c-1.33.95-3.01,1.4-4.66,1.4-3.64-.04-5.57-2.1-5.57-6.06v-9.77h-2.91v-3.22h2.91v-4.1l4.48-.53v4.62h4.31l-.46,3.22h-3.85v9.66c0,1.82.6,2.56,1.96,2.56.7,0,1.4-.21,2.21-.67l1.58,2.87Z"/>
    <path class="cls-2" d="M461.01,479.55h-11.62c.35,3.78,2.1,5.01,4.55,5.01,1.65,0,3.01-.53,4.62-1.65l1.86,2.56c-1.82,1.47-4.06,2.49-6.86,2.49-5.74,0-8.82-3.82-8.82-9.66s2.98-9.91,8.23-9.91,8.16,3.5,8.16,9.35c0,.6-.07,1.33-.1,1.82ZM456.67,476.43c0-3.04-1.08-4.87-3.61-4.87-2.1,0-3.43,1.4-3.68,5.08h7.28v-.21Z"/>
    <path class="cls-2" d="M476.06,468.66l-.77,4.34c-.56-.14-.98-.21-1.65-.21-2.24,0-3.4,1.65-4.1,4.76v9.87h-4.48v-18.52h3.89l.42,3.64c.88-2.66,2.66-4.13,4.83-4.13.67,0,1.26.07,1.85.25Z"/>
    <path class="cls-2" d="M489.47,486.55c-1.33.95-3.01,1.4-4.66,1.4-3.64-.04-5.57-2.1-5.57-6.06v-9.77h-2.91v-3.22h2.91v-4.1l4.48-.53v4.62h4.31l-.46,3.22h-3.85v9.66c0,1.82.6,2.56,1.96,2.56.7,0,1.4-.21,2.21-.67l1.58,2.87Z"/>
    <path class="cls-2" d="M260.5,514.13l-8.96,11.8h9.14l-.46,3.5h-13.83v-3.22l9-11.8h-8.23v-3.5h13.34v3.22Z"/>
    <path class="cls-2" d="M278.67,529.43h-3.89l-.25-2.59c-1.37,2.1-3.12,3.12-5.67,3.12-3.36,0-5.15-2.17-5.15-5.74v-13.3h4.48v12.74c0,2.17.7,2.91,2.24,2.91s2.8-1.02,3.75-2.62v-13.02h4.48v18.52Z"/>
    <path class="cls-2" d="M311.32,529.43h-5.6l-2.8-14.53-2.87,14.53h-5.5l-4.1-18.52h4.48l2.59,15.23,3.22-15.23h4.59l2.94,15.23,2.77-15.23h4.31l-4.03,18.52Z"/>
    <path class="cls-2" d="M333.51,521.55h-11.62c.35,3.78,2.1,5.01,4.55,5.01,1.65,0,3.01-.53,4.62-1.65l1.86,2.56c-1.82,1.47-4.06,2.49-6.86,2.49-5.74,0-8.82-3.82-8.82-9.66s2.98-9.91,8.23-9.91,8.16,3.5,8.16,9.35c0,.6-.07,1.33-.1,1.82ZM329.17,518.43c0-3.04-1.08-4.87-3.61-4.87-2.1,0-3.43,1.4-3.68,5.08h7.28v-.21Z"/>
    <path class="cls-2" d="M348.56,510.66l-.77,4.34c-.56-.14-.98-.21-1.65-.21-2.24,0-3.4,1.65-4.1,4.76v9.87h-4.48v-18.52h3.89l.42,3.64c.88-2.66,2.66-4.13,4.83-4.13.67,0,1.26.07,1.85.25Z"/>
    <path class="cls-2" d="M366.06,503.49v25.94h-3.96l-.31-2.35c-1.12,1.68-2.91,2.87-5.29,2.87-4.62,0-7.04-3.89-7.04-9.77s2.87-9.8,7.46-9.8c1.96,0,3.5.84,4.66,2v-9.38l4.48.49ZM361.58,524.17v-8.47c-.98-1.19-2.03-1.96-3.54-1.96-2.31,0-3.85,1.96-3.85,6.41,0,4.76,1.37,6.41,3.57,6.41,1.65,0,2.77-.81,3.82-2.38Z"/>
    <path class="cls-2" d="M386.47,521.55h-11.62c.35,3.78,2.1,5.01,4.55,5.01,1.65,0,3.01-.53,4.62-1.65l1.86,2.56c-1.82,1.47-4.06,2.49-6.86,2.49-5.74,0-8.82-3.82-8.82-9.66s2.98-9.91,8.23-9.91,8.16,3.5,8.16,9.35c0,.6-.07,1.33-.1,1.82ZM382.12,518.43c0-3.04-1.08-4.87-3.61-4.87-2.1,0-3.43,1.4-3.68,5.08h7.28v-.21Z"/>
    <path class="cls-2" d="M405.65,516.02v13.41h-4.48v-12.71c0-2.31-.88-2.98-2.28-2.98-1.61,0-2.8,1.08-3.89,2.8v12.88h-4.48v-18.52h3.89l.35,2.42c1.44-1.86,3.29-2.94,5.64-2.94,3.33,0,5.25,2.1,5.25,5.64Z"/>
    <path class="cls-2" d="M415.09,527.11c0,1.54-1.26,2.84-2.87,2.84s-2.8-1.3-2.8-2.84,1.23-2.83,2.8-2.83,2.87,1.26,2.87,2.83Z"/>
  </g>
</svg>