<?xml version="1.0" encoding="UTF-8"?>
<svg id="Ebene_1" data-name="Ebene 1" xmlns="http://www.w3.org/2000/svg" xmlns:xlink="http://www.w3.org/1999/xlink" viewBox="0 0 662.22 662.22">
  <defs>
    <style>
      .cls-1 {
        fill: url(#Unbenannter_Verlauf_78);
      }

      .cls-2 {
        fill: #fff;
      }

      .cls-3 {
        fill: none;
      }
    </style>
    <linearGradient id="Unbenannter_Verlauf_78" data-name="Unbenannter Verlauf 78" x1="-4.06" y1="329.43" x2="658.17" y2="329.43" gradientTransform="translate(332.79 -133.09) rotate(45)" gradientUnits="userSpaceOnUse">
      <stop offset="0" stop-color="#004e9e"/>
      <stop offset=".27" stop-color="#075ca7"/>
      <stop offset=".78" stop-color="#1a81be"/>
      <stop offset="1" stop-color="#2494ca"/>
      <stop offset="1" stop-color="#2494ca"/>
    </linearGradient>
  </defs>
  <circle class="cls-1" cx="331.11" cy="331.11" r="331.11"/>
  <path class="cls-2" d="M331.11,27.34c39.46,0,77.92,7.48,114.31,22.24,37.68,15.28,71.49,37.73,100.49,66.73,29,29,51.45,62.81,66.73,100.49,14.76,36.4,22.24,74.86,22.24,114.31s-7.48,77.92-22.24,114.31c-15.28,37.68-37.73,71.49-66.73,100.49-29,29-62.81,51.45-100.49,66.73-36.4,14.76-74.86,22.24-114.31,22.24s-77.92-7.48-114.31-22.24c-37.68-15.28-71.49-37.73-100.49-66.73-29-29-51.45-62.81-66.73-100.49-14.76-36.4-22.24-74.86-22.24-114.31s7.48-77.92,22.24-114.31c15.28-37.68,37.73-71.49,66.73-100.49,29-29,62.81-51.45,100.49-66.73,36.4-14.76,74.86-22.24,114.31-22.24M331.11,23.34c-78.77,0-157.53,30.05-217.63,90.15-120.19,120.19-120.19,315.07,0,435.26,60.1,60.1,138.86,90.15,217.63,90.15s157.53-30.05,217.63-90.15c120.19-120.19,120.19-315.07,0-435.26-60.1-60.1-138.86-90.15-217.63-90.15h0Z"/>
  <g>
    <rect class="cls-3" x="27.22" y="166.36" width="607.78" height="329.5"/>
    <path class="cls-2" d="M214.39,184.87c0,4.87-3.12,8.44-9.03,8.44s-8.96-3.47-8.96-8.44v-16.28h4.62v16.03c0,3.4,1.36,5.08,4.34,5.08s4.38-1.68,4.38-5.08v-16.03h4.66v16.28Z"/>
    <path class="cls-2" d="M244.03,179.38v13.41h-4.48v-12.71c0-2.31-.91-2.98-2.03-2.98-1.54,0-2.49,1.08-3.5,2.8v12.88h-4.48v-12.71c0-2.31-.95-2.98-2.03-2.98-1.58,0-2.52,1.08-3.54,2.8v12.88h-4.48v-18.52h3.89l.35,2.42c1.33-1.86,3.01-2.94,5.36-2.94,2.17,0,3.78,1.16,4.48,3.12,1.4-1.93,3.12-3.12,5.57-3.12,2.94,0,4.9,2.14,4.9,5.64Z"/>
    <path class="cls-2" d="M273.29,166.85v25.94h-3.96l-.31-2.35c-1.12,1.68-2.91,2.87-5.29,2.87-4.62,0-7.04-3.89-7.04-9.77s2.87-9.8,7.46-9.8c1.96,0,3.5.84,4.66,2v-9.38l4.48.49ZM268.81,187.53v-8.47c-.98-1.19-2.03-1.96-3.54-1.96-2.31,0-3.85,1.96-3.85,6.41,0,4.76,1.37,6.41,3.57,6.41,1.65,0,2.77-.81,3.81-2.38Z"/>
    <path class="cls-2" d="M283.58,167.62c0,1.5-1.16,2.7-2.84,2.7s-2.8-1.19-2.8-2.7,1.16-2.73,2.8-2.73,2.84,1.19,2.84,2.73ZM283.02,192.79h-4.48v-18.52h4.48v18.52Z"/>
    <path class="cls-2" d="M303.43,184.91h-11.62c.35,3.78,2.1,5.01,4.55,5.01,1.65,0,3.01-.53,4.62-1.65l1.86,2.56c-1.82,1.47-4.06,2.48-6.86,2.48-5.74,0-8.82-3.82-8.82-9.66s2.98-9.91,8.23-9.91,8.16,3.5,8.16,9.35c0,.59-.07,1.33-.1,1.82ZM299.09,181.79c0-3.05-1.08-4.87-3.61-4.87-2.1,0-3.43,1.4-3.68,5.08h7.28v-.21Z"/>
    <path class="cls-2" d="M319.98,175.95l-1.75,2.63c-1.54-.98-3.01-1.51-4.66-1.51-1.79,0-2.8.74-2.8,1.86,0,1.23.74,1.79,3.89,2.66,3.78,1.02,5.92,2.56,5.92,5.85,0,3.85-3.57,5.88-7.81,5.88-3.19,0-5.67-1.08-7.39-2.62l2.24-2.52c1.44,1.09,3.15,1.82,5.04,1.82,2,0,3.29-.84,3.29-2.24,0-1.54-.73-2.03-4.2-3.01-3.82-1.05-5.5-2.87-5.5-5.6,0-3.08,2.83-5.39,7.14-5.39,2.66,0,4.83.84,6.58,2.21Z"/>
    <path class="cls-2" d="M339.23,184.91h-11.62c.35,3.78,2.1,5.01,4.55,5.01,1.65,0,3.01-.53,4.62-1.65l1.86,2.56c-1.82,1.47-4.06,2.48-6.86,2.48-5.74,0-8.82-3.82-8.82-9.66s2.98-9.91,8.23-9.91,8.16,3.5,8.16,9.35c0,.59-.07,1.33-.1,1.82ZM334.89,181.79c0-3.05-1.08-4.87-3.61-4.87-2.1,0-3.43,1.4-3.68,5.08h7.28v-.21Z"/>
    <path class="cls-2" d="M355.79,175.95l-1.75,2.63c-1.54-.98-3.01-1.51-4.66-1.51-1.79,0-2.8.74-2.8,1.86,0,1.23.74,1.79,3.89,2.66,3.78,1.02,5.92,2.56,5.92,5.85,0,3.85-3.57,5.88-7.81,5.88-3.19,0-5.67-1.08-7.39-2.62l2.24-2.52c1.44,1.09,3.15,1.82,5.04,1.82,2,0,3.29-.84,3.29-2.24,0-1.54-.73-2.03-4.2-3.01-3.82-1.05-5.5-2.87-5.5-5.6,0-3.08,2.83-5.39,7.14-5.39,2.66,0,4.83.84,6.58,2.21Z"/>
    <path class="cls-2" d="M383.37,172.17l-11.17,16.84h11.27l-.49,3.78h-16.17v-3.54l11.38-16.98h-10.22v-3.68h15.4v3.57Z"/>
    <path class="cls-2" d="M392.36,167.62c0,1.5-1.16,2.7-2.84,2.7s-2.8-1.19-2.8-2.7,1.16-2.73,2.8-2.73,2.84,1.19,2.84,2.73ZM391.8,192.79h-4.48v-18.52h4.48v18.52Z"/>
    <path class="cls-2" d="M412.21,184.91h-11.62c.35,3.78,2.1,5.01,4.55,5.01,1.65,0,3.01-.53,4.62-1.65l1.86,2.56c-1.82,1.47-4.06,2.48-6.86,2.48-5.74,0-8.82-3.82-8.82-9.66s2.98-9.91,8.23-9.91,8.16,3.5,8.16,9.35c0,.59-.07,1.33-.1,1.82ZM407.87,181.79c0-3.05-1.08-4.87-3.61-4.87-2.1,0-3.43,1.4-3.68,5.08h7.28v-.21Z"/>
    <path class="cls-2" d="M416.06,188.55v-21.7l4.48-.49v22.05c0,.88.28,1.3,1.05,1.3.39,0,.73-.07,1.02-.18l.98,3.15c-.77.35-1.85.63-3.01.63-2.84,0-4.52-1.71-4.52-4.76Z"/>
    <path class="cls-2" d="M447.52,177.49l-8.96,11.8h9.14l-.46,3.5h-13.83v-3.22l9-11.8h-8.23v-3.5h13.34v3.22Z"/>
    <path class="cls-2" d="M465.69,192.79h-3.89l-.25-2.59c-1.37,2.1-3.12,3.12-5.67,3.12-3.36,0-5.15-2.17-5.15-5.74v-13.3h4.48v12.74c0,2.17.7,2.91,2.24,2.91s2.8-1.02,3.75-2.63v-13.02h4.48v18.52Z"/>
    <path class="cls-2" d="M196.1,226.91h-11.62c.35,3.78,2.1,5.01,4.55,5.01,1.65,0,3.01-.53,4.62-1.65l1.86,2.56c-1.82,1.47-4.06,2.48-6.86,2.48-5.74,0-8.82-3.82-8.82-9.66s2.98-9.91,8.23-9.91,8.16,3.5,8.16,9.35c0,.59-.07,1.33-.1,1.82ZM191.76,223.79c0-3.05-1.08-4.87-3.61-4.87-2.1,0-3.43,1.4-3.68,5.08h7.28v-.21Z"/>
    <path class="cls-2" d="M211.15,216.02l-.77,4.34c-.56-.14-.98-.21-1.65-.21-2.24,0-3.4,1.65-4.1,4.76v9.87h-4.48v-18.52h3.89l.42,3.64c.88-2.66,2.66-4.13,4.83-4.13.67,0,1.26.07,1.85.25Z"/>
    <path class="cls-2" d="M224.87,216.02l-.77,4.34c-.56-.14-.98-.21-1.65-.21-2.24,0-3.4,1.65-4.1,4.76v9.87h-4.48v-18.52h3.89l.42,3.64c.88-2.66,2.66-4.13,4.83-4.13.67,0,1.26.07,1.85.25Z"/>
    <path class="cls-2" d="M242.06,226.91h-11.62c.35,3.78,2.1,5.01,4.55,5.01,1.65,0,3.01-.53,4.62-1.65l1.86,2.56c-1.82,1.47-4.06,2.48-6.86,2.48-5.74,0-8.82-3.82-8.82-9.66s2.98-9.91,8.23-9.91,8.16,3.5,8.16,9.35c0,.59-.07,1.33-.1,1.82ZM237.72,223.79c0-3.05-1.08-4.87-3.61-4.87-2.1,0-3.43,1.4-3.68,5.08h7.28v-.21Z"/>
    <path class="cls-2" d="M251.16,209.62c0,1.5-1.16,2.7-2.84,2.7s-2.8-1.19-2.8-2.7,1.16-2.73,2.8-2.73,2.84,1.19,2.84,2.73ZM250.59,234.79h-4.48v-18.52h4.48v18.52Z"/>
    <path class="cls-2" d="M269.39,217.91l-2,2.7c-1.23-.91-2.35-1.33-3.75-1.33-2.59,0-4.17,1.89-4.17,6.34s1.65,6.06,4.17,6.06c1.4,0,2.38-.46,3.75-1.33l2,2.83c-1.68,1.37-3.61,2.14-5.99,2.14-5.36,0-8.68-3.71-8.68-9.63s3.33-9.94,8.65-9.94c2.42,0,4.27.67,6.02,2.17Z"/>
    <path class="cls-2" d="M287.7,221.38v13.41h-4.48v-12.71c0-2.31-.91-2.98-2.28-2.98-1.58,0-2.8,1.08-3.89,2.77v12.92h-4.48v-25.9l4.48-.46v10.05c1.44-1.75,3.15-2.73,5.39-2.73,3.29,0,5.25,2.14,5.25,5.64Z"/>
    <path class="cls-2" d="M307.89,226.91h-11.62c.35,3.78,2.1,5.01,4.55,5.01,1.65,0,3.01-.53,4.62-1.65l1.86,2.56c-1.82,1.47-4.06,2.48-6.86,2.48-5.74,0-8.82-3.82-8.82-9.66s2.98-9.91,8.23-9.91,8.16,3.5,8.16,9.35c0,.59-.07,1.33-.1,1.82ZM303.55,223.79c0-3.05-1.08-4.87-3.61-4.87-2.1,0-3.43,1.4-3.68,5.08h7.28v-.21Z"/>
    <path class="cls-2" d="M327.07,221.38v13.41h-4.48v-12.71c0-2.31-.88-2.98-2.28-2.98-1.61,0-2.8,1.08-3.89,2.8v12.88h-4.48v-18.52h3.89l.35,2.42c1.44-1.86,3.29-2.94,5.64-2.94,3.33,0,5.25,2.1,5.25,5.64Z"/>
    <path class="cls-2" d="M336.52,232.48c0,.91-.28,1.75-.91,3.15l-2.27,5.18h-2.73l1.44-6.02c-.77-.52-1.19-1.37-1.19-2.35,0-1.58,1.23-2.8,2.8-2.8s2.87,1.23,2.87,2.84Z"/>
    <path class="cls-2" d="M367.92,234.79h-5.6l-2.8-14.53-2.87,14.53h-5.5l-4.1-18.52h4.48l2.59,15.23,3.22-15.23h4.59l2.94,15.23,2.77-15.23h4.31l-4.03,18.52Z"/>
    <path class="cls-2" d="M389.68,234.79h-3.89l-.25-2.59c-1.37,2.1-3.12,3.12-5.67,3.12-3.36,0-5.15-2.17-5.15-5.74v-13.3h4.48v12.74c0,2.17.7,2.91,2.24,2.91s2.8-1.02,3.75-2.63v-13.02h4.48v18.52Z"/>
    <path class="cls-2" d="M405.92,216.02l-.77,4.34c-.56-.14-.98-.21-1.65-.21-2.24,0-3.4,1.65-4.1,4.76v9.87h-4.48v-18.52h3.89l.42,3.64c.88-2.66,2.66-4.13,4.83-4.13.67,0,1.26.07,1.85.25Z"/>
    <path class="cls-2" d="M423.42,208.85v25.94h-3.96l-.31-2.35c-1.12,1.68-2.91,2.87-5.29,2.87-4.62,0-7.04-3.89-7.04-9.77s2.87-9.8,7.46-9.8c1.96,0,3.5.84,4.66,2v-9.38l4.48.49ZM418.94,229.53v-8.47c-.98-1.19-2.03-1.96-3.54-1.96-2.31,0-3.85,1.96-3.85,6.41,0,4.76,1.37,6.41,3.57,6.41,1.65,0,2.77-.81,3.82-2.38Z"/>
    <path class="cls-2" d="M443.83,226.91h-11.62c.35,3.78,2.1,5.01,4.55,5.01,1.65,0,3.01-.53,4.62-1.65l1.86,2.56c-1.82,1.47-4.06,2.48-6.86,2.48-5.74,0-8.82-3.82-8.82-9.66s2.98-9.91,8.23-9.91,8.16,3.5,8.16,9.35c0,.59-.07,1.33-.1,1.82ZM439.49,223.79c0-3.05-1.08-4.87-3.61-4.87-2.1,0-3.43,1.4-3.68,5.08h7.28v-.21Z"/>
    <path class="cls-2" d="M461.68,209.62c0,1.5-1.16,2.7-2.84,2.7s-2.8-1.19-2.8-2.7,1.16-2.73,2.8-2.73,2.84,1.19,2.84,2.73ZM461.12,234.79h-4.48v-18.52h4.48v18.52Z"/>
    <path class="cls-2" d="M481.49,221.38v13.41h-4.48v-12.71c0-2.31-.88-2.98-2.28-2.98-1.61,0-2.8,1.08-3.89,2.8v12.88h-4.48v-18.52h3.89l.35,2.42c1.44-1.86,3.29-2.94,5.64-2.94,3.33,0,5.25,2.1,5.25,5.64Z"/>
    <path class="cls-2" d="M117.4,268.91h-11.62c.35,3.78,2.1,5.01,4.55,5.01,1.65,0,3.01-.53,4.62-1.65l1.86,2.56c-1.82,1.47-4.06,2.48-6.86,2.48-5.74,0-8.82-3.82-8.82-9.66s2.98-9.91,8.23-9.91,8.16,3.5,8.16,9.35c0,.59-.07,1.33-.1,1.82ZM113.06,265.79c0-3.05-1.08-4.87-3.61-4.87-2.1,0-3.43,1.4-3.68,5.08h7.28v-.21Z"/>
    <path class="cls-2" d="M126.5,251.62c0,1.5-1.16,2.7-2.84,2.7s-2.8-1.19-2.8-2.7,1.16-2.73,2.8-2.73,2.84,1.19,2.84,2.73ZM125.94,276.79h-4.48v-18.52h4.48v18.52Z"/>
    <path class="cls-2" d="M146.31,263.38v13.41h-4.48v-12.71c0-2.31-.88-2.98-2.28-2.98-1.61,0-2.8,1.08-3.89,2.8v12.88h-4.48v-18.52h3.89l.35,2.42c1.44-1.86,3.29-2.94,5.64-2.94,3.33,0,5.25,2.1,5.25,5.64Z"/>
    <path class="cls-2" d="M166.47,263.38v13.41h-4.48v-12.71c0-2.31-.88-2.98-2.28-2.98-1.61,0-2.8,1.08-3.89,2.8v12.88h-4.48v-18.52h3.89l.35,2.42c1.44-1.86,3.29-2.94,5.64-2.94,3.33,0,5.25,2.1,5.25,5.64Z"/>
    <path class="cls-2" d="M186.67,268.91h-11.62c.35,3.78,2.1,5.01,4.55,5.01,1.65,0,3.01-.53,4.62-1.65l1.86,2.56c-1.82,1.47-4.06,2.48-6.86,2.48-5.74,0-8.82-3.82-8.82-9.66s2.98-9.91,8.23-9.91,8.16,3.5,8.16,9.35c0,.59-.07,1.33-.1,1.82ZM182.33,265.79c0-3.05-1.08-4.87-3.61-4.87-2.1,0-3.43,1.4-3.68,5.08h7.28v-.21Z"/>
    <path class="cls-2" d="M215.26,263.38v13.41h-4.48v-12.71c0-2.31-.91-2.98-2.03-2.98-1.54,0-2.49,1.08-3.5,2.8v12.88h-4.48v-12.71c0-2.31-.95-2.98-2.03-2.98-1.58,0-2.52,1.08-3.54,2.8v12.88h-4.48v-18.52h3.89l.35,2.42c1.33-1.86,3.01-2.94,5.36-2.94,2.17,0,3.78,1.16,4.48,3.12,1.4-1.93,3.12-3.12,5.57-3.12,2.94,0,4.9,2.14,4.9,5.64Z"/>
    <path class="cls-2" d="M244.21,268.91h-11.62c.35,3.78,2.1,5.01,4.55,5.01,1.65,0,3.01-.53,4.62-1.65l1.86,2.56c-1.82,1.47-4.06,2.48-6.86,2.48-5.74,0-8.82-3.82-8.82-9.66s2.98-9.91,8.23-9.91,8.16,3.5,8.16,9.35c0,.59-.07,1.33-.1,1.82ZM239.87,265.79c0-3.05-1.08-4.87-3.61-4.87-2.1,0-3.43,1.4-3.68,5.08h7.28v-.21Z"/>
    <path class="cls-2" d="M259.26,258.02l-.77,4.34c-.56-.14-.98-.21-1.65-.21-2.24,0-3.4,1.65-4.1,4.76v9.87h-4.48v-18.52h3.89l.42,3.64c.88-2.66,2.66-4.13,4.83-4.13.67,0,1.26.07,1.85.25Z"/>
    <path class="cls-2" d="M274.03,259.95l-1.75,2.63c-1.54-.98-3.01-1.51-4.66-1.51-1.79,0-2.8.74-2.8,1.86,0,1.23.74,1.79,3.89,2.66,3.78,1.02,5.92,2.56,5.92,5.85,0,3.85-3.57,5.88-7.81,5.88-3.19,0-5.67-1.08-7.39-2.62l2.24-2.52c1.44,1.09,3.15,1.82,5.04,1.82,2,0,3.29-.84,3.29-2.24,0-1.54-.73-2.03-4.2-3.01-3.82-1.05-5.5-2.87-5.5-5.6,0-3.08,2.83-5.39,7.14-5.39,2.66,0,4.83.84,6.58,2.21Z"/>
    <path class="cls-2" d="M288.8,275.91c-1.33.94-3.01,1.4-4.66,1.4-3.64-.03-5.57-2.1-5.57-6.06v-9.77h-2.91v-3.22h2.91v-4.1l4.48-.52v4.62h4.31l-.46,3.22h-3.85v9.66c0,1.82.6,2.56,1.96,2.56.7,0,1.4-.21,2.21-.67l1.58,2.87Z"/>
    <path class="cls-2" d="M305.81,268.91h-11.62c.35,3.78,2.1,5.01,4.55,5.01,1.65,0,3.01-.53,4.62-1.65l1.86,2.56c-1.82,1.47-4.06,2.48-6.86,2.48-5.74,0-8.82-3.82-8.82-9.66s2.98-9.91,8.23-9.91,8.16,3.5,8.16,9.35c0,.59-.07,1.33-.1,1.82ZM301.47,265.79c0-3.05-1.08-4.87-3.61-4.87-2.1,0-3.43,1.4-3.68,5.08h7.28v-.21Z"/>
    <path class="cls-2" d="M324.99,263.38v13.41h-4.48v-12.71c0-2.31-.88-2.98-2.28-2.98-1.61,0-2.8,1.08-3.89,2.8v12.88h-4.48v-18.52h3.89l.35,2.42c1.44-1.86,3.29-2.94,5.64-2.94,3.33,0,5.25,2.1,5.25,5.64Z"/>
    <path class="cls-2" d="M353.93,255.05l-2.27,2.63c-1.75-1.44-3.43-2.07-5.43-2.07-2.17,0-3.75.98-3.75,2.87,0,1.75.95,2.52,4.97,3.78,4.24,1.33,7.18,3.08,7.18,7.63s-3.4,7.42-9.17,7.42c-3.85,0-6.72-1.36-8.72-3.33l2.38-2.66c1.79,1.5,3.71,2.42,6.23,2.42s4.45-1.26,4.45-3.61c0-2.03-1.02-2.94-4.8-4.1-5.08-1.58-7.28-3.61-7.28-7.28,0-4.03,3.47-6.69,8.23-6.69,3.54,0,5.88,1.05,7.98,2.98Z"/>
    <path class="cls-2" d="M371.92,259.91l-2,2.7c-1.23-.91-2.35-1.33-3.75-1.33-2.59,0-4.17,1.89-4.17,6.34s1.65,6.06,4.17,6.06c1.4,0,2.38-.46,3.75-1.33l2,2.83c-1.68,1.37-3.61,2.14-5.99,2.14-5.36,0-8.68-3.71-8.68-9.63s3.33-9.94,8.65-9.94c2.42,0,4.27.67,6.02,2.17Z"/>
    <path class="cls-2" d="M390.23,263.38v13.41h-4.48v-12.71c0-2.31-.91-2.98-2.28-2.98-1.58,0-2.8,1.08-3.89,2.77v12.92h-4.48v-25.9l4.48-.46v10.05c1.44-1.75,3.15-2.73,5.39-2.73,3.29,0,5.25,2.14,5.25,5.64Z"/>
    <path class="cls-2" d="M406.26,258.02l-.77,4.34c-.56-.14-.98-.21-1.65-.21-2.24,0-3.4,1.65-4.1,4.76v9.87h-4.48v-18.52h3.89l.42,3.64c.88-2.66,2.66-4.13,4.83-4.13.67,0,1.26.07,1.85.25Z"/>
    <path class="cls-2" d="M414.03,251.62c0,1.5-1.16,2.7-2.84,2.7s-2.8-1.19-2.8-2.7,1.16-2.73,2.8-2.73,2.84,1.19,2.84,2.73ZM413.47,276.79h-4.48v-18.52h4.48v18.52Z"/>
    <path class="cls-2" d="M429.39,275.91c-1.33.94-3.01,1.4-4.66,1.4-3.64-.03-5.57-2.1-5.57-6.06v-9.77h-2.91v-3.22h2.91v-4.1l4.48-.52v4.62h4.31l-.46,3.22h-3.85v9.66c0,1.82.59,2.56,1.96,2.56.7,0,1.4-.21,2.21-.67l1.58,2.87Z"/>
    <path class="cls-2" d="M442.52,275.91c-1.33.94-3.01,1.4-4.66,1.4-3.64-.03-5.57-2.1-5.57-6.06v-9.77h-2.91v-3.22h2.91v-4.1l4.48-.52v4.62h4.31l-.46,3.22h-3.85v9.66c0,1.82.59,2.56,1.96,2.56.7,0,1.4-.21,2.21-.67l1.58,2.87Z"/>
    <path class="cls-2" d="M470.17,267.51c0,5.78-2.77,9.8-7.32,9.8-2.03,0-3.71-.91-4.9-2.42l-.28,1.89h-3.96v-25.94l4.48-.49v10.01c1.19-1.65,2.98-2.63,5.11-2.63,4.31,0,6.86,3.57,6.86,9.77ZM465.48,267.51c0-4.94-1.47-6.41-3.61-6.41-1.61,0-2.8,1.08-3.68,2.52v8.19c.8,1.33,2.03,2.14,3.43,2.14,2.28,0,3.85-1.79,3.85-6.44Z"/>
    <path class="cls-2" d="M489.49,268.91h-11.62c.35,3.78,2.1,5.01,4.55,5.01,1.65,0,3.01-.53,4.62-1.65l1.86,2.56c-1.82,1.47-4.06,2.48-6.86,2.48-5.74,0-8.82-3.82-8.82-9.66s2.98-9.91,8.23-9.91,8.16,3.5,8.16,9.35c0,.59-.07,1.33-.1,1.82ZM485.15,265.79c0-3.05-1.08-4.87-3.61-4.87-2.1,0-3.43,1.4-3.68,5.08h7.28v-.21Z"/>
    <path class="cls-2" d="M504.54,258.02l-.77,4.34c-.56-.14-.98-.21-1.65-.21-2.24,0-3.4,1.65-4.1,4.76v9.87h-4.48v-18.52h3.89l.42,3.64c.88-2.66,2.66-4.13,4.83-4.13.67,0,1.26.07,1.85.25Z"/>
    <path class="cls-2" d="M521.72,268.91h-11.62c.35,3.78,2.1,5.01,4.55,5.01,1.65,0,3.01-.53,4.62-1.65l1.86,2.56c-1.82,1.47-4.06,2.48-6.86,2.48-5.74,0-8.82-3.82-8.82-9.66s2.98-9.91,8.23-9.91,8.16,3.5,8.16,9.35c0,.59-.07,1.33-.1,1.82ZM517.38,265.79c0-3.05-1.08-4.87-3.61-4.87-2.1,0-3.43,1.4-3.68,5.08h7.28v-.21Z"/>
    <path class="cls-2" d="M530.82,251.62c0,1.5-1.16,2.7-2.84,2.7s-2.8-1.19-2.8-2.7,1.16-2.73,2.8-2.73,2.84,1.19,2.84,2.73ZM530.26,276.79h-4.48v-18.52h4.48v18.52Z"/>
    <path class="cls-2" d="M546.19,275.91c-1.33.94-3.01,1.4-4.66,1.4-3.64-.03-5.57-2.1-5.57-6.06v-9.77h-2.91v-3.22h2.91v-4.1l4.48-.52v4.62h4.31l-.46,3.22h-3.85v9.66c0,1.82.6,2.56,1.96,2.56.7,0,1.4-.21,2.21-.67l1.58,2.87Z"/>
    <path class="cls-2" d="M561.13,259.95l-1.75,2.63c-1.54-.98-3.01-1.51-4.66-1.51-1.79,0-2.8.74-2.8,1.86,0,1.23.74,1.79,3.89,2.66,3.78,1.02,5.92,2.56,5.92,5.85,0,3.85-3.57,5.88-7.81,5.88-3.19,0-5.67-1.08-7.39-2.62l2.24-2.52c1.44,1.09,3.15,1.82,5.04,1.82,2,0,3.29-.84,3.29-2.24,0-1.54-.73-2.03-4.2-3.01-3.82-1.05-5.5-2.87-5.5-5.6,0-3.08,2.83-5.39,7.14-5.39,2.66,0,4.83.84,6.58,2.21Z"/>
    <path class="cls-2" d="M125.42,292.85v25.94h-3.96l-.31-2.34c-1.12,1.68-2.91,2.87-5.29,2.87-4.62,0-7.04-3.89-7.04-9.77s2.87-9.8,7.46-9.8c1.96,0,3.5.84,4.66,2v-9.38l4.48.49ZM120.94,313.54v-8.47c-.98-1.19-2.03-1.96-3.54-1.96-2.31,0-3.85,1.96-3.85,6.41,0,4.76,1.37,6.41,3.57,6.41,1.65,0,2.77-.8,3.81-2.38Z"/>
    <path class="cls-2" d="M135.71,293.62c0,1.5-1.16,2.7-2.84,2.7s-2.8-1.19-2.8-2.7,1.16-2.73,2.8-2.73,2.84,1.19,2.84,2.73ZM135.15,318.79h-4.48v-18.52h4.48v18.52Z"/>
    <path class="cls-2" d="M155.55,310.91h-11.62c.35,3.78,2.1,5.01,4.55,5.01,1.65,0,3.01-.53,4.62-1.65l1.86,2.56c-1.82,1.47-4.06,2.49-6.86,2.49-5.74,0-8.82-3.82-8.82-9.66s2.98-9.91,8.23-9.91,8.16,3.5,8.16,9.35c0,.59-.07,1.33-.1,1.82ZM151.21,307.79c0-3.04-1.08-4.87-3.61-4.87-2.1,0-3.43,1.4-3.68,5.08h7.28v-.21Z"/>
    <path class="cls-2" d="M190.03,318.79h-6.02l-3.68-19.29-3.78,19.29h-5.85l-4.38-24.19h4.59l3.08,20.51,3.96-20.51h4.9l3.89,20.51,3.36-20.51h4.38l-4.45,24.19Z"/>
    <path class="cls-2" d="M212.46,310.91h-11.62c.35,3.78,2.1,5.01,4.55,5.01,1.65,0,3.01-.53,4.62-1.65l1.86,2.56c-1.82,1.47-4.06,2.49-6.86,2.49-5.74,0-8.82-3.82-8.82-9.66s2.98-9.91,8.23-9.91,8.16,3.5,8.16,9.35c0,.59-.07,1.33-.1,1.82ZM208.12,307.79c0-3.04-1.08-4.87-3.61-4.87-2.1,0-3.43,1.4-3.68,5.08h7.28v-.21Z"/>
    <path class="cls-2" d="M232.97,309.51c0,5.78-2.77,9.8-7.32,9.8-2.03,0-3.71-.91-4.9-2.42l-.28,1.89h-3.96v-25.94l4.48-.49v10.01c1.19-1.65,2.98-2.63,5.11-2.63,4.31,0,6.86,3.57,6.86,9.77ZM228.28,309.51c0-4.94-1.47-6.41-3.61-6.41-1.61,0-2.8,1.08-3.68,2.52v8.19c.8,1.33,2.03,2.14,3.43,2.14,2.28,0,3.85-1.79,3.85-6.44Z"/>
    <path class="cls-2" d="M249.63,301.95l-1.75,2.63c-1.54-.98-3.01-1.51-4.66-1.51-1.79,0-2.8.74-2.8,1.86,0,1.23.74,1.79,3.89,2.66,3.78,1.02,5.92,2.56,5.92,5.85,0,3.85-3.57,5.88-7.81,5.88-3.19,0-5.67-1.08-7.39-2.62l2.24-2.52c1.44,1.08,3.15,1.82,5.04,1.82,2,0,3.29-.84,3.29-2.24,0-1.54-.73-2.03-4.2-3.01-3.82-1.05-5.5-2.87-5.5-5.6,0-3.08,2.83-5.39,7.14-5.39,2.66,0,4.83.84,6.58,2.21Z"/>
    <path class="cls-2" d="M258.77,293.62c0,1.5-1.16,2.7-2.84,2.7s-2.8-1.19-2.8-2.7,1.16-2.73,2.8-2.73,2.84,1.19,2.84,2.73ZM258.21,318.79h-4.48v-18.52h4.48v18.52Z"/>
    <path class="cls-2" d="M274.13,317.91c-1.33.95-3.01,1.4-4.66,1.4-3.64-.04-5.57-2.1-5.57-6.06v-9.77h-2.91v-3.22h2.91v-4.1l4.48-.52v4.62h4.31l-.46,3.22h-3.85v9.66c0,1.82.59,2.56,1.96,2.56.7,0,1.4-.21,2.21-.67l1.58,2.87Z"/>
    <path class="cls-2" d="M291.14,310.91h-11.62c.35,3.78,2.1,5.01,4.55,5.01,1.65,0,3.01-.53,4.62-1.65l1.86,2.56c-1.82,1.47-4.06,2.49-6.86,2.49-5.74,0-8.82-3.82-8.82-9.66s2.98-9.91,8.23-9.91,8.16,3.5,8.16,9.35c0,.59-.07,1.33-.1,1.82ZM286.8,307.79c0-3.04-1.08-4.87-3.61-4.87-2.1,0-3.43,1.4-3.68,5.08h7.28v-.21Z"/>
    <path class="cls-2" d="M308.15,316.9c0,.77-.21,1.43-.81,2.73l-2.27,4.76h-2.52l1.44-5.39c-.7-.49-1.12-1.19-1.12-2.1,0-1.44,1.19-2.52,2.66-2.52s2.63,1.08,2.63,2.52ZM314.91,316.9c0,.77-.21,1.43-.81,2.73l-2.28,4.76h-2.52l1.44-5.39c-.7-.49-1.12-1.19-1.12-2.1,0-1.44,1.19-2.52,2.66-2.52s2.63,1.08,2.63,2.52Z"/>
    <path class="cls-2" d="M330.69,313.18h-8.02l-1.5,5.6h-4.8l7.53-24.19h5.71l7.49,24.19h-4.9l-1.5-5.6ZM329.78,309.68l-3.12-11.55-3.08,11.55h6.2Z"/>
    <path class="cls-2" d="M354.32,318.79h-3.89l-.25-2.59c-1.37,2.1-3.12,3.12-5.67,3.12-3.36,0-5.15-2.17-5.15-5.74v-13.3h4.48v12.74c0,2.17.7,2.91,2.24,2.91s2.8-1.01,3.75-2.62v-13.02h4.48v18.52Z"/>
    <path class="cls-2" d="M372.06,301.95l-1.75,2.63c-1.54-.98-3.01-1.51-4.66-1.51-1.79,0-2.8.74-2.8,1.86,0,1.23.74,1.79,3.89,2.66,3.78,1.02,5.92,2.56,5.92,5.85,0,3.85-3.57,5.88-7.81,5.88-3.19,0-5.67-1.08-7.39-2.62l2.24-2.52c1.44,1.08,3.15,1.82,5.04,1.82,2,0,3.29-.84,3.29-2.24,0-1.54-.73-2.03-4.2-3.01-3.82-1.05-5.5-2.87-5.5-5.6,0-3.08,2.83-5.39,7.14-5.39,2.66,0,4.83.84,6.58,2.21Z"/>
    <path class="cls-2" d="M400.38,292.85v25.94h-3.96l-.31-2.34c-1.12,1.68-2.91,2.87-5.29,2.87-4.62,0-7.04-3.89-7.04-9.77s2.87-9.8,7.46-9.8c1.96,0,3.5.84,4.66,2v-9.38l4.48.49ZM395.9,313.54v-8.47c-.98-1.19-2.03-1.96-3.54-1.96-2.31,0-3.85,1.96-3.85,6.41,0,4.76,1.37,6.41,3.57,6.41,1.65,0,2.77-.8,3.82-2.38Z"/>
    <path class="cls-2" d="M420.78,310.91h-11.62c.35,3.78,2.1,5.01,4.55,5.01,1.65,0,3.01-.53,4.62-1.65l1.86,2.56c-1.82,1.47-4.06,2.49-6.86,2.49-5.74,0-8.82-3.82-8.82-9.66s2.98-9.91,8.23-9.91,8.16,3.5,8.16,9.35c0,.59-.07,1.33-.1,1.82ZM416.44,307.79c0-3.04-1.08-4.87-3.61-4.87-2.1,0-3.43,1.4-3.68,5.08h7.28v-.21Z"/>
    <path class="cls-2" d="M435.83,300.02l-.77,4.34c-.56-.14-.98-.21-1.65-.21-2.24,0-3.4,1.64-4.1,4.76v9.87h-4.48v-18.52h3.89l.42,3.64c.88-2.66,2.66-4.13,4.83-4.13.67,0,1.26.07,1.85.25Z"/>
    <path class="cls-2" d="M464.46,302.3c0,5.57-4.03,8.05-9.49,8.05h-2.84v8.44h-4.62v-24.19h7.14c6.09,0,9.8,2.49,9.8,7.7ZM459.63,302.3c0-3.05-1.86-4.31-5.01-4.31h-2.49v8.89h2.49c3.08,0,5.01-1.05,5.01-4.58Z"/>
    <path class="cls-2" d="M478.29,300.02l-.77,4.34c-.56-.14-.98-.21-1.65-.21-2.24,0-3.4,1.64-4.1,4.76v9.87h-4.48v-18.52h3.89l.42,3.64c.88-2.66,2.66-4.13,4.83-4.13.67,0,1.26.07,1.85.25Z"/>
    <path class="cls-2" d="M495.26,316.26l-.94,2.98c-2.07-.17-3.4-.88-4.1-2.7-1.33,1.96-3.33,2.77-5.57,2.77-3.68,0-5.95-2.35-5.95-5.71,0-4.03,3.01-6.2,8.4-6.2h2.35v-1.05c0-2.42-1.08-3.22-3.47-3.22-1.26,0-3.05.35-4.94.98l-1.02-3.05c2.28-.88,4.62-1.33,6.69-1.33,4.97,0,7.14,2.28,7.14,6.37v7.77c0,1.5.49,2.03,1.4,2.38ZM489.45,313.78v-3.75h-1.85c-2.91,0-4.34,1.05-4.34,3.22,0,1.79.91,2.8,2.63,2.8,1.54,0,2.73-.8,3.57-2.27Z"/>
    <path class="cls-2" d="M514.2,318.79h-5.18l-3.82-7.35-3.78,7.35h-4.94l6.16-9.77-5.53-8.75h5.11l3.15,6.3,3.12-6.3h4.87l-5.36,8.61,6.2,9.91Z"/>
    <path class="cls-2" d="M521.76,293.62c0,1.5-1.16,2.7-2.84,2.7s-2.8-1.19-2.8-2.7,1.16-2.73,2.8-2.73,2.84,1.19,2.84,2.73ZM521.2,318.79h-4.48v-18.52h4.48v18.52Z"/>
    <path class="cls-2" d="M538.94,301.95l-1.75,2.63c-1.54-.98-3.01-1.51-4.66-1.51-1.79,0-2.8.74-2.8,1.86,0,1.23.74,1.79,3.89,2.66,3.78,1.02,5.92,2.56,5.92,5.85,0,3.85-3.57,5.88-7.81,5.88-3.19,0-5.67-1.08-7.39-2.62l2.24-2.52c1.44,1.08,3.15,1.82,5.04,1.82,2,0,3.29-.84,3.29-2.24,0-1.54-.73-2.03-4.2-3.01-3.82-1.05-5.5-2.87-5.5-5.6,0-3.08,2.83-5.39,7.14-5.39,2.66,0,4.83.84,6.58,2.21Z"/>
    <path class="cls-2" d="M541.32,299.64c0-.74.21-1.44.81-2.7l2.28-4.76h2.52l-1.44,5.36c.7.53,1.12,1.19,1.12,2.1,0,1.43-1.19,2.55-2.66,2.55s-2.63-1.12-2.63-2.55ZM548.07,299.64c0-.74.21-1.44.81-2.7l2.27-4.76h2.52l-1.44,5.36c.7.53,1.12,1.19,1.12,2.1,0,1.43-1.19,2.55-2.66,2.55s-2.62-1.12-2.62-2.55Z"/>
    <path class="cls-2" d="M97.82,352.91h-11.62c.35,3.78,2.1,5.01,4.55,5.01,1.65,0,3.01-.53,4.62-1.65l1.86,2.56c-1.82,1.47-4.06,2.49-6.86,2.49-5.74,0-8.82-3.82-8.82-9.66s2.98-9.91,8.23-9.91,8.16,3.5,8.16,9.35c0,.59-.07,1.33-.1,1.82ZM93.48,349.79c0-3.04-1.08-4.87-3.61-4.87-2.1,0-3.43,1.4-3.68,5.08h7.28v-.21Z"/>
    <path class="cls-2" d="M112.87,342.02l-.77,4.34c-.56-.14-.98-.21-1.65-.21-2.24,0-3.4,1.64-4.1,4.76v9.87h-4.48v-18.52h3.89l.42,3.64c.88-2.66,2.66-4.13,4.83-4.13.67,0,1.26.07,1.85.25Z"/>
    <path class="cls-2" d="M127.64,343.95l-1.75,2.63c-1.54-.98-3.01-1.51-4.66-1.51-1.79,0-2.8.74-2.8,1.86,0,1.23.74,1.79,3.89,2.66,3.78,1.02,5.92,2.56,5.92,5.85,0,3.85-3.57,5.88-7.81,5.88-3.19,0-5.67-1.08-7.39-2.62l2.24-2.52c1.44,1.08,3.15,1.82,5.04,1.82,2,0,3.29-.84,3.29-2.24,0-1.54-.73-2.03-4.2-3.01-3.82-1.05-5.5-2.87-5.5-5.6,0-3.08,2.83-5.39,7.14-5.39,2.66,0,4.83.84,6.58,2.21Z"/>
    <path class="cls-2" d="M142.41,359.91c-1.33.95-3.01,1.4-4.66,1.4-3.64-.04-5.57-2.1-5.57-6.06v-9.77h-2.91v-3.22h2.91v-4.1l4.48-.52v4.62h4.31l-.46,3.22h-3.85v9.66c0,1.82.6,2.56,1.96,2.56.7,0,1.4-.21,2.21-.67l1.58,2.87Z"/>
    <path class="cls-2" d="M159.42,352.91h-11.62c.35,3.78,2.1,5.01,4.55,5.01,1.65,0,3.01-.53,4.62-1.65l1.86,2.56c-1.82,1.47-4.06,2.49-6.86,2.49-5.74,0-8.82-3.82-8.82-9.66s2.98-9.91,8.23-9.91,8.16,3.5,8.16,9.35c0,.59-.07,1.33-.1,1.82ZM155.08,349.79c0-3.04-1.08-4.87-3.61-4.87-2.1,0-3.43,1.4-3.68,5.08h7.28v-.21Z"/>
    <path class="cls-2" d="M163.27,356.55v-21.7l4.48-.49v22.05c0,.88.28,1.29,1.05,1.29.39,0,.73-.07,1.02-.17l.98,3.15c-.77.35-1.85.63-3.01.63-2.84,0-4.52-1.71-4.52-4.76Z"/>
    <path class="cls-2" d="M173.67,356.55v-21.7l4.48-.49v22.05c0,.88.28,1.29,1.05,1.29.39,0,.74-.07,1.02-.17l.98,3.15c-.77.35-1.85.63-3.01.63-2.84,0-4.52-1.71-4.52-4.76Z"/>
    <path class="cls-2" d="M194.95,359.91c-1.33.95-3.01,1.4-4.66,1.4-3.64-.04-5.57-2.1-5.57-6.06v-9.77h-2.91v-3.22h2.91v-4.1l4.48-.52v4.62h4.31l-.46,3.22h-3.85v9.66c0,1.82.6,2.56,1.96,2.56.7,0,1.4-.21,2.21-.67l1.58,2.87Z"/>
    <path class="cls-2" d="M202.02,358.48c0,.91-.28,1.75-.91,3.15l-2.27,5.18h-2.73l1.44-6.02c-.77-.52-1.19-1.37-1.19-2.34,0-1.58,1.23-2.8,2.8-2.8s2.87,1.23,2.87,2.84Z"/>
    <path class="cls-2" d="M229.49,360.79h-3.89l-.25-2.59c-1.37,2.1-3.12,3.12-5.67,3.12-3.36,0-5.15-2.17-5.15-5.74v-13.3h4.48v12.74c0,2.17.7,2.91,2.24,2.91s2.8-1.01,3.75-2.62v-13.02h4.48v18.52Z"/>
    <path class="cls-2" d="M259.28,347.38v13.41h-4.48v-12.71c0-2.31-.91-2.98-2.03-2.98-1.54,0-2.49,1.08-3.5,2.8v12.88h-4.48v-12.71c0-2.31-.95-2.98-2.03-2.98-1.58,0-2.52,1.08-3.54,2.8v12.88h-4.48v-18.52h3.89l.35,2.42c1.33-1.86,3.01-2.94,5.36-2.94,2.17,0,3.78,1.16,4.48,3.12,1.4-1.92,3.12-3.12,5.57-3.12,2.94,0,4.9,2.14,4.9,5.64Z"/>
    <path class="cls-2" d="M288.22,352.91h-11.62c.35,3.78,2.1,5.01,4.55,5.01,1.65,0,3.01-.53,4.62-1.65l1.86,2.56c-1.82,1.47-4.06,2.49-6.86,2.49-5.74,0-8.82-3.82-8.82-9.66s2.98-9.91,8.23-9.91,8.16,3.5,8.16,9.35c0,.59-.07,1.33-.1,1.82ZM283.88,349.79c0-3.04-1.08-4.87-3.61-4.87-2.1,0-3.43,1.4-3.68,5.08h7.28v-.21Z"/>
    <path class="cls-2" d="M297.32,335.62c0,1.5-1.16,2.7-2.84,2.7s-2.8-1.19-2.8-2.7,1.16-2.73,2.8-2.73,2.84,1.19,2.84,2.73ZM296.76,360.79h-4.48v-18.52h4.48v18.52Z"/>
    <path class="cls-2" d="M317.13,347.38v13.41h-4.48v-12.71c0-2.31-.88-2.98-2.28-2.98-1.61,0-2.8,1.08-3.89,2.8v12.88h-4.48v-18.52h3.89l.35,2.42c1.44-1.86,3.29-2.94,5.64-2.94,3.33,0,5.25,2.1,5.25,5.64Z"/>
    <path class="cls-2" d="M337.33,352.91h-11.62c.35,3.78,2.1,5.01,4.55,5.01,1.65,0,3.01-.53,4.62-1.65l1.86,2.56c-1.82,1.47-4.06,2.49-6.86,2.49-5.74,0-8.82-3.82-8.82-9.66s2.98-9.91,8.23-9.91,8.16,3.5,8.16,9.35c0,.59-.07,1.33-.1,1.82ZM332.99,349.79c0-3.04-1.08-4.87-3.61-4.87-2.1,0-3.43,1.4-3.68,5.08h7.28v-.21Z"/>
    <path class="cls-2" d="M367.99,352.88c0,4.87-3.12,8.44-9.03,8.44s-8.96-3.47-8.96-8.44v-16.28h4.62v16.03c0,3.39,1.36,5.08,4.34,5.08s4.38-1.68,4.38-5.08v-16.03h4.66v16.28ZM357.52,331.31c0,1.37-1.05,2.42-2.42,2.42s-2.49-1.05-2.49-2.42,1.09-2.42,2.49-2.42,2.42,1.05,2.42,2.42ZM365.29,331.31c0,1.37-1.05,2.42-2.45,2.42s-2.45-1.05-2.45-2.42,1.08-2.42,2.45-2.42,2.45,1.05,2.45,2.42Z"/>
    <path class="cls-2" d="M389.55,351.51c0,5.78-2.77,9.8-7.32,9.8-2.03,0-3.71-.91-4.9-2.42l-.28,1.89h-3.96v-25.94l4.48-.49v10.01c1.19-1.65,2.98-2.63,5.11-2.63,4.31,0,6.86,3.57,6.86,9.77ZM384.86,351.51c0-4.94-1.47-6.41-3.61-6.41-1.61,0-2.8,1.08-3.68,2.52v8.19c.8,1.33,2.03,2.14,3.43,2.14,2.28,0,3.85-1.79,3.85-6.44Z"/>
    <path class="cls-2" d="M408.87,352.91h-11.62c.35,3.78,2.1,5.01,4.55,5.01,1.65,0,3.01-.53,4.62-1.65l1.86,2.56c-1.82,1.47-4.06,2.49-6.86,2.49-5.74,0-8.82-3.82-8.82-9.66s2.98-9.91,8.23-9.91,8.16,3.5,8.16,9.35c0,.59-.07,1.33-.1,1.82ZM404.52,349.79c0-3.04-1.08-4.87-3.61-4.87-2.1,0-3.43,1.4-3.68,5.08h7.28v-.21Z"/>
    <path class="cls-2" d="M423.91,342.02l-.77,4.34c-.56-.14-.98-.21-1.65-.21-2.24,0-3.4,1.64-4.1,4.76v9.87h-4.48v-18.52h3.89l.42,3.64c.88-2.66,2.66-4.13,4.83-4.13.67,0,1.26.07,1.85.25Z"/>
    <path class="cls-2" d="M438.68,343.95l-1.75,2.63c-1.54-.98-3.01-1.51-4.66-1.51-1.79,0-2.8.74-2.8,1.86,0,1.23.74,1.79,3.89,2.66,3.78,1.02,5.92,2.56,5.92,5.85,0,3.85-3.57,5.88-7.81,5.88-3.19,0-5.67-1.08-7.39-2.62l2.24-2.52c1.44,1.08,3.15,1.82,5.04,1.82,2,0,3.29-.84,3.29-2.24,0-1.54-.73-2.03-4.2-3.01-3.82-1.05-5.5-2.87-5.5-5.6,0-3.08,2.83-5.39,7.14-5.39,2.66,0,4.83.84,6.58,2.21Z"/>
    <path class="cls-2" d="M447.82,335.62c0,1.5-1.16,2.7-2.84,2.7s-2.8-1.19-2.8-2.7,1.16-2.73,2.8-2.73,2.84,1.19,2.84,2.73ZM447.26,360.79h-4.48v-18.52h4.48v18.52Z"/>
    <path class="cls-2" d="M466.05,343.91l-2,2.7c-1.23-.91-2.35-1.33-3.75-1.33-2.59,0-4.17,1.89-4.17,6.34s1.65,6.06,4.17,6.06c1.4,0,2.38-.46,3.75-1.33l2,2.83c-1.68,1.37-3.61,2.14-5.99,2.14-5.36,0-8.68-3.71-8.68-9.63s3.33-9.94,8.65-9.94c2.42,0,4.27.67,6.02,2.17Z"/>
    <path class="cls-2" d="M484.36,347.38v13.41h-4.48v-12.71c0-2.31-.91-2.98-2.28-2.98-1.58,0-2.8,1.08-3.89,2.77v12.92h-4.48v-25.9l4.48-.46v10.05c1.44-1.75,3.15-2.73,5.39-2.73,3.29,0,5.25,2.14,5.25,5.64Z"/>
    <path class="cls-2" d="M500.07,359.91c-1.33.95-3.01,1.4-4.66,1.4-3.64-.04-5.57-2.1-5.57-6.06v-9.77h-2.91v-3.22h2.91v-4.1l4.48-.52v4.62h4.31l-.46,3.22h-3.85v9.66c0,1.82.59,2.56,1.96,2.56.7,0,1.4-.21,2.21-.67l1.58,2.87Z"/>
    <path class="cls-2" d="M526.01,360.79h-3.89l-.25-2.59c-1.37,2.1-3.12,3.12-5.67,3.12-3.36,0-5.15-2.17-5.15-5.74v-13.3h4.48v12.74c0,2.17.7,2.91,2.24,2.91s2.8-1.01,3.75-2.62v-13.02h4.48v18.52ZM517.08,335.72c0,1.37-1.05,2.42-2.42,2.42s-2.49-1.05-2.49-2.42,1.09-2.42,2.49-2.42,2.42,1.05,2.42,2.42ZM524.85,335.72c0,1.37-1.05,2.42-2.45,2.42s-2.45-1.05-2.45-2.42,1.08-2.42,2.45-2.42,2.45,1.05,2.45,2.42Z"/>
    <path class="cls-2" d="M547.71,351.51c0,5.78-2.77,9.8-7.32,9.8-2.03,0-3.71-.91-4.9-2.42l-.28,1.89h-3.96v-25.94l4.48-.49v10.01c1.19-1.65,2.98-2.63,5.11-2.63,4.31,0,6.86,3.57,6.86,9.77ZM543.02,351.51c0-4.94-1.47-6.41-3.61-6.41-1.61,0-2.8,1.08-3.68,2.52v8.19c.8,1.33,2.03,2.14,3.43,2.14,2.28,0,3.85-1.79,3.85-6.44Z"/>
    <path class="cls-2" d="M567.03,352.91h-11.62c.35,3.78,2.1,5.01,4.55,5.01,1.65,0,3.01-.53,4.62-1.65l1.86,2.56c-1.82,1.47-4.06,2.49-6.86,2.49-5.74,0-8.82-3.82-8.82-9.66s2.98-9.91,8.23-9.91,8.16,3.5,8.16,9.35c0,.59-.07,1.33-.1,1.82ZM562.69,349.79c0-3.04-1.08-4.87-3.61-4.87-2.1,0-3.43,1.4-3.68,5.08h7.28v-.21Z"/>
    <path class="cls-2" d="M582.08,342.02l-.77,4.34c-.56-.14-.98-.21-1.65-.21-2.24,0-3.4,1.64-4.1,4.76v9.87h-4.48v-18.52h3.89l.42,3.64c.88-2.66,2.66-4.13,4.83-4.13.67,0,1.26.07,1.85.25Z"/>
    <path class="cls-2" d="M192.13,376.85v25.94h-3.96l-.31-2.35c-1.12,1.68-2.91,2.87-5.29,2.87-4.62,0-7.04-3.89-7.04-9.77s2.87-9.8,7.46-9.8c1.96,0,3.5.84,4.66,2v-9.38l4.48.49ZM187.65,397.54v-8.47c-.98-1.19-2.03-1.96-3.54-1.96-2.31,0-3.85,1.96-3.85,6.41,0,4.76,1.37,6.41,3.57,6.41,1.65,0,2.77-.81,3.81-2.38Z"/>
    <path class="cls-2" d="M202.42,377.62c0,1.5-1.16,2.7-2.84,2.7s-2.8-1.19-2.8-2.7,1.16-2.73,2.8-2.73,2.84,1.19,2.84,2.73ZM201.86,402.79h-4.48v-18.52h4.48v18.52Z"/>
    <path class="cls-2" d="M222.26,394.91h-11.62c.35,3.78,2.1,5.01,4.55,5.01,1.65,0,3.01-.53,4.62-1.65l1.86,2.56c-1.82,1.47-4.06,2.49-6.86,2.49-5.74,0-8.82-3.82-8.82-9.66s2.98-9.91,8.23-9.91,8.16,3.5,8.16,9.35c0,.59-.07,1.33-.1,1.82ZM217.92,391.79c0-3.04-1.08-4.87-3.61-4.87-2.1,0-3.43,1.4-3.68,5.08h7.28v-.21Z"/>
    <path class="cls-2" d="M244,402.79h-5.36l-6.13-18.52h4.87l3.96,14.91,4.06-14.91h4.62l-6.02,18.52Z"/>
    <path class="cls-2" d="M257.75,377.62c0,1.5-1.16,2.7-2.84,2.7s-2.8-1.19-2.8-2.7,1.16-2.73,2.8-2.73,2.84,1.19,2.84,2.73ZM257.19,402.79h-4.48v-18.52h4.48v18.52Z"/>
    <path class="cls-2" d="M277.6,394.91h-11.62c.35,3.78,2.1,5.01,4.55,5.01,1.65,0,3.01-.53,4.62-1.65l1.86,2.56c-1.82,1.47-4.06,2.49-6.86,2.49-5.74,0-8.82-3.82-8.82-9.66s2.98-9.91,8.23-9.91,8.16,3.5,8.16,9.35c0,.59-.07,1.33-.1,1.82ZM273.26,391.79c0-3.04-1.08-4.87-3.61-4.87-2.1,0-3.43,1.4-3.68,5.08h7.28v-.21Z"/>
    <path class="cls-2" d="M281.45,398.55v-21.7l4.48-.49v22.05c0,.88.28,1.29,1.05,1.29.39,0,.73-.07,1.02-.17l.98,3.15c-.77.35-1.85.63-3.01.63-2.84,0-4.52-1.72-4.52-4.76Z"/>
    <path class="cls-2" d="M297.13,382.31v1.96h4.45l-.49,3.22h-3.96v15.3h-4.48v-15.3h-3.01v-3.22h3.01v-2.03c0-3.36,2.24-5.88,6.51-5.88,1.86,0,3.36.42,4.8,1.08l-1.29,3.01c-1.12-.53-2.17-.7-3.05-.7-1.82,0-2.49.8-2.49,2.56Z"/>
    <path class="cls-2" d="M318.79,400.26l-.94,2.98c-2.07-.17-3.4-.88-4.1-2.7-1.33,1.96-3.33,2.77-5.57,2.77-3.68,0-5.95-2.35-5.95-5.71,0-4.03,3.01-6.2,8.4-6.2h2.35v-1.05c0-2.42-1.08-3.22-3.47-3.22-1.26,0-3.05.35-4.94.98l-1.02-3.05c2.28-.88,4.62-1.33,6.69-1.33,4.97,0,7.14,2.28,7.14,6.37v7.77c0,1.5.49,2.03,1.4,2.38ZM308.85,377.72c0,1.37-1.05,2.42-2.42,2.42s-2.48-1.05-2.48-2.42,1.08-2.42,2.48-2.42,2.42,1.05,2.42,2.42ZM312.98,397.78v-3.75h-1.85c-2.91,0-4.34,1.05-4.34,3.22,0,1.79.91,2.8,2.63,2.8,1.54,0,2.73-.8,3.57-2.27ZM316.62,377.72c0,1.37-1.05,2.42-2.45,2.42s-2.45-1.05-2.45-2.42,1.09-2.42,2.45-2.42,2.45,1.05,2.45,2.42Z"/>
    <path class="cls-2" d="M322.29,398.55v-21.7l4.48-.49v22.05c0,.88.28,1.29,1.05,1.29.39,0,.74-.07,1.02-.17l.98,3.15c-.77.35-1.85.63-3.01.63-2.84,0-4.52-1.72-4.52-4.76Z"/>
    <path class="cls-2" d="M343.57,401.91c-1.33.95-3.01,1.4-4.66,1.4-3.64-.04-5.57-2.1-5.57-6.06v-9.77h-2.91v-3.22h2.91v-4.1l4.48-.52v4.62h4.31l-.46,3.22h-3.85v9.66c0,1.82.6,2.56,1.96,2.56.7,0,1.4-.21,2.21-.67l1.58,2.87Z"/>
    <path class="cls-2" d="M351.06,377.62c0,1.5-1.16,2.7-2.84,2.7s-2.8-1.19-2.8-2.7,1.16-2.73,2.8-2.73,2.84,1.19,2.84,2.73ZM350.5,402.79h-4.48v-18.52h4.48v18.52Z"/>
    <path class="cls-2" d="M371.92,385.25c-1.4.49-3.15.63-5.36.63,2.24,1.01,3.36,2.45,3.36,4.76,0,3.61-2.8,6.23-7.46,6.23-.81,0-1.51-.07-2.21-.28-.46.31-.77.8-.77,1.37,0,.67.39,1.29,2.24,1.29h2.84c4.1,0,6.76,2.21,6.76,5.25,0,3.71-3.19,5.92-9.24,5.92-6.58,0-8.44-2.1-8.44-5.81h4.03c0,1.86.81,2.66,4.48,2.66s4.66-.98,4.66-2.45c0-1.37-1.09-2.21-3.15-2.21h-2.8c-3.71,0-5.29-1.65-5.29-3.57,0-1.29.81-2.59,2.17-3.43-2.28-1.19-3.26-2.83-3.26-5.21,0-4.03,3.19-6.65,7.67-6.65,4.38.11,6.41-.88,8.65-2.07l1.12,3.57ZM359.01,390.32c0,2.24,1.23,3.64,3.29,3.64s3.29-1.33,3.29-3.68-1.12-3.5-3.36-3.5c-2.03,0-3.22,1.4-3.22,3.54Z"/>
    <path class="cls-2" d="M389.53,394.91h-11.62c.35,3.78,2.1,5.01,4.55,5.01,1.65,0,3.01-.53,4.62-1.65l1.86,2.56c-1.82,1.47-4.06,2.49-6.86,2.49-5.74,0-8.82-3.82-8.82-9.66s2.98-9.91,8.23-9.91,8.16,3.5,8.16,9.35c0,.59-.07,1.33-.1,1.82ZM385.19,391.79c0-3.04-1.08-4.87-3.61-4.87-2.1,0-3.43,1.4-3.68,5.08h7.28v-.21Z"/>
    <path class="cls-2" d="M407.38,377.62c0,1.5-1.16,2.7-2.84,2.7s-2.8-1.19-2.8-2.7,1.16-2.73,2.8-2.73,2.84,1.19,2.84,2.73ZM406.82,402.79h-4.48v-18.52h4.48v18.52Z"/>
    <path class="cls-2" d="M427.19,389.38v13.41h-4.48v-12.71c0-2.31-.88-2.98-2.28-2.98-1.61,0-2.8,1.08-3.89,2.8v12.88h-4.48v-18.52h3.89l.35,2.42c1.44-1.86,3.29-2.94,5.64-2.94,3.33,0,5.25,2.1,5.25,5.64Z"/>
    <path class="cls-2" d="M442.9,401.91c-1.33.95-3.01,1.4-4.66,1.4-3.64-.04-5.57-2.1-5.57-6.06v-9.77h-2.91v-3.22h2.91v-4.1l4.48-.52v4.62h4.31l-.46,3.22h-3.85v9.66c0,1.82.59,2.56,1.96,2.56.7,0,1.4-.21,2.21-.67l1.58,2.87Z"/>
    <path class="cls-2" d="M459.91,394.91h-11.62c.35,3.78,2.1,5.01,4.55,5.01,1.65,0,3.01-.53,4.62-1.65l1.86,2.56c-1.82,1.47-4.06,2.49-6.86,2.49-5.74,0-8.82-3.82-8.82-9.66s2.98-9.91,8.23-9.91,8.16,3.5,8.16,9.35c0,.59-.07,1.33-.1,1.82ZM455.57,391.79c0-3.04-1.08-4.87-3.61-4.87-2.1,0-3.43,1.4-3.68,5.08h7.28v-.21Z"/>
    <path class="cls-2" d="M474.96,384.02l-.77,4.34c-.56-.14-.98-.21-1.65-.21-2.24,0-3.4,1.64-4.1,4.76v9.87h-4.48v-18.52h3.89l.42,3.64c.88-2.66,2.66-4.13,4.83-4.13.67,0,1.26.07,1.85.25Z"/>
    <path class="cls-2" d="M475.84,390.04h10.57v3.57h-10.57v-3.57Z"/>
    <path class="cls-2" d="M176.13,418.85v25.94h-3.96l-.31-2.35c-1.12,1.68-2.91,2.87-5.29,2.87-4.62,0-7.04-3.89-7.04-9.77s2.87-9.8,7.46-9.8c1.96,0,3.5.84,4.66,2v-9.38l4.48.49ZM171.65,439.53v-8.47c-.98-1.19-2.03-1.96-3.54-1.96-2.31,0-3.85,1.96-3.85,6.41,0,4.76,1.37,6.41,3.57,6.41,1.65,0,2.77-.81,3.81-2.38Z"/>
    <path class="cls-2" d="M186.42,419.62c0,1.51-1.16,2.7-2.84,2.7s-2.8-1.19-2.8-2.7,1.16-2.73,2.8-2.73,2.84,1.19,2.84,2.73ZM185.86,444.79h-4.48v-18.52h4.48v18.52Z"/>
    <path class="cls-2" d="M203.61,427.95l-1.75,2.62c-1.54-.98-3.01-1.5-4.66-1.5-1.79,0-2.8.74-2.8,1.86,0,1.22.74,1.79,3.89,2.66,3.78,1.01,5.92,2.56,5.92,5.85,0,3.85-3.57,5.88-7.81,5.88-3.19,0-5.67-1.09-7.39-2.63l2.24-2.52c1.44,1.08,3.15,1.82,5.04,1.82,2,0,3.29-.84,3.29-2.24,0-1.54-.73-2.03-4.2-3.01-3.82-1.05-5.5-2.87-5.5-5.6,0-3.08,2.83-5.39,7.14-5.39,2.66,0,4.83.84,6.58,2.21Z"/>
    <path class="cls-2" d="M219.81,429.49l-8.96,11.8h9.14l-.46,3.5h-13.83v-3.22l9-11.8h-8.23v-3.5h13.34v3.22Z"/>
    <path class="cls-2" d="M228.28,419.62c0,1.51-1.16,2.7-2.84,2.7s-2.8-1.19-2.8-2.7,1.16-2.73,2.8-2.73,2.84,1.19,2.84,2.73ZM227.72,444.79h-4.48v-18.52h4.48v18.52Z"/>
    <path class="cls-2" d="M249.42,435.47c0,5.67-2.63,9.84-7.32,9.84-1.89,0-3.5-.67-4.66-2.03v8.65l-4.48.49v-26.15h3.92l.24,2.27c1.47-1.92,3.43-2.8,5.43-2.8,4.83,0,6.86,3.82,6.86,9.73ZM244.73,435.51c0-4.69-1.26-6.41-3.5-6.41-1.58,0-2.91,1.08-3.78,2.52v8.33c.88,1.29,2,1.92,3.4,1.92,2.45,0,3.89-1.89,3.89-6.37Z"/>
    <path class="cls-2" d="M253.38,440.55v-21.7l4.48-.49v22.05c0,.88.28,1.29,1.05,1.29.39,0,.74-.07,1.02-.17l.98,3.15c-.77.35-1.85.63-3.01.63-2.84,0-4.52-1.72-4.52-4.76Z"/>
    <path class="cls-2" d="M269.02,419.62c0,1.51-1.16,2.7-2.84,2.7s-2.8-1.19-2.8-2.7,1.16-2.73,2.8-2.73,2.84,1.19,2.84,2.73ZM268.46,444.79h-4.48v-18.52h4.48v18.52Z"/>
    <path class="cls-2" d="M288.83,431.38v13.41h-4.48v-12.71c0-2.31-.88-2.98-2.28-2.98-1.61,0-2.8,1.08-3.89,2.8v12.88h-4.48v-18.52h3.89l.35,2.42c1.44-1.86,3.29-2.94,5.64-2.94,3.33,0,5.25,2.1,5.25,5.64Z"/>
    <path class="cls-2" d="M308.92,442.26l-.94,2.98c-2.07-.17-3.4-.88-4.1-2.7-1.33,1.96-3.33,2.77-5.57,2.77-3.68,0-5.95-2.35-5.95-5.71,0-4.03,3.01-6.2,8.4-6.2h2.35v-1.05c0-2.42-1.08-3.22-3.47-3.22-1.26,0-3.05.35-4.94.98l-1.02-3.04c2.28-.88,4.62-1.33,6.69-1.33,4.97,0,7.14,2.28,7.14,6.37v7.77c0,1.5.49,2.03,1.4,2.38ZM298.98,419.72c0,1.37-1.05,2.42-2.42,2.42s-2.48-1.05-2.48-2.42,1.08-2.42,2.48-2.42,2.42,1.05,2.42,2.42ZM303.11,439.78v-3.75h-1.85c-2.91,0-4.34,1.05-4.34,3.22,0,1.79.91,2.8,2.63,2.8,1.54,0,2.73-.8,3.57-2.28ZM306.75,419.72c0,1.37-1.05,2.42-2.45,2.42s-2.45-1.05-2.45-2.42,1.09-2.42,2.45-2.42,2.45,1.05,2.45,2.42Z"/>
    <path class="cls-2" d="M323.87,426.02l-.77,4.34c-.56-.14-.98-.21-1.65-.21-2.24,0-3.4,1.65-4.1,4.76v9.87h-4.48v-18.52h3.89l.42,3.64c.88-2.66,2.66-4.13,4.83-4.13.67,0,1.26.07,1.85.25Z"/>
    <path class="cls-2" d="M341.05,436.91h-11.62c.35,3.78,2.1,5.01,4.55,5.01,1.65,0,3.01-.53,4.62-1.65l1.86,2.56c-1.82,1.47-4.06,2.49-6.86,2.49-5.74,0-8.82-3.82-8.82-9.66s2.98-9.91,8.23-9.91,8.16,3.5,8.16,9.35c0,.6-.07,1.33-.1,1.82ZM336.71,433.79c0-3.04-1.08-4.87-3.61-4.87-2.1,0-3.43,1.4-3.68,5.08h7.28v-.21Z"/>
    <path class="cls-2" d="M360.23,431.38v13.41h-4.48v-12.71c0-2.31-.88-2.98-2.28-2.98-1.61,0-2.8,1.08-3.89,2.8v12.88h-4.48v-18.52h3.89l.35,2.42c1.44-1.86,3.29-2.94,5.64-2.94,3.33,0,5.25,2.1,5.25,5.64Z"/>
    <path class="cls-2" d="M391.17,428.3c0,5.57-4.03,8.05-9.49,8.05h-2.84v8.44h-4.62v-24.19h7.14c6.09,0,9.8,2.49,9.8,7.7ZM386.34,428.3c0-3.05-1.86-4.31-5.01-4.31h-2.49v8.89h2.49c3.08,0,5.01-1.05,5.01-4.58Z"/>
    <path class="cls-2" d="M405,426.02l-.77,4.34c-.56-.14-.98-.21-1.65-.21-2.24,0-3.4,1.65-4.1,4.76v9.87h-4.48v-18.52h3.89l.42,3.64c.88-2.66,2.66-4.13,4.83-4.13.67,0,1.26.07,1.85.25Z"/>
    <path class="cls-2" d="M423.34,435.51c0,5.85-3.26,9.8-8.72,9.8s-8.72-3.71-8.72-9.8,3.25-9.77,8.75-9.77,8.68,3.71,8.68,9.77ZM410.63,435.51c0,4.45,1.37,6.41,3.99,6.41s3.99-2,3.99-6.41-1.37-6.37-3.96-6.37-4.03,2-4.03,6.37Z"/>
    <path class="cls-2" d="M431.98,443.14c0,5.67-2.59,7.56-6.76,9.24l-1.44-3.25c2.42-1.12,3.71-2.07,3.71-5.71v-17.15h4.48v16.87ZM432.58,419.62c0,1.51-1.16,2.7-2.84,2.7s-2.8-1.19-2.8-2.7,1.16-2.73,2.8-2.73,2.84,1.19,2.84,2.73Z"/>
    <path class="cls-2" d="M452.39,436.91h-11.62c.35,3.78,2.1,5.01,4.55,5.01,1.65,0,3.01-.53,4.62-1.65l1.86,2.56c-1.82,1.47-4.06,2.49-6.86,2.49-5.74,0-8.82-3.82-8.82-9.66s2.98-9.91,8.23-9.91,8.16,3.5,8.16,9.35c0,.6-.07,1.33-.1,1.82ZM448.05,433.79c0-3.04-1.08-4.87-3.61-4.87-2.1,0-3.43,1.4-3.68,5.08h7.28v-.21Z"/>
    <path class="cls-2" d="M460.93,444.79h-4.48v-25.94l4.48-.49v26.43ZM465.86,434.42l6.76,10.36h-5.15l-6.37-10.12,6.2-8.4h4.73l-6.16,8.16Z"/>
    <path class="cls-2" d="M485.74,443.91c-1.33.95-3.01,1.4-4.66,1.4-3.64-.04-5.57-2.1-5.57-6.06v-9.77h-2.91v-3.22h2.91v-4.1l4.48-.53v4.62h4.31l-.46,3.22h-3.85v9.66c0,1.82.6,2.56,1.96,2.56.7,0,1.4-.21,2.21-.67l1.58,2.87Z"/>
    <path class="cls-2" d="M502.75,436.91h-11.62c.35,3.78,2.1,5.01,4.55,5.01,1.65,0,3.01-.53,4.62-1.65l1.86,2.56c-1.82,1.47-4.06,2.49-6.86,2.49-5.74,0-8.82-3.82-8.82-9.66s2.98-9.91,8.23-9.91,8.16,3.5,8.16,9.35c0,.6-.07,1.33-.1,1.82ZM498.41,433.79c0-3.04-1.08-4.87-3.61-4.87-2.1,0-3.43,1.4-3.68,5.08h7.28v-.21Z"/>
    <path class="cls-2" d="M274.8,471.49l-8.96,11.8h9.14l-.46,3.5h-13.83v-3.22l9-11.8h-8.23v-3.5h13.34v3.22Z"/>
    <path class="cls-2" d="M292.96,486.79h-3.89l-.25-2.59c-1.37,2.1-3.12,3.12-5.67,3.12-3.36,0-5.15-2.17-5.15-5.74v-13.3h4.48v12.74c0,2.17.7,2.91,2.24,2.91s2.8-1.02,3.75-2.62v-13.02h4.48v18.52Z"/>
    <path class="cls-2" d="M323.13,469.25c-1.4.49-3.15.63-5.36.63,2.24,1.02,3.36,2.45,3.36,4.76,0,3.61-2.8,6.23-7.46,6.23-.81,0-1.51-.07-2.21-.28-.46.31-.77.8-.77,1.37,0,.67.39,1.29,2.24,1.29h2.84c4.1,0,6.76,2.21,6.76,5.25,0,3.71-3.19,5.92-9.24,5.92-6.58,0-8.44-2.1-8.44-5.81h4.03c0,1.86.81,2.66,4.48,2.66s4.66-.98,4.66-2.45c0-1.37-1.09-2.21-3.15-2.21h-2.8c-3.71,0-5.29-1.65-5.29-3.57,0-1.3.81-2.59,2.17-3.43-2.28-1.19-3.26-2.83-3.26-5.22,0-4.03,3.19-6.65,7.67-6.65,4.38.11,6.41-.88,8.65-2.07l1.12,3.57ZM310.22,474.32c0,2.24,1.23,3.64,3.29,3.64s3.29-1.33,3.29-3.67-1.12-3.5-3.36-3.5c-2.03,0-3.22,1.4-3.22,3.54Z"/>
    <path class="cls-2" d="M340.74,478.91h-11.62c.35,3.78,2.1,5.01,4.55,5.01,1.65,0,3.01-.53,4.62-1.65l1.86,2.56c-1.82,1.47-4.06,2.49-6.86,2.49-5.74,0-8.82-3.82-8.82-9.66s2.98-9.91,8.23-9.91,8.16,3.5,8.16,9.35c0,.6-.07,1.33-.1,1.82ZM336.4,475.79c0-3.04-1.08-4.87-3.61-4.87-2.1,0-3.43,1.4-3.68,5.08h7.28v-.21Z"/>
    <path class="cls-2" d="M361.25,477.51c0,5.78-2.77,9.8-7.32,9.8-2.03,0-3.71-.91-4.9-2.42l-.28,1.89h-3.96v-25.94l4.48-.49v10.01c1.19-1.64,2.98-2.62,5.11-2.62,4.31,0,6.86,3.57,6.86,9.77ZM356.56,477.51c0-4.94-1.47-6.41-3.61-6.41-1.61,0-2.8,1.08-3.68,2.52v8.19c.8,1.33,2.03,2.14,3.43,2.14,2.28,0,3.85-1.79,3.85-6.44Z"/>
    <path class="cls-2" d="M380.57,478.91h-11.62c.35,3.78,2.1,5.01,4.55,5.01,1.65,0,3.01-.53,4.62-1.65l1.86,2.56c-1.82,1.47-4.06,2.49-6.86,2.49-5.74,0-8.82-3.82-8.82-9.66s2.98-9.91,8.23-9.91,8.16,3.5,8.16,9.35c0,.6-.07,1.33-.1,1.82ZM376.23,475.79c0-3.04-1.08-4.87-3.61-4.87-2.1,0-3.43,1.4-3.68,5.08h7.28v-.21Z"/>
    <path class="cls-2" d="M399.75,473.38v13.41h-4.48v-12.71c0-2.31-.88-2.98-2.28-2.98-1.61,0-2.8,1.08-3.89,2.8v12.88h-4.48v-18.52h3.89l.35,2.42c1.44-1.86,3.29-2.94,5.64-2.94,3.33,0,5.25,2.1,5.25,5.64Z"/>
  </g>
</svg>