<?xml version="1.0" encoding="UTF-8"?>
<svg id="Ebene_1" data-name="Ebene 1" xmlns="http://www.w3.org/2000/svg" xmlns:xlink="http://www.w3.org/1999/xlink" viewBox="0 0 404.16 313.87">
  <defs>
    <style>
      .cls-1 {
        fill: #2494ca;
        opacity: .8;
      }

      .cls-2 {
        fill: #a5a6a7;
      }

      .cls-3, .cls-4 {
        fill: #fff;
      }

      .cls-4 {
        opacity: .49;
      }

      .cls-5 {
        fill: url(#Unbenannter_Verlauf_20);
      }

      .cls-5, .cls-6, .cls-7 {
        opacity: .2;
      }

      .cls-8 {
        fill: #575656;
      }

      .cls-9 {
        fill: none;
        stroke: #fff;
        stroke-dasharray: 2;
        stroke-width: .5px;
      }

      .cls-9, .cls-10 {
        stroke-linecap: round;
        stroke-miterlimit: 10;
      }

      .cls-6 {
        fill: url(#Unbenannter_Verlauf_20-2);
      }

      .cls-7 {
        fill: url(#Unbenannter_Verlauf_20-3);
      }

      .cls-10 {
        fill: #787878;
        stroke: #2494ca;
        stroke-width: .75px;
      }
    </style>
    <radialGradient id="Unbenannter_Verlauf_20" data-name="Unbenannter Verlauf 20" cx="79.78" cy="259.61" fx="79.78" fy="259.61" r="55.28" gradientTransform="translate(0 145.96) scale(1 .44)" gradientUnits="userSpaceOnUse">
      <stop offset="0" stop-color="#fff"/>
      <stop offset=".8" stop-color="#000"/>
    </radialGradient>
    <radialGradient id="Unbenannter_Verlauf_20-2" data-name="Unbenannter Verlauf 20" cx="305.46" cy="282.88" fx="305.46" fy="282.88" gradientTransform="translate(5.18 156.7) scale(.98 .45)" xlink:href="#Unbenannter_Verlauf_20"/>
    <radialGradient id="Unbenannter_Verlauf_20-3" data-name="Unbenannter Verlauf 20" cx="331.78" cy="156.85" fx="331.78" fy="156.85" gradientTransform="translate(0 83.83) scale(1 .46)" xlink:href="#Unbenannter_Verlauf_20"/>
  </defs>
  <g id="Karte">
    <line class="cls-10" x1="21.63" y1="149.26" x2="163.91" y2="6.88"/>
    <line class="cls-10" x1="19.12" y1="149.23" x2="161.99" y2="6.26"/>
    <line class="cls-10" x1="17.09" y1="148.94" x2="159.99" y2="5.94"/>
    <line class="cls-10" x1="14.48" y1="149.01" x2="157.88" y2="5.68"/>
    <line class="cls-10" x1="12.13" y1="148.88" x2="154.94" y2="5.97"/>
    <line class="cls-10" x1="9.6" y1="149.01" x2="152.5" y2="6"/>
    <line class="cls-10" x1="7.12" y1="148.94" x2="149.97" y2="5.99"/>
    <line class="cls-10" x1="4.73" y1="148.71" x2="22.86" y2="130.57"/>
    <line class="cls-10" x1="2.61" y1="148.29" x2="20.32" y2="130.57"/>
    <line class="cls-10" x1="1.47" y1="147.11" x2="17.81" y2="130.76"/>
    <line class="cls-10" x1=".57" y1="145.47" x2="15.27" y2="130.76"/>
    <line class="cls-10" x1=".38" y1="143.19" x2="12.73" y2="130.82"/>
    <line class="cls-10" x1=".47" y1="140.68" x2="10.35" y2="130.79"/>
    <line class="cls-10" x1="3.57" y1="135.04" x2="7.96" y2="130.64"/>
    <line class="cls-10" x1="2.58" y1="133.82" x2="6.15" y2="130.25"/>
    <line class="cls-10" x1="24.74" y1="128.92" x2="100.31" y2="53.3"/>
    <line class="cls-10" x1="24.77" y1="126.4" x2="98.96" y2="52.15"/>
    <line class="cls-10" x1="24.77" y1="124.03" x2="97.83" y2="50.91"/>
    <line class="cls-10" x1="24.48" y1="121.87" x2="96.53" y2="49.77"/>
    <line class="cls-10" x1="24.61" y1="119.35" x2="95.37" y2="48.53"/>
    <line class="cls-10" x1="24.66" y1="116.87" x2="94.08" y2="47.39"/>
    <line class="cls-10" x1="32.8" y1="106.2" x2="92.9" y2="46.06"/>
    <line class="cls-10" x1="32.85" y1="103.58" x2="91.57" y2="44.82"/>
    <line class="cls-10" x1="32.8" y1="101.16" x2="90.33" y2="43.58"/>
    <line class="cls-10" x1="32.75" y1="98.87" x2="97.61" y2="33.96"/>
    <line class="cls-10" x1="37.51" y1="91.58" x2="96.24" y2="32.82"/>
    <line class="cls-10" x1="37.56" y1="88.96" x2="95" y2="31.49"/>
    <line class="cls-10" x1="37.51" y1="86.54" x2="93.76" y2="30.25"/>
    <line class="cls-10" x1="37.47" y1="84.25" x2="92.57" y2="29.11"/>
    <line class="cls-10" x1="37.42" y1="81.63" x2="91.43" y2="27.58"/>
    <line class="cls-10" x1="37.47" y1="79.01" x2="90.13" y2="26.31"/>
    <line class="cls-10" x1="37.42" y1="76.58" x2="88.8" y2="25.17"/>
    <line class="cls-10" x1="37.37" y1="74.3" x2="89.38" y2="22.25"/>
    <line class="cls-10" x1="37.61" y1="71.87" x2="89.22" y2="20.22"/>
    <line class="cls-10" x1="37.66" y1="69.25" x2="87.54" y2="19.33"/>
    <line class="cls-10" x1="37.61" y1="66.82" x2="85.45" y2="18.95"/>
    <line class="cls-10" x1="44.85" y1="57.06" x2="82.89" y2="18.99"/>
    <line class="cls-10" x1="43.37" y1="55.92" x2="80.14" y2="19.12"/>
    <line class="cls-10" x1="42.23" y1="54.73" x2="77.71" y2="19.22"/>
    <line class="cls-10" x1="40.89" y1="53.54" x2="75.13" y2="19.28"/>
    <line class="cls-10" x1="39.04" y1="52.92" x2="72.55" y2="19.37"/>
    <line class="cls-10" x1="36.47" y1="53.01" x2="68.56" y2="20.9"/>
    <line class="cls-10" x1="34.13" y1="53.06" x2="66.27" y2="20.9"/>
    <line class="cls-10" x1="31.7" y1="52.96" x2="63.75" y2="20.9"/>
    <line class="cls-10" x1="29.1" y1="52.97" x2="61.12" y2="20.93"/>
    <line class="cls-10" x1="26.67" y1="52.96" x2="58.8" y2="20.8"/>
    <line class="cls-10" x1="25.31" y1="51.72" x2="56.19" y2="20.82"/>
    <line class="cls-10" x1="25.41" y1="49.29" x2="53.85" y2="20.82"/>
    <line class="cls-10" x1="25.58" y1="46.81" x2="51.41" y2="20.96"/>
    <line class="cls-10" x1="25.62" y1="44.19" x2="30.17" y2="39.64"/>
    <line class="cls-10" x1="25.58" y1="41.77" x2="28.77" y2="38.57"/>
    <line class="cls-10" x1="25.53" y1="39.48" x2="27.43" y2="37.58"/>
    <line class="cls-10" x1="36.21" y1="33.73" x2="49.11" y2="20.82"/>
    <line class="cls-10" x1="34.79" y1="32.63" x2="46.63" y2="20.72"/>
    <line class="cls-10" x1="33.66" y1="31.23" x2="44.02" y2="20.87"/>
    <line class="cls-10" x1="32.71" y1="29.85" x2="38.26" y2="24.3"/>
    <line class="cls-10" x1="111.58" y1="41.99" x2="117.28" y2="36.28"/>
    <line class="cls-10" x1="110.28" y1="40.71" x2="114.62" y2="36.38"/>
    <line class="cls-10" x1="108.95" y1="39.57" x2="113.38" y2="35.14"/>
    <line class="cls-10" x1="107.57" y1="38.62" x2="112.28" y2="33.9"/>
    <line class="cls-10" x1="106.59" y1="37.23" x2="110.97" y2="32.85"/>
    <line class="cls-10" x1="105.71" y1="35.55" x2="109.35" y2="31.9"/>
    <line class="cls-10" x1="105.76" y1="33.02" x2="107.36" y2="31.42"/>
    <line class="cls-10" x1="125.5" y1="28.02" x2="147.56" y2="5.95"/>
    <line class="cls-10" x1="124.38" y1="26.57" x2="144.99" y2="5.95"/>
    <line class="cls-10" x1="122.95" y1="25.52" x2="142.42" y2="6.04"/>
    <line class="cls-10" x1="122.14" y1="24" x2="140.16" y2="5.97"/>
    <line class="cls-10" x1="121.83" y1="22" x2="138.73" y2="5.09"/>
    <line class="cls-10" x1="121.88" y1="19.38" x2="137.63" y2="3.61"/>
    <line class="cls-10" x1="121.83" y1="16.95" x2="136.54" y2="2.23"/>
    <line class="cls-10" x1="129.23" y1="7.21" x2="135.01" y2="1.42"/>
    <line class="cls-10" x1="130.85" y1="3.09" x2="133.51" y2=".42"/>
    <line class="cls-10" x1="130.23" y1="1.38" x2="131.23" y2=".38"/>
    <line class="cls-10" x1="21.87" y1="158.97" x2="171.14" y2="9.59"/>
    <line class="cls-10" x1="21.73" y1="156.7" x2="169.56" y2="8.77"/>
    <line class="cls-10" x1="21.63" y1="154.07" x2="167.65" y2="7.95"/>
    <line class="cls-10" x1="21.63" y1="151.5" x2="165.85" y2="7.18"/>
    <line class="cls-10" x1="21.73" y1="168.89" x2="174.26" y2="16.26"/>
    <line class="cls-10" x1="21.63" y1="166.42" x2="173.36" y2="14.59"/>
    <line class="cls-10" x1="21.66" y1="163.91" x2="172.67" y2="12.8"/>
    <line class="cls-10" x1="21.73" y1="161.51" x2="172.05" y2="11.08"/>
    <line class="cls-10" x1="24.5" y1="176.15" x2="118.38" y2="82.21"/>
    <line class="cls-10" x1="22.1" y1="175.97" x2="117.53" y2="80.48"/>
    <line class="cls-10" x1="19.46" y1="176.15" x2="116.52" y2="79.01"/>
    <line class="cls-10" x1="21.73" y1="171.54" x2="175.1" y2="18.06"/>
    <line class="cls-10" x1="34.78" y1="175.64" x2="122.78" y2="87.59"/>
    <line class="cls-10" x1="31.88" y1="175.97" x2="121.37" y2="86.42"/>
    <line class="cls-10" x1="29.41" y1="175.97" x2="120.56" y2="84.76"/>
    <line class="cls-10" x1="26.9" y1="176.15" x2="119.34" y2="83.64"/>
    <line class="cls-10" x1="41.87" y1="175.77" x2="125.66" y2="91.92"/>
    <line class="cls-10" x1="39.66" y1="175.51" x2="124.61" y2="90.5"/>
    <line class="cls-10" x1="37.2" y1="175.64" x2="123.5" y2="89.27"/>
    <line class="cls-10" x1="68.24" y1="159.39" x2="129.24" y2="98.35"/>
    <line class="cls-10" x1="66.97" y1="158.09" x2="128.05" y2="96.96"/>
    <line class="cls-10" x1="65.65" y1="156.94" x2="127.42" y2="95.12"/>
    <line class="cls-10" x1="56.81" y1="163.45" x2="126.43" y2="93.78"/>
    <line class="cls-10" x1="73.59" y1="163.87" x2="138.43" y2="98.98"/>
    <line class="cls-10" x1="72.22" y1="162.66" x2="135.97" y2="98.87"/>
    <line class="cls-10" x1="70.82" y1="161.65" x2="133.45" y2="98.98"/>
    <line class="cls-10" x1="69.77" y1="160.31" x2="131.32" y2="98.71"/>
    <line class="cls-10" x1="78.78" y1="168.53" x2="147.15" y2="100.11"/>
    <line class="cls-10" x1="77.32" y1="167.42" x2="144.8" y2="99.89"/>
    <line class="cls-10" x1="76.41" y1="165.85" x2="142.32" y2="99.89"/>
    <line class="cls-10" x1="75.08" y1="164.85" x2="140.49" y2="99.4"/>
    <line class="cls-10" x1="84.57" y1="172.76" x2="202.64" y2="54.61"/>
    <line class="cls-10" x1="83.2" y1="171.55" x2="201.27" y2="53.41"/>
    <line class="cls-10" x1="81.68" y1="170.6" x2="200.48" y2="51.72"/>
    <line class="cls-10" x1="80.39" y1="169.56" x2="149.79" y2="100.11"/>
    <line class="cls-10" x1="87.52" y1="179.45" x2="105" y2="161.96"/>
    <line class="cls-10" x1="87.79" y1="176.62" x2="104.48" y2="159.91"/>
    <line class="cls-10" x1="87.33" y1="174.6" x2="103.82" y2="158.09"/>
    <line class="cls-10" x1="86.22" y1="173.78" x2="203.85" y2="56.08"/>
    <line class="cls-10" x1="85.97" y1="191.13" x2="107.66" y2="169.42"/>
    <line class="cls-10" x1="86.61" y1="187.91" x2="107.09" y2="167.42"/>
    <line class="cls-10" x1="86.61" y1="185.44" x2="106.19" y2="165.85"/>
    <line class="cls-10" x1="87.05" y1="182.66" x2="105.81" y2="163.89"/>
    <line class="cls-10" x1="87.52" y1="199.59" x2="110.48" y2="176.62"/>
    <line class="cls-10" x1="85.1" y1="199.44" x2="109.72" y2="174.8"/>
    <line class="cls-10" x1="85.57" y1="196.5" x2="108.85" y2="173.2"/>
    <line class="cls-10" x1="85.8" y1="193.93" x2="108.52" y2="171.2"/>
    <line class="cls-10" x1="105.38" y1="191.36" x2="113.09" y2="183.64"/>
    <line class="cls-10" x1="100.67" y1="193.5" x2="112.1" y2="182.05"/>
    <line class="cls-10" x1="96.06" y1="195.63" x2="111.62" y2="180.06"/>
    <line class="cls-10" x1="91.74" y1="197.62" x2="111.01" y2="178.34"/>
    <line class="cls-10" x1="113.72" y1="187.91" x2="114.22" y2="187.41"/>
    <line class="cls-10" x1="109.72" y1="189.58" x2="113.86" y2="185.44"/>
    <line class="cls-10" x1="116.22" y1="153.64" x2="212.74" y2="57.06"/>
    <line class="cls-10" x1="112.68" y1="154.61" x2="210.17" y2="57.06"/>
    <line class="cls-10" x1="109.72" y1="155.1" x2="207.69" y2="57.06"/>
    <line class="cls-10" x1="106.56" y1="155.93" x2="205.36" y2="57.06"/>
    <line class="cls-10" x1="128.2" y1="151.3" x2="219.92" y2="59.52"/>
    <line class="cls-10" x1="125.01" y1="151.93" x2="218.48" y2="58.39"/>
    <line class="cls-10" x1="121.92" y1="152.55" x2="217.34" y2="57.06"/>
    <line class="cls-10" x1="119.04" y1="153.09" x2="215" y2="57.06"/>
    <line class="cls-10" x1="133.05" y1="156.34" x2="227.51" y2="61.8"/>
    <line class="cls-10" x1="132.09" y1="154.72" x2="222.53" y2="64.22"/>
    <line class="cls-10" x1="131.51" y1="152.83" x2="221.71" y2="62.57"/>
    <line class="cls-10" x1="130.7" y1="151.3" x2="220.5" y2="61.44"/>
    <line class="cls-10" x1="138" y1="161.3" x2="240.45" y2="58.78"/>
    <line class="cls-10" x1="134.98" y1="161.75" x2="238.26" y2="58.39"/>
    <line class="cls-10" x1="134.56" y1="159.69" x2="236.63" y2="57.56"/>
    <line class="cls-10" x1="133.75" y1="158.17" x2="234.29" y2="57.56"/>
    <line class="cls-10" x1="154.3" y1="154.87" x2="247.67" y2="61.44"/>
    <line class="cls-10" x1="150.13" y1="156.48" x2="245.97" y2="60.57"/>
    <line class="cls-10" x1="145.96" y1="158.17" x2="244.11" y2="59.95"/>
    <line class="cls-10" x1="141.89" y1="159.91" x2="242.21" y2="59.52"/>
    <line class="cls-10" x1="158.13" y1="160.73" x2="254.97" y2="63.82"/>
    <line class="cls-10" x1="159.95" y1="156.34" x2="253.08" y2="63.14"/>
    <line class="cls-10" x1="161.62" y1="152.19" x2="251.54" y2="62.21"/>
    <line class="cls-10" x1="158.13" y1="153.35" x2="249.61" y2="61.8"/>
    <line class="cls-10" x1="151.39" y1="177.7" x2="262.53" y2="66.49"/>
    <line class="cls-10" x1="152.82" y1="173.7" x2="260.86" y2="65.58"/>
    <line class="cls-10" x1="154.3" y1="169.74" x2="259.09" y2="64.88"/>
    <line class="cls-10" x1="156.64" y1="164.96" x2="257.46" y2="64.07"/>
    <line class="cls-10" x1="154.51" y1="184.13" x2="271.28" y2="67.28"/>
    <line class="cls-10" x1="153.62" y1="182.46" x2="269.03" y2="66.96"/>
    <line class="cls-10" x1="152.74" y1="180.89" x2="266.86" y2="66.7"/>
    <line class="cls-10" x1="151.84" y1="179.6" x2="264.67" y2="66.69"/>
    <line class="cls-10" x1="158.32" y1="190.29" x2="279.46" y2="69.06"/>
    <line class="cls-10" x1="157.43" y1="188.61" x2="278.67" y2="67.28"/>
    <line class="cls-10" x1="156.59" y1="186.97" x2="277.37" y2="66.1"/>
    <line class="cls-10" x1="155.52" y1="185.7" x2="275.98" y2="65.16"/>
    <line class="cls-10" x1="162" y1="196.6" x2="283.89" y2="74.62"/>
    <line class="cls-10" x1="161.08" y1="194.95" x2="282.45" y2="73.49"/>
    <line class="cls-10" x1="160.15" y1="193.4" x2="281.33" y2="72.14"/>
    <line class="cls-10" x1="159.34" y1="191.87" x2="280.69" y2="70.44"/>
    <line class="cls-10" x1="163.81" y1="204.67" x2="288.15" y2="80.24"/>
    <line class="cls-10" x1="163.38" y1="202.42" x2="287.12" y2="78.58"/>
    <line class="cls-10" x1="162.7" y1="200.73" x2="285.6" y2="77.74"/>
    <line class="cls-10" x1="162.6" y1="198.5" x2="285.05" y2="75.96"/>
    <line class="cls-10" x1="168.13" y1="210.16" x2="259.48" y2="118.74"/>
    <line class="cls-10" x1="167.12" y1="208.6" x2="291.35" y2="84.28"/>
    <line class="cls-10" x1="165.99" y1="207.25" x2="290.42" y2="82.73"/>
    <line class="cls-10" x1="164.95" y1="205.96" x2="289.45" y2="81.38"/>
    <line class="cls-10" x1="172.35" y1="215.7" x2="262.96" y2="125.03"/>
    <line class="cls-10" x1="171.23" y1="214.25" x2="261.62" y2="123.79"/>
    <line class="cls-10" x1="169.8" y1="213.21" x2="260.86" y2="122.08"/>
    <line class="cls-10" x1="168.99" y1="211.68" x2="260.17" y2="120.44"/>
    <line class="cls-10" x1="175.87" y1="222.08" x2="266.86" y2="131.04"/>
    <line class="cls-10" x1="174.84" y1="220.55" x2="265.65" y2="129.67"/>
    <line class="cls-10" x1="173.77" y1="219.14" x2="264.67" y2="128.18"/>
    <line class="cls-10" x1="172.96" y1="217.62" x2="263.6" y2="126.91"/>
    <line class="cls-10" x1="179.9" y1="227.99" x2="270.4" y2="137.43"/>
    <line class="cls-10" x1="178.79" y1="226.53" x2="269.03" y2="136.22"/>
    <line class="cls-10" x1="177.93" y1="224.92" x2="268.25" y2="134.53"/>
    <line class="cls-10" x1="176.86" y1="223.66" x2="267.68" y2="132.77"/>
    <line class="cls-10" x1="179.19" y1="238.67" x2="273.54" y2="144.25"/>
    <line class="cls-10" x1="179.38" y1="235.9" x2="272.77" y2="142.45"/>
    <line class="cls-10" x1="180.12" y1="232.69" x2="271.56" y2="141.19"/>
    <line class="cls-10" x1="180.74" y1="229.74" x2="271.1" y2="139.31"/>
    <line class="cls-10" x1="181.93" y1="245.73" x2="277.37" y2="150.22"/>
    <line class="cls-10" x1="179.63" y1="245.46" x2="276.3" y2="148.72"/>
    <line class="cls-10" x1="177.87" y1="244.75" x2="275.26" y2="147.29"/>
    <line class="cls-10" x1="178.57" y1="241.71" x2="274.45" y2="145.77"/>
    <line class="cls-10" x1="189.71" y1="247.67" x2="275.26" y2="162.06"/>
    <line class="cls-10" x1="187.71" y1="247.1" x2="274.45" y2="160.3"/>
    <line class="cls-10" x1="185.67" y1="246.66" x2="273.19" y2="159.08"/>
    <line class="cls-10" x1="183.65" y1="246.35" x2="278.01" y2="151.93"/>
    <line class="cls-10" x1="195.19" y1="252.11" x2="280.69" y2="166.54"/>
    <line class="cls-10" x1="195.36" y1="249.36" x2="278.89" y2="165.77"/>
    <line class="cls-10" x1="193.73" y1="248.52" x2="278.01" y2="164.18"/>
    <line class="cls-10" x1="191.83" y1="248.09" x2="276.68" y2="163.18"/>
    <line class="cls-10" x1="194.03" y1="263.28" x2="252.82" y2="204.45"/>
    <line class="cls-10" x1="193.98" y1="260.76" x2="283.12" y2="171.55"/>
    <line class="cls-10" x1="194.51" y1="257.76" x2="283.31" y2="168.89"/>
    <line class="cls-10" x1="195.19" y1="254.74" x2="282.22" y2="167.64"/>
    <line class="cls-10" x1="192.46" y1="274.57" x2="254.17" y2="212.82"/>
    <line class="cls-10" x1="193.05" y1="271.41" x2="253.48" y2="210.94"/>
    <line class="cls-10" x1="193.02" y1="268.96" x2="253.48" y2="208.46"/>
    <line class="cls-10" x1="193.55" y1="266.09" x2="253.26" y2="206.35"/>
    <line class="cls-10" x1="205.78" y1="271.26" x2="256.17" y2="220.84"/>
    <line class="cls-10" x1="201.85" y1="272.62" x2="255.61" y2="218.82"/>
    <line class="cls-10" x1="198.39" y1="273.61" x2="254.17" y2="217.79"/>
    <line class="cls-10" x1="194.6" y1="275.07" x2="254.17" y2="215.46"/>
    <line class="cls-10" x1="230.06" y1="256.86" x2="256.76" y2="230.13"/>
    <line class="cls-10" x1="222.65" y1="261.7" x2="256.77" y2="227.55"/>
    <line class="cls-10" x1="214.7" y1="267.18" x2="256.26" y2="225.59"/>
    <line class="cls-10" x1="209.49" y1="270.06" x2="256.17" y2="223.35"/>
    <line class="cls-10" x1="246.05" y1="250.68" x2="253.48" y2="243.24"/>
    <line class="cls-10" x1="243.73" y1="250.42" x2="258.08" y2="236.06"/>
    <line class="cls-10" x1="241.16" y1="250.52" x2="257.67" y2="234"/>
    <line class="cls-10" x1="238.24" y1="251.11" x2="257.4" y2="231.93"/>
    <line class="cls-10" x1="248.43" y1="250.68" x2="252.82" y2="246.28"/>
    <line class="cls-10" x1="250.9" y1="250.68" x2="252.18" y2="249.39"/>
    <line class="cls-10" x1="256.26" y1="240.07" x2="258.08" y2="238.26"/>
    <line class="cls-10" x1="257.63" y1="240.86" x2="258.53" y2="239.95"/>
    <line class="cls-10" x1="256.17" y1="200.88" x2="281.9" y2="175.13"/>
    <line class="cls-10" x1="259.48" y1="200.16" x2="281.33" y2="178.3"/>
    <line class="cls-10" x1="262.96" y1="199.11" x2="280.16" y2="181.89"/>
    <line class="cls-10" x1="266.22" y1="198.37" x2="280.16" y2="184.42"/>
    <line class="cls-10" x1="269.37" y1="197.74" x2="278.89" y2="188.21"/>
    <line class="cls-10" x1="272.52" y1="196.92" x2="278.01" y2="191.42"/>
    <line class="cls-10" x1="275.98" y1="196.04" x2="277.37" y2="194.65"/>
    <line class="cls-10" x1="261.62" y1="116.52" x2="292.48" y2="85.65"/>
    <line class="cls-10" x1="268.32" y1="112.1" x2="293.07" y2="87.33"/>
    <line class="cls-10" x1="275.95" y1="106.83" x2="293.07" y2="89.7"/>
    <line class="cls-10" x1="279.21" y1="106.09" x2="293.07" y2="92.23"/>
    <line class="cls-10" x1="281.9" y1="106.09" x2="294.66" y2="93.33"/>
    <line class="cls-10" x1="284.09" y1="106.53" x2="296.63" y2="93.98"/>
    <line class="cls-10" x1="285.88" y1="107.1" x2="298.75" y2="94.21"/>
    <line class="cls-10" x1="287.87" y1="107.7" x2="300.94" y2="94.62"/>
    <line class="cls-10" x1="290.12" y1="107.88" x2="302.87" y2="95.12"/>
    <line class="cls-10" x1="292.09" y1="108.43" x2="305.23" y2="95.29"/>
    <line class="cls-10" x1="294.03" y1="109.02" x2="307.34" y2="95.7"/>
    <line class="cls-10" x1="296.03" y1="109.34" x2="309.37" y2="95.98"/>
    <line class="cls-10" x1="298.18" y1="109.93" x2="305.96" y2="102.14"/>
    <line class="cls-10" x1="124.47" y1="83.64" x2="124.93" y2="83.19"/>
    <line class="cls-10" x1="125.38" y1="85.06" x2="126.74" y2="83.7"/>
    <line class="cls-10" x1="126.43" y1="86.42" x2="128.52" y2="84.34"/>
    <line class="cls-10" x1="127.26" y1="88.1" x2="130.23" y2="85.12"/>
    <line class="cls-10" x1="128.17" y1="89.6" x2="131.67" y2="86.1"/>
    <line class="cls-10" x1="129.24" y1="90.96" x2="133.4" y2="86.8"/>
    <line class="cls-10" x1="130.23" y1="92.6" x2="135.24" y2="87.59"/>
    <line class="cls-10" x1="131.08" y1="94.04" x2="136.71" y2="88.42"/>
    <line class="cls-10" x1="132.55" y1="95.12" x2="138.94" y2="88.72"/>
    <line class="cls-10" x1="134.99" y1="95.19" x2="141.26" y2="88.93"/>
    <line class="cls-10" x1="137.26" y1="95.39" x2="143.72" y2="88.93"/>
    <line class="cls-10" x1="139.65" y1="95.5" x2="145.72" y2="89.43"/>
    <line class="cls-10" x1="141.74" y1="95.73" x2="146.89" y2="90.58"/>
    <line class="cls-10" x1="143.97" y1="95.98" x2="146.79" y2="93.16"/>
    <line class="cls-10" x1="146.22" y1="96.22" x2="147.24" y2="95.19"/>
    <line class="cls-10" x1="118.38" y1="77.32" x2="176.27" y2="19.38"/>
    <line class="cls-10" x1="119.95" y1="78.07" x2="177.45" y2="20.52"/>
    <line class="cls-10" x1="121.84" y1="78.58" x2="178.39" y2="22"/>
    <line class="cls-10" x1="123.69" y1="79.24" x2="179.51" y2="23.38"/>
    <line class="cls-10" x1="125.77" y1="79.58" x2="180.31" y2="25"/>
    <line class="cls-10" x1="127.53" y1="80.24" x2="181.17" y2="26.57"/>
    <line class="cls-10" x1="129.92" y1="80.48" x2="182.79" y2="27.58"/>
    <line class="cls-10" x1="131.32" y1="81.38" x2="183.56" y2="29.11"/>
    <line class="cls-10" x1="132.82" y1="82.42" x2="184.59" y2="30.62"/>
    <line class="cls-10" x1="134.87" y1="82.89" x2="185.5" y2="32.22"/>
    <line class="cls-10" x1="136.39" y1="83.83" x2="186.46" y2="33.72"/>
    <line class="cls-10" x1="137.97" y1="84.76" x2="187.56" y2="35.14"/>
    <line class="cls-10" x1="140.28" y1="84.76" x2="188.64" y2="36.38"/>
    <line class="cls-10" x1="142.5" y1="85.02" x2="189.63" y2="37.86"/>
    <line class="cls-10" x1="144.73" y1="85.28" x2="190.84" y2="39.13"/>
    <line class="cls-10" x1="147.15" y1="85.57" x2="191.98" y2="40.71"/>
    <line class="cls-10" x1="149.39" y1="85.66" x2="193.03" y2="41.99"/>
    <line class="cls-10" x1="149.87" y1="87.59" x2="193.84" y2="43.58"/>
    <line class="cls-10" x1="150.22" y1="89.74" x2="195.11" y2="44.82"/>
    <line class="cls-10" x1="150.32" y1="92.06" x2="196.29" y2="46.06"/>
    <line class="cls-10" x1="150.41" y1="94.4" x2="197.11" y2="47.66"/>
    <line class="cls-10" x1="150.89" y1="96.55" x2="198.6" y2="48.81"/>
    <line class="cls-10" x1="150.79" y1="98.94" x2="199.41" y2="50.29"/>
  </g>
  <g id="Gebiet">
    <circle class="cls-3" cx="264.5" cy="167.2" r="1.14"/>
    <circle class="cls-3" cx="204.22" cy="158.77" r="1.14"/>
    <circle class="cls-3" cx="197.16" cy="193.4" r="1.14"/>
    <circle class="cls-3" cx="258.54" cy="209.33" r="1.14"/>
    <circle class="cls-3" cx="244.32" cy="153.06" r="1.14"/>
    <polygon class="cls-4" points="203.98 158.97 244.11 153.3 264.07 167.31 258.53 209.33 203.98 240.18 197.16 193.4 203.98 158.97"/>
    <polygon class="cls-9" points="204.19 158.73 244.32 153.06 264.28 167.07 258.75 209.08 204.19 239.94 197.37 193.15 204.19 158.73"/>
  </g>
  <g id="Karte_Holzminden">
    <rect class="cls-5" x="7.4" y="230.09" width="144.76" height="59.05" rx="5" ry="5"/>
    <rect class="cls-1" x="5.4" y="228.24" width="144.76" height="59.05" rx="5" ry="5"/>
    <g>
      <path class="cls-3" d="M29.17,244.58h2.74l-.1.69h-1.72v1.45h1.49v.69h-1.49v2.02h-.92v-4.84Z"/>
      <path class="cls-3" d="M35.08,248.91l-.19.59c-.41-.04-.68-.17-.82-.54-.27.39-.67.55-1.11.55-.74,0-1.19-.47-1.19-1.14,0-.81.6-1.24,1.68-1.24h.47v-.21c0-.48-.22-.64-.69-.64-.25,0-.61.07-.99.2l-.2-.61c.46-.17.92-.27,1.34-.27.99,0,1.43.46,1.43,1.27v1.55c0,.3.1.41.28.48ZM33.92,248.41v-.75h-.37c-.58,0-.87.21-.87.64,0,.36.18.56.53.56.31,0,.55-.16.71-.46Z"/>
      <path class="cls-3" d="M36.66,249.42h-.9v-5.19l.9-.1v5.29ZM37.64,247.34l1.35,2.07h-1.03l-1.27-2.02,1.24-1.68h.95l-1.23,1.63Z"/>
      <path class="cls-3" d="M42.3,249.42h-.78l-.05-.52c-.27.42-.62.62-1.13.62-.67,0-1.03-.43-1.03-1.15v-2.66h.9v2.55c0,.43.14.58.45.58s.56-.2.75-.53v-2.61h.9v3.71Z"/>
      <path class="cls-3" d="M43.19,248.57v-4.34l.9-.1v4.41c0,.17.06.26.21.26.08,0,.15-.01.2-.04l.2.63c-.15.07-.37.13-.6.13-.57,0-.9-.34-.9-.95Z"/>
      <path class="cls-3" d="M47.34,249.24c-.27.19-.6.28-.93.28-.73,0-1.11-.42-1.11-1.21v-1.95h-.58v-.64h.58v-.82l.9-.11v.92h.86l-.09.64h-.77v1.93c0,.36.12.51.39.51.14,0,.28-.04.44-.13l.31.57Z"/>
      <path class="cls-3" d="M50.71,248.91l-.19.59c-.41-.04-.68-.17-.82-.54-.27.39-.67.55-1.11.55-.74,0-1.19-.47-1.19-1.14,0-.81.6-1.24,1.68-1.24h.47v-.21c0-.48-.22-.64-.69-.64-.25,0-.61.07-.99.2l-.2-.61c.46-.17.92-.27,1.34-.27.99,0,1.43.46,1.43,1.27v1.55c0,.3.1.41.28.48ZM48.72,244.4c0,.27-.21.48-.48.48s-.5-.21-.5-.48.22-.48.5-.48.48.21.48.48ZM49.54,248.41v-.75h-.37c-.58,0-.87.21-.87.64,0,.36.18.56.53.56.31,0,.55-.16.71-.46ZM50.27,244.4c0,.27-.21.48-.49.48s-.49-.21-.49-.48.22-.48.49-.48.49.21.49.48Z"/>
      <path class="cls-3" d="M53.52,249.24c-.27.19-.6.28-.93.28-.73,0-1.11-.42-1.11-1.21v-1.95h-.58v-.64h.58v-.82l.9-.11v.92h.86l-.09.64h-.77v1.93c0,.36.12.51.39.51.14,0,.28-.04.44-.13l.31.57Z"/>
      <path class="cls-3" d="M60.16,249.42h-.9l-.13-2.02c-.04-.71-.08-1.46-.06-1.97l-.88,3.47h-.88l-.94-3.48c.03.65.01,1.32-.03,2.01l-.12,2h-.9l.38-4.84h1.19l.86,3.39.81-3.39h1.2l.38,4.84Z"/>
      <path class="cls-3" d="M63.91,248.91l-.19.59c-.41-.04-.68-.17-.82-.54-.27.39-.67.55-1.11.55-.74,0-1.19-.47-1.19-1.14,0-.81.6-1.24,1.68-1.24h.47v-.21c0-.48-.22-.64-.69-.64-.25,0-.61.07-.99.2l-.2-.61c.46-.17.92-.27,1.34-.27.99,0,1.43.46,1.43,1.27v1.55c0,.3.1.41.28.48ZM62.74,248.41v-.75h-.37c-.58,0-.87.21-.87.64,0,.36.18.56.53.56.31,0,.55-.16.71-.46Z"/>
      <path class="cls-3" d="M67.61,246.73v2.68h-.9v-2.54c0-.46-.17-.6-.46-.6-.32,0-.56.22-.78.56v2.58h-.9v-3.71h.78l.07.48c.29-.37.66-.59,1.13-.59.67,0,1.05.42,1.05,1.13Z"/>
      <path class="cls-3" d="M71.52,248.91l-.19.59c-.41-.04-.68-.17-.82-.54-.27.39-.67.55-1.11.55-.74,0-1.19-.47-1.19-1.14,0-.81.6-1.24,1.68-1.24h.47v-.21c0-.48-.22-.64-.69-.64-.25,0-.61.07-.99.2l-.2-.61c.46-.17.92-.27,1.34-.27.99,0,1.43.46,1.43,1.27v1.55c0,.3.1.41.28.48ZM70.35,248.41v-.75h-.37c-.58,0-.87.21-.87.64,0,.36.18.56.53.56.31,0,.55-.16.71-.46Z"/>
      <path class="cls-3" d="M75.42,245.91c-.28.1-.63.13-1.07.13.45.2.67.49.67.95,0,.72-.56,1.25-1.49,1.25-.16,0-.3-.01-.44-.06-.09.06-.15.16-.15.27,0,.13.08.26.45.26h.57c.82,0,1.35.44,1.35,1.05,0,.74-.64,1.18-1.85,1.18-1.32,0-1.69-.42-1.69-1.16h.8c0,.37.16.53.9.53s.93-.2.93-.49c0-.27-.22-.44-.63-.44h-.56c-.74,0-1.06-.33-1.06-.71,0-.26.16-.52.43-.69-.46-.24-.65-.57-.65-1.04,0-.81.64-1.33,1.53-1.33.88.02,1.28-.18,1.73-.41l.22.71ZM72.83,246.92c0,.45.25.73.66.73s.66-.27.66-.74-.22-.7-.67-.7c-.41,0-.64.28-.64.71Z"/>
      <path class="cls-3" d="M78.82,247.84h-2.33c.07.76.42,1,.91,1,.33,0,.6-.11.92-.33l.37.51c-.36.29-.81.5-1.37.5-1.15,0-1.77-.76-1.77-1.93s.6-1.98,1.65-1.98,1.63.7,1.63,1.87c0,.12-.01.27-.02.36ZM77.96,247.22c0-.61-.22-.97-.72-.97-.42,0-.69.28-.74,1.02h1.46v-.04Z"/>
      <path class="cls-3" d="M84.43,246.73v2.68h-.9v-2.54c0-.46-.18-.6-.41-.6-.31,0-.5.22-.7.56v2.58h-.9v-2.54c0-.46-.19-.6-.41-.6-.31,0-.5.22-.71.56v2.58h-.9v-3.71h.78l.07.48c.27-.37.6-.59,1.07-.59.43,0,.76.23.9.62.28-.39.62-.62,1.11-.62.59,0,.98.43.98,1.13Z"/>
      <path class="cls-3" d="M88.36,247.84h-2.33c.07.76.42,1,.91,1,.33,0,.6-.11.92-.33l.37.51c-.36.29-.81.5-1.37.5-1.15,0-1.77-.76-1.77-1.93s.6-1.98,1.65-1.98,1.63.7,1.63,1.87c0,.12-.01.27-.02.36ZM87.49,247.22c0-.61-.22-.97-.72-.97-.42,0-.69.28-.74,1.02h1.46v-.04Z"/>
      <path class="cls-3" d="M92.08,246.73v2.68h-.9v-2.54c0-.46-.17-.6-.46-.6-.32,0-.56.22-.78.56v2.58h-.9v-3.71h.78l.07.48c.29-.37.66-.59,1.13-.59.67,0,1.05.42,1.05,1.13Z"/>
      <path class="cls-3" d="M95.11,249.24c-.27.19-.6.28-.93.28-.73,0-1.11-.42-1.11-1.21v-1.95h-.58v-.64h.58v-.82l.9-.11v.92h.86l-.09.64h-.77v1.93c0,.36.12.51.39.51.14,0,.28-.04.44-.13l.31.57Z"/>
      <path class="cls-3" d="M96.41,248.95c0,.18-.06.35-.18.63l-.46,1.04h-.55l.29-1.21c-.15-.11-.24-.27-.24-.47,0-.31.25-.56.56-.56.33,0,.58.25.58.57Z"/>
      <path class="cls-3" d="M102.26,248.02c0,1.06-.85,1.39-2.02,1.39h-1.46v-4.84h1.27c1.25,0,2,.35,2,1.23,0,.6-.43.95-.9,1.04.55.11,1.11.36,1.11,1.17ZM99.7,245.26v1.31h.57c.5,0,.83-.22.83-.68,0-.49-.34-.63-.97-.63h-.43ZM101.29,247.99c0-.58-.41-.78-.95-.78h-.64v1.51h.54c.61,0,1.05-.13,1.05-.74Z"/>
      <path class="cls-3" d="M105.93,248.91l-.19.59c-.41-.04-.68-.17-.82-.54-.27.39-.67.55-1.11.55-.74,0-1.19-.47-1.19-1.14,0-.81.6-1.24,1.68-1.24h.47v-.21c0-.48-.22-.64-.69-.64-.25,0-.61.07-.99.2l-.2-.61c.46-.17.92-.27,1.34-.27.99,0,1.43.46,1.43,1.27v1.55c0,.3.1.41.28.48ZM104.77,248.41v-.75h-.37c-.58,0-.87.21-.87.64,0,.36.18.56.53.56.31,0,.55-.16.71-.46Z"/>
      <path class="cls-3" d="M109.55,249.42h-.78l-.05-.52c-.27.42-.62.62-1.13.62-.67,0-1.03-.43-1.03-1.15v-2.66h.9v2.55c0,.43.14.58.45.58s.56-.2.75-.53v-2.61h.9v3.71Z"/>
      <path class="cls-3" d="M113.52,247.84h-2.33c.07.76.42,1,.91,1,.33,0,.6-.11.92-.33l.37.51c-.36.29-.81.5-1.37.5-1.15,0-1.77-.76-1.77-1.93s.6-1.98,1.65-1.98,1.63.7,1.63,1.87c0,.12-.01.27-.02.36ZM112.65,247.22c0-.61-.22-.97-.72-.97-.42,0-.69.28-.74,1.02h1.46v-.04Z"/>
      <path class="cls-3" d="M117.25,246.73v2.68h-.9v-2.54c0-.46-.17-.6-.46-.6-.32,0-.56.22-.78.56v2.58h-.9v-3.71h.78l.07.48c.29-.37.66-.59,1.13-.59.67,0,1.05.42,1.05,1.13Z"/>
      <path class="cls-3" d="M119.02,248.95c0,.18-.06.35-.18.63l-.46,1.04h-.55l.29-1.21c-.15-.11-.24-.27-.24-.47,0-.31.25-.56.56-.56.33,0,.58.25.58.57Z"/>
      <path class="cls-3" d="M30.1,257.82h-.92v-4.84h.92v4.84Z"/>
      <path class="cls-3" d="M35.99,255.13v2.68h-.9v-2.54c0-.46-.18-.6-.41-.6-.31,0-.5.22-.7.56v2.58h-.9v-2.54c0-.46-.19-.6-.41-.6-.31,0-.5.22-.71.56v2.58h-.9v-3.71h.78l.07.48c.27-.37.6-.59,1.07-.59.43,0,.76.23.9.62.28-.39.62-.62,1.11-.62.59,0,.98.43.98,1.13Z"/>
      <path class="cls-3" d="M41.79,255.13v2.68h-.9v-2.54c0-.46-.18-.6-.41-.6-.31,0-.5.22-.7.56v2.58h-.9v-2.54c0-.46-.19-.6-.41-.6-.31,0-.5.22-.71.56v2.58h-.9v-3.71h.78l.07.48c.27-.37.6-.59,1.07-.59.43,0,.76.23.9.62.28-.39.62-.62,1.11-.62.59,0,.98.43.98,1.13Z"/>
      <path class="cls-3" d="M45.95,255.96c0,1.17-.65,1.96-1.74,1.96s-1.74-.74-1.74-1.96.65-1.95,1.75-1.95,1.74.74,1.74,1.95ZM43.41,255.96c0,.89.27,1.28.8,1.28s.8-.4.8-1.28-.27-1.27-.79-1.27-.8.4-.8,1.27Z"/>
      <path class="cls-3" d="M49.95,255.96c0,1.16-.55,1.96-1.46,1.96-.41,0-.74-.18-.98-.48l-.06.38h-.79v-5.19l.9-.1v2c.24-.33.6-.53,1.02-.53.86,0,1.37.71,1.37,1.95ZM49.01,255.96c0-.99-.29-1.28-.72-1.28-.32,0-.56.22-.74.5v1.64c.16.27.41.43.69.43.46,0,.77-.36.77-1.29Z"/>
      <path class="cls-3" d="M51.68,252.78c0,.3-.23.54-.57.54s-.56-.24-.56-.54.23-.55.56-.55.57.24.57.55ZM51.57,257.82h-.9v-3.71h.9v3.71Z"/>
      <path class="cls-3" d="M52.46,256.97v-4.34l.9-.1v4.41c0,.17.06.26.21.26.08,0,.15-.01.2-.04l.2.63c-.15.07-.37.13-.6.13-.57,0-.9-.34-.9-.95Z"/>
      <path class="cls-3" d="M55.48,252.78c0,.3-.23.54-.57.54s-.56-.24-.56-.54.23-.55.56-.55.57.24.57.55ZM55.37,257.82h-.9v-3.71h.9v3.71Z"/>
      <path class="cls-3" d="M59.34,256.24h-2.33c.07.76.42,1,.91,1,.33,0,.6-.11.92-.33l.37.51c-.36.29-.81.5-1.37.5-1.15,0-1.77-.76-1.77-1.93s.6-1.98,1.65-1.98,1.63.7,1.63,1.87c0,.12-.01.27-.02.36ZM58.47,255.62c0-.61-.22-.97-.72-.97-.42,0-.69.28-.74,1.02h1.46v-.04Z"/>
      <path class="cls-3" d="M63.06,255.13v2.68h-.9v-2.54c0-.46-.17-.6-.46-.6-.32,0-.56.22-.78.56v2.58h-.9v-3.71h.78l.07.48c.29-.37.66-.59,1.13-.59.67,0,1.05.42,1.05,1.13Z"/>
      <path class="cls-3" d="M29.17,269.78h2.74l-.1.69h-1.72v1.45h1.49v.69h-1.49v2.02h-.92v-4.84Z"/>
      <path class="cls-3" d="M35.08,274.11l-.19.59c-.41-.04-.68-.17-.82-.54-.27.39-.67.55-1.11.55-.74,0-1.19-.47-1.19-1.14,0-.81.6-1.24,1.68-1.24h.47v-.21c0-.48-.22-.64-.69-.64-.25,0-.61.07-.99.2l-.2-.61c.46-.17.92-.27,1.34-.27.99,0,1.43.46,1.43,1.28v1.55c0,.3.1.41.28.48ZM33.92,273.61v-.75h-.37c-.58,0-.87.21-.87.64,0,.36.18.56.53.56.31,0,.55-.16.71-.46Z"/>
      <path class="cls-3" d="M36.66,274.62h-.9v-5.19l.9-.1v5.29ZM37.64,272.54l1.35,2.07h-1.03l-1.27-2.02,1.24-1.68h.95l-1.23,1.63Z"/>
      <path class="cls-3" d="M42.3,274.62h-.78l-.05-.52c-.27.42-.62.62-1.13.62-.67,0-1.03-.43-1.03-1.15v-2.66h.9v2.55c0,.43.14.58.45.58s.56-.2.75-.53v-2.61h.9v3.71Z"/>
      <path class="cls-3" d="M43.19,273.77v-4.34l.9-.1v4.41c0,.17.06.26.21.26.08,0,.15-.01.2-.04l.2.63c-.15.07-.37.13-.6.13-.57,0-.9-.34-.9-.95Z"/>
      <path class="cls-3" d="M47.34,274.44c-.27.19-.6.28-.93.28-.73,0-1.11-.42-1.11-1.21v-1.95h-.58v-.64h.58v-.82l.9-.11v.92h.86l-.09.64h-.77v1.93c0,.36.12.51.39.51.14,0,.28-.04.44-.13l.31.57Z"/>
      <path class="cls-3" d="M50.71,274.11l-.19.59c-.41-.04-.68-.17-.82-.54-.27.39-.67.55-1.11.55-.74,0-1.19-.47-1.19-1.14,0-.81.6-1.24,1.68-1.24h.47v-.21c0-.48-.22-.64-.69-.64-.25,0-.61.07-.99.2l-.2-.61c.46-.17.92-.27,1.34-.27.99,0,1.43.46,1.43,1.28v1.55c0,.3.1.41.28.48ZM48.72,269.6c0,.27-.21.48-.48.48s-.5-.21-.5-.48.22-.48.5-.48.48.21.48.48ZM49.54,273.61v-.75h-.37c-.58,0-.87.21-.87.64,0,.36.18.56.53.56.31,0,.55-.16.71-.46ZM50.27,269.6c0,.27-.21.48-.49.48s-.49-.21-.49-.48.22-.48.49-.48.49.21.49.48Z"/>
      <path class="cls-3" d="M53.52,274.44c-.27.19-.6.28-.93.28-.73,0-1.11-.42-1.11-1.21v-1.95h-.58v-.64h.58v-.82l.9-.11v.92h.86l-.09.64h-.77v1.93c0,.36.12.51.39.51.14,0,.28-.04.44-.13l.31.57Z"/>
      <path class="cls-3" d="M58.57,270.27l-.46.53c-.35-.29-.69-.41-1.09-.41-.43,0-.75.2-.75.57,0,.35.19.5,1,.76.85.27,1.44.62,1.44,1.53s-.68,1.49-1.83,1.49c-.77,0-1.34-.27-1.74-.67l.48-.53c.36.3.74.48,1.25.48s.89-.25.89-.72c0-.41-.2-.59-.96-.82-1.01-.31-1.46-.72-1.46-1.46,0-.8.69-1.34,1.65-1.34.71,0,1.18.21,1.6.59Z"/>
      <path class="cls-3" d="M62.61,272.76c0,1.17-.65,1.96-1.74,1.96s-1.74-.74-1.74-1.96.65-1.95,1.75-1.95,1.74.74,1.74,1.95ZM60.06,272.76c0,.89.27,1.28.8,1.28s.8-.4.8-1.28-.27-1.27-.79-1.27-.8.4-.8,1.27Z"/>
      <path class="cls-3" d="M65.69,271.56l-1.79,2.36h1.83l-.09.7h-2.77v-.64l1.8-2.36h-1.65v-.7h2.67v.64Z"/>
      <path class="cls-3" d="M67.27,269.58c0,.3-.23.54-.57.54s-.56-.24-.56-.54.23-.55.56-.55.57.24.57.55ZM67.16,274.62h-.9v-3.71h.9v3.71Z"/>
      <path class="cls-3" d="M71.11,274.11l-.19.59c-.41-.04-.68-.17-.82-.54-.27.39-.67.55-1.11.55-.74,0-1.19-.47-1.19-1.14,0-.81.6-1.24,1.68-1.24h.47v-.21c0-.48-.22-.64-.69-.64-.25,0-.61.07-.99.2l-.2-.61c.46-.17.92-.27,1.34-.27.99,0,1.43.46,1.43,1.28v1.55c0,.3.1.41.28.48ZM69.95,273.61v-.75h-.37c-.58,0-.87.21-.87.64,0,.36.18.56.53.56.31,0,.55-.16.71-.46Z"/>
      <path class="cls-3" d="M71.7,273.77v-4.34l.9-.1v4.41c0,.17.06.26.21.26.08,0,.15-.01.2-.04l.2.63c-.15.07-.37.13-.6.13-.57,0-.9-.34-.9-.95Z"/>
      <path class="cls-3" d="M76.7,273.04h-2.33c.07.76.42,1,.91,1,.33,0,.6-.11.92-.33l.37.51c-.36.29-.81.5-1.37.5-1.15,0-1.77-.76-1.77-1.93s.6-1.98,1.65-1.98,1.63.7,1.63,1.87c0,.12-.01.27-.02.36ZM75.84,272.42c0-.61-.22-.97-.72-.97-.42,0-.69.28-.74,1.02h1.46v-.04Z"/>
      <path class="cls-3" d="M81.34,273.49h-1.6l-.3,1.12h-.96l1.51-4.84h1.14l1.5,4.84h-.98l-.3-1.12ZM81.16,272.79l-.62-2.31-.62,2.31h1.24Z"/>
      <path class="cls-3" d="M85.21,270.86l-.15.87c-.11-.03-.2-.04-.33-.04-.45,0-.68.33-.82.95v1.97h-.9v-3.71h.78l.08.73c.17-.53.53-.83.97-.83.13,0,.25.01.37.05Z"/>
      <path class="cls-3" d="M88.93,272.76c0,1.16-.55,1.96-1.46,1.96-.41,0-.74-.18-.98-.48l-.06.38h-.79v-5.19l.9-.1v2c.24-.33.6-.53,1.02-.53.86,0,1.37.71,1.37,1.95ZM87.99,272.76c0-.99-.29-1.28-.72-1.28-.32,0-.56.22-.74.5v1.64c.16.27.41.43.69.43.46,0,.77-.36.77-1.29Z"/>
      <path class="cls-3" d="M92.68,273.04h-2.33c.07.76.42,1,.91,1,.33,0,.6-.11.92-.33l.37.51c-.36.29-.81.5-1.37.5-1.15,0-1.77-.76-1.77-1.93s.6-1.98,1.65-1.98,1.63.7,1.63,1.87c0,.12-.01.27-.02.36ZM91.82,272.42c0-.61-.22-.97-.72-.97-.42,0-.69.28-.74,1.02h1.46v-.04Z"/>
      <path class="cls-3" d="M94.39,269.58c0,.3-.23.54-.57.54s-.56-.24-.56-.54.23-.55.56-.55.57.24.57.55ZM94.28,274.62h-.9v-3.71h.9v3.71Z"/>
      <path class="cls-3" d="M97.35,274.44c-.27.19-.6.28-.93.28-.73,0-1.11-.42-1.11-1.21v-1.95h-.58v-.64h.58v-.82l.9-.11v.92h.86l-.09.64h-.77v1.93c0,.36.12.51.39.51.14,0,.28-.04.44-.13l.31.57Z"/>
    </g>
    <polygon class="cls-3" points="24.17 247.18 18.65 241.07 18.65 253.29 24.17 247.18"/>
    <polygon class="cls-3" points="24.17 272.33 18.65 266.22 18.65 278.44 24.17 272.33"/>
  </g>
  <g id="Karte_Göttingen">
    <rect class="cls-6" x="233.08" y="253.35" width="141.54" height="60.52" rx="5" ry="5"/>
    <rect class="cls-1" x="231.08" y="251.5" width="141.83" height="59.95" rx="5" ry="5"/>
    <g>
      <path class="cls-3" d="M253.93,266.42h2.74l-.1.69h-1.72v1.45h1.49v.69h-1.49v2.02h-.92v-4.84Z"/>
      <path class="cls-3" d="M259.84,270.76l-.19.59c-.41-.04-.68-.17-.82-.54-.27.39-.67.55-1.11.55-.74,0-1.19-.47-1.19-1.14,0-.81.6-1.24,1.68-1.24h.47v-.21c0-.48-.22-.64-.69-.64-.25,0-.61.07-.99.2l-.2-.61c.46-.17.92-.27,1.34-.27.99,0,1.43.46,1.43,1.27v1.55c0,.3.1.41.28.48ZM258.68,270.26v-.75h-.37c-.58,0-.87.21-.87.64,0,.36.18.56.53.56.31,0,.55-.16.71-.46Z"/>
      <path class="cls-3" d="M261.41,271.26h-.9v-5.19l.9-.1v5.29ZM262.4,269.19l1.35,2.07h-1.03l-1.27-2.02,1.24-1.68h.95l-1.23,1.63Z"/>
      <path class="cls-3" d="M267.06,271.26h-.78l-.05-.52c-.27.42-.62.62-1.13.62-.67,0-1.03-.43-1.03-1.15v-2.66h.9v2.55c0,.43.14.58.45.58s.56-.2.75-.53v-2.61h.9v3.71Z"/>
      <path class="cls-3" d="M267.95,270.41v-4.34l.9-.1v4.41c0,.17.06.26.21.26.08,0,.15-.01.2-.04l.2.63c-.15.07-.37.13-.6.13-.57,0-.9-.34-.9-.95Z"/>
      <path class="cls-3" d="M272.1,271.09c-.27.19-.6.28-.93.28-.73,0-1.11-.42-1.11-1.21v-1.95h-.58v-.64h.58v-.82l.9-.11v.92h.86l-.09.64h-.77v1.93c0,.36.12.51.39.51.14,0,.28-.04.44-.13l.31.57Z"/>
      <path class="cls-3" d="M275.46,270.76l-.19.59c-.41-.04-.68-.17-.82-.54-.27.39-.67.55-1.11.55-.74,0-1.19-.47-1.19-1.14,0-.81.6-1.24,1.68-1.24h.47v-.21c0-.48-.22-.64-.69-.64-.25,0-.61.07-.99.2l-.2-.61c.46-.17.92-.27,1.34-.27.99,0,1.43.46,1.43,1.27v1.55c0,.3.1.41.28.48ZM273.48,266.25c0,.27-.21.48-.48.48s-.5-.21-.5-.48.22-.48.5-.48.48.21.48.48ZM274.3,270.26v-.75h-.37c-.58,0-.87.21-.87.64,0,.36.18.56.53.56.31,0,.55-.16.71-.46ZM275.03,266.25c0,.27-.21.48-.49.48s-.49-.21-.49-.48.22-.48.49-.48.49.21.49.48Z"/>
      <path class="cls-3" d="M278.28,271.09c-.27.19-.6.28-.93.28-.73,0-1.11-.42-1.11-1.21v-1.95h-.58v-.64h.58v-.82l.9-.11v.92h.86l-.09.64h-.77v1.93c0,.36.12.51.39.51.14,0,.28-.04.44-.13l.31.57Z"/>
      <path class="cls-3" d="M281.26,271.26h-.92v-4.84h.92v4.84Z"/>
      <path class="cls-3" d="M285.26,268.58v2.68h-.9v-2.54c0-.46-.17-.6-.46-.6-.32,0-.56.22-.78.56v2.58h-.9v-3.71h.78l.07.48c.29-.37.66-.59,1.13-.59.67,0,1.05.42,1.05,1.13Z"/>
      <path class="cls-3" d="M289.39,267.75c-.28.1-.63.13-1.07.13.45.2.67.49.67.95,0,.72-.56,1.25-1.49,1.25-.16,0-.3-.01-.44-.06-.09.06-.15.16-.15.27,0,.13.08.26.45.26h.57c.82,0,1.35.44,1.35,1.05,0,.74-.64,1.18-1.85,1.18-1.32,0-1.69-.42-1.69-1.16h.8c0,.37.16.53.9.53s.93-.2.93-.49c0-.27-.22-.44-.63-.44h-.56c-.74,0-1.06-.33-1.06-.71,0-.26.16-.52.43-.69-.46-.24-.65-.57-.65-1.04,0-.81.64-1.33,1.53-1.33.88.02,1.28-.18,1.73-.41l.22.71ZM286.81,268.77c0,.45.25.73.66.73s.66-.27.66-.74-.22-.7-.67-.7c-.41,0-.64.28-.64.71Z"/>
      <path class="cls-3" d="M292.8,269.69h-2.33c.07.76.42,1,.91,1,.33,0,.6-.11.92-.33l.37.51c-.36.29-.81.5-1.37.5-1.15,0-1.77-.76-1.77-1.93s.6-1.98,1.65-1.98,1.63.7,1.63,1.87c0,.12-.01.27-.02.36ZM291.93,269.06c0-.61-.22-.97-.72-.97-.42,0-.69.28-.74,1.02h1.46v-.04Z"/>
      <path class="cls-3" d="M296.53,268.58v2.68h-.9v-2.54c0-.46-.17-.6-.46-.6-.32,0-.56.22-.78.56v2.58h-.9v-3.71h.78l.07.48c.29-.37.66-.59,1.13-.59.67,0,1.05.42,1.05,1.13Z"/>
      <path class="cls-3" d="M298.43,266.23c0,.3-.23.54-.57.54s-.56-.24-.56-.54.23-.55.56-.55.57.24.57.55ZM298.32,271.26h-.9v-3.71h.9v3.71Z"/>
      <path class="cls-3" d="M302.29,269.69h-2.33c.07.76.42,1,.91,1,.33,0,.6-.11.92-.33l.37.51c-.36.29-.81.5-1.37.5-1.15,0-1.77-.76-1.77-1.93s.6-1.98,1.65-1.98,1.63.7,1.63,1.87c0,.12-.01.27-.02.36ZM301.42,269.06c0-.61-.22-.97-.72-.97-.42,0-.69.28-.74,1.02h1.46v-.04Z"/>
      <path class="cls-3" d="M305.93,271.26h-.78l-.05-.52c-.27.42-.62.62-1.13.62-.67,0-1.03-.43-1.03-1.15v-2.66h.9v2.55c0,.43.14.58.45.58s.56-.2.75-.53v-2.61h.9v3.71Z"/>
      <path class="cls-3" d="M309.07,267.51l-.15.87c-.11-.03-.2-.04-.33-.04-.45,0-.68.33-.82.95v1.97h-.9v-3.71h.78l.08.73c.17-.53.53-.83.97-.83.13,0,.25.01.37.05Z"/>
      <path class="cls-3" d="M311.91,267.89l-.35.53c-.31-.2-.6-.3-.93-.3-.36,0-.56.15-.56.37,0,.25.15.36.78.53.76.2,1.18.51,1.18,1.17,0,.77-.71,1.18-1.56,1.18-.64,0-1.13-.22-1.48-.53l.45-.5c.29.22.63.36,1.01.36.4,0,.66-.17.66-.45,0-.31-.15-.41-.84-.6-.76-.21-1.1-.57-1.1-1.12,0-.62.57-1.08,1.43-1.08.53,0,.97.17,1.32.44Z"/>
      <path class="cls-3" d="M316.33,271.26h-1.12l-.56-2.91-.57,2.91h-1.1l-.82-3.71h.9l.52,3.05.64-3.05h.92l.59,3.05.55-3.05h.86l-.81,3.71Z"/>
      <path class="cls-3" d="M318.63,266.23c0,.3-.23.54-.57.54s-.56-.24-.56-.54.23-.55.56-.55.57.24.57.55ZM318.52,271.26h-.9v-3.71h.9v3.71Z"/>
      <path class="cls-3" d="M321.96,267.89l-.35.53c-.31-.2-.6-.3-.93-.3-.36,0-.56.15-.56.37,0,.25.15.36.78.53.76.2,1.18.51,1.18,1.17,0,.77-.71,1.18-1.56,1.18-.64,0-1.13-.22-1.48-.53l.45-.5c.29.22.63.36,1.01.36.4,0,.66-.17.66-.45,0-.31-.15-.41-.84-.6-.76-.21-1.1-.57-1.1-1.12,0-.62.57-1.08,1.43-1.08.53,0,.97.17,1.32.44Z"/>
      <path class="cls-3" d="M325.11,267.89l-.35.53c-.31-.2-.6-.3-.93-.3-.36,0-.56.15-.56.37,0,.25.15.36.78.53.76.2,1.18.51,1.18,1.17,0,.77-.71,1.18-1.56,1.18-.64,0-1.13-.22-1.48-.53l.45-.5c.29.22.63.36,1.01.36.4,0,.66-.17.66-.45,0-.31-.15-.41-.84-.6-.76-.21-1.1-.57-1.1-1.12,0-.62.57-1.08,1.43-1.08.53,0,.97.17,1.32.44Z"/>
      <path class="cls-3" d="M328.85,269.69h-2.33c.07.76.42,1,.91,1,.33,0,.6-.11.92-.33l.37.51c-.36.29-.81.5-1.37.5-1.15,0-1.77-.76-1.77-1.93s.6-1.98,1.65-1.98,1.63.7,1.63,1.87c0,.12-.01.27-.02.36ZM327.98,269.06c0-.61-.22-.97-.72-.97-.42,0-.69.28-.74,1.02h1.46v-.04Z"/>
      <path class="cls-3" d="M332.57,268.58v2.68h-.9v-2.54c0-.46-.17-.6-.46-.6-.32,0-.56.22-.78.56v2.58h-.9v-3.71h.78l.07.48c.29-.37.66-.59,1.13-.59.67,0,1.05.42,1.05,1.13Z"/>
      <path class="cls-3" d="M335.97,267.89l-.35.53c-.31-.2-.6-.3-.93-.3-.36,0-.56.15-.56.37,0,.25.15.36.78.53.76.2,1.18.51,1.18,1.17,0,.77-.71,1.18-1.56,1.18-.64,0-1.13-.22-1.48-.53l.45-.5c.29.22.63.36,1.01.36.4,0,.66-.17.66-.45,0-.31-.15-.41-.84-.6-.76-.21-1.1-.57-1.1-1.12,0-.62.57-1.08,1.43-1.08.53,0,.97.17,1.32.44Z"/>
      <path class="cls-3" d="M339.38,267.89l-.4.54c-.25-.18-.47-.27-.75-.27-.52,0-.83.38-.83,1.27s.33,1.21.83,1.21c.28,0,.48-.09.75-.27l.4.57c-.34.27-.72.43-1.2.43-1.07,0-1.74-.74-1.74-1.93s.67-1.99,1.73-1.99c.48,0,.85.13,1.2.43Z"/>
      <path class="cls-3" d="M342.93,268.58v2.68h-.9v-2.54c0-.46-.18-.6-.46-.6-.32,0-.56.22-.78.55v2.58h-.9v-5.18l.9-.09v2.01c.29-.35.63-.55,1.08-.55.66,0,1.05.43,1.05,1.13Z"/>
      <path class="cls-3" d="M346.84,270.76l-.19.59c-.41-.04-.68-.17-.82-.54-.27.39-.67.55-1.11.55-.74,0-1.19-.47-1.19-1.14,0-.81.6-1.24,1.68-1.24h.47v-.21c0-.48-.22-.64-.69-.64-.25,0-.61.07-.99.2l-.2-.61c.46-.17.92-.27,1.34-.27.99,0,1.43.46,1.43,1.27v1.55c0,.3.1.41.28.48ZM345.68,270.26v-.75h-.37c-.58,0-.87.21-.87.64,0,.36.18.56.53.56.31,0,.55-.16.71-.46Z"/>
      <path class="cls-3" d="M348.53,267.16v.39h.89l-.1.64h-.79v3.06h-.9v-3.06h-.6v-.64h.6v-.41c0-.67.45-1.18,1.3-1.18.37,0,.67.08.96.22l-.26.6c-.22-.1-.43-.14-.61-.14-.36,0-.5.16-.5.51Z"/>
      <path class="cls-3" d="M351.97,271.09c-.27.19-.6.28-.93.28-.73,0-1.11-.42-1.11-1.21v-1.95h-.58v-.64h.58v-.82l.9-.11v.92h.86l-.09.64h-.77v1.93c0,.36.12.51.39.51.14,0,.28-.04.44-.13l.31.57Z"/>
      <path class="cls-3" d="M355.26,269.69h-2.33c.07.76.42,1,.91,1,.33,0,.6-.11.92-.33l.37.51c-.36.29-.81.5-1.37.5-1.15,0-1.77-.76-1.77-1.93s.6-1.98,1.65-1.98,1.63.7,1.63,1.87c0,.12-.01.27-.02.36ZM354.39,269.06c0-.61-.22-.97-.72-.97-.42,0-.69.28-.74,1.02h1.46v-.04Z"/>
      <path class="cls-3" d="M358.98,268.58v2.68h-.9v-2.54c0-.46-.17-.6-.46-.6-.32,0-.56.22-.78.56v2.58h-.9v-3.71h.78l.07.48c.29-.37.66-.59,1.13-.59.67,0,1.05.42,1.05,1.13Z"/>
      <path class="cls-3" d="M256.84,279.66h-.78l-.05-.52c-.27.42-.62.62-1.13.62-.67,0-1.03-.43-1.03-1.15v-2.66h.9v2.55c0,.43.14.58.45.58s.56-.2.75-.53v-2.61h.9v3.71Z"/>
      <path class="cls-3" d="M260.8,276.98v2.68h-.9v-2.54c0-.46-.17-.6-.46-.6-.32,0-.56.22-.78.56v2.58h-.9v-3.71h.78l.07.48c.29-.37.66-.59,1.13-.59.67,0,1.05.42,1.05,1.13Z"/>
      <path class="cls-3" d="M264.79,274.47v5.19h-.79l-.06-.47c-.22.34-.58.58-1.06.58-.92,0-1.41-.78-1.41-1.95s.57-1.96,1.49-1.96c.39,0,.7.17.93.4v-1.88l.9.1ZM263.89,278.61v-1.69c-.2-.24-.41-.39-.71-.39-.46,0-.77.39-.77,1.28,0,.95.27,1.28.71,1.28.33,0,.55-.16.76-.48Z"/>
      <path class="cls-3" d="M270.9,275.28l-.5.52c-.33-.26-.6-.38-1.01-.38-.69,0-1.28.52-1.28,1.82s.39,1.82,1.15,1.82c.27,0,.54-.06.77-.19v-1.26h-.73l-.1-.69h1.74v2.37c-.48.29-1.06.48-1.67.48-1.38,0-2.14-.87-2.14-2.53s1.01-2.52,2.22-2.52c.67,0,1.13.22,1.54.57Z"/>
      <path class="cls-3" d="M274.75,278.08h-2.33c.07.76.42,1,.91,1,.33,0,.6-.11.92-.33l.37.51c-.36.29-.81.5-1.37.5-1.15,0-1.77-.76-1.77-1.93s.6-1.98,1.65-1.98,1.63.7,1.63,1.87c0,.12-.01.27-.02.36ZM273.88,277.46c0-.61-.22-.97-.72-.97-.42,0-.69.28-.74,1.02h1.46v-.04Z"/>
      <path class="cls-3" d="M277.95,276.29l-.35.53c-.31-.2-.6-.3-.93-.3-.36,0-.56.15-.56.37,0,.25.15.36.78.53.76.2,1.18.51,1.18,1.17,0,.77-.71,1.18-1.56,1.18-.64,0-1.13-.22-1.48-.53l.45-.5c.29.22.63.36,1.01.36.4,0,.66-.17.66-.45,0-.31-.15-.41-.84-.6-.76-.21-1.1-.57-1.1-1.12,0-.62.57-1.08,1.43-1.08.53,0,.97.17,1.32.44Z"/>
      <path class="cls-3" d="M281.6,279.66h-.78l-.05-.52c-.27.42-.62.62-1.13.62-.67,0-1.03-.43-1.03-1.15v-2.66h.9v2.55c0,.43.14.58.45.58s.56-.2.75-.53v-2.61h.9v3.71Z"/>
      <path class="cls-3" d="M285.57,276.98v2.68h-.9v-2.54c0-.46-.17-.6-.46-.6-.32,0-.56.22-.78.56v2.58h-.9v-3.71h.78l.07.48c.29-.37.66-.59,1.13-.59.67,0,1.05.42,1.05,1.13Z"/>
      <path class="cls-3" d="M289.56,274.47v5.19h-.79l-.06-.47c-.22.34-.58.58-1.06.58-.92,0-1.41-.78-1.41-1.95s.57-1.96,1.49-1.96c.39,0,.7.17.93.4v-1.88l.9.1ZM288.66,278.61v-1.69c-.2-.24-.41-.39-.71-.39-.46,0-.77.39-.77,1.28,0,.95.27,1.28.71,1.28.33,0,.55-.16.76-.48Z"/>
      <path class="cls-3" d="M293.52,276.98v2.68h-.9v-2.54c0-.46-.18-.6-.46-.6-.32,0-.56.22-.78.55v2.58h-.9v-5.18l.9-.09v2.01c.29-.35.63-.55,1.08-.55.66,0,1.05.43,1.05,1.13Z"/>
      <path class="cls-3" d="M297.44,278.08h-2.33c.07.76.42,1,.91,1,.33,0,.6-.11.92-.33l.37.51c-.36.29-.81.5-1.37.5-1.15,0-1.77-.76-1.77-1.93s.6-1.98,1.65-1.98,1.63.7,1.63,1.87c0,.12-.01.27-.02.36ZM296.58,277.46c0-.61-.22-.97-.72-.97-.42,0-.69.28-.74,1.02h1.46v-.04Z"/>
      <path class="cls-3" d="M299.15,274.62c0,.3-.23.54-.57.54s-.56-.24-.56-.54.23-.55.56-.55.57.24.57.55ZM299.04,279.66h-.9v-3.71h.9v3.71Z"/>
      <path class="cls-3" d="M302.11,279.49c-.27.19-.6.28-.93.28-.73,0-1.11-.42-1.11-1.21v-1.95h-.58v-.64h.58v-.82l.9-.11v.92h.86l-.09.64h-.77v1.93c0,.36.12.51.39.51.14,0,.28-.04.44-.13l.31.57Z"/>
      <path class="cls-3" d="M253.93,291.62h2.74l-.1.69h-1.72v1.45h1.49v.69h-1.49v2.02h-.92v-4.84Z"/>
      <path class="cls-3" d="M259.84,295.96l-.19.59c-.41-.04-.68-.17-.82-.54-.27.39-.67.55-1.11.55-.74,0-1.19-.47-1.19-1.14,0-.81.6-1.24,1.68-1.24h.47v-.21c0-.48-.22-.64-.69-.64-.25,0-.61.07-.99.2l-.2-.61c.46-.17.92-.27,1.34-.27.99,0,1.43.46,1.43,1.28v1.55c0,.3.1.41.28.48ZM258.68,295.46v-.75h-.37c-.58,0-.87.21-.87.64,0,.36.18.56.53.56.31,0,.55-.16.71-.46Z"/>
      <path class="cls-3" d="M261.41,296.46h-.9v-5.19l.9-.1v5.29ZM262.4,294.39l1.35,2.07h-1.03l-1.27-2.02,1.24-1.68h.95l-1.23,1.63Z"/>
      <path class="cls-3" d="M267.06,296.46h-.78l-.05-.52c-.27.42-.62.62-1.13.62-.67,0-1.03-.43-1.03-1.15v-2.66h.9v2.55c0,.43.14.58.45.58s.56-.2.75-.53v-2.61h.9v3.71Z"/>
      <path class="cls-3" d="M267.95,295.61v-4.34l.9-.1v4.41c0,.17.06.26.21.26.08,0,.15-.01.2-.04l.2.63c-.15.07-.37.13-.6.13-.57,0-.9-.34-.9-.95Z"/>
      <path class="cls-3" d="M272.1,296.29c-.27.19-.6.28-.93.28-.73,0-1.11-.42-1.11-1.21v-1.95h-.58v-.64h.58v-.82l.9-.11v.92h.86l-.09.64h-.77v1.93c0,.36.12.51.39.51.14,0,.28-.04.44-.13l.31.57Z"/>
      <path class="cls-3" d="M275.46,295.96l-.19.59c-.41-.04-.68-.17-.82-.54-.27.39-.67.55-1.11.55-.74,0-1.19-.47-1.19-1.14,0-.81.6-1.24,1.68-1.24h.47v-.21c0-.48-.22-.64-.69-.64-.25,0-.61.07-.99.2l-.2-.61c.46-.17.92-.27,1.34-.27.99,0,1.43.46,1.43,1.28v1.55c0,.3.1.41.28.48ZM273.48,291.45c0,.27-.21.48-.48.48s-.5-.21-.5-.48.22-.48.5-.48.48.21.48.48ZM274.3,295.46v-.75h-.37c-.58,0-.87.21-.87.64,0,.36.18.56.53.56.31,0,.55-.16.71-.46ZM275.03,291.45c0,.27-.21.48-.49.48s-.49-.21-.49-.48.22-.48.49-.48.49.21.49.48Z"/>
      <path class="cls-3" d="M278.28,296.29c-.27.19-.6.28-.93.28-.73,0-1.11-.42-1.11-1.21v-1.95h-.58v-.64h.58v-.82l.9-.11v.92h.86l-.09.64h-.77v1.93c0,.36.12.51.39.51.14,0,.28-.04.44-.13l.31.57Z"/>
      <path class="cls-3" d="M281.85,294.52h-.59v1.94h-.92v-4.84h1.44c1.27,0,1.92.46,1.92,1.42,0,.66-.32,1.05-.98,1.31l1.27,2.11h-1.06l-1.07-1.94ZM281.26,293.86h.57c.57,0,.9-.23.9-.81,0-.53-.3-.75-.97-.75h-.5v1.56Z"/>
      <path class="cls-3" d="M287.43,294.89h-2.33c.07.76.42,1,.91,1,.33,0,.6-.11.92-.33l.37.51c-.36.29-.81.5-1.37.5-1.15,0-1.77-.76-1.77-1.93s.6-1.98,1.65-1.98,1.63.7,1.63,1.87c0,.12-.01.27-.02.36ZM286.57,294.26c0-.61-.22-.97-.72-.97-.42,0-.69.28-.74,1.02h1.46v-.04Z"/>
      <path class="cls-3" d="M290.63,293.09l-.35.53c-.31-.2-.6-.3-.93-.3-.36,0-.56.15-.56.37,0,.25.15.36.78.53.76.2,1.18.51,1.18,1.17,0,.77-.71,1.18-1.56,1.18-.64,0-1.13-.22-1.48-.53l.45-.5c.29.22.63.36,1.01.36.4,0,.66-.17.66-.45,0-.31-.15-.41-.84-.6-.76-.21-1.1-.57-1.1-1.12,0-.62.57-1.08,1.43-1.08.53,0,.97.17,1.32.44Z"/>
      <path class="cls-3" d="M293.78,293.09l-.35.53c-.31-.2-.6-.3-.93-.3-.36,0-.56.15-.56.37,0,.25.15.36.78.53.76.2,1.18.51,1.18,1.17,0,.77-.71,1.18-1.56,1.18-.64,0-1.13-.22-1.48-.53l.45-.5c.29.22.63.36,1.01.36.4,0,.66-.17.66-.45,0-.31-.15-.41-.84-.6-.76-.21-1.1-.57-1.1-1.12,0-.62.57-1.08,1.43-1.08.53,0,.97.17,1.32.44Z"/>
      <path class="cls-3" d="M297.75,294.61c0,1.17-.65,1.96-1.74,1.96s-1.74-.74-1.74-1.96.65-1.95,1.75-1.95,1.74.74,1.74,1.95ZM295.21,294.61c0,.89.27,1.28.8,1.28s.8-.4.8-1.28-.27-1.27-.79-1.27-.8.4-.8,1.27Z"/>
      <path class="cls-3" d="M301.41,296.46h-.78l-.05-.52c-.27.42-.62.62-1.13.62-.67,0-1.03-.43-1.03-1.15v-2.66h.9v2.55c0,.43.14.58.45.58s.56-.2.75-.53v-2.61h.9v3.71Z"/>
      <path class="cls-3" d="M304.55,292.71l-.15.87c-.11-.03-.2-.04-.33-.04-.45,0-.68.33-.82.95v1.97h-.9v-3.71h.78l.08.73c.17-.53.53-.83.97-.83.13,0,.25.01.37.05Z"/>
      <path class="cls-3" d="M307.55,293.09l-.4.54c-.25-.18-.47-.27-.75-.27-.52,0-.83.38-.83,1.27s.33,1.21.83,1.21c.28,0,.48-.09.75-.27l.4.57c-.34.27-.72.43-1.2.43-1.07,0-1.74-.74-1.74-1.93s.67-1.99,1.73-1.99c.48,0,.85.13,1.2.43Z"/>
      <path class="cls-3" d="M311,294.89h-2.33c.07.76.42,1,.91,1,.33,0,.6-.11.92-.33l.37.51c-.36.29-.81.5-1.37.5-1.15,0-1.77-.76-1.77-1.93s.6-1.98,1.65-1.98,1.63.7,1.63,1.87c0,.12-.01.27-.02.36ZM310.14,294.26c0-.61-.22-.97-.72-.97-.42,0-.69.28-.74,1.02h1.46v-.04Z"/>
      <path class="cls-3" d="M314.73,293.78v2.68h-.9v-2.54c0-.46-.17-.6-.46-.6-.32,0-.56.22-.78.56v2.58h-.9v-3.71h.78l.07.48c.29-.37.66-.59,1.13-.59.67,0,1.05.42,1.05,1.13Z"/>
      <path class="cls-3" d="M320.53,293.78v2.68h-.9v-2.54c0-.46-.18-.6-.41-.6-.31,0-.5.22-.7.56v2.58h-.9v-2.54c0-.46-.19-.6-.41-.6-.31,0-.5.22-.71.56v2.58h-.9v-3.71h.78l.07.48c.27-.37.6-.59,1.07-.59.43,0,.76.23.9.62.28-.39.62-.62,1.11-.62.59,0,.98.43.98,1.13Z"/>
      <path class="cls-3" d="M324.44,295.96l-.19.59c-.41-.04-.68-.17-.82-.54-.27.39-.67.55-1.11.55-.74,0-1.19-.47-1.19-1.14,0-.81.6-1.24,1.68-1.24h.47v-.21c0-.48-.22-.64-.69-.64-.25,0-.61.07-.99.2l-.2-.61c.46-.17.92-.27,1.34-.27.99,0,1.43.46,1.43,1.28v1.55c0,.3.1.41.28.48ZM323.27,295.46v-.75h-.37c-.58,0-.87.21-.87.64,0,.36.18.56.53.56.31,0,.55-.16.71-.46Z"/>
      <path class="cls-3" d="M328.14,293.78v2.68h-.9v-2.54c0-.46-.17-.6-.46-.6-.32,0-.56.22-.78.56v2.58h-.9v-3.71h.78l.07.48c.29-.37.66-.59,1.13-.59.67,0,1.05.42,1.05,1.13Z"/>
      <path class="cls-3" d="M332.05,295.96l-.19.59c-.41-.04-.68-.17-.82-.54-.27.39-.67.55-1.11.55-.74,0-1.19-.47-1.19-1.14,0-.81.6-1.24,1.68-1.24h.47v-.21c0-.48-.22-.64-.69-.64-.25,0-.61.07-.99.2l-.2-.61c.46-.17.92-.27,1.34-.27.99,0,1.43.46,1.43,1.28v1.55c0,.3.1.41.28.48ZM330.88,295.46v-.75h-.37c-.58,0-.87.21-.87.64,0,.36.18.56.53.56.31,0,.55-.16.71-.46Z"/>
      <path class="cls-3" d="M335.95,292.95c-.28.1-.63.13-1.07.13.45.2.67.49.67.95,0,.72-.56,1.25-1.49,1.25-.16,0-.3-.01-.44-.06-.09.06-.15.16-.15.27,0,.13.08.26.45.26h.57c.82,0,1.35.44,1.35,1.05,0,.74-.64,1.18-1.85,1.18-1.32,0-1.69-.42-1.69-1.16h.8c0,.37.16.53.9.53s.93-.2.93-.49c0-.27-.22-.44-.63-.44h-.56c-.74,0-1.06-.33-1.06-.71,0-.26.16-.52.43-.69-.46-.24-.65-.57-.65-1.04,0-.81.64-1.33,1.53-1.33.88.02,1.28-.17,1.73-.41l.22.71ZM333.36,293.97c0,.45.25.73.66.73s.66-.27.66-.74-.22-.7-.67-.7c-.41,0-.64.28-.64.71Z"/>
      <path class="cls-3" d="M339.35,294.89h-2.33c.07.76.42,1,.91,1,.33,0,.6-.11.92-.33l.37.51c-.36.29-.81.5-1.37.5-1.15,0-1.77-.76-1.77-1.93s.6-1.98,1.65-1.98,1.63.7,1.63,1.87c0,.12-.01.27-.02.36ZM338.49,294.26c0-.61-.22-.97-.72-.97-.42,0-.69.28-.74,1.02h1.46v-.04Z"/>
      <path class="cls-3" d="M344.96,293.78v2.68h-.9v-2.54c0-.46-.18-.6-.41-.6-.31,0-.5.22-.7.56v2.58h-.9v-2.54c0-.46-.19-.6-.41-.6-.31,0-.5.22-.71.56v2.58h-.9v-3.71h.78l.07.48c.27-.37.6-.59,1.07-.59.43,0,.76.23.9.62.28-.39.62-.62,1.11-.62.59,0,.98.43.98,1.13Z"/>
      <path class="cls-3" d="M348.89,294.89h-2.33c.07.76.42,1,.91,1,.33,0,.6-.11.92-.33l.37.51c-.36.29-.81.5-1.37.5-1.15,0-1.77-.76-1.77-1.93s.6-1.98,1.65-1.98,1.63.7,1.63,1.87c0,.12-.01.27-.02.36ZM348.02,294.26c0-.61-.22-.97-.72-.97-.42,0-.69.28-.74,1.02h1.46v-.04Z"/>
      <path class="cls-3" d="M352.61,293.78v2.68h-.9v-2.54c0-.46-.17-.6-.46-.6-.32,0-.56.22-.78.56v2.58h-.9v-3.71h.78l.07.48c.29-.37.66-.59,1.13-.59.67,0,1.05.42,1.05,1.13Z"/>
      <path class="cls-3" d="M355.64,296.29c-.27.19-.6.28-.93.28-.73,0-1.11-.42-1.11-1.21v-1.95h-.58v-.64h.58v-.82l.9-.11v.92h.86l-.09.64h-.77v1.93c0,.36.12.51.39.51.14,0,.28-.04.44-.13l.31.57Z"/>
    </g>
    <polygon class="cls-3" points="248.91 268.96 243.38 262.86 243.38 275.07 248.91 268.96"/>
    <polygon class="cls-3" points="248.85 294.15 243.32 288.04 243.32 300.26 248.85 294.15"/>
  </g>
  <g id="Karte_Hildesheim">
    <rect class="cls-7" x="259.4" y="124.71" width="144.76" height="61.67" rx="5" ry="5"/>
    <rect class="cls-1" x="257.4" y="122.08" width="144.76" height="62.45" rx="5" ry="5"/>
    <g>
      <path class="cls-3" d="M280.97,131.89h2.74l-.1.69h-1.72v1.45h1.49v.69h-1.49v2.02h-.92v-4.84Z"/>
      <path class="cls-3" d="M286.87,136.23l-.19.59c-.41-.04-.68-.17-.82-.54-.27.39-.67.55-1.11.55-.74,0-1.19-.47-1.19-1.14,0-.81.6-1.24,1.68-1.24h.47v-.21c0-.48-.22-.64-.69-.64-.25,0-.61.07-.99.2l-.2-.61c.46-.17.92-.27,1.34-.27.99,0,1.43.46,1.43,1.27v1.55c0,.3.1.41.28.48ZM285.71,135.73v-.75h-.37c-.58,0-.87.21-.87.64,0,.36.18.56.53.56.31,0,.55-.16.71-.46Z"/>
      <path class="cls-3" d="M288.45,136.73h-.9v-5.19l.9-.1v5.29ZM289.44,134.66l1.35,2.07h-1.03l-1.27-2.02,1.24-1.68h.95l-1.23,1.63Z"/>
      <path class="cls-3" d="M294.09,136.73h-.78l-.05-.52c-.27.42-.62.62-1.13.62-.67,0-1.03-.43-1.03-1.15v-2.66h.9v2.55c0,.43.14.58.45.58s.56-.2.75-.53v-2.61h.9v3.71Z"/>
      <path class="cls-3" d="M294.99,135.88v-4.34l.9-.1v4.41c0,.17.06.26.21.26.08,0,.15-.01.2-.04l.2.63c-.15.07-.37.13-.6.13-.57,0-.9-.34-.9-.95Z"/>
      <path class="cls-3" d="M299.13,136.56c-.27.19-.6.28-.93.28-.73,0-1.11-.42-1.11-1.21v-1.95h-.58v-.64h.58v-.82l.9-.11v.92h.86l-.09.64h-.77v1.93c0,.36.12.51.39.51.14,0,.28-.04.44-.13l.31.57Z"/>
      <path class="cls-3" d="M302.5,136.23l-.19.59c-.41-.04-.68-.17-.82-.54-.27.39-.67.55-1.11.55-.74,0-1.19-.47-1.19-1.14,0-.81.6-1.24,1.68-1.24h.47v-.21c0-.48-.22-.64-.69-.64-.25,0-.61.07-.99.2l-.2-.61c.46-.17.92-.27,1.34-.27.99,0,1.43.46,1.43,1.27v1.55c0,.3.1.41.28.48ZM300.51,131.72c0,.27-.21.48-.48.48s-.5-.21-.5-.48.22-.48.5-.48.48.21.48.48ZM301.34,135.73v-.75h-.37c-.58,0-.87.21-.87.64,0,.36.18.56.53.56.31,0,.55-.16.71-.46ZM302.06,131.72c0,.27-.21.48-.49.48s-.49-.21-.49-.48.22-.48.49-.48.49.21.49.48Z"/>
      <path class="cls-3" d="M305.31,136.56c-.27.19-.6.28-.93.28-.73,0-1.11-.42-1.11-1.21v-1.95h-.58v-.64h.58v-.82l.9-.11v.92h.86l-.09.64h-.77v1.93c0,.36.12.51.39.51.14,0,.28-.04.44-.13l.31.57Z"/>
      <path class="cls-3" d="M310.85,135.34c0,1.06-.85,1.39-2.02,1.39h-1.46v-4.84h1.27c1.25,0,2,.35,2,1.23,0,.6-.43.95-.9,1.04.55.11,1.11.36,1.11,1.17ZM308.29,132.57v1.31h.57c.5,0,.83-.22.83-.68,0-.49-.34-.63-.97-.63h-.43ZM309.88,135.3c0-.58-.41-.78-.95-.78h-.64v1.51h.54c.61,0,1.05-.13,1.05-.74Z"/>
      <path class="cls-3" d="M314.52,136.23l-.19.59c-.41-.04-.68-.17-.82-.54-.27.39-.67.55-1.11.55-.74,0-1.19-.47-1.19-1.14,0-.81.6-1.24,1.68-1.24h.47v-.21c0-.48-.22-.64-.69-.64-.25,0-.61.07-.99.2l-.2-.61c.46-.17.92-.27,1.34-.27.99,0,1.43.46,1.43,1.27v1.55c0,.3.1.41.28.48ZM313.35,135.73v-.75h-.37c-.58,0-.87.21-.87.64,0,.36.18.56.53.56.31,0,.55-.16.71-.46Z"/>
      <path class="cls-3" d="M318.14,136.73h-.78l-.05-.52c-.27.42-.62.62-1.13.62-.67,0-1.03-.43-1.03-1.15v-2.66h.9v2.55c0,.43.14.58.45.58s.56-.2.75-.53v-2.61h.9v3.71Z"/>
      <path class="cls-3" d="M322.11,135.16h-2.33c.07.76.42,1,.91,1,.33,0,.6-.11.92-.33l.37.51c-.36.29-.81.5-1.37.5-1.15,0-1.77-.76-1.77-1.93s.6-1.98,1.65-1.98,1.63.7,1.63,1.87c0,.12-.01.27-.02.36ZM321.24,134.53c0-.61-.22-.97-.72-.97-.42,0-.69.28-.74,1.02h1.46v-.04Z"/>
      <path class="cls-3" d="M325.84,134.05v2.68h-.9v-2.54c0-.46-.17-.6-.46-.6-.32,0-.56.22-.78.56v2.58h-.9v-3.71h.78l.07.48c.29-.37.66-.59,1.13-.59.67,0,1.05.42,1.05,1.13Z"/>
      <path class="cls-3" d="M331.32,136.73h-.78l-.05-.52c-.27.42-.62.62-1.13.62-.67,0-1.03-.43-1.03-1.15v-2.66h.9v2.55c0,.43.14.58.45.58s.56-.2.75-.53v-2.61h.9v3.71Z"/>
      <path class="cls-3" d="M335.28,134.05v2.68h-.9v-2.54c0-.46-.17-.6-.46-.6-.32,0-.56.22-.78.56v2.58h-.9v-3.71h.78l.07.48c.29-.37.66-.59,1.13-.59.67,0,1.05.42,1.05,1.13Z"/>
      <path class="cls-3" d="M339.27,131.54v5.19h-.79l-.06-.47c-.22.34-.58.58-1.06.58-.92,0-1.41-.78-1.41-1.95s.57-1.96,1.49-1.96c.39,0,.7.17.93.4v-1.88l.9.1ZM338.37,135.68v-1.69c-.2-.24-.41-.39-.71-.39-.46,0-.77.39-.77,1.28,0,.95.27,1.28.71,1.28.33,0,.55-.16.76-.48Z"/>
      <path class="cls-3" d="M344.6,132.58h-1.79v1.35h1.55v.69h-1.55v1.42h1.91v.69h-2.84v-4.84h2.81l-.1.69Z"/>
      <path class="cls-3" d="M347.57,132.98l-.15.87c-.11-.03-.2-.04-.33-.04-.45,0-.68.33-.82.95v1.97h-.9v-3.71h.78l.08.73c.17-.53.53-.83.97-.83.13,0,.25.01.37.05Z"/>
      <path class="cls-3" d="M351.03,134.05v2.68h-.9v-2.54c0-.46-.18-.6-.46-.6-.32,0-.56.22-.78.55v2.58h-.9v-5.18l.9-.09v2.01c.29-.35.63-.55,1.08-.55.66,0,1.05.43,1.05,1.13Z"/>
      <path class="cls-3" d="M354.94,136.23l-.19.59c-.41-.04-.68-.17-.82-.54-.27.39-.67.55-1.11.55-.74,0-1.19-.47-1.19-1.14,0-.81.6-1.24,1.68-1.24h.47v-.21c0-.48-.22-.64-.69-.64-.25,0-.61.07-.99.2l-.2-.61c.46-.17.92-.27,1.34-.27.99,0,1.43.46,1.43,1.27v1.55c0,.3.1.41.28.48ZM353.77,135.73v-.75h-.37c-.58,0-.87.21-.87.64,0,.36.18.56.53.56.31,0,.55-.16.71-.46Z"/>
      <path class="cls-3" d="M355.52,135.88v-4.34l.9-.1v4.41c0,.17.06.26.21.26.08,0,.15-.01.2-.04l.2.63c-.15.07-.37.13-.6.13-.57,0-.9-.34-.9-.95Z"/>
      <path class="cls-3" d="M359.67,136.56c-.27.19-.6.28-.93.28-.73,0-1.11-.42-1.11-1.21v-1.95h-.58v-.64h.58v-.82l.9-.11v.92h.86l-.09.64h-.77v1.93c0,.36.12.51.39.51.14,0,.28-.04.44-.13l.31.57Z"/>
      <path class="cls-3" d="M362.96,135.16h-2.33c.07.76.42,1,.91,1,.33,0,.6-.11.92-.33l.37.51c-.36.29-.81.5-1.37.5-1.15,0-1.77-.76-1.77-1.93s.6-1.98,1.65-1.98,1.63.7,1.63,1.87c0,.12-.01.27-.02.36ZM362.09,134.53c0-.61-.22-.97-.72-.97-.42,0-.69.28-.74,1.02h1.46v-.04Z"/>
      <path class="cls-3" d="M366.68,134.05v2.68h-.9v-2.54c0-.46-.17-.6-.46-.6-.32,0-.56.22-.78.56v2.58h-.9v-3.71h.78l.07.48c.29-.37.66-.59,1.13-.59.67,0,1.05.42,1.05,1.13Z"/>
      <path class="cls-3" d="M280.97,148.69h2.74l-.1.69h-1.72v1.45h1.49v.69h-1.49v2.02h-.92v-4.84Z"/>
      <path class="cls-3" d="M286.87,153.03l-.19.59c-.41-.04-.68-.17-.82-.54-.27.39-.67.55-1.11.55-.74,0-1.19-.47-1.19-1.14,0-.81.6-1.24,1.68-1.24h.47v-.21c0-.48-.22-.64-.69-.64-.25,0-.61.07-.99.2l-.2-.61c.46-.17.92-.27,1.34-.27.99,0,1.43.46,1.43,1.28v1.55c0,.3.1.41.28.48ZM285.71,152.53v-.75h-.37c-.58,0-.87.21-.87.64,0,.36.18.56.53.56.31,0,.55-.16.71-.46Z"/>
      <path class="cls-3" d="M288.45,153.53h-.9v-5.19l.9-.1v5.29ZM289.44,151.46l1.35,2.07h-1.03l-1.27-2.02,1.24-1.68h.95l-1.23,1.63Z"/>
      <path class="cls-3" d="M294.09,153.53h-.78l-.05-.52c-.27.42-.62.62-1.13.62-.67,0-1.03-.43-1.03-1.15v-2.66h.9v2.55c0,.43.14.58.45.58s.56-.2.75-.53v-2.61h.9v3.71Z"/>
      <path class="cls-3" d="M294.99,152.68v-4.34l.9-.1v4.41c0,.17.06.26.21.26.08,0,.15-.01.2-.04l.2.63c-.15.07-.37.13-.6.13-.57,0-.9-.34-.9-.95Z"/>
      <path class="cls-3" d="M299.13,153.36c-.27.19-.6.28-.93.28-.73,0-1.11-.42-1.11-1.21v-1.95h-.58v-.64h.58v-.82l.9-.11v.92h.86l-.09.64h-.77v1.93c0,.36.12.51.39.51.14,0,.28-.04.44-.13l.31.57Z"/>
      <path class="cls-3" d="M302.5,153.03l-.19.59c-.41-.04-.68-.17-.82-.54-.27.39-.67.55-1.11.55-.74,0-1.19-.47-1.19-1.14,0-.81.6-1.24,1.68-1.24h.47v-.21c0-.48-.22-.64-.69-.64-.25,0-.61.07-.99.2l-.2-.61c.46-.17.92-.27,1.34-.27.99,0,1.43.46,1.43,1.28v1.55c0,.3.1.41.28.48ZM300.51,148.52c0,.27-.21.48-.48.48s-.5-.21-.5-.48.22-.48.5-.48.48.21.48.48ZM301.34,152.53v-.75h-.37c-.58,0-.87.21-.87.64,0,.36.18.56.53.56.31,0,.55-.16.71-.46ZM302.06,148.52c0,.27-.21.48-.49.48s-.49-.21-.49-.48.22-.48.49-.48.49.21.49.48Z"/>
      <path class="cls-3" d="M305.31,153.36c-.27.19-.6.28-.93.28-.73,0-1.11-.42-1.11-1.21v-1.95h-.58v-.64h.58v-.82l.9-.11v.92h.86l-.09.64h-.77v1.93c0,.36.12.51.39.51.14,0,.28-.04.44-.13l.31.57Z"/>
      <path class="cls-3" d="M310.86,149.16l-.5.52c-.33-.26-.6-.38-1.01-.38-.69,0-1.28.52-1.28,1.82s.39,1.82,1.15,1.82c.27,0,.54-.06.77-.19v-1.26h-.73l-.1-.69h1.74v2.37c-.48.29-1.06.48-1.67.48-1.38,0-2.14-.87-2.14-2.53s1.01-2.52,2.22-2.52c.67,0,1.13.22,1.54.57Z"/>
      <path class="cls-3" d="M314.71,151.96h-2.33c.07.76.42,1,.91,1,.33,0,.6-.11.92-.33l.37.51c-.36.29-.81.5-1.37.5-1.15,0-1.77-.76-1.77-1.93s.6-1.98,1.65-1.98,1.63.7,1.63,1.87c0,.12-.01.27-.02.36ZM313.84,151.33c0-.61-.22-.97-.72-.97-.42,0-.69.28-.74,1.02h1.46v-.04Z"/>
      <path class="cls-3" d="M317.91,150.16l-.35.53c-.31-.2-.6-.3-.93-.3-.36,0-.56.15-.56.37,0,.25.15.36.78.53.76.2,1.18.51,1.18,1.17,0,.77-.71,1.18-1.56,1.18-.64,0-1.13-.22-1.48-.53l.45-.5c.29.22.63.36,1.01.36.4,0,.66-.17.66-.45,0-.31-.15-.41-.84-.6-.76-.21-1.1-.57-1.1-1.12,0-.62.57-1.08,1.43-1.08.53,0,.97.17,1.32.44Z"/>
      <path class="cls-3" d="M320.75,153.36c-.27.19-.6.28-.93.28-.73,0-1.11-.42-1.11-1.21v-1.95h-.58v-.64h.58v-.82l.9-.11v.92h.86l-.09.64h-.77v1.93c0,.36.12.51.39.51.14,0,.28-.04.44-.13l.31.57Z"/>
      <path class="cls-3" d="M324.12,153.03l-.19.59c-.41-.04-.68-.17-.82-.54-.27.39-.67.55-1.11.55-.74,0-1.19-.47-1.19-1.14,0-.81.6-1.24,1.68-1.24h.47v-.21c0-.48-.22-.64-.69-.64-.25,0-.61.07-.99.2l-.2-.61c.46-.17.92-.27,1.34-.27.99,0,1.43.46,1.43,1.28v1.55c0,.3.1.41.28.48ZM322.96,152.53v-.75h-.37c-.58,0-.87.21-.87.64,0,.36.18.56.53.56.31,0,.55-.16.71-.46Z"/>
      <path class="cls-3" d="M324.71,152.68v-4.34l.9-.1v4.41c0,.17.06.26.21.26.08,0,.15-.01.2-.04l.2.63c-.15.07-.37.13-.6.13-.57,0-.9-.34-.9-.95Z"/>
      <path class="cls-3" d="M328.85,153.36c-.27.19-.6.28-.93.28-.73,0-1.11-.42-1.11-1.21v-1.95h-.58v-.64h.58v-.82l.9-.11v.92h.86l-.09.64h-.77v1.93c0,.36.12.51.39.51.14,0,.28-.04.44-.13l.31.57Z"/>
      <path class="cls-3" d="M332.18,153.53h-.78l-.05-.52c-.27.42-.62.62-1.13.62-.67,0-1.03-.43-1.03-1.15v-2.66h.9v2.55c0,.43.14.58.45.58s.56-.2.75-.53v-2.61h.9v3.71Z"/>
      <path class="cls-3" d="M336.14,150.85v2.68h-.9v-2.54c0-.46-.17-.6-.46-.6-.32,0-.56.22-.78.56v2.58h-.9v-3.71h.78l.07.48c.29-.37.66-.59,1.13-.59.67,0,1.05.42,1.05,1.13Z"/>
      <path class="cls-3" d="M340.27,150.02c-.28.1-.63.13-1.07.13.45.2.67.49.67.95,0,.72-.56,1.25-1.49,1.25-.16,0-.3-.01-.44-.06-.09.06-.15.16-.15.27,0,.13.08.26.45.26h.57c.82,0,1.35.44,1.35,1.05,0,.74-.64,1.18-1.85,1.18-1.32,0-1.69-.42-1.69-1.16h.8c0,.37.16.53.9.53s.93-.2.93-.49c0-.27-.22-.44-.63-.44h-.56c-.74,0-1.06-.33-1.06-.71,0-.26.16-.52.43-.69-.46-.24-.65-.57-.65-1.04,0-.81.64-1.33,1.53-1.33.88.02,1.28-.17,1.73-.41l.22.71ZM337.69,151.04c0,.45.25.73.66.73s.66-.27.66-.74-.22-.7-.67-.7c-.41,0-.64.28-.64.71Z"/>
      <path class="cls-3" d="M280.97,165.49h2.74l-.1.69h-1.72v1.45h1.49v.69h-1.49v2.02h-.92v-4.84Z"/>
      <path class="cls-3" d="M286.87,169.83l-.19.59c-.41-.04-.68-.17-.82-.54-.27.39-.67.55-1.11.55-.74,0-1.19-.47-1.19-1.14,0-.81.6-1.24,1.68-1.24h.47v-.21c0-.48-.22-.64-.69-.64-.25,0-.61.07-.99.2l-.2-.61c.46-.17.92-.27,1.34-.27.99,0,1.43.46,1.43,1.27v1.55c0,.3.1.41.28.48ZM285.71,169.33v-.75h-.37c-.58,0-.87.21-.87.64,0,.36.18.56.53.56.31,0,.55-.16.71-.46Z"/>
      <path class="cls-3" d="M288.45,170.33h-.9v-5.19l.9-.1v5.29ZM289.44,168.26l1.35,2.07h-1.03l-1.27-2.02,1.24-1.68h.95l-1.23,1.63Z"/>
      <path class="cls-3" d="M294.09,170.33h-.78l-.05-.52c-.27.42-.62.62-1.13.62-.67,0-1.03-.43-1.03-1.15v-2.66h.9v2.55c0,.43.14.58.45.58s.56-.2.75-.53v-2.61h.9v3.71Z"/>
      <path class="cls-3" d="M294.99,169.48v-4.34l.9-.1v4.41c0,.17.06.26.21.26.08,0,.15-.01.2-.04l.2.63c-.15.07-.37.13-.6.13-.57,0-.9-.34-.9-.95Z"/>
      <path class="cls-3" d="M299.13,170.16c-.27.19-.6.28-.93.28-.73,0-1.11-.42-1.11-1.21v-1.95h-.58v-.64h.58v-.82l.9-.11v.92h.86l-.09.64h-.77v1.93c0,.36.12.51.39.51.14,0,.28-.04.44-.13l.31.57Z"/>
      <path class="cls-3" d="M302.5,169.83l-.19.59c-.41-.04-.68-.17-.82-.54-.27.39-.67.55-1.11.55-.74,0-1.19-.47-1.19-1.14,0-.81.6-1.24,1.68-1.24h.47v-.21c0-.48-.22-.64-.69-.64-.25,0-.61.07-.99.2l-.2-.61c.46-.17.92-.27,1.34-.27.99,0,1.43.46,1.43,1.27v1.55c0,.3.1.41.28.48ZM300.51,165.32c0,.27-.21.48-.48.48s-.5-.21-.5-.48.22-.48.5-.48.48.21.48.48ZM301.34,169.33v-.75h-.37c-.58,0-.87.21-.87.64,0,.36.18.56.53.56.31,0,.55-.16.71-.46ZM302.06,165.32c0,.27-.21.48-.49.48s-.49-.21-.49-.48.22-.48.49-.48.49.21.49.48Z"/>
      <path class="cls-3" d="M305.31,170.16c-.27.19-.6.28-.93.28-.73,0-1.11-.42-1.11-1.21v-1.95h-.58v-.64h.58v-.82l.9-.11v.92h.86l-.09.64h-.77v1.93c0,.36.12.51.39.51.14,0,.28-.04.44-.13l.31.57Z"/>
      <path class="cls-3" d="M310.36,165.98l-.46.53c-.35-.29-.69-.41-1.09-.41-.43,0-.75.2-.75.57,0,.35.19.5,1,.76.85.27,1.44.62,1.44,1.53s-.68,1.49-1.83,1.49c-.77,0-1.34-.27-1.74-.67l.48-.53c.36.3.74.48,1.25.48s.89-.25.89-.72c0-.41-.2-.59-.96-.82-1.01-.32-1.46-.72-1.46-1.46,0-.8.69-1.34,1.65-1.34.71,0,1.18.21,1.6.59Z"/>
      <path class="cls-3" d="M314.4,168.48c0,1.17-.65,1.96-1.74,1.96s-1.74-.74-1.74-1.96.65-1.95,1.75-1.95,1.74.74,1.74,1.95ZM311.86,168.48c0,.89.27,1.28.8,1.28s.8-.4.8-1.28-.27-1.27-.79-1.27-.8.4-.8,1.27Z"/>
      <path class="cls-3" d="M317.48,167.27l-1.79,2.36h1.83l-.09.7h-2.77v-.64l1.8-2.36h-1.65v-.7h2.67v.64Z"/>
      <path class="cls-3" d="M319.07,165.3c0,.3-.23.54-.57.54s-.56-.24-.56-.54.23-.55.56-.55.57.24.57.55ZM318.95,170.33h-.9v-3.71h.9v3.71Z"/>
      <path class="cls-3" d="M322.9,169.83l-.19.59c-.41-.04-.68-.17-.82-.54-.27.39-.67.55-1.11.55-.74,0-1.19-.47-1.19-1.14,0-.81.6-1.24,1.68-1.24h.47v-.21c0-.48-.22-.64-.69-.64-.25,0-.61.07-.99.2l-.2-.61c.46-.17.92-.27,1.34-.27.99,0,1.43.46,1.43,1.27v1.55c0,.3.1.41.28.48ZM321.74,169.33v-.75h-.37c-.58,0-.87.21-.87.64,0,.36.18.56.53.56.31,0,.55-.16.71-.46Z"/>
      <path class="cls-3" d="M323.49,169.48v-4.34l.9-.1v4.41c0,.17.06.26.21.26.08,0,.15-.01.2-.04l.2.63c-.15.07-.37.13-.6.13-.57,0-.9-.34-.9-.95Z"/>
      <path class="cls-3" d="M328.5,168.76h-2.33c.07.76.42,1,.91,1,.33,0,.6-.11.92-.33l.37.51c-.36.29-.81.5-1.37.5-1.15,0-1.77-.76-1.77-1.93s.6-1.98,1.65-1.98,1.63.7,1.63,1.87c0,.12-.01.27-.02.36ZM327.63,168.13c0-.61-.22-.97-.72-.97-.42,0-.69.28-.74,1.02h1.46v-.04Z"/>
      <path class="cls-3" d="M333.14,169.21h-1.6l-.3,1.12h-.96l1.51-4.84h1.14l1.5,4.84h-.98l-.3-1.12ZM332.95,168.51l-.62-2.31-.62,2.31h1.24Z"/>
      <path class="cls-3" d="M337,166.58l-.15.87c-.11-.03-.2-.04-.33-.04-.45,0-.68.33-.82.95v1.97h-.9v-3.71h.78l.08.73c.17-.53.53-.83.97-.83.13,0,.25.01.37.05Z"/>
      <path class="cls-3" d="M340.73,168.48c0,1.16-.55,1.96-1.46,1.96-.41,0-.74-.18-.98-.48l-.06.38h-.79v-5.19l.9-.1v2c.24-.33.6-.52,1.02-.52.86,0,1.37.71,1.37,1.95ZM339.79,168.48c0-.99-.29-1.28-.72-1.28-.32,0-.56.22-.74.5v1.64c.16.27.41.43.69.43.46,0,.77-.36.77-1.29Z"/>
      <path class="cls-3" d="M344.48,168.76h-2.33c.07.76.42,1,.91,1,.33,0,.6-.11.92-.33l.37.51c-.36.29-.81.5-1.37.5-1.15,0-1.77-.76-1.77-1.93s.6-1.98,1.65-1.98,1.63.7,1.63,1.87c0,.12-.01.27-.02.36ZM343.61,168.13c0-.61-.22-.97-.72-.97-.42,0-.69.28-.74,1.02h1.46v-.04Z"/>
      <path class="cls-3" d="M346.18,165.3c0,.3-.23.54-.57.54s-.56-.24-.56-.54.23-.55.56-.55.57.24.57.55ZM346.07,170.33h-.9v-3.71h.9v3.71Z"/>
      <path class="cls-3" d="M349.15,170.16c-.27.19-.6.28-.93.28-.73,0-1.11-.42-1.11-1.21v-1.95h-.58v-.64h.58v-.82l.9-.11v.92h.86l-.09.64h-.77v1.93c0,.36.12.51.39.51.14,0,.28-.04.44-.13l.31.57Z"/>
      <path class="cls-3" d="M354.19,166.48c0,.6-.42.97-.95,1.31l1.08,1.02c.14-.3.27-.67.37-1.09l.78.23c-.18.55-.4.99-.64,1.34l.82.74-.72.41-.61-.59c-.42.39-.92.59-1.54.59-.98,0-1.66-.53-1.66-1.34,0-.6.35-.99.97-1.38-.46-.44-.68-.74-.68-1.21,0-.6.46-1.13,1.39-1.13.86,0,1.4.47,1.4,1.09ZM352.06,169.06c0,.44.34.71.86.71.37,0,.66-.13.92-.37l-1.25-1.2c-.37.25-.54.51-.54.85ZM352.27,166.51c0,.29.15.5.47.8.37-.24.59-.47.59-.8s-.2-.52-.53-.52-.53.21-.53.52Z"/>
      <path class="cls-3" d="M361.45,165.95l-.5.52c-.33-.26-.6-.38-1.01-.38-.69,0-1.28.52-1.28,1.82s.39,1.82,1.15,1.82c.27,0,.54-.06.77-.19v-1.26h-.73l-.1-.69h1.74v2.37c-.48.29-1.06.48-1.67.48-1.38,0-2.14-.87-2.14-2.53s1.01-2.52,2.22-2.52c.67,0,1.13.22,1.54.57Z"/>
      <path class="cls-3" d="M365.29,168.76h-2.33c.07.76.42,1,.91,1,.33,0,.6-.11.92-.33l.37.51c-.36.29-.81.5-1.37.5-1.15,0-1.77-.76-1.77-1.93s.6-1.98,1.65-1.98,1.63.7,1.63,1.87c0,.12-.01.27-.02.36ZM364.43,168.13c0-.61-.22-.97-.72-.97-.42,0-.69.28-.74,1.02h1.46v-.04Z"/>
      <path class="cls-3" d="M368.49,166.96l-.35.53c-.31-.2-.6-.3-.93-.3-.36,0-.56.15-.56.37,0,.25.15.36.78.53.76.2,1.18.51,1.18,1.17,0,.77-.71,1.18-1.56,1.18-.64,0-1.13-.22-1.48-.53l.45-.5c.29.22.63.36,1.01.36.4,0,.66-.17.66-.45,0-.31-.15-.41-.84-.6-.76-.21-1.1-.57-1.1-1.12,0-.62.57-1.08,1.43-1.08.53,0,.97.17,1.32.44Z"/>
      <path class="cls-3" d="M372.15,170.33h-.78l-.05-.52c-.27.42-.62.62-1.13.62-.67,0-1.03-.43-1.03-1.15v-2.66h.9v2.55c0,.43.14.58.45.58s.56-.2.75-.53v-2.61h.9v3.71Z"/>
      <path class="cls-3" d="M376.11,167.65v2.68h-.9v-2.54c0-.46-.17-.6-.46-.6-.32,0-.56.22-.78.56v2.58h-.9v-3.71h.78l.07.48c.29-.37.66-.59,1.13-.59.67,0,1.05.42,1.05,1.13Z"/>
      <path class="cls-3" d="M380.1,165.14v5.19h-.79l-.06-.47c-.22.34-.58.58-1.06.58-.92,0-1.41-.78-1.41-1.95s.57-1.96,1.49-1.96c.39,0,.7.17.93.4v-1.88l.9.1ZM379.2,169.28v-1.69c-.2-.24-.41-.39-.71-.39-.46,0-.77.39-.77,1.28,0,.95.27,1.28.71,1.28.33,0,.55-.16.76-.48Z"/>
      <path class="cls-3" d="M384.06,167.65v2.68h-.9v-2.54c0-.46-.18-.6-.46-.6-.32,0-.56.22-.78.55v2.58h-.9v-5.18l.9-.09v2.01c.29-.35.63-.55,1.08-.55.66,0,1.05.43,1.05,1.13Z"/>
      <path class="cls-3" d="M387.99,168.76h-2.33c.07.76.42,1,.91,1,.33,0,.6-.11.92-.33l.37.51c-.36.29-.81.5-1.37.5-1.15,0-1.77-.76-1.77-1.93s.6-1.98,1.65-1.98,1.63.7,1.63,1.87c0,.12-.01.27-.02.36ZM387.12,168.13c0-.61-.22-.97-.72-.97-.42,0-.69.28-.74,1.02h1.46v-.04Z"/>
      <path class="cls-3" d="M389.7,165.3c0,.3-.23.54-.57.54s-.56-.24-.56-.54.23-.55.56-.55.57.24.57.55ZM389.58,170.33h-.9v-3.71h.9v3.71Z"/>
      <path class="cls-3" d="M392.66,170.16c-.27.19-.6.28-.93.28-.73,0-1.11-.42-1.11-1.21v-1.95h-.58v-.64h.58v-.82l.9-.11v.92h.86l-.09.64h-.77v1.93c0,.36.12.51.39.51.14,0,.28-.04.44-.13l.31.57Z"/>
    </g>
    <polygon class="cls-3" points="275.97 134.39 270.44 128.29 270.44 140.5 275.97 134.39"/>
    <polygon class="cls-3" points="275.97 151.23 270.44 145.12 270.44 157.34 275.97 151.23"/>
    <polygon class="cls-3" points="275.97 168.16 270.44 162.06 270.44 174.27 275.97 168.16"/>
  </g>
  <g id="Hildesheim">
    <polygon class="cls-2" points="234.25 188.61 234.25 177.7 214.58 171.55 234.25 188.61"/>
    <circle class="cls-3" cx="214.58" cy="171.54" r="2.35"/>
    <rect class="cls-3" x="234.25" y="177.7" width="47.96" height="10.9"/>
    <g>
      <path class="cls-8" d="M240.76,183.35h-2.11v2.64h-1.13v-5.91h1.13v2.37h2.11v-2.37h1.14v5.91h-1.14v-2.64Z"/>
      <path class="cls-8" d="M244.32,179.84c0,.37-.28.66-.69.66s-.69-.29-.69-.66.28-.67.69-.67.69.29.69.67ZM244.19,185.99h-1.1v-4.53h1.1v4.53Z"/>
      <path class="cls-8" d="M245.28,184.96v-5.31l1.1-.12v5.39c0,.21.07.32.26.32.09,0,.18-.02.25-.04l.24.77c-.19.09-.45.15-.74.15-.69,0-1.1-.42-1.1-1.16Z"/>
      <path class="cls-8" d="M251.48,179.65v6.34h-.97l-.08-.57c-.27.41-.71.7-1.29.7-1.13,0-1.72-.95-1.72-2.39s.7-2.4,1.82-2.4c.48,0,.86.21,1.14.49v-2.29l1.1.12ZM250.39,184.71v-2.07c-.24-.29-.5-.48-.86-.48-.57,0-.94.48-.94,1.57,0,1.16.33,1.57.87,1.57.4,0,.68-.2.93-.58Z"/>
      <path class="cls-8" d="M256.34,184.07h-2.84c.09.92.51,1.22,1.11,1.22.4,0,.74-.13,1.13-.4l.45.62c-.45.36-.99.61-1.68.61-1.4,0-2.16-.93-2.16-2.36s.73-2.42,2.01-2.42,1.99.86,1.99,2.29c0,.15-.02.33-.03.45ZM255.28,183.31c0-.75-.27-1.19-.88-1.19-.51,0-.84.34-.9,1.24h1.78v-.05Z"/>
      <path class="cls-8" d="M260.25,181.88l-.43.64c-.38-.24-.74-.37-1.14-.37-.44,0-.68.18-.68.45,0,.3.18.44.95.65.92.25,1.45.63,1.45,1.43,0,.94-.87,1.44-1.91,1.44-.78,0-1.39-.26-1.81-.64l.55-.62c.35.27.77.45,1.23.45.49,0,.8-.21.8-.55,0-.38-.18-.5-1.03-.74-.93-.26-1.34-.7-1.34-1.37,0-.75.69-1.32,1.75-1.32.65,0,1.18.21,1.61.54Z"/>
      <path class="cls-8" d="M264.82,182.71v3.28h-1.1v-3.11c0-.57-.22-.73-.56-.73-.38,0-.68.27-.95.68v3.16h-1.1v-6.33l1.1-.11v2.46c.35-.43.77-.67,1.32-.67.8,0,1.28.52,1.28,1.38Z"/>
      <path class="cls-8" d="M269.62,184.07h-2.84c.09.92.51,1.22,1.11,1.22.4,0,.74-.13,1.13-.4l.45.62c-.45.36-.99.61-1.68.61-1.4,0-2.16-.93-2.16-2.36s.73-2.42,2.01-2.42,1.99.86,1.99,2.29c0,.15-.02.33-.03.45ZM268.56,183.31c0-.75-.27-1.19-.88-1.19-.51,0-.84.34-.9,1.24h1.78v-.05Z"/>
      <path class="cls-8" d="M271.71,179.84c0,.37-.28.66-.69.66s-.69-.29-.69-.66.28-.67.69-.67.69.29.69.67ZM271.58,185.99h-1.1v-4.53h1.1v4.53Z"/>
      <path class="cls-8" d="M278.72,182.71v3.28h-1.1v-3.11c0-.57-.22-.73-.5-.73-.38,0-.61.27-.86.68v3.15h-1.1v-3.11c0-.57-.23-.73-.5-.73-.39,0-.62.27-.86.68v3.15h-1.1v-4.53h.95l.09.59c.33-.45.74-.72,1.31-.72.53,0,.92.28,1.1.76.34-.47.76-.76,1.36-.76.72,0,1.2.52,1.2,1.38Z"/>
    </g>
  </g>
  <g id="Göttingen">
    <polygon class="cls-2" points="223.65 257.24 223.65 246.33 203.98 240.18 223.65 257.24"/>
    <circle class="cls-3" cx="203.2" cy="240.18" r="2.35"/>
    <rect class="cls-3" x="223.65" y="246.33" width="45.91" height="10.9"/>
    <g>
      <path class="cls-8" d="M232.75,249.21l-.6.63c-.4-.31-.73-.47-1.23-.47-.83,0-1.54.63-1.54,2.21s.48,2.21,1.39,2.21c.33,0,.65-.07.93-.23v-1.53h-.88l-.12-.83h2.11v2.87c-.59.36-1.28.58-2.02.58-1.67,0-2.59-1.05-2.59-3.06s1.22-3.06,2.69-3.06c.81,0,1.38.27,1.87.69Z"/>
      <path class="cls-8" d="M237.71,252.26c0,1.42-.79,2.38-2.11,2.38s-2.11-.9-2.11-2.38.79-2.37,2.12-2.37,2.11.9,2.11,2.37ZM235.23,248.43c0,.33-.25.59-.59.59s-.6-.25-.6-.59.26-.59.6-.59.59.26.59.59ZM234.62,252.26c0,1.08.33,1.55.97,1.55s.97-.48.97-1.55-.33-1.54-.96-1.54-.98.48-.98,1.54ZM237.12,248.43c0,.33-.26.59-.59.59s-.59-.25-.59-.59.26-.59.59-.59.59.26.59.59Z"/>
      <path class="cls-8" d="M241.16,254.3c-.32.23-.73.34-1.13.34-.88,0-1.35-.51-1.35-1.47v-2.37h-.71v-.78h.71v-.99l1.09-.13v1.12h1.04l-.11.78h-.93v2.34c0,.44.14.62.47.62.17,0,.34-.05.53-.16l.38.7Z"/>
      <path class="cls-8" d="M244.21,254.3c-.32.23-.73.34-1.13.34-.88,0-1.35-.51-1.35-1.47v-2.37h-.71v-.78h.71v-.99l1.09-.13v1.12h1.04l-.11.78h-.93v2.34c0,.44.14.62.48.62.17,0,.34-.05.53-.16l.38.7Z"/>
      <path class="cls-8" d="M245.89,248.41c0,.36-.28.65-.69.65s-.68-.29-.68-.65.28-.66.68-.66.69.29.69.66ZM245.76,254.51h-1.09v-4.49h1.09v4.49Z"/>
      <path class="cls-8" d="M250.56,251.26v3.25h-1.09v-3.08c0-.56-.21-.72-.55-.72-.39,0-.68.26-.94.68v3.12h-1.09v-4.49h.94l.09.59c.35-.45.8-.71,1.37-.71.81,0,1.27.51,1.27,1.37Z"/>
      <path class="cls-8" d="M255.57,250.26c-.34.12-.76.15-1.3.15.54.25.81.59.81,1.15,0,.87-.68,1.51-1.81,1.51-.19,0-.36-.02-.53-.07-.11.08-.19.2-.19.33,0,.16.09.31.54.31h.69c.99,0,1.64.53,1.64,1.27,0,.9-.77,1.43-2.24,1.43-1.6,0-2.05-.51-2.05-1.41h.98c0,.45.19.64,1.09.64s1.13-.24,1.13-.59c0-.33-.26-.53-.76-.53h-.68c-.9,0-1.28-.4-1.28-.87,0-.31.19-.63.53-.83-.55-.29-.79-.69-.79-1.26,0-.98.77-1.61,1.86-1.61,1.06.03,1.55-.21,2.1-.5l.27.87ZM252.44,251.49c0,.54.3.88.8.88s.8-.32.8-.89-.27-.85-.81-.85c-.49,0-.78.34-.78.86Z"/>
      <path class="cls-8" d="M259.71,252.6h-2.82c.09.92.51,1.21,1.1,1.21.4,0,.73-.13,1.12-.4l.45.62c-.44.36-.98.6-1.66.6-1.39,0-2.14-.92-2.14-2.34s.72-2.4,1.99-2.4,1.98.85,1.98,2.27c0,.14-.02.32-.03.44ZM258.66,251.85c0-.74-.26-1.18-.87-1.18-.51,0-.83.34-.89,1.23h1.77v-.05Z"/>
      <path class="cls-8" d="M264.23,251.26v3.25h-1.09v-3.08c0-.56-.21-.72-.55-.72-.39,0-.68.26-.94.68v3.12h-1.09v-4.49h.94l.09.59c.35-.45.8-.71,1.37-.71.81,0,1.27.51,1.27,1.37Z"/>
    </g>
  </g>
  <g id="Holzminden">
    <polygon class="cls-2" points="164.37 234.79 164.37 223.89 184.04 217.74 164.37 234.79"/>
    <circle class="cls-3" cx="183.46" cy="217.87" r="2.35"/>
    <rect class="cls-3" x="112.93" y="223.95" width="51.39" height="10.9"/>
    <g>
      <path class="cls-8" d="M120.29,229.4h-2.07v2.6h-1.11v-5.82h1.11v2.33h2.07v-2.33h1.12v5.82h-1.12v-2.6Z"/>
      <path class="cls-8" d="M126.5,229.77c0,1.41-.78,2.36-2.1,2.36s-2.1-.89-2.1-2.36.78-2.35,2.1-2.35,2.09.89,2.09,2.35ZM123.45,229.77c0,1.07.33,1.54.96,1.54s.96-.48.96-1.54-.33-1.53-.95-1.53-.97.48-.97,1.53Z"/>
      <path class="cls-8" d="M127.31,230.98v-5.22l1.08-.12v5.3c0,.21.07.31.25.31.09,0,.18-.02.24-.04l.24.76c-.19.08-.45.15-.72.15-.68,0-1.09-.41-1.09-1.14Z"/>
      <path class="cls-8" d="M132.67,228.32l-2.15,2.84h2.2l-.11.84h-3.32v-.77l2.16-2.84h-1.98v-.84h3.21v.77Z"/>
      <path class="cls-8" d="M139.26,228.78v3.22h-1.08v-3.05c0-.56-.22-.72-.49-.72-.37,0-.6.26-.84.67v3.1h-1.08v-3.05c0-.56-.23-.72-.49-.72-.38,0-.61.26-.85.67v3.1h-1.08v-4.45h.93l.08.58c.32-.45.72-.71,1.29-.71.52,0,.91.28,1.08.75.34-.46.75-.75,1.34-.75.71,0,1.18.51,1.18,1.35Z"/>
      <path class="cls-8" d="M141.55,225.95c0,.36-.28.65-.68.65s-.67-.29-.67-.65.28-.66.67-.66.68.29.68.66ZM141.42,232h-1.08v-4.45h1.08v4.45Z"/>
      <path class="cls-8" d="M146.18,228.78v3.22h-1.08v-3.05c0-.56-.21-.72-.55-.72-.39,0-.67.26-.93.67v3.1h-1.08v-4.45h.93l.08.58c.35-.45.79-.71,1.35-.71.8,0,1.26.51,1.26,1.35Z"/>
      <path class="cls-8" d="M150.98,225.77v6.24h-.95l-.08-.56c-.27.4-.7.69-1.27.69-1.11,0-1.69-.93-1.69-2.35s.69-2.36,1.79-2.36c.47,0,.84.2,1.12.48v-2.26l1.08.12ZM149.91,230.74v-2.04c-.24-.29-.49-.47-.85-.47-.56,0-.93.47-.93,1.54,0,1.15.33,1.54.86,1.54.4,0,.66-.19.92-.57Z"/>
      <path class="cls-8" d="M155.76,230.11h-2.79c.08.91.51,1.2,1.09,1.2.4,0,.72-.13,1.11-.4l.45.61c-.44.35-.98.6-1.65.6-1.38,0-2.12-.92-2.12-2.32s.72-2.38,1.98-2.38,1.96.84,1.96,2.25c0,.14-.02.32-.03.44ZM154.71,229.36c0-.73-.26-1.17-.87-1.17-.51,0-.83.34-.88,1.22h1.75v-.05Z"/>
      <path class="cls-8" d="M160.24,228.78v3.22h-1.08v-3.05c0-.56-.21-.72-.55-.72-.39,0-.67.26-.93.67v3.1h-1.08v-4.45h.93l.08.58c.35-.45.79-.71,1.35-.71.8,0,1.26.51,1.26,1.35Z"/>
    </g>
  </g>
</svg>