<?xml version="1.0" encoding="utf-8"?>
<!-- Generator: Adobe Illustrator 30.2.1, SVG Export Plug-In . SVG Version: 9.03 Build 0)  -->
<svg version="1.1" id="Ebene_2_00000137831810994783814050000016579981010425348276_"
	 xmlns="http://www.w3.org/2000/svg" xmlns:xlink="http://www.w3.org/1999/xlink" x="0px" y="0px" viewBox="0 0 1041.91 669.99"
	 style="enable-background:new 0 0 1041.91 669.99;" xml:space="preserve">
<style type="text/css">
	.st0{fill:#004E9E;}
	.st1{fill:#FFFFFF;}
	.st2{fill:none;stroke:#FFFFFF;stroke-width:3;stroke-miterlimit:10;}
	.st3{fill:#004E9E;stroke:#FFFFFF;stroke-miterlimit:10;}
	.st4{fill:none;}
</style>
<polyline class="st0" points="539.66,581.73 777.47,340.12 1044.33,340.12 1041.89,581.77 "/>
<polyline class="st0" points="529.66,581.77 291.85,340.17 24.99,340.17 27.43,581.82 "/>
<polyline class="st0" points="529.68,88.57 291.87,330.17 25.02,330.17 27.46,88.52 "/>
<polyline class="st0" points="539.68,88.52 777.5,330.12 1044.35,330.12 1041.91,88.48 "/>
<g id="Gelingendes_Studium">
	<circle class="st0" cx="529.68" cy="335.99" r="156.2"/>
	<g>
		<g>
			<path class="st1" d="M596.88,368.28l-1.95-21.9h-5.61l-2.96,10.87c-0.36,1.29-0.59,2.42-0.78,3.56
				c-0.19-1.14-0.36-1.89-0.74-3.47l-2.88-10.97h-5.63l-2.05,21.9h4.38l0.74-11.44c0.1-1.36,0.15-2.64,0.15-3.94
				c0.22,1.27,0.59,2.79,0.88,3.88l3.11,11.51h3.74l3.47-11.97c0.37-1.32,0.56-2.11,0.83-3.37c0,1.16,0.05,2.27,0.15,3.66l0.83,11.7
				L596.88,368.28L596.88,368.28z"/>
			<path class="st1" d="M569.54,361.14v-14.75h-4.47v14.02c0,1.16,0,1.47-0.05,1.95c-0.19,1.61-1.42,2.56-3.34,2.56
				c-1.46,0-2.48-0.54-2.99-1.51c-0.26-0.47-0.37-1.27-0.37-2.61v-14.4h-4.51v15.23c0,2.11,0.22,2.99,0.95,4.13
				c1.22,1.93,3.69,2.93,7.03,2.93c4.72,0,6.87-2.41,7.45-4.13c0.32-0.95,0.36-1.36,0.36-3.43"/>
			<rect x="542.99" y="346.4" class="st1" width="4.61" height="21.9"/>
			<path class="st1" d="M538.31,357.42c0-3.94-0.99-6.73-2.99-8.73c-1.32-1.32-2.93-2.01-4.79-2.16c-0.88-0.06-2.56-0.12-3.83-0.12
				h-4.4v21.9h5.31c1.29,0,2.33-0.06,3.15-0.12c2.05-0.15,3.99-1.36,5.31-3.15c1.47-1.98,2.2-4.61,2.2-7.6l-4.93,0.4
				c0,4.62-1.32,6.87-4.21,6.87h-2.37v-14.85h2.01c1.73,0,2.74,0.63,3.47,1.83c0.88,1.46,1.1,3.58,1.1,6.14"/>
			<path class="st1" d="M516.7,361.14v-14.75h-4.47v14.02c0,1.16,0,1.47-0.06,1.95c-0.19,1.61-1.42,2.56-3.34,2.56
				c-1.46,0-2.48-0.54-2.99-1.51c-0.26-0.47-0.37-1.27-0.37-2.61v-14.4h-4.51v15.23c0,2.11,0.22,2.99,0.95,4.13
				c1.22,1.93,3.69,2.93,7.03,2.93c4.72,0,6.87-2.41,7.45-4.13c0.32-0.95,0.36-1.36,0.36-3.43"/>
			<polygon class="st1" points="497.14,346.4 481.35,346.4 481.35,350.06 486.7,350.06 486.7,368.28 491.18,368.28 491.18,350.06 
				496.41,350.06 			"/>
			<path class="st1" d="M478.47,361.4c0-3.25-1.95-5.55-5.55-6.52l-2.64-0.73c-1.83-0.51-2.42-1.06-2.42-2.2
				c0-1.47,1.27-2.52,3.06-2.52c1.64,0,3.11,0.47,5.11,1.68l2.09-3.15c-1.93-1.38-4.62-2.2-7.31-2.2c-4.62,0-7.83,2.78-7.83,6.77
				c0,1.22,0.32,2.37,0.91,3.34c0.78,1.32,2.15,2.16,4.31,2.78l2.42,0.67c1.95,0.54,2.88,1.42,2.88,2.84c0,1.95-1.32,2.99-3.84,2.99
				c-2.2,0-3.98-0.69-6.03-1.78l-1.64,3.43c2.2,1.27,4.98,1.98,7.46,1.98C474.9,368.78,478.49,365.85,478.47,361.4"/>
		</g>
		<g>
			<path class="st1" d="M596.88,368.28l-1.95-21.9h-5.61l-2.96,10.87c-0.36,1.29-0.59,2.42-0.78,3.56
				c-0.19-1.14-0.36-1.89-0.74-3.47l-2.88-10.97h-5.63l-2.05,21.9h4.38l0.74-11.44c0.1-1.36,0.15-2.64,0.15-3.94
				c0.22,1.27,0.59,2.79,0.88,3.88l3.11,11.51h3.74l3.47-11.97c0.37-1.32,0.56-2.11,0.83-3.37c0,1.16,0.05,2.27,0.15,3.66l0.83,11.7
				L596.88,368.28L596.88,368.28z"/>
			<path class="st1" d="M569.54,361.14v-14.75h-4.47v14.02c0,1.16,0,1.47-0.05,1.95c-0.19,1.61-1.42,2.56-3.34,2.56
				c-1.46,0-2.48-0.54-2.99-1.51c-0.26-0.47-0.37-1.27-0.37-2.61v-14.4h-4.51v15.23c0,2.11,0.22,2.99,0.95,4.13
				c1.22,1.93,3.69,2.93,7.03,2.93c4.72,0,6.87-2.41,7.45-4.13c0.32-0.95,0.36-1.36,0.36-3.43"/>
			<rect x="542.99" y="346.4" class="st1" width="4.61" height="21.9"/>
			<path class="st1" d="M538.31,357.42c0-3.94-0.99-6.73-2.99-8.73c-1.32-1.32-2.93-2.01-4.79-2.16c-0.88-0.06-2.56-0.12-3.83-0.12
				h-4.4v21.9h5.31c1.29,0,2.33-0.06,3.15-0.12c2.05-0.15,3.99-1.36,5.31-3.15c1.47-1.98,2.2-4.61,2.2-7.6l-4.93,0.4
				c0,4.62-1.32,6.87-4.21,6.87h-2.37v-14.85h2.01c1.73,0,2.74,0.63,3.47,1.83c0.88,1.46,1.1,3.58,1.1,6.14"/>
			<path class="st1" d="M516.7,361.14v-14.75h-4.47v14.02c0,1.16,0,1.47-0.06,1.95c-0.19,1.61-1.42,2.56-3.34,2.56
				c-1.46,0-2.48-0.54-2.99-1.51c-0.26-0.47-0.37-1.27-0.37-2.61v-14.4h-4.51v15.23c0,2.11,0.22,2.99,0.95,4.13
				c1.22,1.93,3.69,2.93,7.03,2.93c4.72,0,6.87-2.41,7.45-4.13c0.32-0.95,0.36-1.36,0.36-3.43"/>
			<polygon class="st1" points="497.14,346.4 481.35,346.4 481.35,350.06 486.7,350.06 486.7,368.28 491.18,368.28 491.18,350.06 
				496.41,350.06 			"/>
			<path class="st1" d="M478.47,361.4c0-3.25-1.95-5.55-5.55-6.52l-2.64-0.73c-1.83-0.51-2.42-1.06-2.42-2.2
				c0-1.47,1.27-2.52,3.06-2.52c1.64,0,3.11,0.47,5.11,1.68l2.09-3.15c-1.93-1.38-4.62-2.2-7.31-2.2c-4.62,0-7.83,2.78-7.83,6.77
				c0,1.22,0.32,2.37,0.91,3.34c0.78,1.32,2.15,2.16,4.31,2.78l2.42,0.67c1.95,0.54,2.88,1.42,2.88,2.84c0,1.95-1.32,2.99-3.84,2.99
				c-2.2,0-3.98-0.69-6.03-1.78l-1.64,3.43c2.2,1.27,4.98,1.98,7.46,1.98C474.9,368.78,478.49,365.85,478.47,361.4"/>
		</g>
	</g>
	<path class="st1" d="M631.22,325.11c0-3.25-1.95-5.55-5.55-6.52l-2.64-0.73c-1.83-0.51-2.42-1.06-2.42-2.2
		c0-1.47,1.27-2.52,3.06-2.52c1.64,0,3.11,0.47,5.11,1.68l2.09-3.15c-1.93-1.38-4.62-2.2-7.31-2.2c-4.62,0-7.83,2.78-7.83,6.77
		c0,1.22,0.32,2.37,0.91,3.34c0.78,1.32,2.15,2.16,4.31,2.78l2.42,0.67c1.95,0.54,2.88,1.42,2.88,2.83c0,1.95-1.32,2.99-3.84,2.99
		c-2.2,0-3.98-0.69-6.03-1.78l-1.64,3.43c2.2,1.27,4.98,1.98,7.46,1.98c5.45,0,9.04-2.93,9.04-7.36 M610.22,332.02v-3.78h-8.28
		v-5.86h6.21v-3.58h-6.21v-5.08h7.45l0.56-3.58h-12.48v21.9L610.22,332.02L610.22,332.02z M587.84,321.57
		c0,4.62-1.32,6.87-4.21,6.87h-2.37v-14.85h2.01c1.73,0,2.74,0.63,3.47,1.83C587.64,316.88,587.84,319.01,587.84,321.57
		 M592.78,321.16c0-3.94-0.99-6.73-2.99-8.73c-1.32-1.32-2.93-2.01-4.79-2.16c-0.88-0.06-2.56-0.12-3.83-0.12h-4.4v21.9h5.31
		c1.29,0,2.33-0.06,3.15-0.12c2.05-0.15,3.99-1.36,5.31-3.15c1.47-1.98,2.2-4.61,2.2-7.6 M571.15,332.02v-21.9h-4.2l0.1,8.95
		c0.04,1.51,0.19,4.31,0.36,6.03c-0.43-1.57-1.29-3.88-2.41-6.21l-4.2-8.77h-4.89v21.9h4.25l-0.12-9.36
		c-0.04-1.83-0.05-4.4-0.22-6.21c0.41,1.36,1.73,4.45,2.96,7.18l3.74,8.38L571.15,332.02L571.15,332.02z M551.07,332.02v-3.78h-8.28
		v-5.86h6.21v-3.58h-6.21v-5.08h7.45l0.56-3.58h-12.48v21.9L551.07,332.02L551.07,332.02z M532.97,330.31v-10.46h-8.46l0.56,3.58
		h3.34v4.98c-0.73,0.37-1.51,0.54-2.48,0.54c-1.42,0-2.61-0.43-3.43-1.22c-1.1-1.1-1.64-3.11-1.64-6.25c0-3.26,0.37-5.63,1.84-7.05
		c0.74-0.73,1.84-1.1,3.15-1.1c1.68,0,3.15,0.54,4.57,1.69l2.33-2.74c-1.93-1.68-4.31-2.52-6.96-2.52c-2.09,0-3.72,0.47-5.31,1.54
		c-3.06,2.05-4.57,5.31-4.57,9.96c0,3.26,0.73,5.61,2.33,7.67c1.78,2.27,4.2,3.34,7.46,3.34
		C528.28,332.28,530.74,331.65,532.97,330.31 M511.24,332.02v-21.9h-4.2l0.1,8.95c0.04,1.51,0.19,4.31,0.36,6.03
		c-0.43-1.57-1.29-3.88-2.41-6.21l-4.2-8.77h-4.89v21.9h4.25l-0.12-9.36c-0.04-1.83-0.06-4.4-0.22-6.21
		c0.41,1.36,1.73,4.45,2.96,7.18l3.74,8.38L511.24,332.02L511.24,332.02L511.24,332.02z M489.8,310.12h-4.61v21.9h4.61V310.12z
		 M480.94,328.36h-7.83v-18.23h-4.51v21.9h11.56L480.94,328.36L480.94,328.36z M463.75,332.02v-3.78h-8.28v-5.86h6.21v-3.58h-6.21
		v-5.08h7.45l0.56-3.58h-12.48v21.9L463.75,332.02L463.75,332.02z M445.64,330.31v-10.46h-8.46l0.56,3.58h3.34v4.98
		c-0.73,0.37-1.51,0.54-2.48,0.54c-1.42,0-2.61-0.43-3.43-1.22c-1.1-1.1-1.64-3.11-1.64-6.25c0-3.26,0.37-5.63,1.84-7.05
		c0.74-0.73,1.84-1.1,3.15-1.1c1.68,0,3.15,0.54,4.57,1.69l2.33-2.74c-1.93-1.68-4.31-2.52-6.96-2.52c-2.09,0-3.72,0.47-5.31,1.54
		c-3.06,2.05-4.57,5.31-4.57,9.96c0,3.26,0.73,5.61,2.33,7.67c1.78,2.27,4.2,3.34,7.46,3.34c2.57,0,5.04-0.63,7.28-1.95"/>
</g>
<circle class="st2" cx="529.82" cy="336.14" r="142.87"/>
<path class="st3" d="M697.58,329.99c0,0.04,0,0.09,0,0.13h79.92c0-0.04,0-0.09,0-0.13c0-132.15-106.14-239.49-237.81-241.47v79.92
	C627.22,170.41,697.58,241.98,697.58,329.99z"/>
<path class="st3" d="M364.38,329.99c0-89.25,72.35-161.6,161.6-161.6c1.24,0,2.47,0.02,3.7,0.05V88.52
	c-1.23-0.02-2.47-0.05-3.7-0.05c-133.39,0-241.52,108.13-241.52,241.52c0,0.04,0,0.09,0,0.13h79.92
	C364.38,330.08,364.38,330.04,364.38,329.99z"/>
<path class="st3" d="M777.5,340.12h-79.92c-0.07,87.95-70.4,159.46-157.9,161.42v79.92C671.32,579.49,777.43,472.21,777.5,340.12z"
	/>
<path class="st3" d="M525.98,501.6c-89.21,0-161.53-72.28-161.6-161.47h-79.92c0.07,133.33,108.17,241.39,241.52,241.39
	c1.24,0,2.47-0.03,3.7-0.05v-79.92C528.45,501.58,527.22,501.6,525.98,501.6z"/>
<g>
	<circle class="st4" cx="532.97" cy="334.99" r="202.3"/>
	<path class="st1" d="M334.82,267.02c5.42,1.7,5.72,5.44,4.72,8.63l-1.14,3.64l-13.38-4.2l1.03-3.29
		C327.15,268.27,329.28,265.28,334.82,267.02z M327.73,273.14l9.55,3l0.39-1.26c0.63-2,0.25-3.92-3.7-5.16
		c-4.03-1.27-5.25,0.26-5.88,2.24L327.73,273.14z"/>
	<path class="st1" d="M329.69,259.3c0.82,0.3,1.24,1.16,0.91,2.08c-0.33,0.9-1.2,1.29-2.02,0.99c-0.84-0.31-1.26-1.17-0.93-2.07
		C327.97,259.38,328.85,258.99,329.69,259.3z M343.29,264.6l-0.89,2.44l-10.09-3.68l0.89-2.44L343.29,264.6z"/>
	<path class="st1" d="M338.44,249.34c-0.04,0.86-0.36,1.83-0.84,3.01c1.04-0.98,2.05-1.26,3.29-0.75c1.93,0.79,2.73,2.87,1.7,5.37
		c-0.18,0.43-0.37,0.79-0.64,1.12c0.07,0.31,0.26,0.59,0.56,0.71c0.36,0.15,0.78,0.08,1.19-0.92l0.62-1.52
		c0.9-2.2,2.67-3.14,4.3-2.47c1.99,0.82,2.47,3.01,1.14,6.26c-1.45,3.53-2.98,4.06-4.97,3.25l0.89-2.16c1,0.41,1.6,0.15,2.41-1.82
		c0.79-1.93,0.5-2.71-0.29-3.04c-0.73-0.3-1.42,0.1-1.88,1.2l-0.62,1.5c-0.82,1.99-2.05,2.47-3.08,2.05c-0.69-0.29-1.21-1-1.36-1.92
		c-1.14,0.96-2.24,1.12-3.51,0.6c-2.16-0.89-2.87-3.17-1.88-5.58c1.02-2.32,0.94-3.63,0.8-5.09L338.44,249.34z M338.32,257.39
		c1.2,0.49,2.22,0.14,2.68-0.96c0.47-1.15,0.01-2.06-1.25-2.57c-1.26-0.52-2.12-0.17-2.62,1.03
		C336.68,255.97,337.17,256.92,338.32,257.39z"/>
	<path class="st1" d="M336.44,243.21c0.79,0.36,1.14,1.26,0.74,2.15c-0.4,0.87-1.3,1.19-2.1,0.83c-0.81-0.37-1.16-1.27-0.76-2.14
		C334.72,243.16,335.63,242.84,336.44,243.21z M349.57,249.59l-1.08,2.36l-9.76-4.47l1.08-2.36L349.57,249.59z"/>
	<path class="st1" d="M353.11,241.19c0.15,0.93-0.05,1.92-0.48,2.78c-0.96,1.88-2.53,2.35-4.58,1.32l-5.07-2.52l-0.75,1.51
		l-1.67-0.83l0.75-1.51l-2.12-1.06l0.88-2.46l2.4,1.19l1.11-2.23l1.55,1.07l-1,2l5.01,2.5c0.94,0.47,1.48,0.35,1.83-0.36
		c0.18-0.36,0.25-0.78,0.22-1.32L353.11,241.19z"/>
	<path class="st1" d="M357.09,232.01l1.24,1.32c-0.67,1-1.4,1.47-2.52,1.32c0.62,1.23,0.47,2.46-0.16,3.6
		c-1.03,1.86-2.86,2.36-4.57,1.41c-2.04-1.13-2.29-3.27-0.78-6l0.66-1.19l-0.53-0.29c-1.22-0.68-1.94-0.36-2.61,0.85
		c-0.35,0.64-0.68,1.64-0.89,2.78l-1.83-0.34c0.2-1.4,0.63-2.71,1.21-3.76c1.4-2.52,3.16-2.98,5.24-1.83l3.94,2.19
		C356.25,232.47,356.65,232.37,357.09,232.01z M354.19,234.26l-1.9-1.05l-0.52,0.94c-0.82,1.47-0.69,2.5,0.41,3.11
		c0.91,0.5,1.67,0.33,2.16-0.54C354.78,235.92,354.7,235.1,354.19,234.26z"/>
	<path class="st1" d="M357.29,229.81l-10.74-6.55l1.11-2.37l10.92,6.66c0.43,0.26,0.73,0.25,0.96-0.13
		c0.12-0.19,0.19-0.38,0.22-0.56l1.86,0.47c-0.06,0.49-0.25,1.11-0.6,1.68C360.15,230.42,358.8,230.73,357.29,229.81z"/>
	<path class="st1" d="M363.55,216.21l-3.74,5.6c1.94,1.05,3.09,0.6,3.88-0.58c0.53-0.79,0.72-1.62,0.69-2.76l1.83-0.07
		c0.12,1.35-0.11,2.76-1.01,4.11c-1.85,2.77-4.68,3.02-7.5,1.14c-2.72-1.81-3.82-4.62-2.13-7.16c1.67-2.5,4.31-2.81,7.13-0.92
		C362.99,215.76,363.32,216.03,363.55,216.21z M360.65,217.3c-1.47-0.98-2.7-1.04-3.51,0.17c-0.68,1.01-0.43,2.1,1.26,3.41
		l2.34-3.51L360.65,217.3z"/>
	<path class="st1" d="M367.67,198.66l-2.25,2.87l9.36,7.34l-1.67,2.12l-9.36-7.34l-2.33,2.97l-1.68-1.32l6.43-8.19L367.67,198.66z"
		/>
	<path class="st1" d="M373.7,193.22l1.62,1.98c-0.27,0.19-0.46,0.35-0.71,0.65c-0.85,0.99-0.56,2.12,0.55,3.6l4.35,3.72l-1.69,1.97
		l-8.16-6.99l1.47-1.71l1.76,1.19c-0.84-1.39-0.81-2.73,0-3.69C373.15,193.65,373.4,193.41,373.7,193.22z"/>
	<path class="st1" d="M387.5,192.21l0.89,1.58c-0.89,0.81-1.71,1.09-2.76,0.67c0.3,1.34-0.15,2.5-1.03,3.45
		c-1.46,1.56-3.35,1.59-4.77,0.26c-1.7-1.59-1.43-3.73,0.71-6.01l0.93-0.99l-0.44-0.42c-1.02-0.96-1.79-0.82-2.74,0.19
		c-0.5,0.53-1.06,1.43-1.54,2.48l-1.69-0.78c0.53-1.31,1.27-2.48,2.08-3.36c1.97-2.1,3.79-2.12,5.53-0.5l3.29,3.08
		C386.57,192.46,386.99,192.46,387.5,192.21z M384.14,193.69l-1.58-1.48l-0.74,0.79c-1.15,1.23-1.27,2.25-0.36,3.11
		c0.76,0.71,1.55,0.72,2.23,0C384.3,195.45,384.43,194.62,384.14,193.69z"/>
	<path class="st1" d="M391.01,180.04l5.38,5.61l-1.88,1.8l-5.09-5.32c-0.93-0.97-1.56-0.9-2.15-0.33c-0.67,0.65-0.74,1.58-0.5,2.73
		l5.16,5.39l-1.88,1.8l-7.42-7.75l1.63-1.56l1.12,0.87c-0.14-1.35,0.2-2.55,1.18-3.49C387.94,178.46,389.59,178.56,391.01,180.04z"
		/>
	<path class="st1" d="M397.55,171.7l0.23,1.82c-1.05,0.15-1.89,0.48-2.61,1.1c-0.78,0.68-0.95,1.38-0.53,1.88
		c0.46,0.54,1,0.5,2.71-0.3c2.04-0.99,3.57-1.12,4.81,0.33c1.46,1.69,0.66,3.93-1.2,5.54c-1.4,1.21-2.9,1.67-4.24,1.65l0.03-1.96
		c1.04-0.07,2.07-0.39,2.9-1.11c0.88-0.76,1.13-1.62,0.6-2.23c-0.58-0.68-1.09-0.61-2.99,0.27c-2.07,0.98-3.5,0.82-4.53-0.38
		c-1.17-1.35-0.8-3.44,1.09-5.07C394.99,172.21,396.26,171.76,397.55,171.7z"/>
	<path class="st1" d="M400.58,166.57l0.71,0.89l2.02-1.6l0.94,1.64l-1.8,1.43l5.52,6.94l-2.04,1.62l-5.52-6.94l-1.37,1.09
		l-1.16-1.46l1.37-1.09l-0.73-0.92c-1.21-1.53-1.1-3.48,0.83-5.02c0.84-0.67,1.68-1.02,2.57-1.24l0.5,1.83
		c-0.7,0.17-1.24,0.46-1.64,0.78C399.96,165.17,399.95,165.78,400.58,166.57z"/>
	<path class="st1" d="M415.43,163.63c1.99,2.75,1.8,5.71-0.77,7.57s-5.36,1.22-7.43-1.64c-1.97-2.73-1.79-5.7,0.79-7.56
		C410.6,160.14,413.38,160.79,415.43,163.63z M409.46,167.95c1.51,2.09,2.82,2.55,4.05,1.65c1.23-0.89,1.2-2.29-0.3-4.37
		c-1.5-2.07-2.81-2.53-4.03-1.65C407.96,164.48,407.97,165.9,409.46,167.95z"/>
	<path class="st1" d="M419.84,154.2l1,2.35c-0.32,0.11-0.54,0.21-0.87,0.42c-1.09,0.71-1.13,1.87-0.48,3.61l3.13,4.8l-2.18,1.42
		l-5.86-8.99l1.89-1.23l1.36,1.64c-0.42-1.57-0.02-2.85,1.04-3.54C419.19,154.46,419.5,154.3,419.84,154.2z"/>
	<path class="st1" d="M435.47,148.72l3.84,6.76l-2.26,1.28l-3.64-6.41c-0.66-1.17-1.31-1.24-1.88-0.92
		c-0.78,0.44-0.94,1.26-0.96,2.41l3.69,6.5l-2.26,1.28l-3.64-6.41c-0.66-1.17-1.33-1.23-1.88-0.92c-0.79,0.45-0.96,1.27-0.98,2.42
		l3.69,6.5l-2.26,1.28l-5.3-9.34l1.96-1.11l0.87,1.12c0.14-1.32,0.68-2.34,1.86-3.02c1.1-0.62,2.24-0.5,3.15,0.29
		c0.16-1.37,0.68-2.46,1.92-3.16C432.87,146.44,434.47,146.96,435.47,148.72z"/>
	<path class="st1" d="M448.97,149.25l0.25,1.79c-1.12,0.43-2,0.39-2.82-0.38c-0.2,1.36-1.05,2.28-2.22,2.84
		c-1.92,0.92-3.7,0.27-4.54-1.49c-1.01-2.11,0.02-4,2.84-5.35l1.23-0.59l-0.26-0.55c-0.6-1.26-1.37-1.41-2.62-0.82
		c-0.66,0.32-1.5,0.95-2.34,1.75l-1.29-1.34c0.97-1.03,2.08-1.85,3.16-2.37c2.6-1.25,4.31-0.6,5.33,1.54l1.95,4.06
		C448.02,149.15,448.41,149.3,448.97,149.25z M445.31,149.41l-0.94-1.96l-0.97,0.46c-1.52,0.73-2.01,1.64-1.46,2.77
		c0.45,0.93,1.18,1.24,2.08,0.81C444.82,151.11,445.24,150.39,445.31,149.41z"/>
	<path class="st1" d="M457.07,146.85c-0.5,0.81-1.29,1.43-2.17,1.8c-1.95,0.81-3.45,0.14-4.34-1.97l-2.21-5.21l-1.55,0.66
		l-0.73-1.72l1.55-0.66l-0.93-2.18l2.27-1.3l1.05,2.47l2.3-0.98l0.49,1.82l-2.05,0.87l2.19,5.15c0.41,0.97,0.9,1.23,1.62,0.92
		c0.37-0.16,0.7-0.43,1.03-0.85L457.07,146.85z"/>
	<path class="st1" d="M455.96,132.21c0.31,0.81-0.06,1.7-0.97,2.05c-0.89,0.34-1.76-0.06-2.08-0.87c-0.32-0.83,0.05-1.72,0.94-2.06
		C454.76,130.97,455.63,131.37,455.96,132.21z M460.92,145.93l-2.42,0.94l-3.87-10.01l2.42-0.94L460.92,145.93z"/>
	<path class="st1" d="M470.87,136.75c1.09,3.21,0.04,5.99-2.96,7c-3,1.02-5.48-0.42-6.61-3.76c-1.08-3.19-0.03-5.97,2.99-6.99
		C467.29,131.98,469.75,133.42,470.87,136.75z M463.89,139.11c0.83,2.44,1.94,3.27,3.38,2.78c1.44-0.49,1.82-1.84,1-4.26
		s-1.93-3.25-3.36-2.76C463.48,135.35,463.08,136.71,463.89,139.11z"/>
	<path class="st1" d="M481.07,131.38l2.07,7.49l-2.5,0.69l-1.97-7.1c-0.36-1.29-0.95-1.53-1.73-1.31c-0.9,0.25-1.4,1.04-1.74,2.17
		l1.99,7.2l-2.5,0.69l-2.86-10.35l2.17-0.6l0.57,1.3c0.51-1.26,1.38-2.15,2.69-2.52C479.13,128.53,480.53,129.41,481.07,131.38z"/>
	<path class="st1" d="M566.37,122.33l-1.55,1.39c-0.72-0.75-1.5-1.2-2.45-1.32c-1.93-0.25-3.61,0.96-4.1,4.72
		c-0.48,3.66,0.77,5.34,2.74,5.6c1.21,0.16,2.1-0.26,2.98-0.75l1.04,1.73c-0.96,0.75-2.52,1.39-4.41,1.14
		c-3.6-0.47-5.78-3.36-5.16-8.09c0.61-4.67,3.61-6.87,7.03-6.42C564.27,120.56,565.35,121.24,566.37,122.33z"/>
	<path class="st1" d="M576.29,129.34l-1.44,7.64l-2.55-0.48l1.37-7.24c0.25-1.32-0.2-1.79-0.98-1.94c-0.9-0.17-1.71,0.32-2.51,1.16
		l-1.39,7.36l-2.55-0.48l2.79-14.76l2.6,0.22l-1.08,5.72c1.01-0.84,2.09-1.22,3.37-0.98C575.78,125.92,576.67,127.34,576.29,129.34z
		"/>
	<path class="st1" d="M586.33,138.25l-0.95,1.54c-1.14-0.39-1.79-0.97-1.93-2.09c-1.02,0.92-2.26,1.09-3.52,0.78
		c-2.07-0.51-3.02-2.15-2.55-4.04c0.56-2.27,2.56-3.07,5.59-2.32l1.32,0.33l0.15-0.59c0.34-1.36-0.16-1.96-1.5-2.3
		c-0.71-0.17-1.76-0.23-2.91-0.14l-0.15-1.86c1.4-0.18,2.79-0.1,3.95,0.18c2.8,0.69,3.7,2.28,3.13,4.58l-1.08,4.37
		C585.67,137.56,585.87,137.93,586.33,138.25z M583.41,136.04l0.52-2.11l-1.04-0.26c-1.63-0.4-2.59-0.01-2.89,1.21
		c-0.25,1,0.12,1.7,1.09,1.94C581.95,137.04,582.73,136.75,583.41,136.04z"/>
	<path class="st1" d="M598.67,135.38l-2.28,7.43l-2.48-0.76l2.16-7.04c0.39-1.28,0.02-1.8-0.76-2.04c-0.89-0.27-1.74,0.13-2.63,0.89
		l-2.19,7.14l-2.48-0.76l3.15-10.26l2.15,0.66l-0.22,1.4c1.11-0.78,2.32-1.07,3.62-0.67C598.56,131.93,599.27,133.42,598.67,135.38z
		"/>
	<path class="st1" d="M609.71,137.21l-1.62,1.07c-0.49-0.74-1.01-1.19-1.78-1.47c-1.41-0.51-2.64,0.2-3.53,2.62
		c-0.89,2.44-0.31,3.63,1.07,4.13c0.76,0.28,1.39,0.22,2.3,0.02l0.52,1.94c-1.19,0.41-2.39,0.45-3.68-0.03
		c-2.92-1.06-3.99-3.75-2.82-6.97s3.79-4.76,6.68-3.7C608.18,135.31,609.06,136.04,609.71,137.21z"/>
	<path class="st1" d="M617.53,146.13l-6.21-2.62c-0.66,2.1,0,3.15,1.31,3.7c0.88,0.37,1.73,0.4,2.84,0.16l0.42,1.78
		c-1.3,0.38-2.73,0.41-4.23-0.22c-3.07-1.29-3.85-4.03-2.54-7.15c1.27-3.01,3.82-4.62,6.63-3.44c2.77,1.17,3.57,3.71,2.25,6.83
		C617.86,145.5,617.66,145.87,617.53,146.13z M615.91,143.48c0.68-1.63,0.51-2.84-0.83-3.41c-1.12-0.47-2.15-0.02-3.11,1.89
		l3.89,1.64L615.91,143.48z"/>
	<path class="st1" d="M629.01,148.1l-3.41,6.99l-2.33-1.14l3.23-6.62c0.59-1.2,0.3-1.77-0.43-2.13c-0.84-0.41-1.73-0.15-2.74,0.47
		l-3.28,6.71l-2.33-1.14l4.71-9.65l2.03,0.99l-0.43,1.35c1.22-0.6,2.46-0.7,3.68-0.1C629.44,144.67,629.91,146.26,629.01,148.1z"/>
	<path class="st1" d="M641.15,152.04c-0.85-0.15-1.77-0.57-2.89-1.19c0.85,1.15,1.01,2.19,0.36,3.36c-1.02,1.83-3.18,2.37-5.54,1.05
		c-0.41-0.23-0.74-0.46-1.04-0.76c-0.32,0.03-0.62,0.19-0.78,0.47c-0.19,0.34-0.17,0.76,0.77,1.29l1.44,0.8
		c2.07,1.16,2.8,3.02,1.94,4.57c-1.05,1.88-3.28,2.1-6.35,0.39c-3.33-1.86-3.68-3.44-2.63-5.32l2.04,1.14
		c-0.52,0.94-0.34,1.57,1.52,2.61c1.83,1.02,2.63,0.82,3.05,0.07c0.38-0.69,0.07-1.42-0.97-2.01l-1.42-0.79
		c-1.88-1.05-2.21-2.33-1.67-3.3c0.37-0.66,1.14-1.09,2.07-1.12c-0.82-1.25-0.85-2.36-0.18-3.56c1.14-2.04,3.49-2.47,5.76-1.21
		c2.19,1.29,3.49,1.36,4.96,1.39L641.15,152.04z M633.18,150.97c-0.63,1.13-0.41,2.19,0.64,2.77c1.08,0.6,2.04,0.25,2.71-0.93
		c0.66-1.19,0.42-2.09-0.71-2.72C634.78,149.51,633.78,149.89,633.18,150.97z"/>
	<path class="st1" d="M638.55,159.55l6.57-10.73l2.36,1.12l-6.68,10.9c-0.27,0.43-0.25,0.72,0.13,0.96
		c0.19,0.12,0.38,0.19,0.55,0.22l-0.47,1.85c-0.49-0.06-1.11-0.25-1.68-0.6C637.94,162.41,637.63,161.06,638.55,159.55z"/>
	<path class="st1" d="M652.14,165.84l-5.6-3.75c-1.05,1.93-0.6,3.09,0.58,3.88c0.79,0.53,1.62,0.72,2.76,0.7l0.07,1.83
		c-1.35,0.12-2.76-0.11-4.11-1.02c-2.76-1.85-3.02-4.69-1.13-7.5c1.82-2.71,4.63-3.81,7.16-2.11c2.5,1.67,2.8,4.32,0.91,7.13
		C652.59,165.28,652.32,165.61,652.14,165.84z M651.06,162.93c0.98-1.47,1.05-2.69-0.17-3.51c-1.01-0.68-2.1-0.43-3.41,1.26
		l3.51,2.35L651.06,162.93z"/>
	<path class="st1" d="M653.47,172.49l-2.1-1.53l6.34-8.67l2.1,1.53L653.47,172.49z M662.34,160.9c-0.51,0.7-1.46,0.87-2.25,0.29
		c-0.77-0.56-0.9-1.52-0.39-2.22c0.53-0.72,1.47-0.88,2.24-0.32C662.74,159.22,662.87,160.18,662.34,160.9z"/>
	<path class="st1" d="M667.51,173.58l-4.84,6.08l-2.03-1.62l4.59-5.76c0.83-1.05,0.66-1.68,0.04-2.17
		c-0.71-0.57-1.66-0.52-2.76-0.15l-4.67,5.86l-2.03-1.62l9.36-11.74l2.2,1.41l-3.63,4.55c1.28-0.27,2.42-0.1,3.43,0.71
		C668.66,170.32,668.78,171.99,667.51,173.58z"/>
	<path class="st1" d="M674.36,183.89l-5.03-4.48c-1.31,1.77-1.02,2.98,0.04,3.92c0.71,0.63,1.5,0.93,2.63,1.07l-0.18,1.82
		c-1.36-0.07-2.72-0.49-3.93-1.57c-2.48-2.21-2.35-5.05-0.09-7.58c2.17-2.44,5.11-3.14,7.38-1.11c2.24,2,2.18,4.66-0.08,7.19
		C674.88,183.4,674.57,183.69,674.36,183.89z M673.69,180.86c1.17-1.32,1.41-2.52,0.32-3.5c-0.91-0.81-2.02-0.72-3.55,0.78
		l3.15,2.81L673.69,180.86z"/>
	<path class="st1" d="M674.76,190.65l-1.87-1.81l7.47-7.71l1.87,1.81L674.76,190.65z M685.14,180.4c-0.61,0.63-1.57,0.66-2.27-0.02
		c-0.69-0.66-0.69-1.62-0.08-2.25c0.62-0.64,1.58-0.67,2.27-0.01C685.76,178.79,685.76,179.75,685.14,180.4z"/>
	<path class="st1" d="M681.52,196.81c-0.93-0.17-1.8-0.69-2.46-1.37c-1.45-1.53-1.37-3.16,0.28-4.76l4.07-3.94l-1.17-1.21l1.34-1.3
		l1.17,1.21l1.7-1.65l2.03,1.65l-1.92,1.86l1.74,1.79l-1.52,1.11l-1.55-1.6l-4.02,3.9c-0.76,0.73-0.83,1.28-0.27,1.85
		c0.28,0.29,0.65,0.5,1.17,0.65L681.52,196.81z"/>
	<path class="st1" d="M690.84,208.34l-1.45-1.73l1.06-1.07c-1.44,0.18-2.55-0.22-3.5-1.36c-1.25-1.49-0.96-3.09,0.63-4.42l5.91-4.96
		l1.67,1.99l-5.66,4.75c-0.96,0.81-1.03,1.39-0.46,2.08c0.57,0.68,1.49,0.86,2.56,0.68l5.78-4.85l1.67,1.99L690.84,208.34z"/>
	<path class="st1" d="M704.09,212.96l-6.23,4.65l-1.55-2.08l5.91-4.41c1.07-0.8,1.08-1.44,0.59-2.09c-0.56-0.75-1.48-0.93-2.65-0.83
		l-5.99,4.47l-1.55-2.08l8.61-6.42l1.35,1.81l-1,1c1.36,0.02,2.51,0.51,3.32,1.6C706.04,210.11,705.73,211.74,704.09,212.96z"/>
	<path class="st1" d="M716.92,219.04l-12.55,8.28l-1.26-1.91l1.03-0.9c-1.17-0.01-2.32-0.49-3.08-1.64
		c-1.48-2.24-0.37-4.64,2.48-6.52c2.76-1.82,5.66-1.74,7.12,0.48c0.63,0.95,0.71,1.96,0.52,2.89l4.54-3L716.92,219.04z
		 M705.48,223.48l4.1-2.71c0.26-0.85,0.3-1.61-0.18-2.34c-0.74-1.12-2.18-1.24-4.33,0.18c-2.3,1.52-2.66,2.71-1.96,3.77
		C703.64,223.19,704.38,223.48,705.48,223.48z"/>
	<path class="st1" d="M719.76,240.12c-5,2.71-7.88,0.32-9.48-2.62l-1.82-3.35l12.33-6.68l1.64,3.03
		C724.21,233.74,724.87,237.35,719.76,240.12z M720.31,230.77l-8.8,4.77l0.63,1.16c1,1.84,2.64,2.91,6.28,0.94
		c3.71-2.01,3.47-3.96,2.48-5.78L720.31,230.77z"/>
	<path class="st1" d="M715.6,247.86l-1.13-2.34l9.67-4.68l1.13,2.34L715.6,247.86z M728.88,241.8c-0.79,0.38-1.7,0.08-2.12-0.8
		c-0.42-0.86-0.08-1.76,0.7-2.14c0.8-0.39,1.72-0.09,2.13,0.77C730.02,240.5,729.69,241.41,728.88,241.8z"/>
	<path class="st1" d="M718.92,255.23l-1.24-2.85l8.42-7.55l1.13,2.59l-7.01,5.56l8.87-1.3l1.07,2.46L718.92,255.23z"/>
	<path class="st1" d="M728.15,266.23l-2.38-6.31c-1.98,0.96-2.29,2.16-1.79,3.49c0.34,0.89,0.9,1.53,1.84,2.17l-1.01,1.53
		c-1.17-0.69-2.18-1.7-2.75-3.21c-1.17-3.12,0.27-5.57,3.44-6.76c3.06-1.15,5.99-0.41,7.06,2.44c1.06,2.81-0.23,5.14-3.4,6.34
		C728.84,266.03,728.42,266.14,728.15,266.23z M728.96,263.23c1.65-0.62,2.42-1.58,1.9-2.95c-0.43-1.14-1.46-1.58-3.51-0.96
		l1.49,3.95L728.96,263.23z"/>
	<path class="st1" d="M736.87,272.64l-2.53,0.35c-0.02-0.33-0.06-0.58-0.18-0.94c-0.4-1.24-1.51-1.58-3.36-1.41l-5.44,1.77
		l-0.8-2.47l10.21-3.31l0.7,2.14l-1.93,0.88c1.62,0.01,2.75,0.73,3.14,1.92C736.79,271.94,736.86,272.28,736.87,272.64z"/>
	<path class="st1" d="M738.21,281.48l-1.74-0.57c0.31-1.01,0.37-1.92,0.11-2.83c-0.28-1-0.85-1.45-1.47-1.27
		c-0.68,0.19-0.88,0.69-0.88,2.59c0.02,2.27-0.5,3.7-2.34,4.22c-2.15,0.6-3.84-1.07-4.5-3.44c-0.5-1.78-0.28-3.34,0.31-4.54
		l1.76,0.86c-0.38,0.97-0.52,2.04-0.23,3.1c0.31,1.11,0.98,1.71,1.76,1.49c0.86-0.24,1.02-0.73,1.03-2.82
		c-0.01-2.3,0.74-3.52,2.27-3.95c1.72-0.48,3.45,0.74,4.13,3.15C738.83,278.95,738.7,280.29,738.21,281.48z"/>
	<path class="st1" d="M729.96,288.84l-0.63-2.52l10.42-2.61l0.63,2.52L729.96,288.84z M744.19,285.62
		c-0.85,0.21-1.68-0.27-1.91-1.22c-0.23-0.93,0.27-1.74,1.12-1.95c0.87-0.22,1.7,0.27,1.93,1.19
		C745.57,284.58,745.06,285.4,744.19,285.62z"/>
	<path class="st1" d="M732.35,297.64c-0.69-0.64-1.15-1.54-1.34-2.48c-0.41-2.07,0.54-3.41,2.78-3.87l5.55-1.15l-0.34-1.65
		l1.83-0.38l0.34,1.65l2.33-0.48l0.82,2.48l-2.62,0.54l0.51,2.44l-1.88,0.12l-0.45-2.19l-5.49,1.14c-1.03,0.21-1.38,0.64-1.22,1.42
		c0.08,0.4,0.28,0.77,0.64,1.17L732.35,297.64z"/>
	<path class="st1" d="M734.91,307.32l-1.79-0.27c-0.09-1.2,0.19-2.02,1.16-2.59c-1.25-0.58-1.89-1.65-2.1-2.93
		c-0.34-2.1,0.79-3.62,2.71-3.93c2.3-0.37,3.83,1.15,4.32,4.24l0.22,1.34l0.6-0.1c1.38-0.22,1.74-0.92,1.52-2.28
		c-0.12-0.72-0.48-1.71-1.02-2.73l1.65-0.86c0.71,1.22,1.19,2.52,1.38,3.7c0.46,2.85-0.64,4.3-2.99,4.68l-4.45,0.72
		C735.28,306.44,735.03,306.77,734.91,307.32z M735.8,303.77l2.14-0.35l-0.17-1.06c-0.27-1.66-1-2.39-2.24-2.19
		c-1.02,0.16-1.52,0.78-1.36,1.76C734.31,302.81,734.88,303.42,735.8,303.77z M746.9,299.55c-0.78,0.13-1.48-0.38-1.61-1.16
		c-0.13-0.8,0.37-1.52,1.15-1.65c0.78-0.13,1.48,0.4,1.61,1.2C748.18,298.72,747.68,299.42,746.9,299.55z M747.62,303.99
		c-0.78,0.13-1.48-0.38-1.61-1.18c-0.13-0.78,0.38-1.5,1.16-1.63c0.78-0.13,1.48,0.4,1.61,1.18
		C748.9,303.17,748.4,303.87,747.62,303.99z"/>
	<path class="st1" d="M734.93,315.76c-0.63-0.7-1.01-1.64-1.12-2.59c-0.22-2.1,0.84-3.35,3.12-3.61l5.63-0.65l-0.2-1.67l1.86-0.22
		l0.2,1.67l2.36-0.27l0.6,2.55l-2.66,0.31l0.29,2.48l-1.89-0.05l-0.26-2.22l-5.57,0.65c-1.05,0.12-1.43,0.51-1.34,1.3
		c0.05,0.4,0.21,0.79,0.53,1.23L734.93,315.76z"/>
	<path class="st1" d="M735.46,388.75c-5.53-1.31-6.09-5.02-5.32-8.27l0.88-3.71l13.65,3.24l-0.8,3.36
		C743.02,386.96,741.11,390.09,735.46,388.75z M742.1,382.15l-9.74-2.31l-0.3,1.29c-0.48,2.03,0.03,3.93,4.06,4.89
		c4.11,0.98,5.22-0.64,5.7-2.65L742.1,382.15z"/>
	<path class="st1" d="M729.79,398.96l1.94-6.45c-2.16-0.44-3.13,0.33-3.54,1.69c-0.27,0.91-0.21,1.76,0.14,2.84l-1.73,0.6
		c-0.51-1.26-0.7-2.67-0.23-4.23c0.96-3.19,3.59-4.26,6.84-3.29c3.13,0.94,5,3.31,4.13,6.22c-0.87,2.88-3.31,3.95-6.55,2.97
		C730.45,399.22,730.06,399.06,729.79,398.96z M732.25,397.07c1.69,0.51,2.88,0.21,3.3-1.19c0.35-1.17-0.21-2.14-2.21-2.89
		l-1.22,4.04L732.25,397.07z"/>
	<path class="st1" d="M727.06,415.74l-7.28-2.75l0.92-2.43l6.9,2.6c1.25,0.47,1.8,0.12,2.03-0.49c0.32-0.83-0.08-1.57-0.8-2.47
		l-6.99-2.64l0.92-2.43l6.9,2.6c1.25,0.47,1.81,0.1,2.03-0.49c0.32-0.86-0.07-1.59-0.8-2.49l-6.99-2.64l0.92-2.43l10.05,3.79
		l-0.8,2.11l-1.38-0.3c0.74,1.1,0.98,2.24,0.5,3.51c-0.44,1.18-1.4,1.82-2.61,1.79c0.76,1.15,1.05,2.33,0.55,3.66
		C730.52,415.83,728.96,416.46,727.06,415.74z"/>
	<path class="st1" d="M719.6,426.26c-3.08-1.42-4.37-4.09-3.05-6.96c1.32-2.88,4.07-3.69,7.27-2.22c3.06,1.41,4.36,4.08,3.03,6.97
		C725.52,426.93,722.79,427.73,719.6,426.26z M722.67,419.57c-2.34-1.08-3.7-0.83-4.34,0.55c-0.63,1.38,0.08,2.58,2.41,3.65
		c2.32,1.07,3.69,0.82,4.31-0.54C725.69,421.85,724.98,420.63,722.67,419.57z"/>
	<path class="st1" d="M716.46,433.64l-7.14,0.66l1.39-2.64l6.91-0.53l2.63,5.45l-1.28,2.42L716.46,433.64z M712.48,428.3l1.21-2.3
		l13.3,7.03l-0.96,2.43L712.48,428.3z"/>
	<path class="st1" d="M714.79,446.36l-1.94-1.66c0.23-0.24,0.39-0.43,0.59-0.76c0.66-1.12,0.18-2.18-1.18-3.45l-4.93-2.9l1.32-2.24
		l9.25,5.44l-1.14,1.94l-1.94-0.86c1.07,1.22,1.28,2.54,0.65,3.63C715.26,445.84,715.05,446.12,714.79,446.36z"/>
	<path class="st1" d="M701.38,449.8l-1.15-1.4c0.74-0.95,1.5-1.38,2.6-1.14c-0.53-1.26-0.3-2.49,0.41-3.58
		c1.16-1.79,3.02-2.15,4.65-1.09c1.96,1.27,2.07,3.42,0.37,6.04l-0.74,1.14l0.51,0.33c1.17,0.76,1.91,0.49,2.66-0.67
		c0.4-0.61,0.79-1.59,1.08-2.71l1.8,0.47c-0.29,1.38-0.81,2.67-1.46,3.67c-1.57,2.42-3.36,2.76-5.35,1.46l-3.78-2.45
		C702.24,449.39,701.83,449.47,701.38,449.8z M704.42,447.75l1.82,1.18l0.58-0.9c0.92-1.41,0.86-2.44-0.2-3.13
		c-0.87-0.56-1.65-0.44-2.19,0.39C703.95,446.05,703.97,446.88,704.42,447.75z"/>
	<path class="st1" d="M695.72,456.07c0-0.95,0.35-1.89,0.91-2.67c1.24-1.71,2.87-1.92,4.73-0.59l4.61,3.29l0.98-1.37l1.52,1.08
		l-0.98,1.37l1.93,1.38l-1.26,2.29l-2.18-1.56l-1.45,2.03l-1.37-1.3l1.3-1.82l-4.56-3.25c-0.86-0.61-1.41-0.58-1.87,0.06
		c-0.24,0.33-0.37,0.73-0.43,1.26L695.72,456.07z"/>
	<path class="st1" d="M692.93,458.87l1.58-2.07l8.54,6.52l-1.58,2.07L692.93,458.87z M704.33,467.98c-0.69-0.53-0.84-1.48-0.25-2.26
		c0.58-0.76,1.53-0.87,2.23-0.34c0.71,0.54,0.85,1.49,0.27,2.25C706,468.41,705.04,468.52,704.33,467.98z"/>
	<path class="st1" d="M689.05,470.87l4.3-5.18c-1.82-1.24-3.01-0.92-3.92,0.18c-0.61,0.73-0.88,1.54-0.98,2.67l-1.83-0.12
		c0.02-1.36,0.39-2.73,1.43-3.98c2.13-2.56,4.97-2.52,7.57-0.36c2.51,2.09,3.32,4.99,1.37,7.34c-1.92,2.31-4.58,2.34-7.19,0.18
		C689.56,471.37,689.25,471.06,689.05,470.87z M692.04,470.08c1.36,1.13,2.57,1.32,3.5,0.19c0.78-0.94,0.65-2.05-0.9-3.52l-2.7,3.25
		L692.04,470.08z"/>
	<path class="st1" d="M674.77,479.38l1.57-1.61l1.17,0.95c-0.32-1.42-0.03-2.55,1-3.62c1.36-1.39,2.98-1.26,4.47,0.19l5.52,5.38
		l-1.81,1.86l-5.29-5.16c-0.9-0.88-1.49-0.89-2.11-0.25c-0.62,0.64-0.71,1.57-0.42,2.62l5.4,5.27l-1.81,1.86L674.77,479.38z"/>
	<path class="st1" d="M671.51,493.02l-5.25-5.73l1.92-1.75l4.98,5.43c0.91,0.99,1.54,0.93,2.14,0.38c0.69-0.63,0.77-1.56,0.56-2.72
		l-5.05-5.51l1.92-1.76l7.25,7.92l-1.66,1.52l-1.1-0.9c0.11,1.35-0.25,2.54-1.26,3.46C674.55,494.68,672.9,494.54,671.51,493.02z"/>
	<path class="st1" d="M666.74,506.42l-9.51-11.66l1.78-1.45l1,0.94c-0.11-1.17,0.25-2.35,1.32-3.23c2.08-1.69,4.59-0.83,6.74,1.81
		c2.09,2.57,2.3,5.46,0.24,7.14c-0.88,0.72-1.88,0.9-2.82,0.81l3.44,4.22L666.74,506.42z M661.17,495.47l3.1,3.81
		c0.88,0.18,1.63,0.14,2.31-0.41c1.04-0.85,1.01-2.29-0.62-4.29c-1.74-2.14-2.96-2.38-3.95-1.57
		C661.28,493.61,661.07,494.38,661.17,495.47z"/>
	<path class="st1" d="M650.43,514.25l3.01-2.07l-6.75-9.79l2.22-1.53l6.75,9.79l3.11-2.14l1.21,1.75l-8.57,5.91L650.43,514.25z"/>
	<path class="st1" d="M638.06,513.31l5.73-3.55c-1.33-1.76-2.57-1.82-3.77-1.08c-0.81,0.5-1.32,1.18-1.77,2.22l-1.7-0.69
		c0.45-1.28,1.24-2.46,2.62-3.32c2.83-1.75,5.51-0.82,7.3,2.06c1.72,2.78,1.56,5.79-1.02,7.4c-2.55,1.58-5.09,0.77-6.88-2.11
		C638.39,513.94,638.2,513.56,638.06,513.31z M641.15,513.51c0.93,1.5,2.02,2.07,3.26,1.29c1.04-0.64,1.26-1.74,0.26-3.62
		l-3.59,2.23L641.15,513.51z"/>
	<path class="st1" d="M631.47,511.76l2.26-1.28l5.28,9.35l-2.26,1.28L631.47,511.76z M638.37,524.62c-0.43-0.76-0.19-1.69,0.66-2.17
		c0.83-0.47,1.75-0.2,2.18,0.56c0.44,0.78,0.2,1.71-0.63,2.18C639.73,525.67,638.8,525.4,638.37,524.62z"/>
	<path class="st1" d="M630.14,515.29l5.87,11.12l-2.16,1.46l-5.97-11.3c-0.24-0.45-0.49-0.59-0.89-0.38
		c-0.2,0.1-0.36,0.23-0.47,0.37l-1.35-1.35c0.3-0.39,0.78-0.82,1.37-1.14C627.99,513.31,629.31,513.73,630.14,515.29z"/>
	<path class="st1" d="M619.08,526.71l-3.33-7.03l2.35-1.11l3.15,6.66c0.57,1.21,1.22,1.33,1.93,1c0.83-0.39,1.2-1.26,1.35-2.41
		l-3.21-6.77l2.35-1.11l6.43,13.58l-2.24,1.35l-2.49-5.27c-0.32,1.27-0.97,2.21-2.15,2.77C621.5,529.17,619.95,528.54,619.08,526.71
		z"/>
	<path class="st1" d="M605.72,525.41l-0.14-1.8c1.15-0.36,2.02-0.27,2.79,0.55c0.29-1.34,1.18-2.21,2.38-2.7
		c1.97-0.81,3.71-0.04,4.45,1.76c0.88,2.16-0.26,3.99-3.16,5.17l-1.26,0.51l0.23,0.56c0.53,1.3,1.29,1.49,2.57,0.97
		c0.68-0.28,1.56-0.86,2.44-1.61l1.21,1.41c-1.03,0.97-2.19,1.73-3.3,2.18c-2.67,1.09-4.33,0.34-5.23-1.86l-1.7-4.17
		C606.67,525.58,606.29,525.4,605.72,525.41z M609.39,525.48l0.82,2.01l1-0.41c1.56-0.64,2.1-1.52,1.63-2.68
		c-0.39-0.96-1.1-1.3-2.02-0.93C609.98,523.81,609.52,524.5,609.39,525.48z"/>
	<path class="st1" d="M595.91,532.98c-1.09-3.17-0.33-5.9,2.16-6.75c1.11-0.38,2.21-0.2,3.14,0.4l-0.2-1.09l2.17-0.75l4.89,14.22
		l-2.36,1.11l-1.89-5.49c-0.34,1.13-1.13,2-2.31,2.4C599.15,537.85,597.08,536.38,595.91,532.98z M598.48,532.1
		c0.93,2.71,2.01,3.23,3.18,2.83c0.88-0.3,1.33-1.12,1.54-2.07l-1.54-4.49c-0.69-0.58-1.51-0.79-2.28-0.53
		C598.13,528.27,597.6,529.54,598.48,532.1z"/>
	<path class="st1" d="M584.81,535.32l6.49-1.83c-0.79-2.05-1.96-2.46-3.33-2.08c-0.92,0.26-1.6,0.77-2.32,1.65l-1.44-1.13
		c0.78-1.11,1.87-2.03,3.44-2.47c3.2-0.9,5.52,0.74,6.45,4c0.89,3.15-0.1,6-3.03,6.83c-2.89,0.82-5.1-0.67-6.03-3.93
		C584.95,536.02,584.87,535.6,584.81,535.32z M587.73,536.37c0.48,1.7,1.37,2.54,2.78,2.15c1.17-0.33,1.69-1.32,1.25-3.41
		l-4.06,1.15L587.73,536.37z"/>
	<path class="st1" d="M474.42,541.95l1.77-1.09c0.74,0.97,1.41,1.52,2.57,1.82c1.93,0.5,3.95-0.53,4.89-4.19
		c0.96-3.71,0.21-5.39-1.91-5.94c-0.77-0.2-1.55-0.23-2.3-0.03l-0.91,3.54l2.04,0.53l-0.22,2l-4.87-1.25l1.71-6.64
		c1.57-0.48,3.31-0.57,5.02-0.13c3.87,1,5.37,3.98,4.17,8.64c-1.18,4.6-4.65,6.34-8.05,5.47
		C476.44,544.17,475.31,543.21,474.42,541.95z"/>
	<path class="st1" d="M465.42,530.61l6.41,2.06c0.48-2.15-0.27-3.14-1.62-3.57c-0.91-0.29-1.75-0.24-2.84,0.09l-0.57-1.74
		c1.27-0.49,2.68-0.65,4.23-0.16c3.17,1.02,4.19,3.67,3.16,6.9c-1,3.11-3.4,4.94-6.3,4.01c-2.86-0.92-3.88-3.38-2.85-6.6
		C465.15,531.26,465.32,530.87,465.42,530.61z M467.27,533.09c-0.54,1.68-0.26,2.88,1.13,3.32c1.16,0.37,2.14-0.16,2.93-2.15
		l-4.02-1.29L467.27,533.09z"/>
	<path class="st1" d="M454.54,532.08l1.49-1.07c0.63,0.85,1.33,1.43,2.22,1.77c0.97,0.37,1.67,0.18,1.9-0.43
		c0.25-0.67-0.03-1.12-1.56-2.24c-1.84-1.33-2.69-2.6-2.01-4.38c0.79-2.09,3.14-2.46,5.44-1.59c1.73,0.65,2.86,1.75,3.47,2.94
		l-1.73,0.91c-0.56-0.88-1.34-1.63-2.36-2.02c-1.08-0.41-1.96-0.22-2.24,0.54c-0.32,0.84-0.02,1.25,1.66,2.5
		c1.86,1.35,2.39,2.68,1.83,4.17c-0.63,1.67-2.64,2.34-4.98,1.46C456.21,534.08,455.21,533.18,454.54,532.08z"/>
	<path class="st1" d="M448.13,518.71l2.06,0.9l-0.47,1.43c1.21-0.8,2.38-0.93,3.74-0.34c1.79,0.78,2.23,2.35,1.4,4.24l-3.09,7.07
		l-2.38-1.04l2.96-6.77c0.5-1.15,0.3-1.71-0.51-2.06c-0.82-0.36-1.72-0.11-2.6,0.52l-3.02,6.92l-2.38-1.04L448.13,518.71z"/>
	<path class="st1" d="M434.21,520.47l3.51-6.94l2.32,1.17l-3.33,6.58c-0.61,1.2-0.33,1.77,0.4,2.13c0.83,0.42,1.73,0.17,2.74-0.43
		l3.37-6.67l2.32,1.17l-4.85,9.58l-2.01-1.02l0.45-1.34c-1.23,0.58-2.47,0.66-3.69,0.05C433.73,523.89,433.29,522.29,434.21,520.47z
		"/>
	<path class="st1" d="M420.01,520.73l7.55-13.01l1.98,1.15l-0.52,1.27c1.05-0.52,2.29-0.59,3.49,0.1c2.32,1.34,2.4,4,0.69,6.94
		c-1.66,2.86-4.29,4.08-6.59,2.75c-0.98-0.57-1.51-1.44-1.75-2.36l-2.73,4.7L420.01,520.73z M428.28,511.66l-2.46,4.25
		c0.14,0.88,0.45,1.57,1.2,2.01c1.16,0.67,2.5,0.14,3.8-2.09c1.38-2.39,1.18-3.61,0.07-4.25
		C430.06,511.1,429.26,511.17,428.28,511.66z"/>
	<path class="st1" d="M413.56,507.88l4.28-6.49l2.17,1.43l-4.06,6.15c-0.74,1.12-0.51,1.73,0.15,2.17c0.76,0.5,1.7,0.37,2.76-0.1
		l4.12-6.25l2.17,1.43l-8.27,12.53l-2.31-1.21l3.21-4.86c-1.25,0.39-2.4,0.32-3.48-0.4C412.71,511.23,412.44,509.57,413.56,507.88z"
		/>
	<path class="st1" d="M405.82,498.25l5.41,4.01c1.14-1.88,0.75-3.06-0.39-3.9c-0.77-0.57-1.58-0.79-2.72-0.83l0.02-1.83
		c1.36-0.06,2.75,0.25,4.05,1.21c2.67,1.98,2.79,4.82,0.77,7.55c-1.95,2.62-4.81,3.58-7.25,1.77c-2.41-1.79-2.59-4.45-0.57-7.17
		C405.35,498.78,405.63,498.46,405.82,498.25z M406.76,501.2c-1.05,1.42-1.17,2.64,0,3.51c0.98,0.73,2.08,0.53,3.46-1.09l-3.39-2.51
		L406.76,501.2z"/>
	<path class="st1" d="M395.38,502.68c0.55-0.68,1.5-0.8,2.26-0.18c0.74,0.6,0.83,1.56,0.28,2.24c-0.56,0.7-1.51,0.81-2.26,0.21
		C394.91,504.33,394.82,503.37,395.38,502.68z M404.79,491.52l2.02,1.63l-6.74,8.36l-2.02-1.63L404.79,491.52z"/>
	<path class="st1" d="M397.52,486.01c0.94,0.09,1.85,0.52,2.58,1.15c1.59,1.39,1.65,3.03,0.15,4.77l-3.7,4.29l1.28,1.1l-1.22,1.42
		l-1.28-1.1l-1.55,1.8l-2.17-1.46l1.75-2.03l-1.89-1.63l1.42-1.24l1.69,1.46l3.66-4.25c0.69-0.8,0.71-1.35,0.11-1.86
		c-0.31-0.27-0.7-0.44-1.22-0.54L397.52,486.01z"/>
	<path class="st1" d="M387.18,475.35l1.6,1.59l-0.96,1.17c1.42-0.31,2.55-0.01,3.61,1.04c1.38,1.37,1.23,3-0.23,4.46l-5.44,5.47
		l-1.84-1.83l5.21-5.24c0.89-0.89,0.9-1.48,0.27-2.11c-0.63-0.63-1.57-0.73-2.61-0.45l-5.32,5.35l-1.84-1.83L387.18,475.35z"/>
	<path class="st1" d="M373.57,471.95l5.78-5.19l1.74,1.93l-5.48,4.92c-1,0.89-0.94,1.53-0.4,2.13c0.62,0.7,1.55,0.79,2.71,0.59
		l5.56-4.99l1.74,1.93l-7.99,7.17l-1.5-1.68l0.91-1.09c-1.36,0.1-2.54-0.28-3.45-1.29C371.88,474.96,372.05,473.32,373.57,471.95z"
		/>
	<path class="st1" d="M360.25,467.07l11.75-9.39l1.43,1.79l-0.95,0.99c1.17-0.1,2.35,0.28,3.21,1.36c1.67,2.09,0.79,4.59-1.88,6.72
		c-2.58,2.07-5.48,2.25-7.14,0.17c-0.71-0.89-0.89-1.89-0.78-2.83l-4.25,3.4L360.25,467.07z M371.24,461.62l-3.84,3.07
		c-0.18,0.87-0.15,1.63,0.39,2.31c0.84,1.05,2.28,1.04,4.29-0.57c2.16-1.72,2.41-2.94,1.61-3.93
		C373.1,461.74,372.33,461.52,371.24,461.62z"/>
	<path class="st1" d="M355.69,459.1l-4.45-6.57l1.81-0.88l2.79,4.12l3.48-2.36l-2.42-3.58l1.65-1.12l2.42,3.58l4.84-3.28l1.5,2.22
		L355.69,459.1z"/>
	<path class="st1" d="M345.81,444.66c0.68-0.41,1.51-0.21,1.94,0.49c0.41,0.68,0.22,1.53-0.46,1.94c-0.68,0.41-1.52,0.19-1.94-0.49
		C344.93,445.91,345.14,445.07,345.81,444.66z M348.16,448.51c0.68-0.41,1.51-0.21,1.92,0.47c0.42,0.69,0.23,1.55-0.45,1.96
		c-0.68,0.41-1.52,0.19-1.95-0.5C347.28,449.76,347.48,448.93,348.16,448.51z M357.88,436.53l1.17,1.93l-1.21,0.9
		c1.45,0.04,2.48,0.6,3.25,1.87c1.01,1.66,0.48,3.21-1.29,4.28l-6.59,4.01l-1.35-2.22l6.31-3.84c1.07-0.65,1.23-1.22,0.76-1.99
		c-0.46-0.76-1.35-1.08-2.43-1.06l-6.45,3.93l-1.35-2.22L357.88,436.53z"/>
	<path class="st1" d="M343.88,433.62l2.42-0.81c0.08,0.32,0.17,0.56,0.35,0.9c0.62,1.14,1.78,1.27,3.56,0.76l5.03-2.74l1.24,2.28
		l-9.43,5.14l-1.08-1.98l1.74-1.22c-1.6,0.29-2.84-0.21-3.44-1.31C344.09,434.3,343.96,433.98,343.88,433.62z"/>
	<path class="st1" d="M340.95,425.18l1.81,0.24c-0.12,1.05-0.01,1.95,0.41,2.81c0.46,0.93,1.1,1.27,1.68,0.98
		c0.64-0.31,0.74-0.84,0.39-2.7c-0.44-2.23-0.18-3.73,1.53-4.57c2-0.99,3.97,0.35,5.06,2.56c0.81,1.66,0.89,3.23,0.52,4.52
		l-1.88-0.52c0.2-1.02,0.14-2.11-0.34-3.09c-0.51-1.04-1.28-1.5-2.01-1.14c-0.8,0.39-0.87,0.9-0.49,2.96
		c0.43,2.25-0.09,3.59-1.51,4.29c-1.6,0.79-3.53-0.1-4.63-2.34C340.81,427.78,340.69,426.44,340.95,425.18z"/>
	<path class="st1" d="M340.12,412.31c3.12-1.33,5.97-0.5,7.22,2.41c1.25,2.91,0.01,5.49-3.23,6.88c-3.1,1.33-5.95,0.49-7.21-2.44
		C335.65,416.25,336.89,413.69,340.12,412.31z M343.02,419.08c2.37-1.02,3.1-2.19,2.5-3.59c-0.6-1.4-1.98-1.67-4.33-0.67
		c-2.35,1.01-3.08,2.18-2.49,3.56C339.3,419.79,340.69,420.08,343.02,419.08z"/>
	<path class="st1" d="M331.87,405.89l2.51-0.46c0.04,0.33,0.08,0.58,0.22,0.94c0.45,1.22,1.58,1.51,3.41,1.26l5.36-2l0.91,2.43
		l-10.06,3.74l-0.79-2.11l1.89-0.96c-1.62,0.06-2.78-0.61-3.22-1.79C331.98,406.59,331.9,406.25,331.87,405.89z"/>
	<path class="st1" d="M329.13,395.19c0.52,0.69,0.91,1.63,1.3,2.84c0.16-1.42,0.75-2.29,2.03-2.7c1.99-0.64,3.94,0.44,4.76,3.01
		c0.14,0.44,0.23,0.84,0.24,1.27c0.25,0.19,0.58,0.28,0.89,0.18c0.37-0.12,0.65-0.44,0.32-1.47l-0.5-1.57
		c-0.73-2.26,0.02-4.12,1.7-4.66c2.05-0.66,3.83,0.71,4.91,4.05c1.17,3.63,0.34,5.03-1.71,5.69l-0.71-2.22
		c1.02-0.33,1.33-0.92,0.67-2.95c-0.64-1.99-1.37-2.4-2.18-2.14c-0.75,0.24-1.02,0.99-0.66,2.13l0.5,1.55
		c0.66,2.05,0.03,3.21-1.03,3.55c-0.71,0.23-1.57,0.01-2.28-0.59c-0.25,1.47-0.99,2.3-2.3,2.72c-2.22,0.71-4.24-0.58-5.04-3.05
		c-0.72-2.43-1.62-3.38-2.68-4.41L329.13,395.19z M334.23,401.42c1.24-0.4,1.79-1.32,1.43-2.46c-0.38-1.18-1.32-1.58-2.61-1.16
		c-1.29,0.42-1.73,1.24-1.34,2.48C332.06,401.39,333.05,401.79,334.23,401.42z"/>
	<path class="st1" d="M331.82,383.54l1.73,6.52c2.07-0.76,2.49-1.92,2.13-3.3c-0.25-0.92-0.74-1.61-1.61-2.35l1.16-1.42
		c1.1,0.8,2,1.91,2.41,3.48c0.86,3.22-0.83,5.51-4.1,6.38c-3.16,0.84-6-0.19-6.78-3.14c-0.77-2.9,0.75-5.09,4.03-5.96
		C331.12,383.66,331.54,383.59,331.82,383.54z M330.72,386.43c-1.71,0.45-2.57,1.33-2.19,2.75c0.31,1.18,1.3,1.71,3.39,1.3
		l-1.08-4.08L330.72,386.43z"/>
</g>
</svg>
