<?xml version="1.0" encoding="UTF-8"?>
<svg id="Ebene_1" data-name="Ebene 1" xmlns="http://www.w3.org/2000/svg" viewBox="0 0 551.94 551.94">
  <defs>
    <style>
      .cls-1 {
        fill: #fff;
      }

      .cls-2 {
        fill: #004e9e;
      }

      .cls-3 {
        fill: #2494ca;
      }
    </style>
  </defs>
  <g id="innerer_Kreis" data-name="innerer Kreis">
    <path class="cls-3" d="M275.97,141.97c35.79,0,69.44,13.94,94.75,39.25,25.31,25.31,39.25,58.96,39.25,94.75s-13.94,69.44-39.25,94.75c-25.31,25.31-58.96,39.25-94.75,39.25s-69.44-13.94-94.75-39.25c-25.31-25.31-39.25-58.96-39.25-94.75s13.94-69.44,39.25-94.75c25.31-25.31,58.96-39.25,94.75-39.25M275.97,73.97c-111.56,0-202,90.44-202,202s90.44,202,202,202,202-90.44,202-202-90.44-202-202-202h0Z"/>
    <g>
      <path class="cls-1" d="M242.32,123.86l-4.62,1.24-10.48-13.39c.63,1.6,1.57,3.9,2.5,7.36l2.05,7.62-3.24.87-5.03-18.68,4.52-1.22,10.59,13.39c-.44-.98-1.49-3.6-2.2-6.25l-2.36-8.76,3.24-.87,5.03,18.68Z"/>
      <path class="cls-1" d="M257.73,119.28l-.38,2.47c-1.65.12-2.79-.27-3.57-1.62-.81,1.71-2.28,2.6-4.06,2.88-2.9.46-4.99-1.11-5.41-3.77-.5-3.18,1.61-5.27,5.87-5.94l1.85-.29-.13-.83c-.3-1.91-1.26-2.41-3.14-2.11-1,.16-2.36.66-3.78,1.39l-1.18-2.28c1.69-.97,3.49-1.63,5.12-1.88,3.93-.62,5.93.91,6.44,4.15l.97,6.14c.19,1.19.64,1.54,1.4,1.71ZM252.83,118.03l-.47-2.96-1.47.23c-2.3.36-3.3,1.37-3.03,3.08.22,1.41,1.07,2.1,2.42,1.89,1.22-.19,2.06-.98,2.54-2.24Z"/>
      <path class="cls-1" d="M270.68,106.85l-1.45,2.26c-1.03-.66-1.94-.94-3.06-.86-2.07.14-3.22,1.73-2.98,5.28.24,3.58,1.64,4.75,3.65,4.61,1.12-.08,1.88-.49,2.92-1.26l1.74,2.16c-1.27,1.18-2.76,1.9-4.66,2.03-4.27.29-7.13-2.5-7.44-7.22s2.12-8.11,6.37-8.4c1.93-.13,3.44.3,4.92,1.41Z"/>
      <path class="cls-1" d="M286.02,109.84l-.25,10.72-3.58-.08.23-10.16c.04-1.85-.67-2.4-1.77-2.42-1.26-.03-2.26.82-3.16,2.14l-.24,10.33-3.58-.08.47-20.72,3.59-.28-.18,8.04c1.18-1.37,2.57-2.13,4.36-2.08,2.63.06,4.16,1.8,4.1,4.6Z"/>
      <path class="cls-1" d="M302.67,111.67l-1.31,10.64-3.56-.44,1.25-10.09c.23-1.83-.43-2.45-1.51-2.58-1.25-.15-2.33.59-3.36,1.81l-1.27,10.25-3.56-.44,2.54-20.56,3.6.08-.99,7.97c1.31-1.25,2.77-1.86,4.55-1.64,2.61.32,3.96,2.21,3.62,4.99Z"/>
      <path class="cls-1" d="M317.04,123.63l-1.26,2.16c-1.58-.5-2.5-1.28-2.72-2.82-1.38,1.3-3.08,1.58-4.83,1.18-2.87-.64-4.23-2.87-3.64-5.5.71-3.14,3.43-4.31,7.64-3.36l1.83.41.18-.82c.42-1.88-.28-2.7-2.14-3.12-.98-.22-2.44-.26-4.02-.1l-.26-2.55c1.93-.28,3.84-.23,5.45.13,3.88.87,5.17,3.03,4.46,6.22l-1.36,6.06c-.26,1.17.03,1.67.67,2.1ZM312.94,120.67l.66-2.92-1.45-.33c-2.27-.51-3.57.06-3.95,1.75-.31,1.39.22,2.34,1.56,2.65,1.2.27,2.27-.15,3.18-1.15Z"/>
      <path class="cls-1" d="M319.91,123.13l5.02-16.61,3.54.66-5.1,16.88c-.2.67-.08,1.06.5,1.23.29.09.58.12.82.1l.02,2.64c-.67.09-1.57.05-2.45-.21-2.17-.66-3.06-2.36-2.35-4.69Z"/>
      <path class="cls-1" d="M335.01,131.12c-1.26.34-2.65.22-3.88-.24-2.72-1.03-3.6-3.11-2.5-6.08l2.7-7.33-2.18-.8.89-2.42,2.18.8,1.13-3.07,3.51.84-1.28,3.47,3.23,1.19-1.23,2.29-2.89-1.06-2.67,7.25c-.5,1.37-.26,2.08.76,2.46.53.19,1.11.23,1.84.11l.39,2.59Z"/>
      <path class="cls-1" d="M339.59,133.93l-3.29-1.43,5.91-13.58,3.29,1.43-5.91,13.58ZM348.03,115.64c-.48,1.1-1.71,1.61-2.94,1.07-1.21-.53-1.67-1.77-1.19-2.87.49-1.13,1.72-1.63,2.93-1.11,1.23.54,1.7,1.78,1.21,2.91Z"/>
      <path class="cls-1" d="M361.08,129.04c-1.17-.17-2.47-.72-4.03-1.54,1.21,1.55,1.47,2.98.62,4.62-1.34,2.56-4.29,3.38-7.59,1.65-.57-.3-1.04-.61-1.46-1.02-.44.05-.84.29-1.05.68-.25.47-.21,1.06,1.11,1.75l2.01,1.05c2.9,1.52,3.97,4.07,2.84,6.22-1.37,2.63-4.45,3.01-8.74.77-4.67-2.44-5.2-4.61-3.83-7.24l2.85,1.49c-.69,1.31-.42,2.18,2.19,3.55,2.56,1.34,3.66,1.03,4.21-.01.51-.97.05-1.97-1.42-2.73l-1.99-1.04c-2.63-1.37-3.14-3.12-2.42-4.49.48-.92,1.53-1.54,2.81-1.63-1.17-1.69-1.26-3.22-.38-4.9,1.49-2.85,4.72-3.53,7.9-1.87,3.06,1.7,4.86,1.75,6.89,1.74l-.53,2.95ZM350.05,127.85c-.83,1.59-.48,3.03.98,3.8,1.51.79,2.83.28,3.69-1.39.87-1.66.5-2.9-1.08-3.73-1.44-.75-2.8-.2-3.59,1.31Z"/>
      <path class="cls-1" d="M358.99,144.35l-3.01-1.95,11.28-17.41,3.22,1.62-11.5,17.74ZM366.81,139.54l.03,9.89-3.46-2.24.12-9.56,7.81-2.94,3.17,2.06-7.68,2.8Z"/>
      <path class="cls-1" d="M381.24,152.81l-7.3-5.75c-1.65,2.55-1.16,4.18.38,5.4,1.03.81,2.15,1.16,3.72,1.25l-.1,2.52c-1.87.02-3.78-.45-5.54-1.84-3.61-2.84-3.65-6.76-.76-10.44,2.79-3.54,6.77-4.75,10.07-2.15,3.25,2.57,3.39,6.24.5,9.91-.29.37-.7.8-.97,1.09ZM380.06,148.7c1.51-1.91,1.73-3.59.14-4.84-1.32-1.04-2.85-.82-4.82,1.37l4.57,3.61.1-.13Z"/>
      <path class="cls-1" d="M382.1,162.18l-2.65-2.41,9.98-10.95,2.65,2.41-9.98,10.95ZM395.99,147.61c-.81.89-2.13.97-3.13.07-.97-.89-1.01-2.21-.2-3.1.83-.91,2.15-.99,3.13-.11.99.91,1.04,2.23.21,3.14Z"/>
      <path class="cls-1" d="M391.44,170.51c-1.28-.23-2.48-.94-3.4-1.88-2.02-2.1-1.91-4.36.35-6.57l5.58-5.46-1.62-1.66,1.84-1.8,1.62,1.66,2.34-2.29,2.81,2.27-2.64,2.58,2.41,2.46-2.09,1.54-2.15-2.2-5.52,5.4c-1.04,1.02-1.13,1.77-.36,2.55.39.4.9.68,1.61.89l-.76,2.51Z"/>
      <path class="cls-1" d="M404.04,170.61l5.21,6.66-2.25,1.76-5.21-6.66,2.25-1.76Z"/>
      <path class="cls-1" d="M418.86,200.98c-3.67,2.16-6.52-.1-8.9-4.15l-2.95-5.02,16.68-9.81,2.57,4.37c2.53,4.3,2.85,7.61-.19,9.4-2.08,1.22-4.14.42-5.41-.98.76,2.12.99,4.55-1.79,6.18ZM417.02,197.58c2-1.18,1.84-3,.75-4.86l-1.29-2.2-5.21,3.07,1.09,1.86c1.23,2.1,2.56,3.37,4.66,2.13ZM423.22,186.57l-4.51,2.65,1.15,1.96c1.02,1.74,2.46,2.42,4.03,1.5,1.69-.99,1.49-2.44.21-4.61l-.88-1.5Z"/>
      <path class="cls-1" d="M422.01,216.26l-2.48.31c-.56-1.56-.5-2.76.59-3.88-1.87-.31-3.12-1.5-3.87-3.12-1.23-2.67-.28-5.11,2.16-6.23,2.93-1.34,5.51.12,7.31,4.04l.78,1.71.76-.35c1.76-.81,1.98-1.86,1.19-3.59-.42-.92-1.27-2.1-2.36-3.26l1.88-1.75c1.4,1.36,2.51,2.92,3.2,4.42,1.66,3.61.73,5.95-2.25,7.32l-5.65,2.59c-1.09.5-1.31,1.03-1.26,1.81ZM421.88,211.21l2.72-1.25-.62-1.35c-.97-2.11-2.21-2.81-3.79-2.08-1.3.6-1.73,1.6-1.16,2.84.51,1.12,1.5,1.72,2.84,1.84Z"/>
      <path class="cls-1" d="M425.01,230.77l-1.01-2.94,1.9-.86c-1.95-.48-3.17-1.54-3.84-3.48-.88-2.54.3-4.46,3-5.39l10.06-3.47,1.17,3.39-9.64,3.33c-1.64.57-2.01,1.29-1.61,2.45.4,1.17,1.5,1.85,2.96,2.15l9.85-3.4,1.17,3.39-14,4.84Z"/>
      <path class="cls-1" d="M434.97,244.7l-2.15-9.04c-2.88.97-3.51,2.56-3.05,4.47.3,1.28.97,2.25,2.14,3.29l-1.64,1.92c-1.48-1.14-2.69-2.7-3.2-4.88-1.06-4.47,1.33-7.57,5.88-8.65,4.38-1.04,8.26.48,9.23,4.57.96,4.03-1.21,6.99-5.76,8.08-.46.11-1.05.19-1.44.26ZM436.59,240.75c2.37-.56,3.58-1.75,3.12-3.71-.39-1.63-1.72-2.41-4.63-1.92l1.35,5.67.16-.04Z"/>
      <path class="cls-1" d="M441.58,259.45l-10.62,1.44-.48-3.55,10.07-1.37c1.83-.25,2.26-1.01,2.11-2.12-.17-1.28-1.16-2.1-2.64-2.78l-10.21,1.39-.48-3.55,14.67-1.99.42,3.08-1.88.54c1.62.94,2.68,2.29,2.94,4.15.36,2.64-1.1,4.39-3.9,4.77Z"/>
      <path class="cls-1" d="M441.68,270.46l.14,8.46-2.86.05-.14-8.46,2.86-.05Z"/>
      <path class="cls-1" d="M438.98,304.95c-7.78-1-9.08-5.99-8.5-10.57l.67-5.22,19.19,2.46-.6,4.72c-.65,5.05-2.81,9.63-10.76,8.62ZM447.12,294.93l-13.69-1.75-.23,1.81c-.37,2.86.61,5.38,6.27,6.11,5.78.74,7.07-1.64,7.43-4.47l.22-1.69Z"/>
      <path class="cls-1" d="M432.02,319.71l2.14-9.05c-3.01-.42-4.28.71-4.73,2.62-.3,1.28-.15,2.44.43,3.9l-2.33.97c-.81-1.69-1.19-3.62-.67-5.8,1.06-4.47,4.59-6.17,9.14-5.09,4.39,1.04,7.17,4.14,6.2,8.23-.95,4.03-4.23,5.71-8.78,4.63-.46-.11-1.02-.3-1.4-.42ZM435.24,316.91c2.37.56,3.99.05,4.45-1.91.39-1.64-.46-2.93-3.28-3.8l-1.34,5.67.16.04Z"/>
      <path class="cls-1" d="M434.64,334.69l-1.55-1.99c1.13-.92,1.9-1.9,2.32-3.15.45-1.36.15-2.31-.7-2.6-.93-.31-1.54.11-3,2.28-1.73,2.61-3.44,3.84-5.93,3.01-2.92-.97-3.56-4.2-2.49-7.41.81-2.42,2.26-4.03,3.86-4.94l1.35,2.34c-1.19.81-2.18,1.93-2.66,3.37-.51,1.51-.2,2.71.87,3.06,1.17.39,1.73-.04,3.35-2.43,1.76-2.63,3.57-3.44,5.64-2.75,2.34.78,3.37,3.52,2.28,6.78-.67,2.02-1.86,3.45-3.34,4.44Z"/>
      <path class="cls-1" d="M419.37,336.47l1.36-3.32,13.71,5.6-1.36,3.32-13.71-5.6ZM437.84,344.49c-1.11-.46-1.65-1.67-1.14-2.92.5-1.22,1.73-1.71,2.84-1.26,1.14.47,1.67,1.68,1.17,2.9-.51,1.24-1.74,1.74-2.88,1.27Z"/>
      <path class="cls-1" d="M424.73,357.87c.15-1.18.67-2.48,1.45-4.06-1.52,1.25-2.95,1.54-4.61.72-2.58-1.28-3.47-4.22-1.82-7.56.29-.58.58-1.05.98-1.48-.06-.44-.3-.84-.71-1.04-.48-.24-1.07-.18-1.72,1.15l-1.01,2.03c-1.45,2.94-3.98,4.06-6.16,2.98-2.66-1.32-3.11-4.38-.96-8.73,2.33-4.72,4.5-5.3,7.16-3.99l-1.43,2.89c-1.33-.66-2.19-.37-3.5,2.27-1.28,2.59-.95,3.69.1,4.21.98.48,1.97,0,2.7-1.48l.99-2.01c1.32-2.66,3.05-3.21,4.44-2.52.93.46,1.57,1.5,1.69,2.77,1.66-1.21,3.19-1.33,4.9-.48,2.89,1.43,3.64,4.64,2.05,7.86-1.63,3.1-1.65,4.9-1.59,6.93l-2.96-.46ZM425.67,346.81c-1.61-.79-3.05-.41-3.78,1.07-.76,1.53-.21,2.83,1.47,3.66s2.91.44,3.7-1.17c.72-1.46.14-2.81-1.39-3.56Z"/>
      <path class="cls-1" d="M414,368.97l-9.1-5.67,1.89-3.04,8.63,5.37c1.57.98,2.39.66,2.98-.29.68-1.09.45-2.36-.26-3.82l-8.75-5.45,1.89-3.04,12.58,7.83-1.64,2.64-1.79-.78c.65,1.76.61,3.48-.39,5.07-1.41,2.26-3.65,2.68-6.05,1.18Z"/>
      <path class="cls-1" d="M406.99,377.63l-5.35,6.54-2.21-1.81,5.35-6.54,2.21,1.81Z"/>
      <path class="cls-1" d="M388.71,407.51l.04-2.87c1.67-.14,2.81-.52,4.02-1.64,2-1.87,2.31-4.99-1.24-8.8-3.61-3.87-6.11-4.25-8.32-2.19-.8.75-1.42,1.63-1.74,2.65l3.44,3.68,2.13-1.99,2.16,1.74-5.08,4.74-6.46-6.92c.61-2.18,1.79-4.28,3.57-5.94,4.03-3.76,8.61-3.29,13.14,1.56,4.47,4.79,3.93,10.12.39,13.42-1.96,1.83-3.93,2.44-6.05,2.55Z"/>
      <path class="cls-1" d="M368.37,409.07l7.41-5.61c-2.05-2.24-3.75-2.18-5.32-1-1.05.79-1.67,1.79-2.15,3.28l-2.42-.73c.45-1.82,1.39-3.54,3.18-4.9,3.66-2.77,7.47-1.82,10.29,1.9,2.72,3.59,2.88,7.75-.47,10.29-3.3,2.5-6.89,1.7-9.71-2.02-.29-.38-.6-.88-.81-1.21ZM372.64,408.96c1.47,1.94,3.04,2.58,4.65,1.36,1.34-1.01,1.51-2.55-.11-5.01l-4.64,3.51.1.13Z"/>
      <path class="cls-1" d="M360.85,422.3l.07-2.52c1.46.01,2.68-.26,3.8-.95,1.21-.76,1.59-1.69,1.11-2.45-.52-.83-1.26-.9-3.76-.16-3,.92-5.1.78-6.49-1.46-1.63-2.61-.07-5.5,2.8-7.3,2.16-1.35,4.31-1.67,6.12-1.35l-.45,2.66c-1.43-.13-2.91.1-4.19.9-1.35.85-1.88,1.97-1.28,2.92.65,1.04,1.36,1.07,4.13.26,3.03-.91,4.95-.38,6.1,1.47,1.31,2.09.36,4.86-2.56,6.69-1.8,1.13-3.63,1.48-5.4,1.29Z"/>
      <path class="cls-1" d="M340.73,417.6l2.77-1.4,1.11,1.76c.22-1.99,1.1-3.35,2.93-4.27,2.4-1.21,4.46-.3,5.74,2.24l4.8,9.5-3.2,1.62-4.59-9.1c-.78-1.55-1.55-1.82-2.65-1.27-1.1.56-1.63,1.73-1.73,3.22l4.69,9.3-3.2,1.62-6.67-13.22Z"/>
      <path class="cls-1" d="M329.87,433.47l-3.85-10.01,3.35-1.29,3.64,9.49c.66,1.72,1.51,1.97,2.55,1.57,1.2-.46,1.78-1.61,2.1-3.21l-3.69-9.62,3.35-1.29,5.31,13.83-2.9,1.11-.95-1.7c-.54,1.8-1.61,3.14-3.36,3.81-2.48.95-4.52-.06-5.54-2.7Z"/>
      <path class="cls-1" d="M316.13,447.81l-5.42-20.02,3.05-.83.73,1.74c.51-1.53,1.64-2.82,3.48-3.32,3.57-.96,6.24,1.53,7.47,6.07,1.19,4.41-.17,8.17-3.71,9.12-1.51.41-2.88.08-4.01-.57l1.96,7.24-3.56.56ZM315.27,430.91l1.77,6.54c1,.71,1.98,1.09,3.14.77,1.78-.48,2.56-2.32,1.64-5.75-.99-3.67-2.39-4.66-4.09-4.2-1.27.34-1.97,1.2-2.45,2.63Z"/>
      <path class="cls-1" d="M296.87,441.09l-1.72-10.58,3.54-.58,1.63,10.03c.3,1.82,1.1,2.23,2.18,2.06,1.24-.2,2.07-1.22,2.71-2.68l-1.66-10.2,3.54-.58,3.33,20.45-3.48.94-1.29-7.93c-.91,1.57-2.14,2.56-3.9,2.85-2.6.42-4.42-1.01-4.87-3.77Z"/>
      <path class="cls-1" d="M279.9,437.94l9.28-.59c-.47-3-1.93-3.89-3.89-3.76-1.31.08-2.38.57-3.6,1.55l-1.61-1.94c1.38-1.27,3.11-2.19,5.35-2.33,4.58-.29,7.24,2.6,7.53,7.26.29,4.5-1.87,8.06-6.06,8.33-4.13.26-6.69-2.38-6.99-7.04-.03-.47-.01-1.07,0-1.46ZM283.52,440.2c.16,2.43,1.11,3.83,3.13,3.7,1.68-.11,2.67-1.29,2.67-4.24l-5.81.37v.17Z"/>
      <path class="cls-1" d="M272.27,451.65c.02-1.2.96-2.14,2.3-2.12,1.32.02,2.22.99,2.2,2.19-.02,1.23-.96,2.17-2.28,2.15-1.34-.02-2.25-.99-2.23-2.22ZM273.04,431.52l3.58.06-.24,14.81-3.58-.06.24-14.81Z"/>
      <path class="cls-1" d="M260.49,431.59c1.11-.69,2.47-.96,3.79-.88,2.9.21,4.33,1.96,4.13,5.12l-.5,7.79,2.32.15-.16,2.57-2.32-.15-.21,3.27-3.6.19.24-3.69-3.44-.22.53-2.55,3.07.2.49-7.71c.09-1.45-.34-2.07-1.43-2.14-.56-.04-1.13.1-1.79.42l-1.11-2.37Z"/>
      <path class="cls-1" d="M251.04,439.94l-8.33-1.47.5-2.81,8.33,1.47-.5,2.81Z"/>
      <path class="cls-1" d="M218.28,438.19l4.81,1.5,4.87-15.67,3.56,1.11-4.87,15.67,4.97,1.55-.87,2.81-13.71-4.27,1.25-2.69Z"/>
      <path class="cls-1" d="M208.92,423.5l8.61,3.51c.88-2.91-.05-4.34-1.86-5.08-1.22-.5-2.39-.52-3.92-.17l-.6-2.45c1.79-.54,3.76-.62,5.83.23,4.25,1.73,5.39,5.49,3.62,9.82-1.7,4.18-5.19,6.44-9.08,4.86-3.84-1.56-4.99-5.05-3.22-9.39.18-.44.45-.96.63-1.32ZM211.19,427.12c-.92,2.26-.66,3.93,1.2,4.69,1.56.63,2.96,0,4.25-2.65l-5.4-2.2-.06.16Z"/>
      <path class="cls-1" d="M192.95,423.44l2.41-1.18c.54,1.1,1.18,1.81,2.17,2.32,1.84.95,3.66.18,5.29-2.98,1.64-3.19,1.05-4.91-.74-5.83-1-.51-1.86-.55-3.15-.43l-.38-2.75c1.7-.35,3.35-.19,5.04.68,3.81,1.97,4.81,5.82,2.64,10.03s-6.01,5.85-9.8,3.89c-1.72-.89-2.79-2.04-3.48-3.75Z"/>
      <path class="cls-1" d="M181.37,412.9l5.77-9.04,3.02,1.93-5.47,8.56c-1,1.56-.67,2.4.25,2.99,1.06.68,2.35.47,3.81-.19l5.56-8.71,3.02,1.93-11.16,17.46-3.22-1.62,4.33-6.77c-1.72.56-3.3.48-4.81-.48-2.22-1.42-2.62-3.7-1.11-6.06Z"/>
      <path class="cls-1" d="M168.1,402.71l6.65-8.42,2.81,2.22-6.3,7.98c-1.15,1.45-.93,2.3-.05,3,1.01.8,2.3.71,3.83.17l6.39-8.09,2.81,2.22-9.19,11.62-2.44-1.93.98-1.69c-1.82.45-3.52.21-5-.95-2.09-1.65-2.25-3.92-.5-6.14Z"/>
      <path class="cls-1" d="M155.46,403.87c.81-.89,2.14-.96,3.13-.05.97.89,1,2.22.19,3.1-.83.91-2.16.98-3.13.09-.99-.91-1.03-2.24-.19-3.14ZM169.41,389.35l2.64,2.43-10.03,10.9-2.64-2.43,10.03-10.9Z"/>
      <path class="cls-1" d="M155.38,386.96l2.31-9.62,2.83,2.99-2.38,9.26-8.29,1.02-2.6-2.75,8.13-.9ZM164.11,384.13l2.46,2.6-15.07,14.26-2.75-2.33,15.36-14.53Z"/>
      <path class="cls-1" d="M144.68,377.28l-5-6.82,2.3-1.69,5,6.82-2.3,1.69Z"/>
      <path class="cls-1" d="M121.39,353.94l2.72.58c-.33,1.78-.12,3.2.65,4.6.84,1.52,2.14,2.24,3.46,1.51,1.23-.68,1.4-1.64.72-4.94-.71-3.48-.62-6.22,2.56-7.98,3.04-1.68,6.51-.5,8.75,3.55,1.49,2.7,1.65,5.23,1.05,7.39l-2.78-.64c.36-1.83.25-3.53-.72-5.3-1-1.81-2.6-2.62-4.24-1.72-1.42.79-1.67,1.85-1.01,4.94.86,4.16.29,6.49-2.28,7.92-2.82,1.56-6.02.16-7.86-3.17-1.37-2.47-1.54-4.52-1.01-6.74Z"/>
      <path class="cls-1" d="M123.31,333.66c4.3-1.84,8.23-.69,9.95,3.33,1.72,4.02.01,7.58-4.46,9.49-4.27,1.83-8.21.68-9.94-3.36-1.72-4.02,0-7.55,4.45-9.46ZM127.31,343.01c3.27-1.4,4.28-3.02,3.46-4.95s-2.72-2.31-5.97-.92c-3.24,1.39-4.26,3.01-3.44,4.91.83,1.93,2.73,2.33,5.95.96Z"/>
      <path class="cls-1" d="M114.67,322.78l11.19,3.89-2.27-6.95,2.77-.52,3.43,10.51-2.45.8-11.2-3.91,2.04,6.25-2.66.87-3.31-10.14,2.45-.8Z"/>
      <path class="cls-1" d="M105.23,317.74c1.17-.3,2.32.36,2.65,1.66.33,1.27-.36,2.41-1.53,2.71-1.19.31-2.35-.35-2.67-1.62-.34-1.3.36-2.43,1.55-2.74ZM124.84,313.15l.89,3.47-14.34,3.7-.89-3.47,14.34-3.7Z"/>
      <path class="cls-1" d="M119.75,297.92l2.48.32c.16,1.65-.2,2.8-1.54,3.61,1.73.77,2.65,2.22,2.97,3.98.53,2.89-.99,5.02-3.64,5.5-3.17.58-5.31-1.48-6.08-5.72l-.34-1.84-.83.15c-1.9.34-2.38,1.31-2.04,3.19.18.99.71,2.35,1.48,3.74l-2.25,1.23c-1.01-1.67-1.71-3.45-2-5.07-.71-3.91.77-5.94,3.99-6.53l6.11-1.11c1.18-.21,1.53-.68,1.67-1.44ZM118.62,302.85l-2.95.54.27,1.46c.42,2.29,1.45,3.27,3.15,2.96,1.4-.26,2.07-1.12,1.83-2.47-.22-1.21-1.02-2.03-2.3-2.48Z"/>
      <path class="cls-1" d="M118.16,295.46l-17.26,1.86-.77-3.52,17.53-1.89c.7-.08,1.01-.33.94-.95-.03-.31-.12-.58-.23-.79l2.42-1.05c.34.58.66,1.42.76,2.34.24,2.25-.98,3.74-3.4,4Z"/>
      <path class="cls-1" d="M113.95,275.23l.33,9.29c3.01-.39,3.94-1.82,3.87-3.78-.05-1.32-.51-2.39-1.45-3.65l1.99-1.56c1.23,1.41,2.1,3.18,2.18,5.41.16,4.59-2.8,7.16-7.47,7.33-4.51.16-8-2.1-8.15-6.3-.15-4.14,2.57-6.62,7.24-6.79.48-.02,1.07.02,1.46.03ZM111.58,278.79c-2.43.09-3.86,1-3.79,3.02.06,1.68,1.22,2.7,4.16,2.79l-.21-5.82h-.17Z"/>
      <path class="cls-1" d="M107.44,261.49l2.02,1.51c-.85,1.19-1.33,2.34-1.4,3.65-.08,1.43.47,2.27,1.36,2.31.98.05,1.46-.51,2.29-2.99.97-2.98,2.29-4.62,4.92-4.48,3.07.16,4.55,3.1,4.37,6.48-.13,2.54-1.11,4.48-2.41,5.79l-1.92-1.9c.93-1.1,1.59-2.44,1.67-3.95.08-1.59-.53-2.66-1.65-2.72-1.23-.06-1.65.5-2.58,3.23-1,3-2.52,4.27-4.71,4.15-2.46-.13-4.19-2.49-4-5.93.11-2.12.88-3.82,2.04-5.16Z"/>
      <path class="cls-1" d="M111.93,251.46l1.45-8.33,2.81.49-1.45,8.33-2.81-.49Z"/>
      <path class="cls-1" d="M130.99,218.84l-1.54,4.56-15.56-2.15,13.65,7.8-1.5,4.43-19.46-2.87,1.17-3.48,16.34,2.91-14.54-8.25,1.25-3.71,16.54,2.3-14.69-7.8,1.12-3.32,17.2,9.56Z"/>
      <path class="cls-1" d="M116.63,201.76c1.1.49,1.59,1.73,1.03,2.95-.54,1.2-1.79,1.65-2.89,1.16-1.12-.51-1.61-1.74-1.07-2.94.55-1.23,1.8-1.68,2.92-1.17ZM134.8,210.44l-1.47,3.27-13.5-6.09,1.47-3.27,13.5,6.09Z"/>
      <path class="cls-1" d="M127.25,192.16l2.79,2.16c-.31.35-.51.62-.76,1.09-.83,1.59-.09,3.02,1.85,4.67l7,3.66-1.66,3.18-13.12-6.87,1.44-2.75,2.74,1.05c-1.56-1.61-1.94-3.42-1.14-4.96.25-.47.52-.87.86-1.22Z"/>
      <path class="cls-1" d="M145.4,189.88c.09,1.3-.3,2.64-.99,3.76-1.54,2.47-3.76,2.92-6.46,1.27l-6.66-4.08-1.21,1.98-2.2-1.34,1.21-1.98-2.79-1.71,1.51-3.28,3.15,1.93,1.8-2.94,2.01,1.66-1.61,2.63,6.59,4.03c1.24.76,1.99.66,2.56-.27.29-.48.44-1.04.47-1.78l2.62.12Z"/>
      <path class="cls-1" d="M141.81,172.94l.89,2.36c-1.36.54-2.38,1.25-3.15,2.32-.83,1.16-.83,2.16-.1,2.69.8.57,1.5.36,3.54-1.28,2.42-1.98,4.42-2.65,6.56-1.11,2.5,1.8,2.15,5.06.18,7.82-1.49,2.07-3.35,3.18-5.15,3.57l-.59-2.63c1.37-.43,2.65-1.2,3.54-2.42.93-1.3.99-2.53.08-3.18-1-.72-1.66-.47-3.92,1.32-2.46,1.99-4.43,2.23-6.2.96-2-1.44-2.18-4.36-.17-7.15,1.24-1.73,2.8-2.75,4.5-3.24Z"/>
      <path class="cls-1" d="M151.33,161.55l.6,2.61c-1.19.27-2.03.74-2.75,1.59-1.34,1.58-1.01,3.52,1.69,5.82,2.73,2.33,4.54,2.14,5.85.61.73-.85.96-1.68,1.13-2.97l2.76.26c-.04,1.73-.57,3.3-1.81,4.75-2.78,3.26-6.76,3.36-10.36.29s-4.32-7.18-1.56-10.42c1.25-1.47,2.62-2.25,4.45-2.54Z"/>
      <path class="cls-1" d="M164.22,152.65l7.49,7.67-2.56,2.5-7.1-7.27c-1.29-1.32-2.18-1.19-2.96-.43-.9.88-1,2.19-.68,3.75l7.21,7.39-2.56,2.5-14.46-14.83,2.31-2.76,5.61,5.75c-.16-1.8.28-3.32,1.56-4.57,1.88-1.84,4.2-1.71,6.15.29Z"/>
      <path class="cls-1" d="M182.51,148.88l.9,2.33c-1.38.92-2.56,1.15-3.9.37.15,1.89-.69,3.39-2.09,4.51-2.29,1.84-4.89,1.52-6.57-.58-2.01-2.51-1.22-5.37,2.14-8.07l1.46-1.17-.53-.66c-1.21-1.51-2.29-1.47-3.77-.27-.79.63-1.72,1.74-2.59,3.08l-2.16-1.39c.98-1.68,2.22-3.14,3.5-4.18,3.1-2.49,5.59-2.15,7.64.4l3.89,4.85c.75.94,1.32,1.02,2.06.78ZM177.64,150.24l-1.87-2.34-1.16.93c-1.81,1.45-2.18,2.83-1.1,4.18.89,1.11,1.97,1.29,3.04.43.96-.77,1.3-1.87,1.09-3.21Z"/>
      <path class="cls-1" d="M180.24,133.08l.88,1.3,2.27-1.55,1.13,2.35-1.94,1.33,6.89,10.11-2.96,2.02-6.89-10.11-1.99,1.36-1.45-2.13,1.99-1.36-.92-1.34c-1.51-2.22-1.17-4.9,1.65-6.82.74-.5,1.44-.82,2.18-1.08l.9,2.51c-.5.17-.92.39-1.24.61-1.2.82-1.28,1.65-.49,2.81Z"/>
      <path class="cls-1" d="M200.95,138.72c-.53,1.19-1.5,2.19-2.63,2.86-2.52,1.46-4.69.83-6.3-1.89l-3.99-6.72-2,1.19-1.32-2.22,2-1.19-1.67-2.82,2.87-2.19,1.89,3.18,2.96-1.76,1,2.4-2.65,1.57,3.95,6.65c.74,1.25,1.45,1.51,2.39.96.48-.29.88-.72,1.25-1.36l2.26,1.33Z"/>
      <path class="cls-1" d="M204.04,126.5l7.71-3.47,1.17,2.6-7.71,3.47-1.17-2.6Z"/>
    </g>
  </g>
  <g id="_äußerer_Kreis" data-name="äußerer Kreis">
    <path class="cls-2" d="M275.97,68c55.55,0,107.78,21.63,147.06,60.91,39.28,39.28,60.91,91.51,60.91,147.06s-21.63,107.78-60.91,147.06c-39.28,39.28-91.51,60.91-147.06,60.91s-107.78-21.63-147.06-60.91c-39.28-39.28-60.91-91.51-60.91-147.06s21.63-107.78,60.91-147.06c39.28-39.28,91.51-60.91,147.06-60.91M275.97,0C123.56,0,0,123.56,0,275.97s123.56,275.97,275.97,275.97,275.97-123.56,275.97-275.97S428.38,0,275.97,0h0Z"/>
    <g>
      <path class="cls-1" d="M208.94,41.78c-.74.55-1.74.95-3.04,1.36,1.51.19,2.43.83,2.86,2.19.66,2.13-.51,4.19-3.25,5.05-.47.15-.9.24-1.35.24-.21.27-.31.62-.2.95.12.39.47.69,1.56.35l1.67-.52c2.42-.75,4.39.06,4.95,1.85.68,2.19-.79,4.08-4.36,5.19-3.88,1.21-5.36.31-6.04-1.88l2.37-.74c.34,1.09.96,1.42,3.13.75,2.13-.66,2.57-1.43,2.29-2.3-.25-.81-1.05-1.1-2.26-.72l-1.65.52c-2.19.68-3.42,0-3.77-1.13-.24-.76,0-1.68.65-2.42-1.56-.28-2.44-1.07-2.88-2.48-.74-2.37.66-4.51,3.3-5.33,2.6-.74,3.62-1.69,4.72-2.81l1.32,1.9ZM202.25,47.15c.41,1.32,1.39,1.92,2.61,1.54,1.26-.39,1.7-1.39,1.26-2.77-.43-1.38-1.3-1.86-2.63-1.45-1.2.37-1.64,1.42-1.25,2.68Z"/>
      <path class="cls-1" d="M221.31,44.74l-6.95,1.79c.79,2.21,2.03,2.67,3.49,2.29.98-.25,1.72-.78,2.51-1.7l1.5,1.24c-.86,1.16-2.04,2.11-3.72,2.55-3.43.89-5.86-.92-6.77-4.42-.87-3.37.25-6.38,3.39-7.19,3.1-.8,5.42.83,6.32,4.33.09.36.16.81.22,1.1ZM218.23,43.55c-.47-1.82-1.4-2.74-2.91-2.35-1.26.32-1.84,1.37-1.42,3.6l4.35-1.12-.03-.13Z"/>
      <path class="cls-1" d="M230.25,37.2l-.73,1.81c-1.05-.4-2.01-.53-3-.32-1.08.22-1.6.8-1.46,1.47.15.74.67.99,2.68,1.12,2.41.14,3.9.8,4.31,2.79.48,2.33-1.42,4.01-3.98,4.54-1.93.4-3.56.06-4.8-.66l1.04-1.81c1,.48,2.13.7,3.28.47,1.21-.25,1.88-.92,1.71-1.77-.19-.93-.7-1.14-2.92-1.29-2.44-.15-3.68-1.04-4.03-2.69-.39-1.86,1.04-3.62,3.64-4.16,1.61-.33,3.03-.1,4.26.5Z"/>
      <path class="cls-1" d="M243.18,40.66l-7.09,1.13c.58,2.27,1.77,2.85,3.26,2.61,1-.16,1.78-.61,2.66-1.45l1.38,1.38c-.97,1.07-2.23,1.91-3.94,2.19-3.5.56-5.75-1.47-6.32-5.03-.55-3.44.85-6.33,4.05-6.84,3.16-.51,5.32,1.34,5.89,4.9.06.36.09.82.11,1.12ZM240.23,39.19c-.3-1.86-1.14-2.86-2.67-2.62-1.28.21-1.96,1.19-1.75,3.45l4.44-.71-.02-.13Z"/>
      <path class="cls-1" d="M245.85,42.63l-1.6-13.31,2.71-.63,1.62,13.53c.06.54.27.77.74.72.24-.03.45-.1.61-.18l.83,1.86c-.45.27-1.09.52-1.8.61-1.74.21-2.9-.72-3.12-2.59Z"/>
      <path class="cls-1" d="M252.2,41.9l-1.24-13.35,2.73-.56,1.26,13.56c.05.54.25.78.72.74.24-.02.45-.08.61-.17l.78,1.88c-.45.26-1.1.49-1.82.56-1.74.16-2.88-.8-3.05-2.67Z"/>
      <path class="cls-1" d="M265.94,33.1l-.99,1.68c-.98-.55-1.91-.82-2.93-.76-1.1.06-1.7.55-1.66,1.24.04.76.52,1.08,2.49,1.5,2.37.49,3.74,1.36,3.86,3.39.14,2.38-1.99,3.75-4.6,3.91-1.96.11-3.54-.47-4.65-1.36l1.29-1.63c.92.62,2.01,1.01,3.17.94,1.23-.07,2-.64,1.95-1.5-.05-.95-.53-1.23-2.7-1.71-2.39-.51-3.49-1.57-3.59-3.26-.11-1.9,1.56-3.43,4.21-3.58,1.64-.1,3.01.35,4.14,1.12Z"/>
      <path class="cls-1" d="M277.12,32.86l-1.2,1.69c-.77-.55-1.46-.8-2.33-.78-1.6.03-2.55,1.21-2.51,3.96.04,2.77,1.08,3.72,2.63,3.7.86-.01,1.47-.31,2.3-.86l1.26,1.73c-1.02.86-2.21,1.35-3.68,1.38-3.31.05-5.4-2.2-5.46-5.86-.06-3.65,1.95-6.17,5.24-6.23,1.49-.02,2.64.37,3.74,1.28Z"/>
      <path class="cls-1" d="M288.7,35.34l-.27,8.28-2.77-.09.25-7.84c.05-1.43-.5-1.85-1.34-1.88-.97-.03-1.75.61-2.45,1.63l-.26,7.97-2.77-.09.52-15.99,2.78-.19-.2,6.2c.92-1.05,2-1.62,3.38-1.58,2.03.07,3.2,1.42,3.13,3.58Z"/>
      <path class="cls-1" d="M300.73,43.02l-.73,1.78c-1.26-.21-2.04-.71-2.38-1.87-.92,1.14-2.19,1.53-3.57,1.42-2.26-.19-3.54-1.75-3.37-3.82.21-2.48,2.17-3.66,5.49-3.38l1.44.12.05-.65c.12-1.49-.5-2.04-1.97-2.16-.78-.06-1.89.06-3.09.35l-.47-1.93c1.45-.42,2.91-.58,4.18-.48,3.06.26,4.28,1.77,4.07,4.29l-.4,4.78c-.08.93.2,1.27.74,1.54ZM297.28,41.19l.19-2.31-1.14-.1c-1.79-.15-2.73.42-2.84,1.76-.09,1.1.42,1.77,1.47,1.86.95.08,1.72-.35,2.31-1.22Z"/>
      <path class="cls-1" d="M307.57,32.71l-.15,1.2,2.1.26-.55,1.94-1.8-.22-1.17,9.38-2.75-.34,1.17-9.38-1.84-.23.25-1.97,1.85.23.15-1.24c.26-2.06,1.82-3.43,4.44-3.11.69.08,1.25.26,1.81.49l-.76,1.91c-.37-.16-.73-.24-1.03-.28-1.12-.14-1.58.3-1.72,1.38Z"/>
      <path class="cls-1" d="M316.81,46.32c-.9.45-1.97.56-2.97.41-2.22-.37-3.19-1.82-2.81-4.23l.94-5.96-1.77-.28.31-1.96,1.77.28.39-2.5,2.78.11-.45,2.82,2.63.41-.59,1.92-2.35-.37-.93,5.89c-.18,1.11.12,1.62.95,1.75.43.07.87,0,1.41-.19l.68,1.9Z"/>
      <path class="cls-1" d="M318.4,44.53l2.5-13.17,2.78.22-2.54,13.38c-.1.53.02.82.49.91.23.04.45.04.64.01l.23,2.02c-.51.12-1.2.17-1.9.04-1.72-.33-2.54-1.56-2.19-3.41Z"/>
      <path class="cls-1" d="M326.95,48.94l-2.71-.59,2.43-11.18,2.71.59-2.43,11.18ZM330.59,33.82c-.2.91-1.05,1.48-2.07,1.25-.99-.22-1.54-1.09-1.34-1.99.2-.93,1.06-1.5,2.05-1.28,1.01.22,1.56,1.09,1.35,2.02Z"/>
      <path class="cls-1" d="M340.67,41.58l-1.6,1.31c-.59-.73-1.2-1.15-2.04-1.37-1.55-.39-2.78.5-3.46,3.16-.68,2.68.06,3.87,1.57,4.26.84.21,1.49.09,2.44-.23l.76,2c-1.21.56-2.48.73-3.91.37-3.21-.81-4.63-3.54-3.73-7.08.9-3.54,3.5-5.44,6.69-4.63,1.45.37,2.46,1.05,3.27,2.21Z"/>
      <path class="cls-1" d="M351.18,46.98l-2.43,7.92-2.65-.81,2.3-7.51c.42-1.36,0-1.92-.81-2.17-.93-.28-1.85.13-2.79.93l-2.34,7.63-2.65-.81,4.69-15.3,2.73.54-1.82,5.93c1.16-.77,2.35-1.04,3.68-.64,1.94.6,2.71,2.21,2.08,4.28Z"/>
      <path class="cls-1" d="M361.98,54.48l-6.74-2.46c-.6,2.27.16,3.35,1.58,3.87.96.35,1.86.33,3.03.02l.54,1.87c-1.37.47-2.88.58-4.51,0-3.33-1.21-4.31-4.08-3.08-7.47,1.19-3.27,3.82-5.12,6.87-4.01,3.01,1.1,3.99,3.76,2.76,7.15-.12.35-.32.76-.45,1.03ZM360.13,51.75c.64-1.77.4-3.05-1.06-3.59-1.22-.44-2.29.09-3.21,2.17l4.22,1.54.04-.12Z"/>
      <path class="cls-1" d="M373.63,53.32l-1.62,1.08c-.64-.93-1.36-1.58-2.29-1.97-1.02-.43-1.77-.25-2.04.39-.29.7,0,1.19,1.58,2.44,1.91,1.48,2.76,2.87,1.98,4.74-.92,2.19-3.44,2.5-5.85,1.49-1.81-.76-2.97-1.97-3.58-3.26l1.88-.9c.56.96,1.36,1.79,2.44,2.24,1.14.48,2.08.31,2.41-.49.37-.88.07-1.33-1.67-2.72-1.92-1.51-2.45-2.95-1.8-4.5.73-1.76,2.9-2.4,5.35-1.37,1.52.63,2.55,1.63,3.22,2.83Z"/>
      <path class="cls-1" d="M389.94,58.48l-4.93-2.47-1.87,3.73,4.29,2.15-.95,1.89-4.29-2.15-1.97,3.92,5.27,2.65-.96,1.91-7.82-3.93,6.71-13.35,7.75,3.89-1.22,1.76Z"/>
      <path class="cls-1" d="M398.67,68.54l-4.08,7.21-2.41-1.36,3.87-6.83c.7-1.24.43-1.87-.32-2.29-.87-.49-1.83-.27-2.94.32l-3.92,6.92-2.41-1.36,5.63-9.95,2.09,1.18-.55,1.4c1.34-.56,2.66-.58,3.92.13,1.79,1.01,2.18,2.73,1.11,4.63Z"/>
      <path class="cls-1" d="M411.33,73.48c-.89-.21-1.85-.72-3-1.45.83,1.27.94,2.39.17,3.6-1.2,1.88-3.52,2.32-5.95.78-.42-.27-.76-.54-1.06-.88-.34.01-.67.16-.85.46-.22.35-.23.8.74,1.42l1.48.94c2.14,1.36,2.79,3.39,1.78,4.98-1.23,1.93-3.62,2.03-6.78.02-3.43-2.18-3.7-3.89-2.47-5.82l2.1,1.33c-.61.97-.46,1.65,1.45,2.87,1.88,1.19,2.75,1.03,3.24.26.45-.71.17-1.51-.91-2.19l-1.46-.93c-1.93-1.23-2.21-2.61-1.57-3.61.43-.68,1.28-1.08,2.27-1.07-.79-1.37-.76-2.56.03-3.8,1.33-2.1,3.86-2.41,6.2-.93,2.25,1.5,3.63,1.67,5.19,1.79l-.6,2.23ZM402.91,71.85c-.74,1.17-.57,2.3.51,2.99,1.11.71,2.16.4,2.93-.83.78-1.22.58-2.2-.59-2.94-1.06-.67-2.14-.34-2.85.78Z"/>
      <path class="cls-1" d="M415.07,87.48l-1.54,1.16c-.98-.82-1.4-1.65-1.1-2.82-1.37.51-2.66.21-3.79-.59-1.85-1.31-2.17-3.3-.97-5,1.44-2.03,3.73-2.05,6.45-.13l1.18.84.38-.53c.86-1.22.6-2.01-.6-2.86-.64-.45-1.66-.91-2.84-1.27l.57-1.9c1.46.37,2.8.98,3.85,1.71,2.51,1.77,2.79,3.69,1.33,5.76l-2.77,3.92c-.54.76-.48,1.2-.14,1.7ZM413.02,84.16l1.34-1.89-.94-.66c-1.47-1.04-2.56-1.02-3.34.08-.64.9-.54,1.74.33,2.35.78.55,1.67.57,2.61.13Z"/>
      <path class="cls-1" d="M430.48,87.72c-.87-.29-1.77-.89-2.85-1.73.7,1.35.7,2.47-.18,3.59-1.37,1.75-3.73,1.97-6,.19-.39-.31-.71-.61-.97-.98-.34-.02-.68.1-.89.37-.25.32-.31.78.6,1.48l1.38,1.08c1.99,1.56,2.45,3.64,1.29,5.12-1.41,1.81-3.8,1.67-6.75-.64-3.2-2.5-3.3-4.23-1.89-6.04l1.96,1.53c-.71.9-.62,1.6,1.17,3,1.75,1.37,2.64,1.29,3.2.58.52-.66.31-1.49-.69-2.27l-1.36-1.07c-1.8-1.41-1.95-2.81-1.21-3.75.49-.63,1.38-.95,2.36-.84-.65-1.44-.5-2.62.4-3.78,1.53-1.96,4.08-2.02,6.26-.32,2.09,1.72,3.45,2.01,4.99,2.29l-.81,2.16ZM422.26,85.27c-.85,1.09-.79,2.24.21,3.02,1.04.81,2.11.6,3-.54.89-1.14.79-2.13-.3-2.98-.99-.77-2.1-.54-2.91.49Z"/>
      <path class="cls-1" d="M435.08,99.57l-5.43-4.7c-1.36,1.91-1.04,3.19.1,4.18.77.67,1.62.97,2.82,1.1l-.17,1.94c-1.44-.05-2.9-.48-4.21-1.61-2.68-2.32-2.58-5.35-.22-8.08,2.28-2.63,5.39-3.43,7.85-1.31,2.42,2.09,2.4,4.93.03,7.66-.24.28-.57.59-.78.81ZM434.31,96.36c1.23-1.42,1.46-2.71.28-3.73-.98-.85-2.17-.73-3.77.89l3.4,2.94.08-.1Z"/>
      <path class="cls-1" d="M450.23,109.45l-5.8,5.91-1.97-1.94,5.5-5.6c1-1.02.89-1.71.39-2.19-.68-.67-1.56-.6-2.75-.28l-5.58,5.68-1.97-1.94,5.5-5.6c1-1.02.87-1.72.39-2.19-.69-.68-1.58-.61-2.77-.3l-5.58,5.68-1.97-1.94,8.02-8.16,1.71,1.68-.89,1.22c1.39-.24,2.6,0,3.63,1.02.96.94,1.17,2.15.63,3.31,1.45-.24,2.72-.02,3.8,1.04,1.3,1.27,1.24,3.06-.28,4.6Z"/>
      <path class="cls-1" d="M456.23,121.25l-4.79-5.34c-1.59,1.72-1.44,3.03-.42,4.16.68.76,1.48,1.17,2.66,1.45l-.41,1.91c-1.43-.23-2.82-.84-3.97-2.13-2.37-2.64-1.88-5.63.81-8.04,2.59-2.32,5.78-2.72,7.95-.3,2.14,2.38,1.75,5.19-.94,7.6-.27.25-.64.52-.88.7ZM455.87,117.96c1.4-1.26,1.79-2.51.75-3.66-.87-.97-2.06-1-3.85.4l3,3.35.1-.09Z"/>
      <path class="cls-1" d="M466.42,128.33l-6.44,5.21-1.74-2.15,6.1-4.94c1.11-.9,1.09-1.58.54-2.25-.62-.77-1.61-.92-2.85-.78l-6.19,5-1.74-2.15,8.9-7.19,1.51,1.87-1.02,1.11c1.45-.03,2.69.44,3.6,1.56,1.29,1.6,1.03,3.34-.67,4.71Z"/>
      <path class="cls-1" d="M466.1,140.9c-.96-.31-1.8-.98-2.41-1.8-1.32-1.82-1-3.54.97-4.99l4.85-3.58-1.07-1.44,1.6-1.18,1.07,1.44,2.04-1.5,1.91,2.03-2.3,1.7,1.58,2.14-1.77.96-1.41-1.91-4.8,3.55c-.91.67-1.05,1.23-.55,1.91.26.35.62.62,1.14.85l-.85,1.84Z"/>
      <path class="cls-1" d="M475.78,142.03l3.57,5.47-1.85,1.2-3.57-5.47,1.85-1.2Z"/>
      <path class="cls-1" d="M483.3,170.2l-1.78-3.27,9.38-7.69-11.58,3.64-1.73-3.17,11.84-9.51,1.35,2.49-10.22,7.73,12.3-3.91,1.45,2.66-9.99,8.16,12.12-4.23,1.29,2.37-14.44,4.73Z"/>
      <path class="cls-1" d="M486.47,176.8l-1.2-2.5,10.32-4.94,1.2,2.5-10.32,4.94ZM500.64,170.4c-.84.4-1.81.08-2.26-.86-.44-.92-.08-1.88.75-2.28.86-.41,1.83-.08,2.27.83.45.94.09,1.9-.76,2.31Z"/>
      <path class="cls-1" d="M500.42,182.51l-1.92-.34c.17-1.11.11-2.08-.3-3.01-.44-1.01-1.11-1.4-1.74-1.12-.69.3-.83.86-.54,2.86.36,2.39.02,3.98-1.84,4.79-2.18.95-4.21-.56-5.26-2.96-.79-1.8-.79-3.48-.34-4.83l1.98.64c-.26,1.08-.25,2.23.22,3.3.49,1.13,1.29,1.65,2.08,1.31.87-.38.97-.92.66-3.12-.35-2.42.26-3.82,1.81-4.5,1.74-.76,3.75.27,4.82,2.71.66,1.51.72,2.94.38,4.27Z"/>
      <path class="cls-1" d="M504.2,192.16l-1.9-.42c.22-1.11.2-2.07-.17-3.02-.4-1.03-1.05-1.45-1.69-1.2-.71.27-.86.82-.67,2.83.26,2.4-.15,3.98-2.05,4.71-2.22.86-4.18-.74-5.13-3.18-.71-1.83-.64-3.51-.14-4.84l1.95.73c-.3,1.07-.35,2.22.08,3.31.45,1.15,1.22,1.71,2.02,1.39.89-.34,1-.88.8-3.09-.25-2.43.43-3.81,2-4.41,1.77-.69,3.74.43,4.7,2.91.59,1.53.59,2.97.2,4.28Z"/>
      <path class="cls-1" d="M502.89,205.49l-2.27-6.81c-2.15.94-2.52,2.21-2.04,3.65.32.96.9,1.66,1.87,2.39l-1.13,1.59c-1.22-.78-2.25-1.89-2.8-3.53-1.12-3.36.51-5.91,3.93-7.06,3.3-1.1,6.39-.2,7.41,2.88,1.01,3.04-.45,5.46-3.88,6.61-.35.12-.79.22-1.09.29ZM503.86,202.34c1.78-.6,2.64-1.59,2.14-3.06-.41-1.23-1.49-1.74-3.69-1.16l1.42,4.27.12-.04Z"/>
      <path class="cls-1" d="M509.41,216.04l-7.98,2.21-.74-2.67,7.56-2.09c1.37-.38,1.63-1.01,1.4-1.84-.27-.96-1.11-1.49-2.31-1.85l-7.67,2.12-.74-2.67,11.02-3.05.64,2.31-1.38.61c1.34.55,2.29,1.47,2.68,2.87.55,1.98-.38,3.47-2.49,4.05Z"/>
      <path class="cls-1" d="M513.97,226.35l-1.82-.7c.38-1.06.5-2.02.27-3.01-.24-1.08-.82-1.59-1.5-1.43-.74.17-.98.69-1.07,2.7-.1,2.42-.73,3.91-2.72,4.36-2.32.52-4.03-1.35-4.6-3.9-.43-1.92-.12-3.56.58-4.81l1.82,1.01c-.46,1.01-.67,2.15-.41,3.28.27,1.2.95,1.87,1.8,1.68.93-.21,1.12-.72,1.24-2.94.11-2.44.98-3.7,2.63-4.07,1.86-.42,3.63.98,4.22,3.57.36,1.6.15,3.02-.43,4.26Z"/>
      <path class="cls-1" d="M506,237.35c-.72-.7-1.19-1.67-1.37-2.67-.39-2.21.65-3.62,3.05-4.06l5.93-1.1-.33-1.76,1.96-.36.33,1.76,2.49-.46.82,2.66-2.81.52.48,2.61-2.01.09-.43-2.34-5.87,1.09c-1.11.2-1.48.65-1.33,1.48.08.43.29.83.65,1.26l-1.57,1.28Z"/>
      <path class="cls-1" d="M518.13,243.84l-2.72-.07c.04-.35.04-.62-.02-1.02-.2-1.37-1.31-1.92-3.28-2.07l-6.03.9-.41-2.74,11.31-1.69.35,2.37-2.19.59c1.7.29,2.76,1.25,2.96,2.57.06.41.07.78.02,1.16Z"/>
      <path class="cls-1" d="M509.34,255.66l-1.89-.38c-.03-1.28.31-2.14,1.39-2.69-1.29-.69-1.92-1.86-2.07-3.24-.24-2.26,1.05-3.81,3.11-4.03,2.47-.27,4,1.44,4.36,4.75l.15,1.44.64-.07c1.48-.16,1.91-.88,1.75-2.34-.08-.77-.42-1.85-.93-2.97l1.8-.82c.69,1.34,1.12,2.75,1.26,4.02.33,3.05-.93,4.54-3.44,4.81l-4.77.51c-.92.1-1.21.43-1.37,1.02ZM510.48,251.93l2.3-.25-.12-1.14c-.19-1.78-.93-2.6-2.26-2.45-1.1.12-1.66.74-1.55,1.8.1.95.67,1.62,1.63,2.04Z"/>
      <path class="cls-1" d="M516.77,266.96l-8.27.47-.16-2.76,7.84-.44c1.43-.08,1.8-.64,1.76-1.51-.06-.99-.77-1.69-1.86-2.3l-7.95.45-.16-2.76,11.42-.65.13,2.4-1.48.3c1.19.82,1.93,1.93,2.01,3.37.12,2.05-1.11,3.31-3.29,3.44Z"/>
      <path class="cls-1" d="M519.06,277.93l-1.64-1.05c.59-.96.9-1.87.88-2.89-.02-1.1-.48-1.72-1.17-1.71-.76.01-1.09.47-1.6,2.43-.59,2.34-1.52,3.68-3.55,3.71-2.38.04-3.67-2.15-3.71-4.76-.03-1.97.61-3.51,1.55-4.59l1.58,1.36c-.66.9-1.09,1.96-1.07,3.13.02,1.23.55,2.02,1.42,2.01.95-.02,1.25-.47,1.82-2.62.61-2.37,1.72-3.42,3.4-3.45,1.9-.03,3.36,1.7,3.4,4.36.03,1.64-.47,2.99-1.3,4.09Z"/>
      <path class="cls-1" d="M521.12,283.96l-1.21-.03-.08,2.74-1.98-.36.07-2.44-9.44-.27.08-2.77,9.44.27.05-1.86,1.99.06-.05,1.86,1.25.04c2.07.06,3.59,1.49,3.52,4.12-.03,1.14-.32,2.07-.75,2.94l-1.84-.85c.34-.68.47-1.33.49-1.87.03-1.12-.45-1.55-1.53-1.58Z"/>
      <path class="cls-1" d="M512.57,297.3l.49-7.16c-2.34.06-3.17,1.08-3.28,2.6-.07,1.01.2,1.88.82,2.92l-1.65,1.04c-.83-1.18-1.36-2.61-1.25-4.33.24-3.54,2.72-5.28,6.32-5.03,3.47.24,5.98,2.25,5.76,5.48-.22,3.19-2.5,4.88-6.1,4.64-.37-.02-.82-.1-1.12-.14ZM514.67,294.75c1.88.13,3.04-.46,3.15-2.02.09-1.29-.72-2.17-2.97-2.48l-.3,4.49h.13Z"/>
      <path class="cls-1" d="M518.23,307.33l-2.61-.77c.12-.33.2-.59.24-1,.15-1.38-.78-2.2-2.64-2.84l-6.06-.67.3-2.75,11.37,1.26-.26,2.38h-2.26c1.57.73,2.35,1.92,2.21,3.26-.04.41-.13.77-.28,1.12Z"/>
      <path class="cls-1" d="M513.55,313.68l-1.1,6.44-2.17-.37,1.1-6.44,2.17.37Z"/>
      <path class="cls-1" d="M511.33,338.77c-.09-.91.08-1.98.39-3.31-.93,1.2-1.96,1.67-3.34,1.33-2.17-.52-3.34-2.58-2.67-5.38.12-.48.26-.89.49-1.28-.12-.32-.37-.58-.71-.66-.4-.1-.83.04-1.1,1.16l-.41,1.7c-.59,2.46-2.3,3.74-4.13,3.3-2.23-.54-3.09-2.77-2.22-6.4.95-3.95,2.48-4.76,4.71-4.23l-.58,2.42c-1.11-.27-1.71.1-2.24,2.31-.52,2.17-.08,2.94.8,3.15.82.2,1.48-.33,1.78-1.57l.4-1.68c.54-2.23,1.75-2.94,2.91-2.66.78.19,1.44.86,1.75,1.8,1.04-1.19,2.17-1.55,3.6-1.2,2.42.58,3.54,2.87,2.89,5.56-.69,2.61-.4,3.97,0,5.49l-2.31.16ZM510.15,330.28c-1.35-.32-2.36.21-2.66,1.45-.31,1.28.32,2.17,1.73,2.51,1.41.34,2.26-.17,2.59-1.51.29-1.22-.38-2.14-1.66-2.45Z"/>
      <path class="cls-1" d="M502.44,347.87l2.02-6.88c-2.3-.45-3.33.37-3.76,1.83-.29.97-.21,1.88.17,3.02l-1.84.65c-.55-1.33-.77-2.84-.28-4.5,1-3.4,3.79-4.56,7.26-3.55,3.34.98,5.35,3.49,4.44,6.6-.9,3.07-3.49,4.22-6.96,3.21-.35-.1-.78-.27-1.06-.38ZM505.04,345.84c1.8.53,3.07.2,3.51-1.29.37-1.24-.23-2.28-2.37-3.06l-1.27,4.31.12.04Z"/>
      <path class="cls-1" d="M504.33,359.42l-1.18-1.55c.88-.7,1.49-1.45,1.82-2.41.36-1.04.14-1.78-.52-2.01-.71-.25-1.19.07-2.34,1.73-1.36,2-2.69,2.94-4.61,2.27-2.25-.78-2.71-3.27-1.86-5.74.64-1.86,1.78-3.09,3.02-3.78l1.02,1.82c-.92.62-1.7,1.47-2.08,2.57-.4,1.17-.17,2.09.64,2.37.9.31,1.33-.02,2.61-1.84,1.38-2.02,2.78-2.63,4.38-2.08,1.8.62,2.57,2.74,1.71,5.26-.54,1.55-1.46,2.65-2.62,3.4Z"/>
      <path class="cls-1" d="M494.73,368.71l2.67-6.67c-2.25-.67-3.35.06-3.92,1.46-.38.94-.39,1.85-.12,3.03l-1.89.48c-.43-1.38-.49-2.9.15-4.5,1.32-3.29,4.21-4.19,7.56-2.85,3.23,1.29,5,3.98,3.8,6.99-1.19,2.97-3.88,3.88-7.23,2.54-.34-.14-.75-.34-1.02-.48ZM497.51,366.94c1.75.7,3.04.49,3.62-.95.48-1.21-.02-2.29-2.07-3.27l-1.67,4.18.12.05Z"/>
      <path class="cls-1" d="M491.66,370.03l12.24,5.46-.85,2.65-12.44-5.55c-.49-.22-.8-.17-.99.27-.1.22-.15.43-.16.62l-2.02-.24c0-.52.11-1.21.4-1.86.71-1.6,2.1-2.12,3.82-1.35Z"/>
      <path class="cls-1" d="M489.03,375.85l12.09,5.79-.92,2.63-12.29-5.88c-.49-.23-.8-.19-1,.24-.1.21-.16.43-.17.61l-2.02-.29c.01-.52.14-1.2.45-1.85.76-1.58,2.16-2.06,3.86-1.25Z"/>
      <path class="cls-1" d="M489.53,392.15l-.94-1.71c.98-.56,1.69-1.22,2.16-2.12.51-.98.4-1.74-.21-2.06-.67-.35-1.19-.11-2.57,1.37-1.64,1.78-3.09,2.51-4.89,1.57-2.11-1.1-2.2-3.64-.99-5.96.91-1.74,2.22-2.79,3.55-3.29l.74,1.95c-1,.48-1.9,1.21-2.44,2.24-.57,1.09-.48,2.04.29,2.44.84.44,1.32.18,2.85-1.44,1.67-1.79,3.14-2.19,4.64-1.41,1.69.88,2.14,3.09.91,5.45-.76,1.46-1.84,2.4-3.09,2.97Z"/>
      <path class="cls-1" d="M483.96,401.89l-.82-1.9c.87-.37,1.44-.84,1.87-1.59.8-1.38.28-2.81-2.1-4.19-2.39-1.39-3.75-1-4.53.35-.43.75-.49,1.41-.45,2.41l-2.13.19c-.21-1.32-.02-2.59.71-3.86,1.66-2.86,4.67-3.49,7.83-1.66,3.16,1.83,4.28,4.86,2.63,7.7-.75,1.29-1.68,2.08-3.03,2.54Z"/>
      <path class="cls-1" d="M475.88,410.52l-6.95-4.49,1.5-2.32,6.59,4.26c1.2.77,1.85.53,2.31-.18.53-.82.38-1.82-.13-2.94l-6.7-4.33,1.5-2.32,13.44,8.68-1.27,2.48-5.21-3.37c.43,1.33.36,2.55-.39,3.71-1.1,1.71-2.87,2.01-4.68.83Z"/>
      <path class="cls-1" d="M463.1,416.88l-1.15-1.55c.83-.97,1.67-1.38,2.83-1.08-.5-1.38-.18-2.67.63-3.79,1.33-1.84,3.33-2.13,5.01-.92,2.02,1.45,2.01,3.75.07,6.45l-.85,1.17.53.38c1.21.87,2,.62,2.87-.57.46-.63.93-1.65,1.29-2.83l1.89.59c-.38,1.46-1,2.79-1.75,3.83-1.8,2.49-3.72,2.75-5.77,1.27l-3.89-2.81c-.75-.54-1.19-.49-1.7-.16ZM466.44,414.87l1.88,1.35.67-.93c1.05-1.46,1.04-2.55-.04-3.34-.89-.65-1.73-.56-2.35.3-.56.77-.58,1.66-.15,2.61Z"/>
      <path class="cls-1" d="M468.42,428.06l-.95-.75-1.31,1.67-1.38-1.47,1.12-1.43-7.44-5.83,1.71-2.18,7.44,5.83,1.15-1.46,1.57,1.23-1.15,1.46.99.77c1.63,1.28,2,3.33.38,5.41-.43.54-.87.94-1.35,1.3l-1.25-1.64c.33-.24.59-.5.77-.74.69-.88.56-1.52-.29-2.18Z"/>
      <path class="cls-1" d="M451.99,428.95c.08-1,.53-1.98,1.19-2.76,1.46-1.71,3.2-1.8,5.07-.23l4.62,3.88,1.15-1.37,1.52,1.28-1.15,1.37,1.94,1.63-1.53,2.33-2.18-1.83-1.71,2.04-1.34-1.49,1.53-1.82-4.57-3.84c-.86-.72-1.45-.73-1.99-.09-.28.33-.46.75-.56,1.31l-1.98-.39Z"/>
      <path class="cls-1" d="M452.71,431.24l10,8.92-1.62,2.27-10.16-9.07c-.4-.36-.71-.4-1.03-.05-.16.18-.27.37-.34.54l-1.85-.84c.16-.5.47-1.11.95-1.65,1.17-1.31,2.65-1.38,4.05-.12Z"/>
      <path class="cls-1" d="M444.52,436.31l1.9-2.02,8.33,7.84-1.9,2.02-8.33-7.84ZM455.61,447.21c-.68-.64-.72-1.66-.01-2.42.7-.74,1.72-.76,2.4-.12.69.65.74,1.67.04,2.42-.71.76-1.74.77-2.43.12Z"/>
      <path class="cls-1" d="M443.78,451.86l-.3-2.05c.93-.13,1.61-.44,2.22-1.05,1.14-1.13,1-2.64-.93-4.59-1.95-1.96-3.36-1.94-4.46-.84-.61.61-.85,1.24-1.06,2.21l-2.11-.38c.14-1.33.65-2.5,1.7-3.54,2.35-2.33,5.42-2.15,7.99.44,2.57,2.59,2.87,5.81.53,8.12-1.06,1.05-2.16,1.57-3.58,1.67Z"/>
      <path class="cls-1" d="M433.74,458.1l-5.55-6.15,2.05-1.85,5.26,5.83c.96,1.06,1.65.99,2.27.42.72-.65.83-1.66.64-2.88l-5.34-5.92,2.05-1.85,10.72,11.88-1.87,2.06-4.16-4.61c.07,1.4-.32,2.56-1.34,3.48-1.51,1.36-3.29,1.19-4.74-.41Z"/>
      <path class="cls-1" d="M421.78,463.52l5.57-4.53c-1.64-1.67-2.96-1.58-4.13-.62-.79.64-1.24,1.42-1.57,2.59l-1.88-.5c.3-1.41.98-2.77,2.32-3.86,2.75-2.24,5.71-1.61,7.99,1.19,2.2,2.7,2.44,5.91-.08,7.95-2.48,2.02-5.27,1.5-7.55-1.3-.23-.29-.49-.67-.66-.91ZM425.07,463.32c1.19,1.46,2.42,1.91,3.62.93,1.01-.82,1.1-2.01-.22-3.86l-3.49,2.84.08.1Z"/>
      <path class="cls-1" d="M416.78,474.12l-.09-1.95c1.12-.08,2.05-.36,2.87-.96.89-.66,1.12-1.39.71-1.95-.45-.61-1.02-.62-2.91.1-2.25.88-3.88.9-5.09-.73-1.41-1.91-.38-4.23,1.72-5.79,1.58-1.17,3.22-1.54,4.63-1.41l-.19,2.08c-1.11-.01-2.23.25-3.17.95-.99.73-1.33,1.62-.81,2.32.57.76,1.11.74,3.19-.05,2.28-.88,3.78-.59,4.79.77,1.13,1.53.57,3.72-1.57,5.3-1.32.98-2.71,1.36-4.08,1.32Z"/>
      <path class="cls-1" d="M403.98,485.47l4.65-2.96-2.24-3.52-4.05,2.58-1.14-1.79,4.05-2.58-2.36-3.7-4.98,3.17-1.15-1.8,7.39-4.7,8.02,12.6-7.31,4.66-.88-1.95Z"/>
      <path class="cls-1" d="M390.91,487.79l-4.1-7.19,2.4-1.37,3.88,6.82c.71,1.24,1.38,1.33,2.13.9.86-.49,1.17-1.44,1.23-2.69l-3.94-6.91,2.4-1.37,5.66,9.94-2.08,1.19-.93-1.19c-.2,1.43-.87,2.58-2.12,3.3-1.78,1.02-3.46.48-4.54-1.42Z"/>
      <path class="cls-1" d="M380.15,496.15c.64-.66,1.56-1.22,2.78-1.83-1.52.06-2.53-.42-3.17-1.69-1-1.99-.19-4.21,2.38-5.51.44-.22.85-.38,1.29-.46.16-.3.2-.66.04-.97-.18-.37-.57-.61-1.59-.09l-1.56.79c-2.26,1.14-4.34.66-5.18-1.02-1.03-2.05.11-4.15,3.45-5.83,3.63-1.83,5.24-1.18,6.27.86l-2.22,1.12c-.52-1.02-1.18-1.24-3.21-.22-1.99,1-2.29,1.83-1.89,2.64.38.75,1.21.92,2.35.34l1.54-.78c2.05-1.03,3.37-.56,3.91.5.36.71.28,1.65-.24,2.49,1.59.02,2.58.66,3.24,1.97,1.12,2.22.09,4.55-2.38,5.8-2.44,1.16-3.29,2.26-4.19,3.54l-1.61-1.66ZM385.86,489.76c-.62-1.24-1.69-1.67-2.83-1.09-1.18.59-1.45,1.65-.79,2.94.65,1.29,1.59,1.62,2.83,1,1.12-.56,1.39-1.67.79-2.84Z"/>
      <path class="cls-1" d="M366.23,492.19l-.21-1.92c1.21-.42,2.14-.36,2.99.5.26-1.44,1.18-2.39,2.45-2.96,2.08-.92,3.95-.17,4.79,1.73,1.01,2.27-.15,4.25-3.19,5.6l-1.32.59.26.59c.61,1.36,1.42,1.55,2.76.95.71-.32,1.63-.96,2.54-1.79l1.34,1.46c-1.07,1.06-2.28,1.91-3.44,2.43-2.81,1.25-4.6.51-5.63-1.81l-1.95-4.39c-.38-.85-.79-1.02-1.39-.99ZM370.13,492.14l.94,2.11,1.05-.46c1.64-.73,2.19-1.68,1.64-2.91-.45-1.01-1.22-1.35-2.18-.92-.87.39-1.34,1.14-1.45,2.18Z"/>
      <path class="cls-1" d="M358.12,505.3c.7-.59,1.68-1.06,2.95-1.55-1.52-.09-2.48-.67-3-2-.8-2.08.23-4.21,2.91-5.25.46-.18.88-.29,1.33-.33.19-.28.26-.64.14-.96-.15-.38-.51-.66-1.58-.25l-1.63.63c-2.36.91-4.38.23-5.06-1.52-.82-2.14.52-4.12,4.01-5.46,3.79-1.46,5.33-.67,6.15,1.47l-2.32.9c-.41-1.07-1.05-1.35-3.17-.54-2.08.8-2.46,1.6-2.14,2.45.3.79,1.12,1.03,2.31.57l1.61-.62c2.14-.82,3.41-.23,3.84.88.29.75.11,1.67-.49,2.46,1.58.18,2.51.91,3.04,2.28.9,2.32-.36,4.54-2.94,5.54-2.54.91-3.5,1.93-4.52,3.11l-1.44-1.81ZM364.43,499.5c-.5-1.29-1.52-1.83-2.71-1.37-1.23.47-1.6,1.5-1.08,2.85s1.42,1.77,2.71,1.27c1.17-.45,1.54-1.52,1.07-2.75Z"/>
      <path class="cls-1" d="M345.57,503.16l6.82-2.25c-.94-2.15-2.2-2.53-3.64-2.06-.96.32-1.66.89-2.39,1.86l-1.58-1.14c.78-1.21,1.9-2.24,3.54-2.79,3.37-1.11,5.91.53,7.04,3.96,1.09,3.31.17,6.39-2.91,7.41-3.04,1-5.46-.48-6.59-3.91-.12-.35-.22-.79-.29-1.09ZM348.72,504.15c.59,1.79,1.58,2.64,3.06,2.16,1.23-.41,1.74-1.49,1.17-3.69l-4.27,1.41.04.12Z"/>
      <path class="cls-1" d="M329.32,511.07l-2.08-8.01,2.68-.7,1.97,7.59c.36,1.38,1.01,1.64,1.67,1.46.92-.24,1.32-1.03,1.66-2.22l-2-7.7,2.68-.7,1.97,7.59c.36,1.38,1.03,1.63,1.68,1.46.94-.24,1.34-1.04,1.68-2.22l-2-7.7,2.68-.7,2.87,11.07-2.32.6-.58-1.39c-.51,1.32-1.34,2.22-2.74,2.59-1.3.34-2.44-.1-3.16-1.17-.54,1.37-1.38,2.35-2.84,2.73-1.76.46-3.26-.52-3.8-2.61Z"/>
      <path class="cls-1" d="M316.1,510.14l7.05-1.35c-.65-2.25-1.86-2.79-3.34-2.5-1,.19-1.76.67-2.61,1.54l-1.42-1.33c.93-1.1,2.17-1.98,3.87-2.31,3.48-.67,5.79,1.29,6.47,4.83.66,3.42-.65,6.35-3.83,6.96-3.14.6-5.35-1.17-6.03-4.72-.07-.36-.11-.81-.15-1.12ZM319.1,511.52c.35,1.85,1.22,2.82,2.75,2.53,1.27-.24,1.92-1.25,1.64-3.51l-4.42.85.02.13Z"/>
      <path class="cls-1" d="M304.8,515.21l-1.14-8.2,2.74-.38,1.08,7.77c.2,1.41.79,1.75,1.64,1.63.98-.14,1.62-.9,2.14-2.04l-1.09-7.88,2.74-.38,1.57,11.32-2.38.33-.42-1.45c-.72,1.26-1.76,2.08-3.2,2.28-2.03.28-3.39-.84-3.69-3Z"/>
      <path class="cls-1" d="M294.19,508.47c.76-.66,1.77-1.04,2.78-1.13,2.24-.19,3.55.97,3.78,3.4l.57,6.01,1.79-.17.19,1.98-1.79.17.24,2.52-2.72.58-.27-2.84-2.65.25.09-2.01,2.37-.22-.56-5.94c-.11-1.12-.52-1.54-1.35-1.46-.43.04-.85.21-1.32.54l-1.14-1.67Z"/>
      <path class="cls-1" d="M288.22,516.19l-6.52.24-.08-2.2,6.52-.24.08,2.2Z"/>
      <path class="cls-1" d="M260.18,508.15l3.72.16,1.77,12,2.83-11.81,3.61.15,2.08,15.04-2.83-.12-1.37-12.74-2.97,12.56-3.02-.13-1.87-12.76-2.6,12.58-2.7-.11,3.37-14.82Z"/>
      <path class="cls-1" d="M251.15,522.93c.08-.93.86-1.59,1.9-1.5,1.01.09,1.65.89,1.57,1.82-.09.95-.87,1.61-1.88,1.52-1.03-.09-1.68-.89-1.59-1.84ZM252.92,507.48l2.76.25-1.05,11.39-2.76-.25,1.05-11.39Z"/>
      <path class="cls-1" d="M240.84,516.52l1.28-1.47c.87.72,1.73,1.16,2.74,1.29,1.09.14,1.77-.23,1.86-.92.1-.75-.31-1.15-2.17-1.93-2.24-.92-3.43-2.03-3.17-4.04.3-2.36,2.65-3.33,5.24-3,1.95.25,3.39,1.11,4.32,2.19l-1.57,1.37c-.79-.78-1.79-1.36-2.95-1.51-1.22-.16-2.08.26-2.19,1.12-.12.94.29,1.3,2.34,2.17,2.26.94,3.14,2.19,2.93,3.86-.24,1.89-2.16,3.08-4.8,2.75-1.63-.21-2.9-.89-3.86-1.87Z"/>
      <path class="cls-1" d="M230.63,514.82l1.34-1.42c.84.76,1.68,1.23,2.68,1.4,1.09.19,1.78-.16,1.9-.84.13-.75-.26-1.16-2.09-2.02-2.2-1.01-3.34-2.17-3-4.17.4-2.34,2.78-3.21,5.36-2.77,1.94.33,3.34,1.25,4.23,2.37l-1.63,1.3c-.76-.81-1.73-1.44-2.88-1.63-1.22-.21-2.09.17-2.24,1.02-.16.94.24,1.31,2.25,2.27,2.21,1.04,3.05,2.32,2.77,3.98-.32,1.88-2.29,2.99-4.91,2.54-1.62-.28-2.85-1.01-3.78-2.03Z"/>
      <path class="cls-1" d="M219.88,506.86l7.01,1.54c.29-2.33-.6-3.3-2.08-3.62-.99-.22-1.89-.08-3.01.38l-.78-1.79c1.29-.65,2.78-.96,4.47-.59,3.46.76,4.82,3.47,4.04,7-.75,3.4-3.11,5.58-6.28,4.89-3.13-.69-4.46-3.19-3.68-6.72.08-.36.22-.79.3-1.08ZM222.09,509.31c-.4,1.84,0,3.08,1.53,3.41,1.27.28,2.26-.39,2.89-2.58l-4.39-.96-.03.13Z"/>
      <path class="cls-1" d="M207.47,507.05l2.19-7.98,2.67.73-2.08,7.57c-.38,1.38.03,1.92.87,2.14.96.26,1.84-.19,2.77-1.03l2.11-7.67,2.67.73-3.03,11.03-2.31-.63.19-1.5c-1.16.87-2.44,1.21-3.84.83-1.98-.54-2.78-2.11-2.21-4.21Z"/>
      <path class="cls-1" d="M196.27,505.67l1.53-1.21c.72.87,1.48,1.46,2.44,1.78,1.05.34,1.79.11,2-.55.24-.72-.09-1.19-1.77-2.31-2.02-1.32-2.98-2.64-2.35-4.57.74-2.26,3.23-2.77,5.71-1.95,1.87.61,3.12,1.73,3.83,2.96l-1.8,1.05c-.63-.91-1.5-1.67-2.61-2.04-1.17-.38-2.09-.14-2.36.68-.3.9.04,1.33,1.89,2.58,2.04,1.35,2.67,2.74,2.15,4.35-.59,1.81-2.7,2.62-5.23,1.79-1.56-.51-2.67-1.42-3.44-2.56Z"/>
      <path class="cls-1" d="M190.89,493.17c.97-.26,2.04-.16,3,.19,2.1.8,2.77,2.41,1.92,4.7l-2.1,5.65,1.68.62-.69,1.86-1.68-.62-.88,2.37-2.71-.66.99-2.67-2.49-.93.96-1.77,2.23.83,2.08-5.59c.39-1.05.2-1.61-.59-1.9-.41-.15-.86-.18-1.42-.09l-.29-2Z"/>
      <path class="cls-1" d="M179.11,500.26l1.46-2.3c.29.21.51.35.89.51,1.28.53,2.33-.14,3.46-1.75l2.32-5.64,2.56,1.05-4.36,10.57-2.22-.91.62-2.18c-1.13,1.31-2.49,1.73-3.73,1.22-.38-.16-.7-.34-1-.58Z"/>
      <path class="cls-1" d="M173.47,486.65l1.3-1.42c1.11.63,1.68,1.37,1.6,2.57,1.25-.76,2.58-.69,3.84-.11,2.06.95,2.73,2.85,1.86,4.74-1.04,2.26-3.29,2.7-6.31,1.3l-1.32-.61-.27.59c-.62,1.35-.22,2.09,1.11,2.7.71.33,1.8.59,3.02.73l-.22,1.97c-1.5-.1-2.94-.45-4.09-.98-2.79-1.29-3.42-3.12-2.36-5.42l2.01-4.36c.39-.84.25-1.27-.17-1.7ZM176.09,489.55l-.97,2.1,1.04.48c1.63.75,2.71.53,3.27-.68.46-1,.21-1.81-.75-2.25-.86-.4-1.74-.25-2.59.35Z"/>
      <path class="cls-1" d="M159.99,487.23l3.85-7.33,2.45,1.29-3.64,6.95c-.66,1.26-.37,1.88.39,2.28.88.46,1.84.21,2.93-.42l3.69-7.05,2.45,1.29-5.31,10.13-2.13-1.11.5-1.42c-1.32.6-2.64.67-3.93,0-1.82-.95-2.27-2.66-1.26-4.59Z"/>
      <path class="cls-1" d="M149.35,483.5l1.75-.85c.51,1,1.13,1.74,2.01,2.26.95.56,1.72.48,2.07-.11.38-.65.17-1.18-1.24-2.63-1.7-1.72-2.35-3.21-1.32-4.97,1.21-2.05,3.74-2.01,6-.69,1.7,1,2.68,2.35,3.11,3.71l-1.98.64c-.42-1.03-1.11-1.96-2.12-2.55-1.06-.62-2.02-.58-2.45.16-.48.82-.24,1.31,1.29,2.92,1.7,1.75,2.03,3.25,1.17,4.7-.96,1.64-3.2,1.98-5.49.64-1.42-.83-2.31-1.96-2.81-3.23Z"/>
      <path class="cls-1" d="M143.14,482.21l.65-1.02-2.31-1.48,1.33-1.51,2.06,1.32,5.09-7.96,2.33,1.49-5.09,7.96,1.57,1-1.07,1.68-1.57-1-.68,1.06c-1.12,1.75-3.12,2.32-5.34.9-.97-.62-1.61-1.34-2.14-2.16l1.68-1.14c.41.65.9,1.09,1.35,1.38.95.6,1.56.41,2.14-.5Z"/>
      <path class="cls-1" d="M136.13,468.02l5.89,4.1c1.16-2.04.7-3.28-.54-4.14-.83-.58-1.71-.8-2.92-.8l-.04-1.95c1.44-.1,2.93.17,4.35,1.16,2.91,2.03,3.12,5.05,1.06,8.01-1.99,2.85-5,3.97-7.66,2.11-2.62-1.83-2.9-4.65-.83-7.61.21-.3.5-.65.7-.88ZM137.23,471.13c-1.08,1.54-1.17,2.85.11,3.74,1.06.74,2.23.5,3.65-1.27l-3.69-2.57-.07.11Z"/>
      <path class="cls-1" d="M124.62,467.69l2.01-1.84c.22.28.4.47.73.72,1.1.84,2.28.47,3.79-.8l3.7-4.85,2.2,1.68-6.94,9.09-1.91-1.46,1.16-1.94c-1.43.98-2.85,1.03-3.92.22-.33-.25-.59-.51-.82-.82Z"/>
      <path class="cls-1" d="M121.57,460.4l-4.95-4.26,1.44-1.67,4.95,4.26-1.44,1.67Z"/>
      <path class="cls-1" d="M100.32,447.28l2.78,2.73,8.88-9.04,2.05,2.02-8.88,9.04,2.87,2.82-1.59,1.62-7.91-7.77,1.81-1.41Z"/>
      <path class="cls-1" d="M98.81,434.22l4.89,5.25c1.56-1.75,1.38-3.06.34-4.16-.69-.74-1.5-1.14-2.69-1.39l.37-1.91c1.43.2,2.83.79,4.01,2.05,2.42,2.59,1.99,5.59-.65,8.05-2.54,2.37-5.73,2.83-7.94.46-2.18-2.34-1.85-5.16.79-7.62.27-.25.63-.53.87-.72ZM99.23,437.5c-1.38,1.28-1.74,2.54-.68,3.68.88.95,2.08.96,3.84-.48l-3.07-3.29-.1.09Z"/>
      <path class="cls-1" d="M87.47,429.49l2.07-.14c.06.94.31,1.64.87,2.29,1.04,1.22,2.56,1.21,4.65-.57,2.11-1.79,2.19-3.2,1.19-4.38-.56-.66-1.17-.94-2.12-1.23l.54-2.07c1.31.25,2.45.84,3.4,1.96,2.14,2.52,1.72,5.57-1.06,7.94-2.79,2.36-6.01,2.41-8.14-.1-.97-1.14-1.39-2.28-1.39-3.7Z"/>
      <path class="cls-1" d="M82.03,418.99l6.56-5.05,1.69,2.19-6.22,4.79c-1.13.87-1.11,1.57-.6,2.23.59.77,1.59.96,2.82.86l6.32-4.86,1.69,2.19-12.68,9.76-1.91-2.02,4.92-3.78c-1.4-.04-2.52-.51-3.37-1.61-1.24-1.61-.93-3.38.78-4.69Z"/>
      <path class="cls-1" d="M74.74,408.57l6.82-4.7,1.57,2.28-6.46,4.45c-1.17.81-1.21,1.49-.72,2.2.56.82,1.53,1.04,2.79,1l6.55-4.51,1.57,2.28-9.42,6.49-1.36-1.98,1.11-1.02c-1.45-.08-2.65-.64-3.47-1.84-1.17-1.69-.77-3.41,1.03-4.65Z"/>
      <path class="cls-1" d="M69.82,395.83c3.08-1.89,6.21-1.45,7.98,1.42,1.76,2.88.86,5.79-2.35,7.76-3.06,1.88-6.19,1.44-7.97-1.45-1.76-2.88-.85-5.77,2.34-7.73ZM73.92,402.52c2.34-1.44,2.93-2.79,2.08-4.17s-2.34-1.46-4.66-.03c-2.32,1.42-2.91,2.78-2.08,4.14.85,1.38,2.35,1.48,4.65.06Z"/>
      <path class="cls-1" d="M71.34,392.11l-11.7,6.54-1.61-2.27,11.89-6.64c.47-.26.61-.54.38-.96-.12-.21-.26-.38-.4-.5l1.4-1.48c.42.31.9.81,1.25,1.43.85,1.53.44,2.95-1.21,3.87Z"/>
      <path class="cls-1" d="M60.88,378.97c3.22-1.64,6.31-.95,7.84,2.06,1.53,3.01.4,5.84-2.96,7.54-3.2,1.63-6.29.94-7.83-2.08-1.53-3.01-.39-5.82,2.95-7.51ZM64.44,385.96c2.45-1.24,3.14-2.54,2.41-3.99-.73-1.45-2.22-1.64-4.64-.4s-3.12,2.53-2.4,3.96c.73,1.45,2.23,1.66,4.63.43Z"/>
      <path class="cls-1" d="M51.03,369.47c.63.67,1.15,1.62,1.7,2.87.01-1.52.54-2.51,1.84-3.09,2.04-.91,4.22.02,5.39,2.64.2.46.34.87.4,1.32.29.18.65.23.96.09.38-.17.63-.54.17-1.59l-.71-1.6c-1.03-2.31-.45-4.37,1.27-5.13,2.09-.93,4.14.31,5.66,3.73,1.65,3.71.93,5.29-1.16,6.22l-1.01-2.27c1.05-.47,1.3-1.12.38-3.2-.91-2.04-1.72-2.38-2.55-2.01-.77.34-.97,1.17-.45,2.33l.7,1.58c.93,2.09.4,3.4-.69,3.88-.73.33-1.66.2-2.48-.36-.1,1.58-.78,2.55-2.13,3.15-2.27,1.01-4.55-.13-5.68-2.66-1.04-2.5-2.1-3.4-3.34-4.36l1.73-1.53ZM57.14,375.49c1.26-.56,1.75-1.61,1.23-2.77-.54-1.21-1.58-1.52-2.9-.93-1.32.59-1.69,1.51-1.13,2.78.51,1.15,1.6,1.47,2.8.93Z"/>
      <path class="cls-1" d="M44.85,366.58c.86-.35,1.81.04,2.2,1.01.38.94-.04,1.88-.9,2.22-.88.35-1.83-.04-2.21-.98-.39-.96.03-1.9.91-2.25ZM59.41,361.12l1.03,2.57-10.61,4.25-1.03-2.57,10.61-4.25Z"/>
      <path class="cls-1" d="M50.53,351.04l2.41,6.76c2.13-.99,2.48-2.26,1.97-3.68-.34-.96-.93-1.64-1.92-2.35l1.1-1.61c1.23.75,2.29,1.85,2.87,3.47,1.19,3.34-.39,5.92-3.79,7.13-3.28,1.17-6.38.33-7.47-2.73-1.08-3.01.34-5.47,3.74-6.68.35-.12.79-.24,1.08-.32ZM49.62,354.21c-1.77.63-2.6,1.64-2.08,3.11.44,1.22,1.53,1.7,3.71,1.08l-1.51-4.23-.12.04Z"/>
      <path class="cls-1" d="M51.96,341.03c.8.61,1.38,1.52,1.68,2.49.64,2.16-.22,3.67-2.56,4.39l-5.76,1.78.53,1.71-1.9.59-.53-1.71-2.42.75-1.13-2.55,2.73-.84-.79-2.54,1.98-.32.7,2.27,5.7-1.76c1.07-.33,1.4-.82,1.15-1.62-.13-.41-.38-.79-.8-1.18l1.41-1.45Z"/>
      <path class="cls-1" d="M39.14,336l2.71-.24c0,.36.03.62.14,1.01.36,1.34,1.53,1.76,3.5,1.67l5.89-1.6.72,2.67-11.04,2.99-.63-2.32,2.1-.84c-1.73-.09-2.89-.92-3.24-2.21-.11-.4-.16-.76-.15-1.15Z"/>
      <path class="cls-1" d="M46.5,323.22l1.92.16c.18,1.27-.06,2.17-1.06,2.84,1.36.53,2.12,1.62,2.43,2.97.5,2.21-.6,3.91-2.62,4.37-2.42.55-4.14-.97-4.88-4.21l-.32-1.41-.63.14c-1.46.33-1.79,1.09-1.47,2.53.17.76.63,1.79,1.27,2.84l-1.7,1.03c-.84-1.25-1.43-2.6-1.72-3.85-.68-2.99.39-4.61,2.86-5.17l4.68-1.06c.91-.21,1.16-.57,1.24-1.17ZM45.8,327.06l-2.26.51.25,1.12c.4,1.75,1.23,2.47,2.53,2.17,1.08-.24,1.56-.93,1.33-1.96-.21-.93-.86-1.54-1.86-1.84Z"/>
      <path class="cls-1" d="M37.82,312.9l8.16-1.42.47,2.73-7.73,1.35c-1.41.25-1.72.85-1.57,1.7.17.98.96,1.59,2.12,2.07l7.84-1.36.47,2.73-11.27,1.96-.41-2.37,1.43-.47c-1.28-.68-2.14-1.69-2.39-3.12-.35-2.02.72-3.42,2.87-3.79Z"/>
      <path class="cls-1" d="M34.3,302.2l1.74.87c-.48,1.02-.69,1.96-.56,2.97.14,1.09.67,1.66,1.35,1.57.75-.09,1.04-.59,1.33-2.58.33-2.4,1.11-3.82,3.13-4.07,2.36-.3,3.88,1.74,4.2,4.33.24,1.95-.23,3.56-1.04,4.73l-1.72-1.18c.55-.96.87-2.07.73-3.23-.15-1.22-.77-1.95-1.63-1.84-.94.12-1.19.61-1.52,2.81-.35,2.42-1.34,3.59-3.01,3.8-1.89.24-3.52-1.32-3.85-3.96-.2-1.63.14-3.03.85-4.2Z"/>
      <path class="cls-1" d="M31.53,296.5l1.21-.11-.24-2.74,2.01.13.21,2.43,9.42-.82.24,2.76-9.42.82.16,1.85-1.98.17-.16-1.85-1.25.11c-2.07.18-3.74-1.06-3.97-3.69-.1-1.14.08-2.09.41-3.01l1.92.64c-.26.72-.31,1.37-.27,1.91.1,1.12.63,1.49,1.71,1.39Z"/>
      <path class="cls-1" d="M38.5,282.29l.34,7.17c2.32-.33,3.03-1.44,2.95-2.95-.05-1.01-.41-1.84-1.15-2.8l1.52-1.22c.96,1.08,1.65,2.43,1.73,4.16.17,3.54-2.1,5.55-5.7,5.72-3.48.16-6.2-1.55-6.35-4.79-.15-3.2,1.92-5.13,5.53-5.3.37-.02.82,0,1.13.01ZM36.71,285.06c-1.88.09-2.97.81-2.9,2.37.06,1.29.96,2.07,3.24,2.12l-.21-4.49h-.13Z"/>
      <path class="cls-1" d="M31.68,273.09l2.69.43c-.08.35-.12.61-.11,1.02.02,1.38,1.05,2.08,2.98,2.48l6.1-.1.04,2.77-11.44.19-.04-2.4,2.24-.3c-1.65-.51-2.58-1.6-2.6-2.94,0-.41.03-.78.13-1.15Z"/>
      <path class="cls-1" d="M35.64,266.08l.35-6.52,2.2.12-.35,6.52-2.2-.12Z"/>
      <path class="cls-1" d="M32.42,239.64l1.4,1.72c-.92.91-1.41,1.7-1.57,2.96-.26,2.1,1.1,4.1,5.09,4.6,4.05.5,5.73-.51,6.02-2.82.1-.84.03-1.67-.29-2.43l-3.86-.48-.28,2.23-2.14.04.66-5.32,7.25.9c.72,1.59,1.06,3.42.82,5.29-.53,4.23-3.47,6.21-8.56,5.58-5.02-.62-7.34-4.05-6.88-7.76.26-2.06,1.12-3.39,2.33-4.5Z"/>
      <path class="cls-1" d="M36.04,229.98l2.56.92c-.14.33-.23.57-.3.98-.24,1.36.64,2.24,2.47,2.99l6.01,1.04-.47,2.73-11.27-1.95.41-2.36,2.26.13c-1.53-.81-2.23-2.05-2.01-3.37.07-.4.18-.76.34-1.1Z"/>
      <path class="cls-1" d="M33.39,223.64c.82.18,1.32.95,1.14,1.78-.19.84-.96,1.36-1.79,1.18-.82-.18-1.31-.97-1.13-1.82.18-.82.95-1.32,1.78-1.14ZM34.42,218.95c.82.18,1.32.95,1.13,1.8-.18.82-.96,1.34-1.78,1.16-.82-.18-1.31-.97-1.13-1.8.19-.84.96-1.34,1.78-1.16ZM49.69,221.56l-.51,2.34-1.59-.19c1.09,1.1,1.47,2.29,1.13,3.83-.44,2.03-1.99,2.82-4.14,2.35l-8.02-1.76.59-2.7,7.69,1.68c1.31.29,1.85-.04,2.05-.97.2-.93-.24-1.82-1.09-2.61l-7.86-1.72.59-2.7,11.17,2.45Z"/>
      <path class="cls-1" d="M44.92,207.38l7.98,2.2-.73,2.67-7.57-2.08c-1.38-.38-1.92.03-2.14.87-.26.96.19,1.85,1.03,2.77l7.67,2.11-.73,2.67-11.03-3.03.64-2.31,1.5.19c-.87-1.16-1.21-2.44-.83-3.84.54-1.98,2.11-2.78,4.22-2.2Z"/>
      <path class="cls-1" d="M41.57,192.66l15.2,5.08-.77,2.32-1.44-.27c.77.98,1.11,2.26.65,3.66-.9,2.71-3.65,3.36-7.1,2.21-3.34-1.12-5.18-3.6-4.28-6.29.38-1.15,1.18-1.89,2.08-2.34l-5.5-1.84,1.16-2.53ZM52.82,199.33l-4.96-1.66c-.89.34-1.55.81-1.84,1.69-.45,1.35.4,2.64,3,3.51,2.79.93,4.02.45,4.45-.84.32-.96.07-1.78-.65-2.7Z"/>
      <path class="cls-1" d="M61.16,186.39l-.88,2.23-1.54-.45c.9,1.26,1.08,2.5.5,3.96-.76,1.93-2.41,2.46-4.46,1.66l-7.64-3.02,1.02-2.57,7.32,2.89c1.25.49,1.83.26,2.18-.63.35-.89.05-1.84-.66-2.75l-7.48-2.95,1.02-2.57,10.64,4.2Z"/>
      <path class="cls-1" d="M58.71,171.64l7.53,3.44-1.15,2.52-7.14-3.26c-1.3-.59-1.9-.27-2.26.51-.41.9-.11,1.85.58,2.9l7.24,3.31-1.15,2.52-10.4-4.75,1-2.18,1.45.42c-.67-1.28-.81-2.6-.21-3.92.85-1.87,2.53-2.41,4.51-1.5Z"/>
      <path class="cls-1" d="M62.53,158.6c-.13.91-.55,1.91-1.18,3.11,1.19-.94,2.3-1.14,3.57-.48,1.98,1.03,2.62,3.31,1.29,5.86-.23.44-.47.8-.78,1.13.04.34.22.65.53.81.36.19.82.16,1.35-.86l.81-1.55c1.17-2.24,3.13-3.07,4.8-2.21,2.03,1.06,2.33,3.43.61,6.75-1.88,3.61-3.56,4.02-5.59,2.97l1.15-2.21c1.02.53,1.69.32,2.73-1.7,1.03-1.98.79-2.83-.02-3.25-.75-.39-1.52-.03-2.11,1.1l-.8,1.53c-1.06,2.03-2.41,2.43-3.46,1.88-.71-.37-1.19-1.18-1.26-2.17-1.3.91-2.48.98-3.79.3-2.21-1.15-2.74-3.64-1.46-6.1,1.3-2.37,1.35-3.76,1.33-5.33l2.28.4ZM61.63,167.13c1.23.64,2.34.37,2.93-.77.61-1.17.21-2.18-1.08-2.85-1.29-.67-2.24-.38-2.88.84-.58,1.11-.15,2.16,1.02,2.77Z"/>
      <path class="cls-1" d="M67.74,150.51l.86,1.75c-1,.52-1.74,1.14-2.25,2.02-.55.95-.48,1.72.12,2.07.65.38,1.18.16,2.62-1.25,1.71-1.7,3.2-2.37,4.96-1.35,2.06,1.19,2.03,3.73.72,5.99-.99,1.7-2.34,2.69-3.69,3.13l-.65-1.98c1.02-.43,1.95-1.12,2.53-2.13.62-1.07.57-2.02-.18-2.45-.82-.48-1.31-.24-2.91,1.31-1.74,1.71-3.24,2.04-4.69,1.2-1.65-.95-2-3.18-.67-5.48.82-1.42,1.95-2.32,3.22-2.83Z"/>
      <path class="cls-1" d="M82.91,146.06l-1.3,2.02-1.43-.74c.63,1.41.57,2.66-.28,3.99-1.13,1.74-2.85,1.94-4.7.74l-6.9-4.46,1.5-2.32,6.61,4.27c1.13.73,1.74.61,2.26-.19.52-.8.41-1.79-.11-2.82l-6.75-4.37,1.5-2.32,9.61,6.21Z"/>
      <path class="cls-1" d="M83.39,131.12l6.71,4.85-1.62,2.24-6.36-4.6c-1.16-.84-1.81-.64-2.31.06-.58.81-.47,1.79,0,2.96l6.45,4.66-1.62,2.24-9.27-6.7,1.41-1.94,1.33.7c-.41-1.39-.28-2.71.57-3.88,1.2-1.66,2.95-1.87,4.72-.59Z"/>
      <path class="cls-1" d="M95.59,128.15c-.05,1.01-.48,1.99-1.11,2.79-1.41,1.75-3.15,1.89-5.07.38l-4.73-3.74-1.11,1.41-1.56-1.23,1.11-1.41-1.98-1.57,1.46-2.37,2.24,1.77,1.65-2.09,1.39,1.45-1.48,1.86,4.68,3.7c.88.7,1.47.69,1.99.03.27-.34.44-.76.52-1.32l1.99.34Z"/>
      <path class="cls-1" d="M99.06,117.42l-4.68,5.45c1.91,1.36,3.19,1.03,4.18-.12.66-.77.96-1.62,1.09-2.83l1.94.16c-.04,1.44-.47,2.9-1.6,4.21-2.31,2.69-5.34,2.6-8.08.25-2.64-2.27-3.44-5.38-1.33-7.84,2.08-2.43,4.92-2.41,7.66-.06.28.24.6.57.81.78ZM95.86,118.2c-1.43-1.23-2.72-1.45-3.73-.27-.85.98-.72,2.17.9,3.76l2.93-3.41-.1-.08Z"/>
      <path class="cls-1" d="M100.53,106.02l1.63,2.18c-.3.19-.51.35-.79.65-.95,1.01-.69,2.23.42,3.86l4.45,4.17-1.89,2.02-8.35-7.82,1.64-1.75,1.82,1.35c-.83-1.52-.74-2.94.18-3.92.28-.3.56-.54.89-.73Z"/>
      <path class="cls-1" d="M108.07,100.21l.37,1.91c-1.1.24-1.97.65-2.7,1.36-.78.78-.91,1.54-.42,2.03.53.54,1.1.46,2.86-.52,2.1-1.2,3.71-1.45,5.13,0,1.67,1.69.99,4.13-.87,5.97-1.4,1.38-2.96,1.99-4.38,2.05l-.11-2.08c1.1-.15,2.17-.57,3-1.39.88-.87,1.08-1.8.47-2.41-.67-.68-1.2-.57-3.15.5-2.13,1.2-3.66,1.13-4.84-.07-1.34-1.35-1.1-3.6.79-5.47,1.17-1.15,2.49-1.73,3.85-1.89Z"/>
      <path class="cls-1" d="M121.64,101.12c-.21.99-.79,1.89-1.54,2.58-1.67,1.5-3.41,1.37-5.06-.44l-4.07-4.45-1.32,1.21-1.34-1.47,1.32-1.21-1.71-1.87,1.82-2.11,1.93,2.1,1.96-1.8,1.14,1.66-1.75,1.61,4.03,4.4c.76.83,1.34.92,1.96.35.32-.29.55-.68.73-1.22l1.92.65Z"/>
      <path class="cls-1" d="M115.81,86.46c.54.65.46,1.56-.18,2.1-.66.56-1.59.49-2.13-.16-.54-.65-.45-1.57.22-2.13.65-.54,1.56-.46,2.1.18ZM129.98,94.77l-1.84,1.54-1.14-1.13c.19,1.54-.24,2.71-1.44,3.73-1.59,1.33-3.3,1.02-4.71-.67l-5.28-6.29,2.12-1.78,5.06,6.03c.86,1.03,1.48,1.1,2.21.48.73-.61.92-1.59.73-2.73l-5.17-6.16,2.12-1.78,7.35,8.76ZM119.49,83.38c.54.65.46,1.56-.2,2.12-.65.54-1.58.48-2.12-.17-.54-.65-.45-1.57.2-2.12.66-.56,1.58-.48,2.12.17Z"/>
      <path class="cls-1" d="M137.31,88.44c-.3.96-.95,1.82-1.75,2.44-1.8,1.35-3.51,1.07-5-.87l-3.67-4.78-1.42,1.09-1.21-1.58,1.42-1.09-1.54-2,2-1.94,1.74,2.26,2.11-1.62.99,1.75-1.88,1.45,3.63,4.73c.69.89,1.25,1.03,1.92.51.34-.26.61-.63.83-1.16l1.85.81Z"/>
      <path class="cls-1" d="M139.41,76.01l-.29,9.15,4.6-3.27,1.02,1.93-6.96,4.95-1.15-1.62.31-9.16-4.14,2.94-1.25-1.76,6.71-4.77,1.15,1.62Z"/>
      <path class="cls-1" d="M154.15,77.69l-2.02,1.3-.99-1.26c0,1.55-.58,2.66-1.91,3.51-1.75,1.12-3.4.59-4.59-1.26l-4.44-6.91,2.33-1.5,4.25,6.62c.72,1.13,1.33,1.28,2.13.76s1.12-1.46,1.07-2.61l-4.35-6.77,2.33-1.5,6.18,9.62Z"/>
      <path class="cls-1" d="M160.75,64.29l4.11,7.19-2.4,1.37-3.89-6.81c-.71-1.24-1.38-1.33-2.13-.9-.86.49-1.17,1.44-1.23,2.69l3.95,6.91-2.4,1.37-5.67-9.93,2.08-1.19.93,1.19c.2-1.43.86-2.58,2.12-3.3,1.78-1.02,3.46-.48,4.54,1.41Z"/>
      <path class="cls-1" d="M171.48,55.93c-.64.66-1.56,1.22-2.78,1.84,1.52-.06,2.54.42,3.18,1.69,1,1.99.19,4.22-2.38,5.51-.44.22-.85.38-1.29.46-.16.3-.2.66-.04.97.19.37.57.61,1.6.09l1.56-.79c2.26-1.14,4.34-.67,5.19,1.01,1.03,2.05-.11,4.15-3.45,5.84-3.63,1.83-5.24,1.19-6.27-.85l2.22-1.12c.52,1.02,1.19,1.24,3.21.22,1.99-1,2.29-1.84,1.88-2.65-.38-.75-1.21-.91-2.35-.34l-1.54.78c-2.05,1.03-3.37.57-3.91-.5-.36-.71-.28-1.65.24-2.5-1.59-.02-2.58-.66-3.25-1.97-1.12-2.22-.1-4.55,2.37-5.8,2.44-1.16,3.29-2.27,4.19-3.55l1.61,1.66ZM165.77,62.33c.62,1.24,1.69,1.67,2.83,1.09,1.18-.59,1.44-1.65.79-2.94-.65-1.29-1.59-1.62-2.83-.99-1.12.57-1.39,1.67-.79,2.85Z"/>
      <path class="cls-1" d="M179.02,55.79l6.01-2.55.86,2.03-6.01,2.55-.86-2.03Z"/>
    </g>
  </g>
  <g>
    <path d="M187.44,262.68h-4.12l-.77,2.88h-2.47l3.87-12.44h2.93l3.85,12.44h-2.52l-.77-2.88ZM186.97,260.88l-1.6-5.94-1.58,5.94h3.19Z"/>
    <path d="M199.79,258.67v6.9h-2.3v-6.54c0-1.19-.45-1.53-1.17-1.53-.83,0-1.44.56-2,1.44v6.63h-2.3v-9.52h2l.18,1.24c.74-.95,1.69-1.51,2.9-1.51,1.71,0,2.7,1.08,2.7,2.9Z"/>
    <path d="M211.97,265.56h-2.88l-1.44-7.47-1.48,7.47h-2.83l-2.11-9.52h2.3l1.33,7.83,1.66-7.83h2.36l1.51,7.83,1.42-7.83h2.21l-2.07,9.52Z"/>
    <path d="M223.38,261.51h-5.98c.18,1.94,1.08,2.57,2.34,2.57.85,0,1.55-.27,2.38-.85l.95,1.31c-.94.76-2.09,1.28-3.53,1.28-2.95,0-4.54-1.96-4.54-4.97s1.53-5.1,4.23-5.1,4.2,1.8,4.2,4.81c0,.31-.04.68-.05.94ZM221.15,259.91c0-1.57-.56-2.5-1.85-2.5-1.08,0-1.76.72-1.89,2.61h3.75v-.11Z"/>
    <path d="M233.25,258.67v6.9h-2.3v-6.54c0-1.19-.45-1.53-1.17-1.53-.83,0-1.44.56-2,1.44v6.63h-2.3v-9.52h2l.18,1.24c.74-.95,1.69-1.51,2.9-1.51,1.71,0,2.7,1.08,2.7,2.9Z"/>
    <path d="M243.8,252.22v13.34h-2.03l-.16-1.21c-.58.86-1.49,1.48-2.72,1.48-2.38,0-3.62-2-3.62-5.02s1.48-5.04,3.83-5.04c1.01,0,1.8.43,2.39,1.03v-4.83l2.3.25ZM241.49,262.86v-4.36c-.5-.61-1.04-1.01-1.82-1.01-1.19,0-1.98,1.01-1.98,3.29,0,2.45.7,3.29,1.84,3.29.85,0,1.42-.41,1.96-1.22Z"/>
    <path d="M254.07,265.56h-2l-.13-1.33c-.7,1.08-1.6,1.6-2.92,1.6-1.73,0-2.65-1.12-2.65-2.95v-6.84h2.3v6.55c0,1.12.36,1.49,1.15,1.49s1.44-.52,1.93-1.35v-6.7h2.3v9.52Z"/>
    <path d="M264.55,258.67v6.9h-2.3v-6.54c0-1.19-.45-1.53-1.17-1.53-.83,0-1.44.56-2,1.44v6.63h-2.3v-9.52h2l.18,1.24c.74-.95,1.69-1.51,2.9-1.51,1.71,0,2.7,1.08,2.7,2.9Z"/>
    <path d="M275.46,256.54c-.72.25-1.62.32-2.75.32,1.15.52,1.73,1.26,1.73,2.45,0,1.85-1.44,3.21-3.83,3.21-.41,0-.77-.04-1.13-.14-.23.16-.4.41-.4.7,0,.34.2.67,1.15.67h1.46c2.11,0,3.48,1.13,3.48,2.7,0,1.91-1.64,3.04-4.75,3.04-3.39,0-4.34-1.08-4.34-2.99h2.07c0,.95.41,1.37,2.3,1.37s2.39-.5,2.39-1.26c0-.7-.56-1.13-1.62-1.13h-1.44c-1.91,0-2.72-.85-2.72-1.84,0-.67.41-1.33,1.12-1.76-1.17-.61-1.67-1.46-1.67-2.68,0-2.07,1.64-3.42,3.94-3.42,2.25.05,3.29-.45,4.45-1.06l.58,1.84ZM268.81,259.15c0,1.15.63,1.87,1.69,1.87s1.69-.68,1.69-1.89-.58-1.8-1.73-1.8c-1.04,0-1.66.72-1.66,1.82Z"/>
    <path d="M283.18,256.9l-.9,1.35c-.79-.5-1.55-.77-2.39-.77-.92,0-1.44.38-1.44.95,0,.63.38.92,2,1.37,1.94.52,3.04,1.31,3.04,3.01,0,1.98-1.84,3.02-4.02,3.02-1.64,0-2.92-.56-3.8-1.35l1.15-1.3c.74.56,1.62.94,2.59.94,1.03,0,1.69-.43,1.69-1.15,0-.79-.38-1.04-2.16-1.55-1.96-.54-2.83-1.48-2.83-2.88,0-1.58,1.46-2.77,3.67-2.77,1.37,0,2.48.43,3.38,1.13Z"/>
    <path d="M293.67,260.79c0,3.01-1.67,5.04-4.48,5.04s-4.48-1.91-4.48-5.04,1.67-5.02,4.5-5.02,4.46,1.91,4.46,5.02ZM287.14,260.79c0,2.29.7,3.29,2.05,3.29s2.05-1.03,2.05-3.29-.7-3.28-2.04-3.28-2.07,1.03-2.07,3.28Z"/>
    <path d="M301.45,255.91l-.4,2.23c-.29-.07-.5-.11-.85-.11-1.15,0-1.75.85-2.11,2.45v5.08h-2.3v-9.52h2l.21,1.87c.45-1.37,1.37-2.12,2.49-2.12.34,0,.65.04.95.13Z"/>
    <path d="M305.44,252.62c0,.77-.59,1.39-1.46,1.39s-1.44-.61-1.44-1.39.59-1.4,1.44-1.4,1.46.61,1.46,1.4ZM305.16,265.56h-2.3v-9.52h2.3v9.52Z"/>
    <path d="M315.65,261.51h-5.98c.18,1.94,1.08,2.57,2.34,2.57.85,0,1.55-.27,2.38-.85l.95,1.31c-.94.76-2.09,1.28-3.53,1.28-2.95,0-4.54-1.96-4.54-4.97s1.53-5.1,4.23-5.1,4.2,1.8,4.2,4.81c0,.31-.04.68-.05.94ZM313.42,259.91c0-1.57-.56-2.5-1.86-2.5-1.08,0-1.76.72-1.89,2.61h3.75v-.11Z"/>
    <path d="M325.52,258.67v6.9h-2.3v-6.54c0-1.19-.45-1.53-1.17-1.53-.83,0-1.44.56-2,1.44v6.63h-2.3v-9.52h2l.18,1.24c.74-.95,1.69-1.51,2.9-1.51,1.71,0,2.7,1.08,2.7,2.9Z"/>
    <path d="M333.6,265.11c-.68.49-1.55.72-2.39.72-1.87-.02-2.86-1.08-2.86-3.11v-5.02h-1.5v-1.66h1.5v-2.11l2.3-.27v2.38h2.21l-.23,1.66h-1.98v4.97c0,.94.31,1.31,1.01,1.31.36,0,.72-.11,1.13-.34l.81,1.48Z"/>
    <path d="M337.45,252.62c0,.77-.59,1.39-1.46,1.39s-1.44-.61-1.44-1.39.59-1.4,1.44-1.4,1.46.61,1.46,1.4ZM337.16,265.56h-2.3v-9.52h2.3v9.52Z"/>
    <path d="M347.65,261.51h-5.98c.18,1.94,1.08,2.57,2.34,2.57.85,0,1.55-.27,2.38-.85l.95,1.31c-.94.76-2.09,1.28-3.53,1.28-2.95,0-4.54-1.96-4.54-4.97s1.53-5.1,4.23-5.1,4.2,1.8,4.2,4.81c0,.31-.04.68-.05.94ZM345.42,259.91c0-1.57-.56-2.5-1.85-2.5-1.08,0-1.76.72-1.89,2.61h3.75v-.11Z"/>
    <path d="M355.39,255.91l-.4,2.23c-.29-.07-.5-.11-.85-.11-1.15,0-1.75.85-2.11,2.45v5.08h-2.3v-9.52h2l.22,1.87c.45-1.37,1.37-2.12,2.48-2.12.34,0,.65.04.95.13Z"/>
    <path d="M362.29,265.11c-.68.49-1.55.72-2.39.72-1.87-.02-2.86-1.08-2.86-3.11v-5.02h-1.49v-1.66h1.49v-2.11l2.3-.27v2.38h2.21l-.23,1.66h-1.98v4.97c0,.94.31,1.31,1.01,1.31.36,0,.72-.11,1.13-.34l.81,1.48Z"/>
    <path d="M371.04,261.51h-5.98c.18,1.94,1.08,2.57,2.34,2.57.85,0,1.55-.27,2.38-.85l.95,1.31c-.94.76-2.09,1.28-3.53,1.28-2.95,0-4.54-1.96-4.54-4.97s1.53-5.1,4.23-5.1,4.2,1.8,4.2,4.81c0,.31-.04.68-.05.94ZM368.8,259.91c0-1.57-.56-2.5-1.85-2.5-1.08,0-1.76.72-1.89,2.61h3.75v-.11Z"/>
    <path d="M231.5,285.87l-.49,1.53c-1.06-.09-1.75-.45-2.11-1.39-.68,1.01-1.71,1.42-2.86,1.42-1.89,0-3.06-1.21-3.06-2.94,0-2.07,1.55-3.19,4.32-3.19h1.21v-.54c0-1.24-.56-1.66-1.78-1.66-.65,0-1.57.18-2.54.5l-.52-1.57c1.17-.45,2.38-.68,3.44-.68,2.56,0,3.67,1.17,3.67,3.28v4c0,.77.25,1.04.72,1.22ZM228.51,284.59v-1.93h-.95c-1.49,0-2.23.54-2.23,1.66,0,.92.47,1.44,1.35,1.44.79,0,1.4-.41,1.84-1.17Z"/>
    <path d="M235.84,287.16h-2.3v-13.34l2.3-.25v13.59ZM238.38,281.83l3.48,5.33h-2.65l-3.28-5.2,3.19-4.32h2.43l-3.17,4.2Z"/>
    <path d="M250.71,285.87l-.49,1.53c-1.06-.09-1.75-.45-2.11-1.39-.68,1.01-1.71,1.42-2.86,1.42-1.89,0-3.06-1.21-3.06-2.94,0-2.07,1.55-3.19,4.32-3.19h1.21v-.54c0-1.24-.56-1.66-1.78-1.66-.65,0-1.57.18-2.54.5l-.52-1.57c1.17-.45,2.38-.68,3.44-.68,2.56,0,3.67,1.17,3.67,3.28v4c0,.77.25,1.04.72,1.22ZM247.72,284.59v-1.93h-.95c-1.49,0-2.23.54-2.23,1.66,0,.92.47,1.44,1.35,1.44.79,0,1.4-.41,1.84-1.17Z"/>
    <path d="M260.7,273.82v13.34h-2.03l-.16-1.21c-.58.86-1.49,1.48-2.72,1.48-2.38,0-3.62-2-3.62-5.02s1.48-5.04,3.83-5.04c1.01,0,1.8.43,2.39,1.03v-4.82l2.3.25ZM258.39,284.46v-4.36c-.5-.61-1.04-1.01-1.82-1.01-1.19,0-1.98,1.01-1.98,3.29,0,2.45.7,3.29,1.84,3.29.85,0,1.42-.41,1.96-1.22Z"/>
    <path d="M271.19,283.11h-5.98c.18,1.94,1.08,2.57,2.34,2.57.85,0,1.55-.27,2.38-.85l.95,1.31c-.94.76-2.09,1.28-3.53,1.28-2.95,0-4.54-1.96-4.54-4.97s1.53-5.1,4.23-5.1,4.2,1.8,4.2,4.81c0,.31-.04.68-.05.94ZM268.96,281.51c0-1.57-.56-2.5-1.85-2.5-1.08,0-1.76.72-1.89,2.61h3.75v-.11Z"/>
    <path d="M285.9,280.27v6.9h-2.3v-6.54c0-1.19-.47-1.53-1.04-1.53-.79,0-1.28.56-1.8,1.44v6.63h-2.3v-6.54c0-1.19-.49-1.53-1.04-1.53-.81,0-1.3.56-1.82,1.44v6.63h-2.3v-9.52h2l.18,1.24c.68-.95,1.55-1.51,2.75-1.51,1.12,0,1.94.59,2.3,1.6.72-.99,1.6-1.6,2.86-1.6,1.51,0,2.52,1.1,2.52,2.9Z"/>
    <path d="M291.08,274.22c0,.77-.59,1.39-1.46,1.39s-1.44-.61-1.44-1.39.59-1.4,1.44-1.4,1.46.61,1.46,1.4ZM290.79,287.16h-2.3v-9.52h2.3v9.52Z"/>
    <path d="M299.92,278.5l-.9,1.35c-.79-.5-1.55-.77-2.39-.77-.92,0-1.44.38-1.44.95,0,.63.38.92,2,1.37,1.94.52,3.04,1.31,3.04,3.01,0,1.98-1.84,3.03-4.02,3.03-1.64,0-2.92-.56-3.8-1.35l1.15-1.3c.74.56,1.62.94,2.59.94,1.03,0,1.69-.43,1.69-1.15,0-.79-.38-1.04-2.16-1.55-1.96-.54-2.83-1.48-2.83-2.88,0-1.58,1.46-2.77,3.67-2.77,1.37,0,2.48.43,3.38,1.13Z"/>
    <path d="M308.99,278.48l-1.03,1.39c-.63-.47-1.21-.68-1.93-.68-1.33,0-2.14.97-2.14,3.26s.85,3.12,2.14,3.12c.72,0,1.22-.23,1.93-.68l1.03,1.46c-.86.7-1.85,1.1-3.08,1.1-2.76,0-4.47-1.91-4.47-4.95s1.71-5.11,4.45-5.11c1.24,0,2.2.34,3.1,1.12Z"/>
    <path d="M318.41,280.27v6.9h-2.3v-6.54c0-1.19-.47-1.53-1.17-1.53-.81,0-1.44.56-2,1.42v6.64h-2.3v-13.32l2.3-.23v5.17c.74-.9,1.62-1.4,2.77-1.4,1.69,0,2.7,1.1,2.7,2.9Z"/>
    <path d="M328.79,283.11h-5.98c.18,1.94,1.08,2.57,2.34,2.57.85,0,1.55-.27,2.38-.85l.96,1.31c-.94.76-2.09,1.28-3.53,1.28-2.95,0-4.54-1.96-4.54-4.97s1.53-5.1,4.23-5.1,4.2,1.8,4.2,4.81c0,.31-.04.68-.05.94ZM326.56,281.51c0-1.57-.56-2.5-1.85-2.5-1.08,0-1.76.72-1.89,2.61h3.75v-.11Z"/>
    <path d="M257.06,306.82h4.99l-.27,1.94h-7.09v-12.44h2.38v10.5Z"/>
    <path d="M271.03,304.71h-5.98c.18,1.94,1.08,2.57,2.34,2.57.85,0,1.55-.27,2.38-.85l.95,1.31c-.94.76-2.09,1.28-3.53,1.28-2.95,0-4.54-1.96-4.54-4.97s1.53-5.1,4.23-5.1,4.2,1.8,4.2,4.81c0,.31-.04.68-.05.94ZM268.8,303.11c0-1.57-.56-2.5-1.85-2.5-1.08,0-1.76.72-1.89,2.61h3.75v-.11Z"/>
    <path d="M280.89,301.86v6.9h-2.3v-6.54c0-1.19-.47-1.53-1.17-1.53-.81,0-1.44.56-2,1.42v6.64h-2.3v-13.32l2.3-.23v5.17c.74-.9,1.62-1.4,2.77-1.4,1.69,0,2.7,1.1,2.7,2.9Z"/>
    <path d="M289.14,299.11l-.4,2.23c-.29-.07-.5-.11-.85-.11-1.15,0-1.75.85-2.11,2.45v5.08h-2.3v-9.52h2l.22,1.87c.45-1.37,1.37-2.12,2.49-2.12.34,0,.65.04.95.13Z"/>
    <path d="M297.98,304.71h-5.98c.18,1.94,1.08,2.57,2.34,2.57.85,0,1.55-.27,2.38-.85l.95,1.31c-.94.76-2.09,1.28-3.53,1.28-2.95,0-4.54-1.96-4.54-4.97s1.53-5.1,4.23-5.1,4.2,1.8,4.2,4.81c0,.31-.04.68-.05.94ZM295.74,303.11c0-1.57-.56-2.5-1.86-2.5-1.08,0-1.76.72-1.89,2.61h3.75v-.11Z"/>
  </g>
</svg>