<?xml version="1.0" encoding="utf-8"?>
<!-- Generator: Adobe Illustrator 30.2.1, SVG Export Plug-In . SVG Version: 9.03 Build 0)  -->
<svg version="1.1" id="Ebene_1" xmlns="http://www.w3.org/2000/svg" xmlns:xlink="http://www.w3.org/1999/xlink" x="0px" y="0px"
	 viewBox="0 0 839.05 538.58" style="enable-background:new 0 0 839.05 538.58;" xml:space="preserve">
<style type="text/css">
	.st0{clip-path:url(#SVGID_00000003796412824793633790000011316436023054495634_);}
	.st1{fill:url(#SVGID_00000110433015730724973410000016648540296544904091_);}
	.st2{fill:#FFFFFF;}
	.st3{fill:none;stroke:#FFFFFF;stroke-width:2;}
	.st4{fill:#2494CA;}
	.st5{opacity:0.8;fill:#004E9E;enable-background:new    ;}
	.st6{fill:#004E9E;}
</style>
<g id="Ebene_1_00000114033565498031970060000018053235712693046192_">
	<g id="Gelingendes_Studium">
		<g>
			<g>
				<g>
					<defs>
						
							<ellipse id="SVGID_1_" transform="matrix(0.7071 -0.7071 0.7071 0.7071 -83.0167 337.3033)" cx="365.65" cy="268.86" rx="173.53" ry="173.53"/>
					</defs>
					<clipPath id="SVGID_00000002353076031745399360000015607225970408527785_">
						<use xlink:href="#SVGID_1_"  style="overflow:visible;"/>
					</clipPath>
					<g style="clip-path:url(#SVGID_00000002353076031745399360000015607225970408527785_);">
						
							<linearGradient id="SVGID_00000065758808938432053980000000130945187617279138_" gradientUnits="userSpaceOnUse" x1="-1620.0299" y1="263.7985" x2="-1617.8037" y2="263.7985" gradientTransform="matrix(-155.9029 155.9029 -155.9029 -155.9029 -210901.2031 293789.5938)">
							<stop  offset="0" style="stop-color:#55C2DF"/>
							<stop  offset="0.13" style="stop-color:#42A8D0"/>
							<stop  offset="0.49" style="stop-color:#1267AC"/>
							<stop  offset="0.65" style="stop-color:#004E9E"/>
							<stop  offset="1" style="stop-color:#004E9E"/>
						</linearGradient>
						<polygon style="fill:url(#SVGID_00000065758808938432053980000000130945187617279138_);" points="18.6,268.84 365.66,-78.23 
							712.73,268.84 365.66,615.93 						"/>
					</g>
				</g>
			</g>
		</g>
		<g>
			<g>
				<path class="st2" d="M441.58,304.83l-2.2-24.76h-6.34l-3.34,12.29c-0.4,1.47-0.67,2.74-0.89,4.03c-0.22-1.29-0.4-2.14-0.85-3.92
					l-3.25-12.4h-6.37l-2.32,24.76h4.94l0.85-12.93c0.11-1.54,0.18-2.98,0.18-4.45c0.24,1.42,0.67,3.16,1,4.39l3.52,13h4.23
					l3.92-13.54c0.42-1.49,0.65-2.38,0.94-3.81c0,1.31,0.07,2.56,0.18,4.14l0.94,13.22L441.58,304.83L441.58,304.83z"/>
				<path class="st2" d="M410.65,296.75v-16.67h-5.05v15.85c0,1.31,0,1.67-0.07,2.2c-0.22,1.83-1.6,2.89-3.78,2.89
					c-1.65,0-2.81-0.6-3.38-1.71c-0.29-0.53-0.42-1.42-0.42-2.96v-16.27h-5.1v17.23c0,2.38,0.24,3.38,1.07,4.68
					c1.38,2.18,4.16,3.32,7.95,3.32c5.34,0,7.77-2.72,8.42-4.68c0.36-1.07,0.4-1.54,0.4-3.87"/>
				<rect x="380.65" y="280.08" class="st2" width="5.21" height="24.76"/>
				<path class="st2" d="M375.35,292.55c0-4.45-1.11-7.61-3.38-9.86c-1.49-1.49-3.32-2.27-5.41-2.45c-1-0.07-2.89-0.13-4.32-0.13
					h-4.99v24.76h6.01c1.47,0,2.63-0.07,3.56-0.13c2.32-0.18,4.52-1.54,6.01-3.56c1.67-2.25,2.49-5.21,2.49-8.59l-5.57,0.45
					c0,5.23-1.49,7.77-4.76,7.77h-2.67V284h2.27c1.96,0,3.09,0.71,3.92,2.07c1,1.65,1.25,4.05,1.25,6.95"/>
				<path class="st2" d="M350.93,296.75v-16.67h-5.05v15.85c0,1.31,0,1.67-0.07,2.2c-0.22,1.83-1.6,2.89-3.78,2.89
					c-1.65,0-2.81-0.6-3.38-1.71c-0.29-0.53-0.42-1.42-0.42-2.96v-16.27h-5.1v17.23c0,2.38,0.24,3.38,1.07,4.68
					c1.38,2.18,4.16,3.32,7.95,3.32c5.34,0,7.77-2.72,8.42-4.68c0.36-1.07,0.4-1.54,0.4-3.87"/>
				<polygon class="st2" points="328.8,280.08 310.94,280.08 310.94,284.22 317,284.22 317,304.83 322.05,304.83 322.05,284.22 
					327.97,284.22 				"/>
				<path class="st2" d="M307.69,297.04c0-3.67-2.2-6.28-6.28-7.37l-2.98-0.82c-2.07-0.58-2.74-1.2-2.74-2.49
					c0-1.67,1.42-2.85,3.45-2.85c1.85,0,3.52,0.53,5.77,1.89l2.36-3.56c-2.18-1.56-5.23-2.49-8.26-2.49c-5.23,0-8.86,3.14-8.86,7.66
					c0,1.38,0.36,2.67,1.02,3.78c0.89,1.49,2.43,2.45,4.88,3.14l2.74,0.76c2.2,0.6,3.25,1.6,3.25,3.21c0,2.2-1.49,3.38-4.34,3.38
					c-2.49,0-4.5-0.78-6.81-2l-1.85,3.87c2.49,1.42,5.63,2.25,8.44,2.25c6.17,0,10.22-3.32,10.22-8.33"/>
			</g>
			<g>
				<path class="st2" d="M441.58,304.83l-2.2-24.76h-6.34l-3.34,12.29c-0.4,1.47-0.67,2.74-0.89,4.03c-0.22-1.29-0.4-2.14-0.85-3.92
					l-3.25-12.4h-6.37l-2.32,24.76h4.94l0.85-12.93c0.11-1.54,0.18-2.98,0.18-4.45c0.24,1.42,0.67,3.16,1,4.39l3.52,13h4.23
					l3.92-13.54c0.42-1.49,0.65-2.38,0.94-3.81c0,1.31,0.07,2.56,0.18,4.14l0.94,13.22L441.58,304.83L441.58,304.83z"/>
				<path class="st2" d="M410.65,296.75v-16.67h-5.05v15.85c0,1.31,0,1.67-0.07,2.2c-0.22,1.83-1.6,2.89-3.78,2.89
					c-1.65,0-2.81-0.6-3.38-1.71c-0.29-0.53-0.42-1.42-0.42-2.96v-16.27h-5.1v17.23c0,2.38,0.24,3.38,1.07,4.68
					c1.38,2.18,4.16,3.32,7.95,3.32c5.34,0,7.77-2.72,8.42-4.68c0.36-1.07,0.4-1.54,0.4-3.87"/>
				<rect x="380.65" y="280.08" class="st2" width="5.21" height="24.76"/>
				<path class="st2" d="M375.35,292.55c0-4.45-1.11-7.61-3.38-9.86c-1.49-1.49-3.32-2.27-5.41-2.45c-1-0.07-2.89-0.13-4.32-0.13
					h-4.99v24.76h6.01c1.47,0,2.63-0.07,3.56-0.13c2.32-0.18,4.52-1.54,6.01-3.56c1.67-2.25,2.49-5.21,2.49-8.59l-5.57,0.45
					c0,5.23-1.49,7.77-4.76,7.77h-2.67V284h2.27c1.96,0,3.09,0.71,3.92,2.07c1,1.65,1.25,4.05,1.25,6.95"/>
				<path class="st2" d="M350.93,296.75v-16.67h-5.05v15.85c0,1.31,0,1.67-0.07,2.2c-0.22,1.83-1.6,2.89-3.78,2.89
					c-1.65,0-2.81-0.6-3.38-1.71c-0.29-0.53-0.42-1.42-0.42-2.96v-16.27h-5.1v17.23c0,2.38,0.24,3.38,1.07,4.68
					c1.38,2.18,4.16,3.32,7.95,3.32c5.34,0,7.77-2.72,8.42-4.68c0.36-1.07,0.4-1.54,0.4-3.87"/>
				<polygon class="st2" points="328.8,280.08 310.94,280.08 310.94,284.22 317,284.22 317,304.83 322.05,304.83 322.05,284.22 
					327.97,284.22 				"/>
				<path class="st2" d="M307.69,297.04c0-3.67-2.2-6.28-6.28-7.37l-2.98-0.82c-2.07-0.58-2.74-1.2-2.74-2.49
					c0-1.67,1.42-2.85,3.45-2.85c1.85,0,3.52,0.53,5.77,1.89l2.36-3.56c-2.18-1.56-5.23-2.49-8.26-2.49c-5.23,0-8.86,3.14-8.86,7.66
					c0,1.38,0.36,2.67,1.02,3.78c0.89,1.49,2.43,2.45,4.88,3.14l2.74,0.76c2.2,0.6,3.25,1.6,3.25,3.21c0,2.2-1.49,3.38-4.34,3.38
					c-2.49,0-4.5-0.78-6.81-2l-1.85,3.87c2.49,1.42,5.63,2.25,8.44,2.25c6.17,0,10.22-3.32,10.22-8.33"/>
			</g>
		</g>
		<path class="st2" d="M480.4,256.01c0-3.67-2.2-6.28-6.28-7.37l-2.98-0.82c-2.07-0.58-2.74-1.2-2.74-2.49
			c0-1.67,1.42-2.85,3.45-2.85c1.85,0,3.52,0.53,5.77,1.89l2.36-3.56c-2.18-1.56-5.23-2.49-8.26-2.49c-5.23,0-8.86,3.14-8.86,7.66
			c0,1.38,0.36,2.67,1.02,3.78c0.89,1.49,2.43,2.45,4.88,3.14l2.74,0.76c2.2,0.6,3.25,1.6,3.25,3.21c0,2.2-1.49,3.38-4.34,3.38
			c-2.49,0-4.5-0.78-6.81-2l-1.85,3.87c2.49,1.42,5.63,2.25,8.44,2.25c6.17,0,10.22-3.32,10.22-8.33 M456.65,263.83v-4.27h-9.37
			v-6.63h7.01v-4.05h-7.01v-5.74h8.42l0.65-4.05h-14.11v24.76L456.65,263.83L456.65,263.83z M431.36,252.01
			c0,5.23-1.49,7.77-4.76,7.77h-2.67v-16.79h2.27c1.96,0,3.09,0.71,3.92,2.07C431.11,246.71,431.36,249.11,431.36,252.01
			 M436.95,251.54c0-4.45-1.11-7.61-3.38-9.86c-1.49-1.49-3.32-2.27-5.41-2.45c-1-0.07-2.89-0.13-4.32-0.13h-4.99v24.76h6.01
			c1.47,0,2.63-0.07,3.56-0.13c2.32-0.18,4.52-1.54,6.01-3.56c1.67-2.25,2.49-5.21,2.49-8.59 M412.48,263.83v-24.76h-4.74
			l0.11,10.11c0.04,1.71,0.22,4.88,0.4,6.81c-0.49-1.78-1.47-4.39-2.72-7.01l-4.74-9.91h-5.52v24.76h4.81l-0.13-10.57
			c-0.04-2.07-0.07-4.99-0.24-7.01c0.47,1.54,1.96,5.03,3.34,8.13l4.23,9.48h5.21L412.48,263.83z M389.77,263.83v-4.27h-9.37v-6.63
			h7.01v-4.05h-7.01v-5.74h8.42l0.65-4.05h-14.11v24.76L389.77,263.83L389.77,263.83z M369.31,261.89v-11.82h-9.57l0.65,4.05h3.78
			v5.63c-0.82,0.42-1.71,0.6-2.81,0.6c-1.6,0-2.96-0.49-3.87-1.38c-1.25-1.25-1.85-3.52-1.85-7.06c0-3.7,0.42-6.37,2.09-7.97
			c0.85-0.82,2.09-1.25,3.56-1.25c1.89,0,3.56,0.6,5.16,1.91l2.63-3.09c-2.18-1.89-4.88-2.85-7.88-2.85c-2.36,0-4.21,0.53-6.01,1.74
			c-3.45,2.32-5.16,6.01-5.16,11.26c0,3.7,0.82,6.34,2.63,8.66c2,2.56,4.74,3.78,8.44,3.78c2.92,0,5.7-0.71,8.24-2.2 M344.74,263.83
			v-24.76h-4.74l0.11,10.11c0.04,1.71,0.22,4.88,0.4,6.81c-0.49-1.78-1.47-4.39-2.72-7.01l-4.74-9.91h-5.52v24.76h4.81l-0.13-10.57
			c-0.04-2.07-0.07-4.99-0.24-7.01c0.47,1.54,1.96,5.03,3.34,8.13l4.23,9.48h5.21L344.74,263.83z M320.49,239.07h-5.21v24.76h5.21
			V239.07z M310.48,259.69h-8.86v-20.61h-5.1v24.76h13.07L310.48,259.69L310.48,259.69z M291.04,263.83v-4.27h-9.37v-6.63h7.01
			v-4.05h-7.01v-5.74h8.42l0.65-4.05h-14.11v24.76L291.04,263.83L291.04,263.83z M270.56,261.89v-11.82h-9.57l0.65,4.05h3.78v5.63
			c-0.82,0.42-1.71,0.6-2.81,0.6c-1.6,0-2.96-0.49-3.87-1.38c-1.25-1.25-1.85-3.52-1.85-7.06c0-3.7,0.42-6.37,2.09-7.97
			c0.85-0.82,2.09-1.25,3.56-1.25c1.89,0,3.56,0.6,5.16,1.91l2.63-3.09c-2.18-1.89-4.88-2.85-7.88-2.85c-2.36,0-4.21,0.53-6.01,1.74
			c-3.45,2.32-5.16,6.01-5.16,11.26c0,3.7,0.82,6.34,2.63,8.66c2,2.56,4.74,3.78,8.44,3.78c2.92,0,5.7-0.71,8.24-2.2"/>
		<circle class="st3" cx="365.66" cy="268.86" r="157.21"/>
	</g>
</g>
<g id="Ziele">
	<g id="Ziel1">
		<path class="st4" d="M283.27,103.05c89.63-44.86,198.18-10.33,245.8,76.94l68.46-34.28C530.96,20.66,376.42-29.12,249.01,34.66
			c-40.83,20.44-73.98,50.11-98.22,85.22L214.68,162C231.76,137.76,254.89,117.25,283.27,103.05z"/>
		<g>
			<path class="st2" d="M338.33,39.52l-10.08,22.24l13.45-2.18l0.13,4.61l-19.3,3.12l-0.69-4.21l10.31-22.44l-12.2,1.96l-0.71-4.39
				l18.37-2.96L338.33,39.52z"/>
			<path class="st2" d="M352.28,63.42l-5.57,0.45l-2.32-29.14l5.57-0.45L352.28,63.42z"/>
			<path class="st2" d="M375.01,37.93l-10.8-0.02l-0.02,8.17l9.39,0.02v4.14l-9.39-0.02l-0.02,8.59l11.55,0.02v4.19l-17.14-0.04
				l0.07-29.23l16.96,0.04L375.01,37.93z"/>
			<path class="st2" d="M386.26,59.4l11.64,1.2l-1.11,4.47l-16.59-1.71l3.03-29.07l5.54,0.58L386.26,59.4z"/>
			<path class="st2" d="M422.1,70.68l-5.16-1.31l5.65-22.31l-7.1,2.18l-1.4-4.12l10.37-3.23l4.63,1.18L422.1,70.68z"/>
		</g>
	</g>
	<g id="Ziel2">
		<path class="st5" d="M535.86,468.73c88.42-74.91,118.81-202.14,67.63-311.07l-68.46,34.28c41.34,90.43,3.94,198.02-85.69,242.9
			c-28.47,14.25-58.86,20.48-88.6,19.57l-4.54,76.38c42.72,1.69,86.47-7.06,127.41-27.56C502.75,493.62,520.21,482,535.86,468.73z"
			/>
		<g>
			<path class="st2" d="M575.24,368.5l-13.47-20.37l-5.32,12.53l-3.98-2.34l7.64-17.99l3.94,1.67l13.51,20.66l4.83-11.38l4.1,1.74
				l-7.26,17.14L575.24,368.5z"/>
			<path class="st2" d="M547.57,367.61l2.58-4.94l25.91,13.56l-2.58,4.94L547.57,367.61z"/>
			<path class="st2" d="M557.07,400.41l5.77-9.13l-6.9-4.36l-5.01,7.95l-3.52-2.2l5.01-7.95l-7.26-4.59L539,389.9l-3.54-2.25
				l9.15-14.49l24.71,15.61l-9.06,14.34L557.07,400.41z"/>
			<path class="st2" d="M532.92,398.51l-7.24,9.22l-3.21-3.32l10.29-13.11l23,18.03l-3.45,4.39L532.92,398.51z"/>
			<path class="st2" d="M515.71,440.86c-3.32-3.52-3.72-7.95-3.05-20.08l-8.86,8.35l-2.49-3.52l12.89-12.16l2.72,2.89
				c-0.29,13.87-0.18,17.43,2.58,20.35c1.8,1.91,4.05,1.89,5.83,0.2c1.63-1.54,2.07-3.23,1.94-5.97l4.21-0.36
				c0.38,3.72-0.65,7.01-3.52,9.71C523.66,444.35,518.76,444.08,515.71,440.86z"/>
		</g>
	</g>
	<g id="Ziel3">
		<path class="st6" d="M200.43,351.99c-29.81-59.55-24.56-127.45,7.93-180.3l-63.91-42.14c-46.97,74.93-54.88,171.84-12.4,256.68
			c42.43,84.75,124.62,136.47,212.63,143.84l4.54-76.43C287.57,447.89,230.18,411.43,200.43,351.99z"/>
		<g>
			<path class="st2" d="M177.21,403.77l24.35-1.8l-8.35-10.77l3.98-2.34l11.98,15.45l-3.38,2.63l-24.64,1.69l7.57,9.77l-3.52,2.72
				l-11.4-14.72L177.21,403.77z"/>
			<path class="st2" d="M191.51,380.06l3.05,4.68l-24.49,15.98l-3.05-4.68L191.51,380.06z"/>
			<path class="st2" d="M158.25,372.33l5.14,9.48l7.17-3.9l-4.47-8.26l3.65-1.98l4.47,8.26l7.55-4.1l-5.5-10.15l3.67-2l8.17,15.07
				l-25.69,13.94l-8.08-14.92L158.25,372.33z"/>
			<path class="st2" d="M171.69,352.19l-4.52-10.82l4.45-1.18l6.43,15.38l-26.96,11.26l-2.16-5.14L171.69,352.19z"/>
			<path class="st2" d="M142.46,316.95c3.45-0.87,6.17,0.73,7.84,3.76c-0.53-3.54,0.89-6.9,5.16-7.97c4.72-1.18,9.42,1.56,11,7.88
				c0.94,3.78,0.31,7.17-1.74,9.95l-3.52-2.2c1.38-2.32,1.78-4.23,1.22-6.41c-0.73-2.96-2.98-4.43-5.85-3.72
				c-3.29,0.82-3.96,2.96-3.18,6.08l0.53,2.18l-3.9,0.31l-0.38-1.47c-0.65-2.58-2.58-4.05-5.3-3.38c-2.25,0.56-3.21,2.52-2.6,4.96
				c0.53,2.14,1.74,3.63,3.81,4.94l-2.25,3.41c-2.96-1.87-4.88-4.45-5.7-7.77C136.21,321.73,138.66,317.9,142.46,316.95z"/>
		</g>
	</g>
</g>
</svg>
